G04 #@! TF.FileFunction,Other,Fab,Top*
%FSLAX46Y46*%
G04 Gerber Fmt 4.6, Leading zero omitted, Abs format (unit mm)*
G04 Created by KiCad (PCBNEW 4.0.7-e2-6376~58~ubuntu16.04.1) date Mon Apr 16 03:07:00 2018*
%MOMM*%
%LPD*%
G01*
G04 APERTURE LIST*
%ADD10C,0.100000*%
%ADD11C,0.150000*%
G04 APERTURE END LIST*
D10*
X156567000Y-101092000D02*
X158472000Y-101092000D01*
X158472000Y-101092000D02*
X158472000Y-108712000D01*
X158472000Y-108712000D02*
X155932000Y-108712000D01*
X155932000Y-108712000D02*
X155932000Y-101727000D01*
X155932000Y-101727000D02*
X156567000Y-101092000D01*
X154112000Y-102042000D02*
X155932000Y-102042000D01*
X154112000Y-102042000D02*
X154112000Y-102682000D01*
X154112000Y-102682000D02*
X155932000Y-102682000D01*
X158472000Y-102042000D02*
X164472000Y-102042000D01*
X164472000Y-102042000D02*
X164472000Y-102682000D01*
X158472000Y-102682000D02*
X164472000Y-102682000D01*
X154112000Y-104582000D02*
X155932000Y-104582000D01*
X154112000Y-104582000D02*
X154112000Y-105222000D01*
X154112000Y-105222000D02*
X155932000Y-105222000D01*
X158472000Y-104582000D02*
X164472000Y-104582000D01*
X164472000Y-104582000D02*
X164472000Y-105222000D01*
X158472000Y-105222000D02*
X164472000Y-105222000D01*
X154112000Y-107122000D02*
X155932000Y-107122000D01*
X154112000Y-107122000D02*
X154112000Y-107762000D01*
X154112000Y-107762000D02*
X155932000Y-107762000D01*
X158472000Y-107122000D02*
X164472000Y-107122000D01*
X164472000Y-107122000D02*
X164472000Y-107762000D01*
X158472000Y-107762000D02*
X164472000Y-107762000D01*
X146308000Y-104503600D02*
X146808000Y-104503600D01*
X146308000Y-105503600D02*
X146308000Y-104503600D01*
X146808000Y-105503600D02*
X146308000Y-105503600D01*
X146808000Y-104503600D02*
X146808000Y-105503600D01*
X150434000Y-105152000D02*
X150434000Y-104652000D01*
X151434000Y-105152000D02*
X150434000Y-105152000D01*
X151434000Y-104652000D02*
X151434000Y-105152000D01*
X150434000Y-104652000D02*
X151434000Y-104652000D01*
D11*
X155078905Y-110069143D02*
X155031286Y-110116762D01*
X154888429Y-110164381D01*
X154793191Y-110164381D01*
X154650333Y-110116762D01*
X154555095Y-110021524D01*
X154507476Y-109926286D01*
X154459857Y-109735810D01*
X154459857Y-109592952D01*
X154507476Y-109402476D01*
X154555095Y-109307238D01*
X154650333Y-109212000D01*
X154793191Y-109164381D01*
X154888429Y-109164381D01*
X155031286Y-109212000D01*
X155078905Y-109259619D01*
X155650333Y-110164381D02*
X155555095Y-110116762D01*
X155507476Y-110069143D01*
X155459857Y-109973905D01*
X155459857Y-109688190D01*
X155507476Y-109592952D01*
X155555095Y-109545333D01*
X155650333Y-109497714D01*
X155793191Y-109497714D01*
X155888429Y-109545333D01*
X155936048Y-109592952D01*
X155983667Y-109688190D01*
X155983667Y-109973905D01*
X155936048Y-110069143D01*
X155888429Y-110116762D01*
X155793191Y-110164381D01*
X155650333Y-110164381D01*
X156412238Y-109497714D02*
X156412238Y-110164381D01*
X156412238Y-109592952D02*
X156459857Y-109545333D01*
X156555095Y-109497714D01*
X156697953Y-109497714D01*
X156793191Y-109545333D01*
X156840810Y-109640571D01*
X156840810Y-110164381D01*
X157317000Y-109497714D02*
X157317000Y-110164381D01*
X157317000Y-109592952D02*
X157364619Y-109545333D01*
X157459857Y-109497714D01*
X157602715Y-109497714D01*
X157697953Y-109545333D01*
X157745572Y-109640571D01*
X157745572Y-110164381D01*
X157983667Y-110259619D02*
X158745572Y-110259619D01*
X159174143Y-109164381D02*
X159269382Y-109164381D01*
X159364620Y-109212000D01*
X159412239Y-109259619D01*
X159459858Y-109354857D01*
X159507477Y-109545333D01*
X159507477Y-109783429D01*
X159459858Y-109973905D01*
X159412239Y-110069143D01*
X159364620Y-110116762D01*
X159269382Y-110164381D01*
X159174143Y-110164381D01*
X159078905Y-110116762D01*
X159031286Y-110069143D01*
X158983667Y-109973905D01*
X158936048Y-109783429D01*
X158936048Y-109545333D01*
X158983667Y-109354857D01*
X159031286Y-109259619D01*
X159078905Y-109212000D01*
X159174143Y-109164381D01*
X160459858Y-110164381D02*
X159888429Y-110164381D01*
X160174143Y-110164381D02*
X160174143Y-109164381D01*
X160078905Y-109307238D01*
X159983667Y-109402476D01*
X159888429Y-109450095D01*
X160793191Y-110164381D02*
X161317001Y-109497714D01*
X160793191Y-109497714D02*
X161317001Y-110164381D01*
X161888429Y-109164381D02*
X161983668Y-109164381D01*
X162078906Y-109212000D01*
X162126525Y-109259619D01*
X162174144Y-109354857D01*
X162221763Y-109545333D01*
X162221763Y-109783429D01*
X162174144Y-109973905D01*
X162126525Y-110069143D01*
X162078906Y-110116762D01*
X161983668Y-110164381D01*
X161888429Y-110164381D01*
X161793191Y-110116762D01*
X161745572Y-110069143D01*
X161697953Y-109973905D01*
X161650334Y-109783429D01*
X161650334Y-109545333D01*
X161697953Y-109354857D01*
X161745572Y-109259619D01*
X161793191Y-109212000D01*
X161888429Y-109164381D01*
X162555096Y-109164381D02*
X163174144Y-109164381D01*
X162840810Y-109545333D01*
X162983668Y-109545333D01*
X163078906Y-109592952D01*
X163126525Y-109640571D01*
X163174144Y-109735810D01*
X163174144Y-109973905D01*
X163126525Y-110069143D01*
X163078906Y-110116762D01*
X162983668Y-110164381D01*
X162697953Y-110164381D01*
X162602715Y-110116762D01*
X162555096Y-110069143D01*
X156654381Y-105235333D02*
X157368667Y-105235333D01*
X157511524Y-105282953D01*
X157606762Y-105378191D01*
X157654381Y-105521048D01*
X157654381Y-105616286D01*
X157654381Y-104235333D02*
X157654381Y-104806762D01*
X157654381Y-104521048D02*
X156654381Y-104521048D01*
X156797238Y-104616286D01*
X156892476Y-104711524D01*
X156940095Y-104806762D01*
X144560381Y-106217886D02*
X144560381Y-105598838D01*
X144941333Y-105932172D01*
X144941333Y-105789314D01*
X144988952Y-105694076D01*
X145036571Y-105646457D01*
X145131810Y-105598838D01*
X145369905Y-105598838D01*
X145465143Y-105646457D01*
X145512762Y-105694076D01*
X145560381Y-105789314D01*
X145560381Y-106075029D01*
X145512762Y-106170267D01*
X145465143Y-106217886D01*
X144560381Y-104979791D02*
X144560381Y-104884552D01*
X144608000Y-104789314D01*
X144655619Y-104741695D01*
X144750857Y-104694076D01*
X144941333Y-104646457D01*
X145179429Y-104646457D01*
X145369905Y-104694076D01*
X145465143Y-104741695D01*
X145512762Y-104789314D01*
X145560381Y-104884552D01*
X145560381Y-104979791D01*
X145512762Y-105075029D01*
X145465143Y-105122648D01*
X145369905Y-105170267D01*
X145179429Y-105217886D01*
X144941333Y-105217886D01*
X144750857Y-105170267D01*
X144655619Y-105122648D01*
X144608000Y-105075029D01*
X144560381Y-104979791D01*
X145560381Y-104217886D02*
X144560381Y-104217886D01*
X145179429Y-104122648D02*
X145560381Y-103836933D01*
X144893714Y-103836933D02*
X145274667Y-104217886D01*
X148360381Y-105170266D02*
X147884190Y-105503600D01*
X148360381Y-105741695D02*
X147360381Y-105741695D01*
X147360381Y-105360742D01*
X147408000Y-105265504D01*
X147455619Y-105217885D01*
X147550857Y-105170266D01*
X147693714Y-105170266D01*
X147788952Y-105217885D01*
X147836571Y-105265504D01*
X147884190Y-105360742D01*
X147884190Y-105741695D01*
X148360381Y-104217885D02*
X148360381Y-104789314D01*
X148360381Y-104503600D02*
X147360381Y-104503600D01*
X147503238Y-104598838D01*
X147598476Y-104694076D01*
X147646095Y-104789314D01*
X150124476Y-105804381D02*
X150743524Y-105804381D01*
X150410190Y-106185333D01*
X150553048Y-106185333D01*
X150648286Y-106232952D01*
X150695905Y-106280571D01*
X150743524Y-106375810D01*
X150743524Y-106613905D01*
X150695905Y-106709143D01*
X150648286Y-106756762D01*
X150553048Y-106804381D01*
X150267333Y-106804381D01*
X150172095Y-106756762D01*
X150124476Y-106709143D01*
X151600667Y-105804381D02*
X151410190Y-105804381D01*
X151314952Y-105852000D01*
X151267333Y-105899619D01*
X151172095Y-106042476D01*
X151124476Y-106232952D01*
X151124476Y-106613905D01*
X151172095Y-106709143D01*
X151219714Y-106756762D01*
X151314952Y-106804381D01*
X151505429Y-106804381D01*
X151600667Y-106756762D01*
X151648286Y-106709143D01*
X151695905Y-106613905D01*
X151695905Y-106375810D01*
X151648286Y-106280571D01*
X151600667Y-106232952D01*
X151505429Y-106185333D01*
X151314952Y-106185333D01*
X151219714Y-106232952D01*
X151172095Y-106280571D01*
X151124476Y-106375810D01*
X150767334Y-104004381D02*
X150434000Y-103528190D01*
X150195905Y-104004381D02*
X150195905Y-103004381D01*
X150576858Y-103004381D01*
X150672096Y-103052000D01*
X150719715Y-103099619D01*
X150767334Y-103194857D01*
X150767334Y-103337714D01*
X150719715Y-103432952D01*
X150672096Y-103480571D01*
X150576858Y-103528190D01*
X150195905Y-103528190D01*
X151148286Y-103099619D02*
X151195905Y-103052000D01*
X151291143Y-103004381D01*
X151529239Y-103004381D01*
X151624477Y-103052000D01*
X151672096Y-103099619D01*
X151719715Y-103194857D01*
X151719715Y-103290095D01*
X151672096Y-103432952D01*
X151100667Y-104004381D01*
X151719715Y-104004381D01*
M02*
