G04 #@! TF.FileFunction,Copper,L2,Bot,Signal*
%FSLAX46Y46*%
G04 Gerber Fmt 4.6, Leading zero omitted, Abs format (unit mm)*
G04 Created by KiCad (PCBNEW 4.0.7-e2-6376~58~ubuntu16.04.1) date Mon Apr 16 03:32:28 2018*
%MOMM*%
%LPD*%
G01*
G04 APERTURE LIST*
%ADD10C,0.100000*%
%ADD11R,1.700000X1.700000*%
%ADD12O,1.700000X1.700000*%
%ADD13R,1.000000X1.000000*%
%ADD14O,1.000000X1.000000*%
%ADD15O,1.250000X0.950000*%
%ADD16O,1.000000X1.550000*%
%ADD17O,1.998980X1.998980*%
%ADD18R,1.998980X1.998980*%
%ADD19C,2.250000*%
%ADD20C,1.524000*%
%ADD21R,1.020000X1.020000*%
%ADD22C,0.600000*%
%ADD23C,0.250000*%
%ADD24C,0.152400*%
%ADD25C,0.254000*%
G04 APERTURE END LIST*
D10*
D11*
X153670000Y-167005000D03*
D12*
X153670000Y-169545000D03*
X151130000Y-167005000D03*
X151130000Y-169545000D03*
X148590000Y-167005000D03*
X148590000Y-169545000D03*
X146050000Y-167005000D03*
X146050000Y-169545000D03*
X143510000Y-167005000D03*
X143510000Y-169545000D03*
D13*
X137160000Y-98425000D03*
D14*
X138430000Y-98425000D03*
X139700000Y-98425000D03*
D13*
X157480000Y-98425000D03*
D14*
X158750000Y-98425000D03*
X160020000Y-98425000D03*
D15*
X146090000Y-173910000D03*
X151090000Y-173910000D03*
D16*
X145090000Y-176610000D03*
X152090000Y-176610000D03*
D13*
X170180000Y-135890000D03*
D14*
X170180000Y-137160000D03*
X170180000Y-138430000D03*
D13*
X147320000Y-97790000D03*
D14*
X148590000Y-97790000D03*
X149860000Y-97790000D03*
D13*
X127000000Y-138430000D03*
D14*
X127000000Y-137160000D03*
X127000000Y-135890000D03*
D17*
X127000000Y-151130000D03*
D18*
X127000000Y-148590000D03*
D19*
X132451100Y-117353600D03*
X126451100Y-117353600D03*
D20*
X137451100Y-107353600D03*
X137451100Y-115353600D03*
D19*
X126451100Y-105353600D03*
X132451100Y-105353600D03*
X164551100Y-105353600D03*
X170551100Y-105353600D03*
D20*
X159551100Y-115353600D03*
X159551100Y-107353600D03*
D19*
X170551100Y-117353600D03*
X164551100Y-117353600D03*
X164551100Y-162503600D03*
X170551100Y-162503600D03*
D20*
X159551100Y-172503600D03*
X159551100Y-164503600D03*
D19*
X170551100Y-174503600D03*
X164551100Y-174503600D03*
X132451100Y-174503600D03*
X126451100Y-174503600D03*
D20*
X137451100Y-164503600D03*
X137451100Y-172503600D03*
D19*
X126451100Y-162503600D03*
X132451100Y-162503600D03*
D20*
X142969444Y-108477545D03*
X138726804Y-104234905D03*
X132080000Y-99568000D03*
X134059899Y-97588101D03*
X154088680Y-108477545D03*
X158331320Y-104234905D03*
X162998225Y-97588101D03*
X164978124Y-99568000D03*
D21*
X150495000Y-104710000D03*
X146685000Y-104710000D03*
X150495000Y-101030000D03*
X146685000Y-101030000D03*
D22*
X139573000Y-150241000D03*
X139073000Y-149741000D03*
X140073000Y-149741000D03*
X140073000Y-150741000D03*
X139073000Y-150741000D03*
X155368011Y-169408211D03*
X158012968Y-126804331D03*
X146321803Y-131677577D03*
X153014584Y-161728576D03*
X140526714Y-140831167D03*
X138406252Y-154074306D03*
X164738384Y-146841473D03*
X163283447Y-145458980D03*
X153910428Y-125847251D03*
X149974395Y-126259811D03*
X155536743Y-135423459D03*
X146348251Y-128393599D03*
X144988530Y-128089078D03*
X150571652Y-128117192D03*
X153963695Y-111420516D03*
X146896573Y-145886909D03*
X149317524Y-146261201D03*
X135838011Y-151620730D03*
X135838011Y-150378416D03*
X133705991Y-153924000D03*
X144526000Y-147828000D03*
X129032000Y-101473000D03*
X129032000Y-98425000D03*
X154940000Y-113157000D03*
X151557830Y-157108493D03*
X151638000Y-154305000D03*
X160909000Y-144780000D03*
X167513000Y-148336000D03*
X151297693Y-148417107D03*
X160401000Y-138684000D03*
X137795000Y-152400000D03*
X138938000Y-140081000D03*
X135763000Y-137033000D03*
X137033000Y-135890000D03*
X132715000Y-132715000D03*
X130175000Y-137160000D03*
X168275000Y-101600000D03*
X168275000Y-99060000D03*
X152400000Y-99695000D03*
X150495000Y-99695000D03*
X149860000Y-111125000D03*
X130810000Y-159385000D03*
X130810000Y-155575000D03*
X154086510Y-123233364D03*
X154051000Y-126899662D03*
X153254568Y-124489744D03*
X149809243Y-125463033D03*
X148135196Y-127478840D03*
X147076816Y-125644343D03*
X137160000Y-129540000D03*
X132080000Y-140335000D03*
X133350000Y-151130000D03*
X133350000Y-153035000D03*
X161031615Y-142404216D03*
X152119556Y-113569605D03*
X158443021Y-118395241D03*
X157676454Y-145469687D03*
X154963752Y-116461223D03*
X148768032Y-148562696D03*
X148967124Y-152464884D03*
X154592020Y-146839940D03*
X161269680Y-118950740D03*
X149799040Y-116611400D03*
X147379401Y-163682992D03*
X146624040Y-162316160D03*
X143717709Y-164072062D03*
X145816683Y-137902954D03*
X136204181Y-142529979D03*
X135697603Y-139234835D03*
X151909814Y-109717362D03*
X147657564Y-118226243D03*
X146729378Y-116689580D03*
X151130000Y-154940000D03*
X156845000Y-153670000D03*
X158750000Y-154940000D03*
X156210000Y-120015000D03*
X154305000Y-132715000D03*
X142875000Y-125730000D03*
X141886577Y-140932925D03*
X153556046Y-112654480D03*
X150905333Y-118904172D03*
X154299513Y-120053216D03*
X142998521Y-127621674D03*
X143189732Y-131375070D03*
X156004051Y-105842468D03*
X146514319Y-135828820D03*
X145948009Y-148336000D03*
X142240000Y-135001000D03*
X149300933Y-153939186D03*
X144399000Y-134747000D03*
X142670211Y-157885588D03*
X150114000Y-152273000D03*
X146177000Y-150241000D03*
X144434858Y-163852481D03*
X141624992Y-146313095D03*
X132852230Y-140700739D03*
X138498759Y-127720354D03*
X145415000Y-172085000D03*
X147320000Y-165735000D03*
X136168538Y-144328582D03*
X149975421Y-141119889D03*
X134365257Y-140769513D03*
X139169380Y-131109131D03*
X134704227Y-142520318D03*
X154508894Y-136841182D03*
X156931632Y-139868920D03*
X156296343Y-146221811D03*
X155035630Y-161855723D03*
X139752439Y-131604997D03*
X135153031Y-140513174D03*
X142637782Y-163179692D03*
X135454170Y-142530502D03*
X133602491Y-140656974D03*
X139577439Y-129664677D03*
X133958693Y-142602158D03*
X158830901Y-133921500D03*
X160134300Y-132575300D03*
X147332688Y-118925052D03*
X146442493Y-117381473D03*
X158720962Y-120021191D03*
X162321425Y-125729106D03*
X152956013Y-119121724D03*
X139501573Y-118186297D03*
X156845000Y-118745000D03*
X145832675Y-139384894D03*
X147707991Y-137202223D03*
X128778000Y-141732000D03*
X144018000Y-141732000D03*
X148215506Y-135568099D03*
X149288986Y-104745103D03*
X147350503Y-111420233D03*
X145770600Y-110246160D03*
X151963495Y-112702922D03*
X143400532Y-112551071D03*
X155366248Y-113781251D03*
X155333237Y-111946519D03*
X156516611Y-167695311D03*
X152770840Y-164231320D03*
X149547580Y-158186120D03*
X151711276Y-159427678D03*
X155847717Y-160755044D03*
X153214912Y-159572424D03*
X152063871Y-162922492D03*
X152527151Y-160662039D03*
X145948969Y-164371719D03*
X142308580Y-164538660D03*
X147345008Y-120181989D03*
X146411024Y-120869119D03*
X150981680Y-141110351D03*
X150215600Y-172085000D03*
X160910873Y-140067865D03*
X155613537Y-136374515D03*
X149606137Y-122174137D03*
X147828000Y-121920000D03*
X155982602Y-125682414D03*
X154568210Y-125486918D03*
X149658399Y-126940005D03*
X148317633Y-123765010D03*
X148497089Y-138060631D03*
X158120077Y-124287981D03*
X156963795Y-121329965D03*
X149263316Y-138152577D03*
X155464017Y-120082287D03*
X152412643Y-121593760D03*
X152717169Y-128173913D03*
X156046858Y-122611895D03*
X153774054Y-121934112D03*
X153774054Y-128251537D03*
X148214407Y-139950850D03*
X148703574Y-139382314D03*
X160892349Y-131140200D03*
X158330900Y-133134100D03*
X152015490Y-106303284D03*
X142524035Y-130723537D03*
X148981115Y-106106028D03*
X145542000Y-104648000D03*
X163778488Y-143255445D03*
X149349611Y-139001323D03*
X148890528Y-136190497D03*
X148123303Y-131718411D03*
X157387844Y-125478948D03*
X151666255Y-119808401D03*
X157559814Y-126207951D03*
X153714343Y-125092825D03*
X150724768Y-125779732D03*
X150587379Y-124210046D03*
X144032476Y-130702291D03*
X143701708Y-115098892D03*
X145082970Y-130525995D03*
X143082396Y-114486793D03*
X144390931Y-143898304D03*
X137311356Y-143023760D03*
X140379007Y-114554000D03*
X137431010Y-136639321D03*
X144699041Y-112830071D03*
X151069778Y-137802960D03*
X145406361Y-127395054D03*
X151614455Y-130885005D03*
X151795311Y-110787617D03*
X150456567Y-138507008D03*
X149747561Y-144660507D03*
X143817555Y-161437414D03*
X144065158Y-160670650D03*
X147205511Y-147747862D03*
X143197447Y-159761869D03*
X144453760Y-131753266D03*
X137100010Y-146621500D03*
X142176500Y-132232400D03*
X143735003Y-159238749D03*
X146318937Y-138474507D03*
X151072772Y-136548951D03*
X145507477Y-159082650D03*
X155346585Y-142503753D03*
X147075190Y-149250400D03*
X162872926Y-147155401D03*
X157411367Y-149633465D03*
X148592832Y-154384124D03*
X152208329Y-155865363D03*
X159885912Y-147977028D03*
X162687000Y-145923000D03*
X134620000Y-159004000D03*
X133223000Y-158496000D03*
D23*
X151090000Y-173910000D02*
X151965000Y-173910000D01*
X155368011Y-170506989D02*
X155368011Y-169832475D01*
X155368011Y-169832475D02*
X155368011Y-169408211D01*
X151965000Y-173910000D02*
X155368011Y-170506989D01*
X157712969Y-127104330D02*
X158012968Y-126804331D01*
X157644300Y-127172999D02*
X157712969Y-127104330D01*
X155236176Y-127172999D02*
X157644300Y-127172999D01*
X153910428Y-125847251D02*
X155236176Y-127172999D01*
X146321803Y-131253313D02*
X146321803Y-131677577D01*
X146321803Y-129846615D02*
X146321803Y-131253313D01*
X144988530Y-128089078D02*
X144988530Y-128513342D01*
X144988530Y-128513342D02*
X146321803Y-129846615D01*
X153785992Y-160295227D02*
X153014584Y-161066635D01*
X153785992Y-159639539D02*
X153785992Y-160295227D01*
X153793954Y-159631577D02*
X153785992Y-159639539D01*
X153014584Y-161066635D02*
X153014584Y-161304312D01*
X153793954Y-159282370D02*
X153793954Y-159631577D01*
X151653356Y-157141772D02*
X153793954Y-159282370D01*
X153014584Y-161304312D02*
X153014584Y-161728576D01*
X140526714Y-140831167D02*
X139776547Y-140081000D01*
X139776547Y-140081000D02*
X138938000Y-140081000D01*
X138406252Y-153011252D02*
X137795000Y-152400000D01*
X138406252Y-154074306D02*
X138406252Y-153011252D01*
X164738384Y-146841473D02*
X164738384Y-146931892D01*
X164738384Y-146931892D02*
X166142492Y-148336000D01*
X166142492Y-148336000D02*
X167513000Y-148336000D01*
X163283447Y-145458980D02*
X162604467Y-144780000D01*
X162604467Y-144780000D02*
X160909000Y-144780000D01*
X152400000Y-99695000D02*
X152405137Y-99700137D01*
X152405137Y-99700137D02*
X158744863Y-99700137D01*
X158744863Y-99700137D02*
X159520001Y-98924999D01*
X159520001Y-98924999D02*
X160020000Y-98425000D01*
X149974395Y-126390429D02*
X149974395Y-126259811D01*
X150204229Y-126620263D02*
X149974395Y-126390429D01*
X160401000Y-138684000D02*
X157140459Y-135423459D01*
X157140459Y-135423459D02*
X155536743Y-135423459D01*
X146348251Y-128393599D02*
X149137320Y-128393599D01*
X149137320Y-128393599D02*
X150246068Y-127284851D01*
X150246068Y-127284851D02*
X150246068Y-126662102D01*
X150246068Y-126662102D02*
X150204229Y-126620263D01*
X150571652Y-128117192D02*
X150571652Y-126987686D01*
X150571652Y-126987686D02*
X150204229Y-126620263D01*
X149860000Y-111125000D02*
X149860000Y-105925499D01*
X149254605Y-105320104D02*
X148952579Y-105320104D01*
X148653579Y-103631421D02*
X150495000Y-101790000D01*
X150495000Y-101790000D02*
X150495000Y-101030000D01*
X148653579Y-105021104D02*
X148653579Y-103631421D01*
X148952579Y-105320104D02*
X148653579Y-105021104D01*
X149860000Y-105925499D02*
X149254605Y-105320104D01*
X154940000Y-112396821D02*
X153963695Y-111420516D01*
X154940000Y-113157000D02*
X154940000Y-112396821D01*
X146472309Y-145886909D02*
X146896573Y-145886909D01*
X146467091Y-145886909D02*
X146472309Y-145886909D01*
X144526000Y-147828000D02*
X146467091Y-145886909D01*
X149317524Y-146436938D02*
X149317524Y-146261201D01*
X151297693Y-148417107D02*
X149317524Y-146436938D01*
X151982094Y-157108493D02*
X151557830Y-157108493D01*
X152783330Y-156307257D02*
X151982094Y-157108493D01*
X152062264Y-154305000D02*
X152783330Y-155026066D01*
X151638000Y-154305000D02*
X152062264Y-154305000D01*
X152783330Y-155026066D02*
X152783330Y-156307257D01*
X132461000Y-153924000D02*
X133281727Y-153924000D01*
X130810000Y-155575000D02*
X132461000Y-153924000D01*
X135838011Y-150378416D02*
X135838011Y-151620730D01*
X133281727Y-153924000D02*
X133705991Y-153924000D01*
X129032000Y-98425000D02*
X129032000Y-101473000D01*
X131953000Y-141351000D02*
X130175000Y-139573000D01*
X130175000Y-139573000D02*
X130175000Y-137160000D01*
X137668000Y-141351000D02*
X131953000Y-141351000D01*
X138938000Y-140081000D02*
X137668000Y-141351000D01*
X137033000Y-135890000D02*
X136906000Y-135890000D01*
X136906000Y-135890000D02*
X135763000Y-137033000D01*
X130175000Y-137160000D02*
X130175000Y-135255000D01*
X130175000Y-135255000D02*
X132715000Y-132715000D01*
X168275000Y-99060000D02*
X168275000Y-101600000D01*
X160020000Y-98425000D02*
X160519999Y-98924999D01*
X163659088Y-98425000D02*
X167640000Y-98425000D01*
X160519999Y-98924999D02*
X163159089Y-98924999D01*
X163159089Y-98924999D02*
X163659088Y-98425000D01*
X167640000Y-98425000D02*
X168275000Y-99060000D01*
X150495000Y-101030000D02*
X150495000Y-99695000D01*
X154086510Y-123657802D02*
X154086510Y-123657628D01*
X154086510Y-123657628D02*
X154086510Y-123233364D01*
X153254568Y-124489744D02*
X154086510Y-123657802D01*
X153751001Y-126599663D02*
X154051000Y-126899662D01*
X153139342Y-125988004D02*
X153751001Y-126599663D01*
X153139342Y-124816824D02*
X153139342Y-125988004D01*
X153254568Y-124489744D02*
X153254568Y-124701598D01*
X153254568Y-124701598D02*
X153139342Y-124816824D01*
X149225000Y-123190000D02*
X149809243Y-123774243D01*
X147955000Y-123190000D02*
X149225000Y-123190000D01*
X147076816Y-124068184D02*
X147955000Y-123190000D01*
X149809243Y-125038769D02*
X149809243Y-125463033D01*
X147076816Y-125644343D02*
X147076816Y-124068184D01*
X149809243Y-123774243D02*
X149809243Y-125038769D01*
X148135196Y-127478840D02*
X148135196Y-127198832D01*
X148135196Y-127198832D02*
X147076816Y-126140452D01*
X147076816Y-126140452D02*
X147076816Y-125644343D01*
X132080000Y-140335000D02*
X132080000Y-134620000D01*
X132080000Y-134620000D02*
X137160000Y-129540000D01*
X133350000Y-153035000D02*
X133350000Y-151130000D01*
X161031615Y-142404216D02*
X161569679Y-141866152D01*
X161569679Y-141866152D02*
X161569679Y-119250739D01*
X161569679Y-119250739D02*
X161269680Y-118950740D01*
X152119556Y-113569605D02*
X151723501Y-113965660D01*
X151723501Y-113965660D02*
X151723501Y-114209973D01*
X151723501Y-114209973D02*
X149799040Y-116134434D01*
X149799040Y-116134434D02*
X149799040Y-116611400D01*
X154963752Y-116461223D02*
X156509003Y-116461223D01*
X156509003Y-116461223D02*
X158443021Y-118395241D01*
X157676454Y-145469687D02*
X155962273Y-145469687D01*
X155962273Y-145469687D02*
X154592020Y-146839940D01*
X148967124Y-148761788D02*
X148768032Y-148562696D01*
X148967124Y-152464884D02*
X148967124Y-148761788D01*
X147079402Y-163382993D02*
X147379401Y-163682992D01*
X146624040Y-162316160D02*
X146624040Y-162927631D01*
X146624040Y-162927631D02*
X147079402Y-163382993D01*
X143717709Y-163117230D02*
X143717709Y-163647798D01*
X136204181Y-142529979D02*
X136204181Y-142954243D01*
X135539989Y-152158280D02*
X135539989Y-154939510D01*
X135539989Y-143618435D02*
X135539989Y-149847718D01*
X135263001Y-151881292D02*
X135539989Y-152158280D01*
X135263001Y-150124706D02*
X135263001Y-151881292D01*
X135539989Y-149847718D02*
X135263001Y-150124706D01*
X135539989Y-154939510D02*
X143717709Y-163117230D01*
X136204181Y-142954243D02*
X135539989Y-143618435D01*
X143717709Y-163647798D02*
X143717709Y-164072062D01*
X145816683Y-137902954D02*
X145743135Y-137902954D01*
X145743135Y-137902954D02*
X142084208Y-141561881D01*
X142084208Y-141561881D02*
X141419823Y-141561881D01*
X141419823Y-141561881D02*
X141272903Y-141414961D01*
X141272903Y-141414961D02*
X141272903Y-140711839D01*
X141272903Y-140711839D02*
X141451306Y-140533436D01*
X141451306Y-140533436D02*
X141451306Y-139075152D01*
X141451306Y-139075152D02*
X141310990Y-138934836D01*
X141310990Y-138934836D02*
X135997602Y-138934836D01*
X135997602Y-138934836D02*
X135697603Y-139234835D01*
X151909814Y-109717362D02*
X153149631Y-108477545D01*
X153149631Y-108477545D02*
X154088680Y-108477545D01*
X147657564Y-117617766D02*
X147657564Y-118226243D01*
X146729378Y-116689580D02*
X147657564Y-117617766D01*
X151130000Y-154940000D02*
X150301747Y-154940000D01*
X150301747Y-154940000D02*
X149300933Y-153939186D01*
X158750000Y-154940000D02*
X158115000Y-154940000D01*
X158115000Y-154940000D02*
X156845000Y-153670000D01*
X156950955Y-120755955D02*
X156210000Y-120015000D01*
X157480000Y-120755955D02*
X156950955Y-120755955D01*
X159384999Y-127635000D02*
X159384999Y-122660954D01*
X159384999Y-122660954D02*
X157480000Y-120755955D01*
X154305000Y-132715000D02*
X159384999Y-127635000D01*
X142875000Y-125730000D02*
X142875000Y-127498153D01*
X142875000Y-127498153D02*
X142998521Y-127621674D01*
X141886577Y-140932925D02*
X141859000Y-140905348D01*
X141859000Y-140905348D02*
X141859000Y-135382000D01*
X141859000Y-135382000D02*
X142240000Y-135001000D01*
X153556046Y-112654480D02*
X153725367Y-112823801D01*
X153725367Y-112823801D02*
X153725367Y-116784633D01*
X153725367Y-116784633D02*
X151765000Y-118745000D01*
X151605828Y-118904172D02*
X151329597Y-118904172D01*
X151765000Y-118745000D02*
X151605828Y-118904172D01*
X151329597Y-118904172D02*
X150905333Y-118904172D01*
X153875249Y-120053216D02*
X154299513Y-120053216D01*
X153073216Y-120053216D02*
X153875249Y-120053216D01*
X151765000Y-118745000D02*
X153073216Y-120053216D01*
X142998521Y-127621674D02*
X143288879Y-127912032D01*
X143288879Y-127912032D02*
X143288879Y-131275923D01*
X143288879Y-131275923D02*
X143189732Y-131375070D01*
X156723757Y-105842468D02*
X156004051Y-105842468D01*
X158331320Y-104234905D02*
X156723757Y-105842468D01*
X144399000Y-134747000D02*
X145432499Y-134747000D01*
X145432499Y-134747000D02*
X146514319Y-135828820D01*
X146177000Y-148564991D02*
X145948009Y-148336000D01*
X146177000Y-150241000D02*
X146177000Y-148564991D01*
X150114000Y-152273000D02*
X149300933Y-153086067D01*
X149300933Y-153086067D02*
X149300933Y-153514922D01*
X149300933Y-153514922D02*
X149300933Y-153939186D01*
X136468537Y-155248745D02*
X144434858Y-163215066D01*
X136468537Y-144628581D02*
X136468537Y-155248745D01*
X144434858Y-163215066D02*
X144434858Y-163428217D01*
X136168538Y-144328582D02*
X136468537Y-144628581D01*
X144434858Y-163428217D02*
X144434858Y-163852481D01*
X141624992Y-146239002D02*
X139714572Y-144328582D01*
X139714572Y-144328582D02*
X136168538Y-144328582D01*
X141624992Y-146313095D02*
X141624992Y-146239002D01*
X132852230Y-140700739D02*
X132944757Y-140608212D01*
X132944757Y-140608212D02*
X132944757Y-135164937D01*
X132944757Y-135164937D02*
X138498759Y-129610935D01*
X138498759Y-129610935D02*
X138498759Y-128144618D01*
X138498759Y-128144618D02*
X138498759Y-127720354D01*
X147320000Y-165735000D02*
X147320000Y-170180000D01*
X147320000Y-170180000D02*
X145415000Y-172085000D01*
X153670000Y-147262269D02*
X153670000Y-153886737D01*
X149962557Y-141132753D02*
X149962557Y-143554826D01*
X149975421Y-141119889D02*
X149962557Y-141132753D01*
X154485933Y-159465477D02*
X154186003Y-159765407D01*
X154485933Y-154702670D02*
X154485933Y-159465477D01*
X153670000Y-153886737D02*
X154485933Y-154702670D01*
X154186003Y-159765407D02*
X154186003Y-160488019D01*
X154186003Y-160488019D02*
X153670000Y-161004022D01*
X153670000Y-161004022D02*
X153670000Y-167005000D01*
X149962557Y-143554826D02*
X153670000Y-147262269D01*
X134365257Y-140769513D02*
X134430479Y-140704291D01*
X134430479Y-135848032D02*
X139169380Y-131109131D01*
X134430479Y-140704291D02*
X134430479Y-135848032D01*
X148568419Y-164443419D02*
X146942311Y-164443419D01*
X146942311Y-164443419D02*
X146154332Y-163655440D01*
X145602328Y-163655440D02*
X144275728Y-164982040D01*
X144275728Y-164982040D02*
X143572879Y-164982040D01*
X134693677Y-156102838D02*
X134693677Y-152443368D01*
X134693677Y-152443368D02*
X134462979Y-152212670D01*
X151130000Y-167005000D02*
X148568419Y-164443419D01*
X134462979Y-152212670D02*
X134462979Y-149793328D01*
X134704227Y-142944582D02*
X134704227Y-142520318D01*
X143572879Y-164982040D02*
X134693677Y-156102838D01*
X134462979Y-149793328D02*
X134704227Y-149552080D01*
X134704227Y-149552080D02*
X134704227Y-142944582D01*
X146154332Y-163655440D02*
X145602328Y-163655440D01*
X155035630Y-161431459D02*
X155035630Y-161855723D01*
X155035630Y-160047180D02*
X155035630Y-161431459D01*
X156270998Y-158811812D02*
X155035630Y-160047180D01*
X156270998Y-153394478D02*
X156270998Y-158811812D01*
X156296343Y-153369133D02*
X156270998Y-153394478D01*
X156296343Y-146221811D02*
X156296343Y-153369133D01*
X156931632Y-139868920D02*
X156931632Y-139263920D01*
X156931632Y-139263920D02*
X154508894Y-136841182D01*
X139752439Y-131604997D02*
X139752439Y-131628752D01*
X139752439Y-131628752D02*
X135086521Y-136294670D01*
X135086521Y-136294670D02*
X135086521Y-140446664D01*
X135086521Y-140446664D02*
X135153031Y-140513174D01*
X135093688Y-155635598D02*
X142337783Y-162879693D01*
X134862990Y-152046981D02*
X135093688Y-152277679D01*
X134862990Y-149959017D02*
X134862990Y-152046981D01*
X135139978Y-143268958D02*
X135139978Y-149682029D01*
X142337783Y-162879693D02*
X142637782Y-163179692D01*
X135454170Y-142530502D02*
X135454170Y-142954766D01*
X135139978Y-149682029D02*
X134862990Y-149959017D01*
X135454170Y-142954766D02*
X135139978Y-143268958D01*
X135093688Y-152277679D02*
X135093688Y-155635598D01*
X133602491Y-140656974D02*
X133669770Y-140589695D01*
X133669770Y-140589695D02*
X133669770Y-135572346D01*
X133669770Y-135572346D02*
X139577439Y-129664677D01*
X133958693Y-152274084D02*
X133958693Y-143026422D01*
X133958693Y-143026422D02*
X133958693Y-142602158D01*
X134281001Y-152596392D02*
X133958693Y-152274084D01*
X134281001Y-157776001D02*
X134281001Y-152596392D01*
X143510000Y-167005000D02*
X134281001Y-157776001D01*
X160134300Y-132575300D02*
X158830901Y-133878699D01*
X158830901Y-133878699D02*
X158830901Y-133921500D01*
X146442493Y-118034857D02*
X146442493Y-117381473D01*
X147332688Y-118925052D02*
X146442493Y-118034857D01*
X157444771Y-118745000D02*
X158420963Y-119721192D01*
X156845000Y-118745000D02*
X157444771Y-118745000D01*
X158420963Y-119721192D02*
X158720962Y-120021191D01*
X162021426Y-126029105D02*
X162321425Y-125729106D01*
X161969745Y-126080786D02*
X162021426Y-126029105D01*
X161969745Y-129656851D02*
X161969745Y-126080786D01*
X169472894Y-137160000D02*
X161969745Y-129656851D01*
X170180000Y-137160000D02*
X169472894Y-137160000D01*
X153256012Y-118821725D02*
X152956013Y-119121724D01*
X153332737Y-118745000D02*
X153256012Y-118821725D01*
X156845000Y-118745000D02*
X153332737Y-118745000D01*
X139501573Y-124658427D02*
X139501573Y-118186297D01*
X127000000Y-137160000D02*
X139501573Y-124658427D01*
X154705658Y-143933002D02*
X164676998Y-143933002D01*
X145832675Y-139384894D02*
X146181899Y-139384894D01*
X146181899Y-139384894D02*
X147322916Y-140525911D01*
X147322916Y-140525911D02*
X151298567Y-140525911D01*
X151298567Y-140525911D02*
X154705658Y-143933002D01*
X164676998Y-143933002D02*
X170180000Y-138430000D01*
X150494364Y-129009307D02*
X151505011Y-127998660D01*
X151280001Y-99210001D02*
X150359999Y-98289999D01*
X151280001Y-105440001D02*
X151280001Y-99210001D01*
X149468657Y-136623150D02*
X149468657Y-129776493D01*
X151505011Y-120569015D02*
X150132042Y-119196046D01*
X150235843Y-129009307D02*
X150494364Y-129009307D01*
X149468657Y-129776493D02*
X150235843Y-129009307D01*
X150984217Y-105735785D02*
X151280001Y-105440001D01*
X148889584Y-137202223D02*
X149468657Y-136623150D01*
X150359999Y-98289999D02*
X149860000Y-97790000D01*
X151280571Y-111391585D02*
X150984217Y-111095231D01*
X152976346Y-112993551D02*
X152976346Y-112151345D01*
X153300832Y-115539300D02*
X153300832Y-113318037D01*
X151505011Y-127998660D02*
X151505011Y-120569015D01*
X150984217Y-111095231D02*
X150984217Y-105735785D01*
X150132042Y-118708090D02*
X153300832Y-115539300D01*
X150132042Y-119196046D02*
X150132042Y-118708090D01*
X152976346Y-112151345D02*
X152216586Y-111391585D01*
X153300832Y-113318037D02*
X152976346Y-112993551D01*
X152216586Y-111391585D02*
X151280571Y-111391585D01*
X147707991Y-137202223D02*
X148889584Y-137202223D01*
X137696334Y-141853011D02*
X131797666Y-141853011D01*
X129202264Y-141732000D02*
X128778000Y-141732000D01*
X131797666Y-141853011D02*
X131676655Y-141732000D01*
X137875322Y-142031999D02*
X137696334Y-141853011D01*
X144018000Y-141732000D02*
X143718001Y-142031999D01*
X143718001Y-142031999D02*
X137875322Y-142031999D01*
X131676655Y-141732000D02*
X129202264Y-141732000D01*
X151909290Y-111791595D02*
X151114883Y-111791595D01*
X152837801Y-113453325D02*
X152560711Y-113176235D01*
X146466602Y-127452778D02*
X146466602Y-122356394D01*
X151114883Y-111791595D02*
X150495000Y-111171712D01*
X149694466Y-119128530D02*
X149694466Y-118096468D01*
X145762369Y-128157011D02*
X146466602Y-127452778D01*
X150495000Y-111171712D02*
X150495000Y-105470000D01*
X152560711Y-112443016D02*
X151909290Y-111791595D01*
X146914570Y-134267163D02*
X146914570Y-129815308D01*
X149694466Y-118096468D02*
X152837801Y-114953133D01*
X146466602Y-122356394D02*
X149694466Y-119128530D01*
X152560711Y-113176235D02*
X152560711Y-112443016D01*
X150495000Y-105470000D02*
X150495000Y-104710000D01*
X145762369Y-128663107D02*
X145762369Y-128157011D01*
X146914570Y-129815308D02*
X145762369Y-128663107D01*
X148215506Y-135568099D02*
X146914570Y-134267163D01*
X152837801Y-114953133D02*
X152837801Y-113453325D01*
X149324089Y-104710000D02*
X149288986Y-104745103D01*
X150495000Y-104710000D02*
X149324089Y-104710000D01*
X145770600Y-110246160D02*
X146944673Y-111420233D01*
X146944673Y-111420233D02*
X147350503Y-111420233D01*
X151963495Y-112702922D02*
X151921551Y-112660978D01*
X151921551Y-112660978D02*
X147493373Y-112660978D01*
X147493373Y-112660978D02*
X147083467Y-112251072D01*
X147083467Y-112251072D02*
X143700531Y-112251072D01*
X143700531Y-112251072D02*
X143400532Y-112551071D01*
X155366248Y-113781251D02*
X155450128Y-113781251D01*
X155450128Y-113781251D02*
X156997477Y-115328600D01*
X156997477Y-115328600D02*
X157296300Y-115328600D01*
X157296300Y-115328600D02*
X157321300Y-115353600D01*
X157321300Y-115353600D02*
X159551100Y-115353600D01*
X159551100Y-107353600D02*
X158961545Y-107353600D01*
X158961545Y-107353600D02*
X155333237Y-110981908D01*
X155333237Y-110981908D02*
X155333237Y-111946519D01*
X159551100Y-170729800D02*
X156816610Y-167995310D01*
X159551100Y-172503600D02*
X159551100Y-170729800D01*
X156816610Y-167995310D02*
X156516611Y-167695311D01*
X152346576Y-164231320D02*
X152770840Y-164231320D01*
X149547580Y-161618864D02*
X152160036Y-164231320D01*
X149547580Y-158186120D02*
X149547580Y-161618864D01*
X152160036Y-164231320D02*
X152346576Y-164231320D01*
X151856022Y-159572424D02*
X151711276Y-159427678D01*
X153214912Y-159572424D02*
X151856022Y-159572424D01*
X155847717Y-160800217D02*
X155847717Y-160755044D01*
X159551100Y-164503600D02*
X155847717Y-160800217D01*
X152063871Y-161125319D02*
X152063871Y-162922492D01*
X152527151Y-160662039D02*
X152063871Y-161125319D01*
X144938637Y-165382051D02*
X145648970Y-164671718D01*
X145648970Y-164671718D02*
X145948969Y-164371719D01*
X142308580Y-164538660D02*
X143151971Y-165382051D01*
X143151971Y-165382051D02*
X144938637Y-165382051D01*
X147098154Y-120181989D02*
X147345008Y-120181989D01*
X146411024Y-120869119D02*
X147098154Y-120181989D01*
X150639864Y-172085000D02*
X150215600Y-172085000D01*
X152793522Y-172085000D02*
X150639864Y-172085000D01*
X154794001Y-170084521D02*
X152793522Y-172085000D01*
X154586014Y-160653708D02*
X154252947Y-160986775D01*
X150981680Y-141110351D02*
X150981680Y-144008249D01*
X154070011Y-147096580D02*
X154070011Y-153721048D01*
X150981680Y-144008249D02*
X154070011Y-147096580D01*
X154794001Y-162721105D02*
X154794001Y-170084521D01*
X154252947Y-162180051D02*
X154794001Y-162721105D01*
X154252947Y-160986775D02*
X154252947Y-162180051D01*
X154885944Y-159631166D02*
X154586014Y-159931096D01*
X154070011Y-153721048D02*
X154885944Y-154536981D01*
X154885944Y-154536981D02*
X154885944Y-159631166D01*
X154586014Y-159931096D02*
X154586014Y-160653708D01*
X160910873Y-140067865D02*
X159306887Y-140067865D01*
X159306887Y-140067865D02*
X155613537Y-136374515D01*
D24*
X147828000Y-121920000D02*
X149352000Y-121920000D01*
X149352000Y-121920000D02*
X149606137Y-122174137D01*
X155787106Y-125486918D02*
X155982602Y-125682414D01*
X154568210Y-125486918D02*
X155787106Y-125486918D01*
X148317633Y-125599239D02*
X149358400Y-126640006D01*
X148317633Y-123765010D02*
X148317633Y-125599239D01*
X149358400Y-126640006D02*
X149658399Y-126940005D01*
D23*
X158586978Y-124754882D02*
X158586978Y-127304450D01*
X149057923Y-137601203D02*
X148956517Y-137601203D01*
X149913392Y-130062207D02*
X149913392Y-136745734D01*
X158586978Y-127304450D02*
X156396532Y-129494896D01*
X158120077Y-124287981D02*
X158586978Y-124754882D01*
X148797088Y-137760632D02*
X148497089Y-138060631D01*
X156396532Y-129494896D02*
X150480703Y-129494896D01*
X149913392Y-136745734D02*
X149057923Y-137601203D01*
X150480703Y-129494896D02*
X149913392Y-130062207D01*
X148956517Y-137601203D02*
X148797088Y-137760632D01*
X157263794Y-121629964D02*
X156963795Y-121329965D01*
X158985989Y-123352159D02*
X157263794Y-121629964D01*
X150422424Y-130421181D02*
X150809591Y-130034014D01*
X150422424Y-136993469D02*
X150422424Y-130421181D01*
X149263316Y-138152577D02*
X150422424Y-136993469D01*
X150809591Y-130034014D02*
X156421700Y-130034014D01*
X158985989Y-127469725D02*
X158985989Y-123352159D01*
X156421700Y-130034014D02*
X158985989Y-127469725D01*
X156046858Y-122611895D02*
X156046858Y-120665128D01*
X155764016Y-120382286D02*
X155464017Y-120082287D01*
X156046858Y-120665128D02*
X155764016Y-120382286D01*
X152717169Y-128173913D02*
X152094731Y-127551475D01*
X152112644Y-121893759D02*
X152412643Y-121593760D01*
X152094731Y-121911672D02*
X152112644Y-121893759D01*
X152094731Y-127551475D02*
X152094731Y-121911672D01*
X153474055Y-122234111D02*
X153774054Y-121934112D01*
X152679567Y-123028599D02*
X153474055Y-122234111D01*
X152679567Y-127157050D02*
X152679567Y-123028599D01*
X153774054Y-128251537D02*
X152679567Y-127157050D01*
X148128572Y-139370385D02*
X148128572Y-139658316D01*
X148214407Y-139744151D02*
X148214407Y-139950850D01*
X148128572Y-139658316D02*
X148214407Y-139744151D01*
X146069063Y-137310876D02*
X148128572Y-139370385D01*
X140957639Y-108445639D02*
X140957639Y-132904637D01*
X140957639Y-132904637D02*
X145363878Y-137310876D01*
X145363878Y-137310876D02*
X146069063Y-137310876D01*
X132080000Y-99568000D02*
X140957639Y-108445639D01*
X148703574Y-139374900D02*
X148703574Y-139382314D01*
X146239539Y-136910865D02*
X148703574Y-139374900D01*
X145546865Y-136910865D02*
X146239539Y-136910865D01*
X141516555Y-132880555D02*
X145546865Y-136910865D01*
X141516555Y-105044757D02*
X141516555Y-132880555D01*
X134059899Y-97588101D02*
X141516555Y-105044757D01*
X160468085Y-131140200D02*
X160892349Y-131140200D01*
X158330900Y-133134100D02*
X160324800Y-131140200D01*
X160324800Y-131140200D02*
X160468085Y-131140200D01*
X142224036Y-112863107D02*
X148981115Y-106106028D01*
X142224036Y-130423538D02*
X142224036Y-112863107D01*
X142524035Y-130723537D02*
X142224036Y-130423538D01*
X152315489Y-106003285D02*
X152015490Y-106303284D01*
X164216125Y-100329999D02*
X157988775Y-100329999D01*
X157988775Y-100329999D02*
X152315489Y-106003285D01*
X164978124Y-99568000D02*
X164216125Y-100329999D01*
X145542000Y-104648000D02*
X146623000Y-104648000D01*
X146623000Y-104648000D02*
X146685000Y-104710000D01*
X163778488Y-143255445D02*
X163650933Y-143383000D01*
X163650933Y-143383000D02*
X155055993Y-143383000D01*
X155055993Y-143383000D02*
X151231806Y-139558813D01*
X149907101Y-139558813D02*
X149649610Y-139301322D01*
X149649610Y-139301322D02*
X149349611Y-139001323D01*
X151231806Y-139558813D02*
X149907101Y-139558813D01*
X148971000Y-136110025D02*
X148971000Y-132566108D01*
X148890528Y-136190497D02*
X148971000Y-136110025D01*
X148971000Y-132566108D02*
X148123303Y-131718411D01*
D24*
X153208066Y-121350212D02*
X154730148Y-121350212D01*
X155006807Y-123097911D02*
X157087845Y-125178949D01*
X155006807Y-121626871D02*
X155006807Y-123097911D01*
X151666255Y-119808401D02*
X153208066Y-121350212D01*
X157087845Y-125178949D02*
X157387844Y-125478948D01*
X154730148Y-121350212D02*
X155006807Y-121626871D01*
X153714343Y-125092825D02*
X154014342Y-124792826D01*
X154014342Y-124792826D02*
X155865930Y-124792826D01*
X157281055Y-126207951D02*
X157559814Y-126207951D01*
X155865930Y-124792826D02*
X157281055Y-126207951D01*
X150587379Y-125642343D02*
X150724768Y-125779732D01*
X150587379Y-124210046D02*
X150587379Y-125642343D01*
D23*
X144032476Y-130702291D02*
X143883756Y-130553571D01*
X143883756Y-130553571D02*
X143883756Y-115280940D01*
X143883756Y-115280940D02*
X143701708Y-115098892D01*
X145082970Y-130525995D02*
X144868888Y-130525995D01*
X144868888Y-130525995D02*
X144676967Y-130334074D01*
X144676967Y-130334074D02*
X144676967Y-130216479D01*
X144676967Y-130216479D02*
X144393652Y-129933164D01*
X144393652Y-129933164D02*
X144393652Y-114847351D01*
X144393652Y-114847351D02*
X144033094Y-114486793D01*
X144033094Y-114486793D02*
X143082396Y-114486793D01*
X140379007Y-114978264D02*
X140379007Y-114554000D01*
X140379007Y-133691324D02*
X140379007Y-114978264D01*
X137431010Y-136639321D02*
X140379007Y-133691324D01*
X138185900Y-143898304D02*
X143966667Y-143898304D01*
X137311356Y-143023760D02*
X138185900Y-143898304D01*
X143966667Y-143898304D02*
X144390931Y-143898304D01*
X144699041Y-112830071D02*
X145254810Y-113385840D01*
X145254810Y-113385840D02*
X145254810Y-127112200D01*
X145254810Y-127112200D02*
X145406361Y-127263751D01*
X145406361Y-127263751D02*
X145406361Y-127395054D01*
X151614455Y-130885005D02*
X151914454Y-131185004D01*
X151914454Y-131185004D02*
X151914454Y-136958284D01*
X151914454Y-136958284D02*
X151069778Y-137802960D01*
X154310989Y-112585447D02*
X152513159Y-110787617D01*
X160419011Y-129363813D02*
X160419011Y-119017011D01*
X156480456Y-115728611D02*
X154310989Y-113559144D01*
X160419011Y-119017011D02*
X157130611Y-115728611D01*
X157130611Y-115728611D02*
X156480456Y-115728611D01*
X154310989Y-113559144D02*
X154310989Y-112585447D01*
X150456567Y-138507008D02*
X151275816Y-138507008D01*
X151275816Y-138507008D02*
X160419011Y-129363813D01*
X152219575Y-110787617D02*
X151795311Y-110787617D01*
X152513159Y-110787617D02*
X152219575Y-110787617D01*
X149447562Y-144960506D02*
X149747561Y-144660507D01*
X144911175Y-148533823D02*
X146948158Y-146496840D01*
X143713187Y-160059316D02*
X143751750Y-160059316D01*
X144911175Y-158899891D02*
X144911175Y-148533823D01*
X147911228Y-146496840D02*
X149447562Y-144960506D01*
X143751750Y-160059316D02*
X144911175Y-158899891D01*
X143817555Y-161437414D02*
X143414187Y-161034046D01*
X143414187Y-160358316D02*
X143713187Y-160059316D01*
X146948158Y-146496840D02*
X147911228Y-146496840D01*
X143414187Y-161034046D02*
X143414187Y-160358316D01*
X144489422Y-160670650D02*
X144065158Y-160670650D01*
X145255009Y-160670650D02*
X144489422Y-160670650D01*
X147725801Y-158199858D02*
X145255009Y-160670650D01*
X147725801Y-148268152D02*
X147725801Y-158199858D01*
X147205511Y-147747862D02*
X147725801Y-148268152D01*
X137100010Y-153664432D02*
X142897448Y-159461870D01*
X142897448Y-159461870D02*
X143197447Y-159761869D01*
X137100010Y-146621500D02*
X137100010Y-153664432D01*
X143819533Y-132232400D02*
X142176500Y-132232400D01*
X144453760Y-131753266D02*
X144298667Y-131753266D01*
X144298667Y-131753266D02*
X143819533Y-132232400D01*
X143735003Y-145391993D02*
X143735003Y-158814485D01*
X144965941Y-139403239D02*
X144965941Y-144161055D01*
X143735003Y-158814485D02*
X143735003Y-159238749D01*
X146318937Y-138474507D02*
X145894673Y-138474507D01*
X145894673Y-138474507D02*
X144965941Y-139403239D01*
X144965941Y-144161055D02*
X143735003Y-145391993D01*
X155046586Y-142203754D02*
X155346585Y-142503753D01*
X151924841Y-139082009D02*
X155046586Y-142203754D01*
X151072772Y-136973215D02*
X149881566Y-138164421D01*
X149881566Y-138164421D02*
X149881566Y-138783009D01*
X149881566Y-138783009D02*
X150180566Y-139082009D01*
X150180566Y-139082009D02*
X151924841Y-139082009D01*
X151072772Y-136548951D02*
X151072772Y-136973215D01*
X145807476Y-158782651D02*
X145507477Y-159082650D01*
X147075190Y-157514937D02*
X145807476Y-158782651D01*
X147075190Y-149250400D02*
X147075190Y-157514937D01*
X162872926Y-147155401D02*
X162872926Y-146108926D01*
X162872926Y-146108926D02*
X162687000Y-145923000D01*
X157411367Y-149633465D02*
X158229475Y-149633465D01*
X158229475Y-149633465D02*
X159585913Y-148277027D01*
X159585913Y-148277027D02*
X159885912Y-147977028D01*
X148892831Y-154684123D02*
X148592832Y-154384124D01*
X150074071Y-155865363D02*
X148892831Y-154684123D01*
X152208329Y-155865363D02*
X150074071Y-155865363D01*
X133223000Y-158496000D02*
X134112000Y-158496000D01*
X134112000Y-158496000D02*
X134620000Y-159004000D01*
D25*
G36*
X132663142Y-97309001D02*
X132662657Y-97864762D01*
X132874889Y-98378404D01*
X133267529Y-98771730D01*
X133780799Y-98984858D01*
X134336560Y-98985343D01*
X134368954Y-98971958D01*
X138297662Y-102900666D01*
X137936501Y-103049895D01*
X137543175Y-103442535D01*
X137392413Y-103805611D01*
X133464183Y-99877381D01*
X133476757Y-99847100D01*
X133477242Y-99291339D01*
X133265010Y-98777697D01*
X132872370Y-98384371D01*
X132359100Y-98171243D01*
X131803339Y-98170758D01*
X131289697Y-98382990D01*
X130896371Y-98775630D01*
X130683243Y-99288900D01*
X130682758Y-99844661D01*
X130894990Y-100358303D01*
X131287630Y-100751629D01*
X131800900Y-100964757D01*
X132356661Y-100965242D01*
X132389055Y-100951857D01*
X137393747Y-105956549D01*
X137174439Y-105956358D01*
X136660797Y-106168590D01*
X136267471Y-106561230D01*
X136054343Y-107074500D01*
X136053858Y-107630261D01*
X136266090Y-108143903D01*
X136658730Y-108537229D01*
X137172000Y-108750357D01*
X137727761Y-108750842D01*
X138241403Y-108538610D01*
X138634729Y-108145970D01*
X138847857Y-107632700D01*
X138848051Y-107410853D01*
X140197639Y-108760441D01*
X140197639Y-113618841D01*
X140193840Y-113618838D01*
X139850064Y-113760883D01*
X139586815Y-114023673D01*
X139444169Y-114367201D01*
X139443845Y-114739167D01*
X139585890Y-115082943D01*
X139619007Y-115116118D01*
X139619007Y-117251399D01*
X139316406Y-117251135D01*
X138972630Y-117393180D01*
X138709381Y-117655970D01*
X138566735Y-117999498D01*
X138566411Y-118371464D01*
X138708456Y-118715240D01*
X138741573Y-118748415D01*
X138741573Y-124343625D01*
X127894081Y-135191117D01*
X127824802Y-135087434D01*
X127456582Y-134841397D01*
X127022236Y-134755000D01*
X126977764Y-134755000D01*
X126543418Y-134841397D01*
X126175198Y-135087434D01*
X125929161Y-135455654D01*
X125842764Y-135890000D01*
X125929161Y-136324346D01*
X126063234Y-136525000D01*
X125929161Y-136725654D01*
X125842764Y-137160000D01*
X125929161Y-137594346D01*
X125943083Y-137615182D01*
X125865000Y-137803690D01*
X125865000Y-138144250D01*
X126023750Y-138303000D01*
X126873000Y-138303000D01*
X126873000Y-138283000D01*
X126917436Y-138283000D01*
X126977764Y-138295000D01*
X127022236Y-138295000D01*
X127082564Y-138283000D01*
X127127000Y-138283000D01*
X127127000Y-138303000D01*
X127976250Y-138303000D01*
X128135000Y-138144250D01*
X128135000Y-137803690D01*
X128056917Y-137615182D01*
X128070839Y-137594346D01*
X128157236Y-137160000D01*
X128143559Y-137091243D01*
X137563801Y-127671001D01*
X137563597Y-127905521D01*
X137705642Y-128249297D01*
X137738759Y-128282472D01*
X137738759Y-128796325D01*
X137690327Y-128747808D01*
X137346799Y-128605162D01*
X136974833Y-128604838D01*
X136631057Y-128746883D01*
X136367808Y-129009673D01*
X136225162Y-129353201D01*
X136225121Y-129400077D01*
X131542599Y-134082599D01*
X131377852Y-134329161D01*
X131320000Y-134620000D01*
X131320000Y-139772537D01*
X131287808Y-139804673D01*
X131145162Y-140148201D01*
X131144838Y-140520167D01*
X131286883Y-140863943D01*
X131394752Y-140972000D01*
X129340463Y-140972000D01*
X129308327Y-140939808D01*
X128964799Y-140797162D01*
X128592833Y-140796838D01*
X128249057Y-140938883D01*
X127985808Y-141201673D01*
X127843162Y-141545201D01*
X127842838Y-141917167D01*
X127984883Y-142260943D01*
X128247673Y-142524192D01*
X128591201Y-142666838D01*
X128963167Y-142667162D01*
X129306943Y-142525117D01*
X129340118Y-142492000D01*
X131412302Y-142492000D01*
X131506826Y-142555159D01*
X131797666Y-142613011D01*
X133023683Y-142613011D01*
X133023531Y-142787325D01*
X133165576Y-143131101D01*
X133198693Y-143164276D01*
X133198693Y-150194867D01*
X133164833Y-150194838D01*
X132821057Y-150336883D01*
X132557808Y-150599673D01*
X132415162Y-150943201D01*
X132414838Y-151315167D01*
X132556883Y-151658943D01*
X132590000Y-151692118D01*
X132590000Y-152472537D01*
X132557808Y-152504673D01*
X132415162Y-152848201D01*
X132414838Y-153220167D01*
X132556883Y-153563943D01*
X132819673Y-153827192D01*
X133163201Y-153969838D01*
X133521001Y-153970150D01*
X133521001Y-157607337D01*
X133409799Y-157561162D01*
X133037833Y-157560838D01*
X132694057Y-157702883D01*
X132430808Y-157965673D01*
X132288162Y-158309201D01*
X132287838Y-158681167D01*
X132429883Y-159024943D01*
X132692673Y-159288192D01*
X133036201Y-159430838D01*
X133408167Y-159431162D01*
X133729900Y-159298225D01*
X133826883Y-159532943D01*
X134089673Y-159796192D01*
X134433201Y-159938838D01*
X134805167Y-159939162D01*
X135148943Y-159797117D01*
X135188163Y-159757965D01*
X142088229Y-166658031D01*
X142025000Y-166975907D01*
X142025000Y-167034093D01*
X142138039Y-167602378D01*
X142459946Y-168084147D01*
X142743101Y-168273345D01*
X142743076Y-168273355D01*
X142314817Y-168663642D01*
X142068514Y-169188108D01*
X142189181Y-169418000D01*
X143383000Y-169418000D01*
X143383000Y-169398000D01*
X143637000Y-169398000D01*
X143637000Y-169418000D01*
X143657000Y-169418000D01*
X143657000Y-169672000D01*
X143637000Y-169672000D01*
X143637000Y-170865155D01*
X143866890Y-170986476D01*
X144276924Y-170816645D01*
X144705183Y-170426358D01*
X144772298Y-170283447D01*
X144999946Y-170624147D01*
X145480174Y-170945024D01*
X145275320Y-171149878D01*
X145229833Y-171149838D01*
X144886057Y-171291883D01*
X144622808Y-171554673D01*
X144480162Y-171898201D01*
X144479838Y-172270167D01*
X144621883Y-172613943D01*
X144884673Y-172877192D01*
X145228201Y-173019838D01*
X145300608Y-173019901D01*
X145054448Y-173238179D01*
X144870732Y-173612062D01*
X144997266Y-173783000D01*
X145963000Y-173783000D01*
X145963000Y-172957437D01*
X146217000Y-172957437D01*
X146217000Y-173783000D01*
X147182734Y-173783000D01*
X147309268Y-173612062D01*
X147125552Y-173238179D01*
X146801049Y-172950432D01*
X146391131Y-172808771D01*
X146217000Y-172957437D01*
X145963000Y-172957437D01*
X145894178Y-172898679D01*
X145943943Y-172878117D01*
X146207192Y-172615327D01*
X146349838Y-172271799D01*
X146349879Y-172224923D01*
X147786148Y-170788654D01*
X148021715Y-170946054D01*
X148590000Y-171059093D01*
X149158285Y-170946054D01*
X149640054Y-170624147D01*
X149860000Y-170294974D01*
X150079946Y-170624147D01*
X150561715Y-170946054D01*
X151130000Y-171059093D01*
X151698285Y-170946054D01*
X152180054Y-170624147D01*
X152407702Y-170283447D01*
X152474817Y-170426358D01*
X152903076Y-170816645D01*
X152962473Y-170841247D01*
X152478720Y-171325000D01*
X150778063Y-171325000D01*
X150745927Y-171292808D01*
X150402399Y-171150162D01*
X150030433Y-171149838D01*
X149686657Y-171291883D01*
X149423408Y-171554673D01*
X149280762Y-171898201D01*
X149280438Y-172270167D01*
X149422483Y-172613943D01*
X149685273Y-172877192D01*
X150028801Y-173019838D01*
X150300412Y-173020075D01*
X150054448Y-173238179D01*
X149870732Y-173612062D01*
X149997266Y-173783000D01*
X150963000Y-173783000D01*
X150963000Y-173763000D01*
X151217000Y-173763000D01*
X151217000Y-173783000D01*
X152182734Y-173783000D01*
X152309268Y-173612062D01*
X152125552Y-173238179D01*
X151801049Y-172950432D01*
X151495965Y-172845000D01*
X152793522Y-172845000D01*
X153084361Y-172787148D01*
X153330923Y-172622401D01*
X155331402Y-170621922D01*
X155496149Y-170375360D01*
X155554001Y-170084521D01*
X155554001Y-167880478D01*
X155581449Y-167880478D01*
X155723494Y-168224254D01*
X155986284Y-168487503D01*
X156329812Y-168630149D01*
X156376688Y-168630190D01*
X158791100Y-171044602D01*
X158791100Y-171306069D01*
X158760797Y-171318590D01*
X158367471Y-171711230D01*
X158154343Y-172224500D01*
X158153858Y-172780261D01*
X158366090Y-173293903D01*
X158758730Y-173687229D01*
X159272000Y-173900357D01*
X159827761Y-173900842D01*
X160341403Y-173688610D01*
X160734729Y-173295970D01*
X160947857Y-172782700D01*
X160948342Y-172226939D01*
X160736110Y-171713297D01*
X160343470Y-171319971D01*
X160311100Y-171306530D01*
X160311100Y-170729800D01*
X160253248Y-170438961D01*
X160088501Y-170192399D01*
X157451733Y-167555631D01*
X157451773Y-167510144D01*
X157309728Y-167166368D01*
X157046938Y-166903119D01*
X156703410Y-166760473D01*
X156331444Y-166760149D01*
X155987668Y-166902194D01*
X155724419Y-167164984D01*
X155581773Y-167508512D01*
X155581449Y-167880478D01*
X155554001Y-167880478D01*
X155554001Y-162721105D01*
X155541521Y-162658365D01*
X155564573Y-162648840D01*
X155827822Y-162386050D01*
X155970468Y-162042522D01*
X155970507Y-161997809D01*
X158166917Y-164194219D01*
X158154343Y-164224500D01*
X158153858Y-164780261D01*
X158366090Y-165293903D01*
X158758730Y-165687229D01*
X159272000Y-165900357D01*
X159827761Y-165900842D01*
X160341403Y-165688610D01*
X160734729Y-165295970D01*
X160947857Y-164782700D01*
X160948342Y-164226939D01*
X160736110Y-163713297D01*
X160343470Y-163319971D01*
X159830200Y-163106843D01*
X159274439Y-163106358D01*
X159242045Y-163119743D01*
X158974452Y-162852150D01*
X162790796Y-162852150D01*
X163058175Y-163499257D01*
X163552839Y-163994785D01*
X164199479Y-164263293D01*
X164899650Y-164263904D01*
X165546757Y-163996525D01*
X166042285Y-163501861D01*
X166310793Y-162855221D01*
X166311404Y-162155050D01*
X166044025Y-161507943D01*
X165549361Y-161012415D01*
X164902721Y-160743907D01*
X164202550Y-160743296D01*
X163555443Y-161010675D01*
X163059915Y-161505339D01*
X162791407Y-162151979D01*
X162790796Y-162852150D01*
X158974452Y-162852150D01*
X156782800Y-160660498D01*
X156782879Y-160569877D01*
X156640834Y-160226101D01*
X156378044Y-159962852D01*
X156248536Y-159909076D01*
X156808399Y-159349213D01*
X156973146Y-159102652D01*
X157030998Y-158811812D01*
X157030998Y-154930800D01*
X157577599Y-155477401D01*
X157824160Y-155642148D01*
X158115000Y-155700000D01*
X158187537Y-155700000D01*
X158219673Y-155732192D01*
X158563201Y-155874838D01*
X158935167Y-155875162D01*
X159278943Y-155733117D01*
X159542192Y-155470327D01*
X159684838Y-155126799D01*
X159685162Y-154754833D01*
X159543117Y-154411057D01*
X159280327Y-154147808D01*
X158936799Y-154005162D01*
X158564833Y-154004838D01*
X158345335Y-154095533D01*
X157780122Y-153530320D01*
X157780162Y-153484833D01*
X157638117Y-153141057D01*
X157502171Y-153004873D01*
X169729812Y-153004873D01*
X169894646Y-153403800D01*
X170199595Y-153709282D01*
X170598233Y-153874811D01*
X171029873Y-153875188D01*
X171428800Y-153710354D01*
X171734282Y-153405405D01*
X171899811Y-153006767D01*
X171900188Y-152575127D01*
X171735354Y-152176200D01*
X171430405Y-151870718D01*
X171031767Y-151705189D01*
X170600127Y-151704812D01*
X170201200Y-151869646D01*
X169895718Y-152174595D01*
X169730189Y-152573233D01*
X169729812Y-153004873D01*
X157502171Y-153004873D01*
X157375327Y-152877808D01*
X157056343Y-152745354D01*
X157056343Y-150498450D01*
X157224568Y-150568303D01*
X157596534Y-150568627D01*
X157940310Y-150426582D01*
X157973485Y-150393465D01*
X158229475Y-150393465D01*
X158520314Y-150335613D01*
X158766876Y-150170866D01*
X158932869Y-150004873D01*
X169729812Y-150004873D01*
X169894646Y-150403800D01*
X170199595Y-150709282D01*
X170598233Y-150874811D01*
X171029873Y-150875188D01*
X171428800Y-150710354D01*
X171734282Y-150405405D01*
X171899811Y-150006767D01*
X171900188Y-149575127D01*
X171735354Y-149176200D01*
X171430405Y-148870718D01*
X171031767Y-148705189D01*
X170600127Y-148704812D01*
X170201200Y-148869646D01*
X169895718Y-149174595D01*
X169730189Y-149573233D01*
X169729812Y-150004873D01*
X158932869Y-150004873D01*
X160025592Y-148912150D01*
X160071079Y-148912190D01*
X160414855Y-148770145D01*
X160678104Y-148507355D01*
X160820750Y-148163827D01*
X160821074Y-147791861D01*
X160679029Y-147448085D01*
X160416239Y-147184836D01*
X160072711Y-147042190D01*
X159700745Y-147041866D01*
X159356969Y-147183911D01*
X159093720Y-147446701D01*
X158951074Y-147790229D01*
X158951033Y-147837105D01*
X157944277Y-148843861D01*
X157941694Y-148841273D01*
X157598166Y-148698627D01*
X157226200Y-148698303D01*
X157056343Y-148768486D01*
X157056343Y-146784274D01*
X157088535Y-146752138D01*
X157231181Y-146408610D01*
X157231278Y-146297237D01*
X157489655Y-146404525D01*
X157861621Y-146404849D01*
X158205397Y-146262804D01*
X158360304Y-146108167D01*
X161751838Y-146108167D01*
X161893883Y-146451943D01*
X162076615Y-146634994D01*
X161938088Y-146968602D01*
X161937764Y-147340568D01*
X162079809Y-147684344D01*
X162342599Y-147947593D01*
X162686127Y-148090239D01*
X163058093Y-148090563D01*
X163401869Y-147948518D01*
X163665118Y-147685728D01*
X163807764Y-147342200D01*
X163808088Y-146970234D01*
X163666043Y-146626458D01*
X163632926Y-146593283D01*
X163632926Y-146108926D01*
X163621887Y-146053430D01*
X163622162Y-145737833D01*
X163480117Y-145394057D01*
X163217327Y-145130808D01*
X162873799Y-144988162D01*
X162501833Y-144987838D01*
X162158057Y-145129883D01*
X161894808Y-145392673D01*
X161752162Y-145736201D01*
X161751838Y-146108167D01*
X158360304Y-146108167D01*
X158468646Y-146000014D01*
X158611292Y-145656486D01*
X158611616Y-145284520D01*
X158469571Y-144940744D01*
X158222261Y-144693002D01*
X164676998Y-144693002D01*
X164967837Y-144635150D01*
X165214399Y-144470403D01*
X170126100Y-139558702D01*
X170157764Y-139565000D01*
X170202236Y-139565000D01*
X170636582Y-139478603D01*
X171004802Y-139232566D01*
X171250839Y-138864346D01*
X171337236Y-138430000D01*
X171250839Y-137995654D01*
X171116766Y-137795000D01*
X171250839Y-137594346D01*
X171337236Y-137160000D01*
X171250839Y-136725654D01*
X171236917Y-136704818D01*
X171315000Y-136516310D01*
X171315000Y-136175750D01*
X171156250Y-136017000D01*
X170307000Y-136017000D01*
X170307000Y-136037000D01*
X170262564Y-136037000D01*
X170202236Y-136025000D01*
X170157764Y-136025000D01*
X170097436Y-136037000D01*
X170053000Y-136037000D01*
X170053000Y-136017000D01*
X170033000Y-136017000D01*
X170033000Y-135763000D01*
X170053000Y-135763000D01*
X170053000Y-134913750D01*
X170307000Y-134913750D01*
X170307000Y-135763000D01*
X171156250Y-135763000D01*
X171315000Y-135604250D01*
X171315000Y-135263690D01*
X171218327Y-135030301D01*
X171039698Y-134851673D01*
X170806309Y-134755000D01*
X170465750Y-134755000D01*
X170307000Y-134913750D01*
X170053000Y-134913750D01*
X169894250Y-134755000D01*
X169553691Y-134755000D01*
X169320302Y-134851673D01*
X169141673Y-135030301D01*
X169045000Y-135263690D01*
X169045000Y-135604250D01*
X169203748Y-135762998D01*
X169150694Y-135762998D01*
X162729745Y-129342049D01*
X162729745Y-126572063D01*
X162850368Y-126522223D01*
X163113617Y-126259433D01*
X163256263Y-125915905D01*
X163256587Y-125543939D01*
X163114542Y-125200163D01*
X162851752Y-124936914D01*
X162508224Y-124794268D01*
X162329679Y-124794112D01*
X162329679Y-119250739D01*
X162271827Y-118959900D01*
X162204760Y-118859527D01*
X162204842Y-118765573D01*
X162062797Y-118421797D01*
X161800007Y-118158548D01*
X161456479Y-118015902D01*
X161084513Y-118015578D01*
X160740737Y-118157623D01*
X160687535Y-118210733D01*
X160178952Y-117702150D01*
X162790796Y-117702150D01*
X163058175Y-118349257D01*
X163552839Y-118844785D01*
X164199479Y-119113293D01*
X164899650Y-119113904D01*
X165546757Y-118846525D01*
X166042285Y-118351861D01*
X166310793Y-117705221D01*
X166311404Y-117005050D01*
X166044025Y-116357943D01*
X165549361Y-115862415D01*
X164902721Y-115593907D01*
X164202550Y-115593296D01*
X163555443Y-115860675D01*
X163059915Y-116355339D01*
X162791407Y-117001979D01*
X162790796Y-117702150D01*
X160178952Y-117702150D01*
X159195318Y-116718516D01*
X159272000Y-116750357D01*
X159827761Y-116750842D01*
X160341403Y-116538610D01*
X160734729Y-116145970D01*
X160947857Y-115632700D01*
X160948342Y-115076939D01*
X160736110Y-114563297D01*
X160343470Y-114169971D01*
X159830200Y-113956843D01*
X159274439Y-113956358D01*
X158760797Y-114168590D01*
X158367471Y-114561230D01*
X158354030Y-114593600D01*
X157421982Y-114593600D01*
X157316247Y-114572568D01*
X156274404Y-113530725D01*
X156159365Y-113252308D01*
X155896575Y-112989059D01*
X155578340Y-112856916D01*
X155862180Y-112739636D01*
X156125429Y-112476846D01*
X156268075Y-112133318D01*
X156268399Y-111761352D01*
X156126354Y-111417576D01*
X156093237Y-111384401D01*
X156093237Y-111296710D01*
X158825142Y-108564805D01*
X159272000Y-108750357D01*
X159827761Y-108750842D01*
X160341403Y-108538610D01*
X160734729Y-108145970D01*
X160947857Y-107632700D01*
X160948342Y-107076939D01*
X160736110Y-106563297D01*
X160343470Y-106169971D01*
X159830200Y-105956843D01*
X159274439Y-105956358D01*
X158760797Y-106168590D01*
X158367471Y-106561230D01*
X158154343Y-107074500D01*
X158154333Y-107086010D01*
X154795836Y-110444507D01*
X154631089Y-110691069D01*
X154573237Y-110981908D01*
X154573237Y-111384056D01*
X154541045Y-111416192D01*
X154445832Y-111645488D01*
X153050560Y-110250216D01*
X152803998Y-110085469D01*
X152772008Y-110079106D01*
X152844652Y-109904161D01*
X152844693Y-109857285D01*
X153168669Y-109533309D01*
X153296310Y-109661174D01*
X153809580Y-109874302D01*
X154365341Y-109874787D01*
X154878983Y-109662555D01*
X155272309Y-109269915D01*
X155485437Y-108756645D01*
X155485922Y-108200884D01*
X155273690Y-107687242D01*
X154881050Y-107293916D01*
X154367780Y-107080788D01*
X153812019Y-107080303D01*
X153298377Y-107292535D01*
X152905051Y-107685175D01*
X152868380Y-107773490D01*
X152858792Y-107775397D01*
X152612230Y-107940144D01*
X151770134Y-108782240D01*
X151744217Y-108782217D01*
X151744217Y-107203045D01*
X151828691Y-107238122D01*
X152200657Y-107238446D01*
X152544433Y-107096401D01*
X152807682Y-106833611D01*
X152950328Y-106490083D01*
X152950369Y-106443207D01*
X153365941Y-106027635D01*
X155068889Y-106027635D01*
X155210934Y-106371411D01*
X155473724Y-106634660D01*
X155817252Y-106777306D01*
X156189218Y-106777630D01*
X156532994Y-106635585D01*
X156566169Y-106602468D01*
X156723757Y-106602468D01*
X157014596Y-106544616D01*
X157261158Y-106379869D01*
X157938877Y-105702150D01*
X162790796Y-105702150D01*
X163058175Y-106349257D01*
X163552839Y-106844785D01*
X164199479Y-107113293D01*
X164899650Y-107113904D01*
X165546757Y-106846525D01*
X166042285Y-106351861D01*
X166310793Y-105705221D01*
X166311404Y-105005050D01*
X166044025Y-104357943D01*
X165549361Y-103862415D01*
X164902721Y-103593907D01*
X164202550Y-103593296D01*
X163555443Y-103860675D01*
X163059915Y-104355339D01*
X162791407Y-105001979D01*
X162790796Y-105702150D01*
X157938877Y-105702150D01*
X158021939Y-105619088D01*
X158052220Y-105631662D01*
X158607981Y-105632147D01*
X159121623Y-105419915D01*
X159514949Y-105027275D01*
X159728077Y-104514005D01*
X159728562Y-103958244D01*
X159516330Y-103444602D01*
X159123690Y-103051276D01*
X158610420Y-102838148D01*
X158054659Y-102837663D01*
X157541017Y-103049895D01*
X157147691Y-103442535D01*
X156934563Y-103955805D01*
X156934078Y-104511566D01*
X156947463Y-104543960D01*
X156468501Y-105022922D01*
X156190850Y-104907630D01*
X155818884Y-104907306D01*
X155475108Y-105049351D01*
X155211859Y-105312141D01*
X155069213Y-105655669D01*
X155068889Y-106027635D01*
X153365941Y-106027635D01*
X158303577Y-101089999D01*
X164216125Y-101089999D01*
X164506964Y-101032147D01*
X164642776Y-100941401D01*
X164699024Y-100964757D01*
X165254785Y-100965242D01*
X165768427Y-100753010D01*
X166161753Y-100360370D01*
X166374881Y-99847100D01*
X166375366Y-99291339D01*
X166163134Y-98777697D01*
X165770494Y-98384371D01*
X165257224Y-98171243D01*
X164701463Y-98170758D01*
X164187821Y-98382990D01*
X163794495Y-98775630D01*
X163581367Y-99288900D01*
X163581122Y-99569999D01*
X158811519Y-99569999D01*
X159184346Y-99495839D01*
X159394304Y-99355549D01*
X159459791Y-99412127D01*
X159718126Y-99519119D01*
X159893000Y-99392954D01*
X159893000Y-98552000D01*
X160147000Y-98552000D01*
X160147000Y-99392954D01*
X160321874Y-99519119D01*
X160580209Y-99412127D01*
X160915323Y-99122604D01*
X161114132Y-98726877D01*
X160989135Y-98552000D01*
X160147000Y-98552000D01*
X159893000Y-98552000D01*
X159873000Y-98552000D01*
X159873000Y-98507564D01*
X159885000Y-98447236D01*
X159885000Y-98402764D01*
X159873000Y-98342436D01*
X159873000Y-98298000D01*
X159893000Y-98298000D01*
X159893000Y-97457046D01*
X160147000Y-97457046D01*
X160147000Y-98298000D01*
X160989135Y-98298000D01*
X161114132Y-98123123D01*
X160915323Y-97727396D01*
X160580209Y-97437873D01*
X160321874Y-97330881D01*
X160147000Y-97457046D01*
X159893000Y-97457046D01*
X159718126Y-97330881D01*
X159459791Y-97437873D01*
X159394304Y-97494451D01*
X159184346Y-97354161D01*
X158750000Y-97267764D01*
X158315654Y-97354161D01*
X158292241Y-97369805D01*
X158231890Y-97328569D01*
X157980000Y-97277560D01*
X156980000Y-97277560D01*
X156744683Y-97321838D01*
X156528559Y-97460910D01*
X156383569Y-97673110D01*
X156332560Y-97925000D01*
X156332560Y-98925000D01*
X156376838Y-99160317D01*
X156515910Y-99376441D01*
X156728110Y-99521431D01*
X156980000Y-99572440D01*
X157976503Y-99572440D01*
X157697936Y-99627851D01*
X157451374Y-99792598D01*
X152040001Y-105203971D01*
X152040001Y-99210001D01*
X152030118Y-99160317D01*
X151982149Y-98919161D01*
X151817402Y-98672600D01*
X150988702Y-97843900D01*
X150995000Y-97812236D01*
X150995000Y-97767764D01*
X150908603Y-97333418D01*
X150839501Y-97230000D01*
X161634272Y-97230000D01*
X161601468Y-97309001D01*
X161600983Y-97864762D01*
X161813215Y-98378404D01*
X162205855Y-98771730D01*
X162719125Y-98984858D01*
X163274886Y-98985343D01*
X163788528Y-98773111D01*
X164181854Y-98380471D01*
X164394982Y-97867201D01*
X164395467Y-97311440D01*
X164361817Y-97230000D01*
X172010000Y-97230000D01*
X172010000Y-104323859D01*
X171549361Y-103862415D01*
X170902721Y-103593907D01*
X170202550Y-103593296D01*
X169555443Y-103860675D01*
X169059915Y-104355339D01*
X168791407Y-105001979D01*
X168790796Y-105702150D01*
X169058175Y-106349257D01*
X169552839Y-106844785D01*
X170199479Y-107113293D01*
X170899650Y-107113904D01*
X171546757Y-106846525D01*
X172010000Y-106384090D01*
X172010000Y-116323859D01*
X171549361Y-115862415D01*
X170902721Y-115593907D01*
X170202550Y-115593296D01*
X169555443Y-115860675D01*
X169059915Y-116355339D01*
X168791407Y-117001979D01*
X168790796Y-117702150D01*
X169058175Y-118349257D01*
X169552839Y-118844785D01*
X170199479Y-119113293D01*
X170899650Y-119113904D01*
X171546757Y-118846525D01*
X172010000Y-118384090D01*
X172010000Y-161473859D01*
X171549361Y-161012415D01*
X170902721Y-160743907D01*
X170202550Y-160743296D01*
X169555443Y-161010675D01*
X169059915Y-161505339D01*
X168791407Y-162151979D01*
X168790796Y-162852150D01*
X169058175Y-163499257D01*
X169552839Y-163994785D01*
X170199479Y-164263293D01*
X170899650Y-164263904D01*
X171546757Y-163996525D01*
X172010000Y-163534090D01*
X172010000Y-173473859D01*
X171549361Y-173012415D01*
X170902721Y-172743907D01*
X170202550Y-172743296D01*
X169555443Y-173010675D01*
X169059915Y-173505339D01*
X168791407Y-174151979D01*
X168790796Y-174852150D01*
X169058175Y-175499257D01*
X169552839Y-175994785D01*
X170199479Y-176263293D01*
X170899650Y-176263904D01*
X171546757Y-175996525D01*
X172010000Y-175534090D01*
X172010000Y-177090000D01*
X153200205Y-177090000D01*
X153225000Y-177012000D01*
X153225000Y-176737000D01*
X152217000Y-176737000D01*
X152217000Y-176757000D01*
X151963000Y-176757000D01*
X151963000Y-176737000D01*
X150955000Y-176737000D01*
X150955000Y-177012000D01*
X150979795Y-177090000D01*
X146200205Y-177090000D01*
X146225000Y-177012000D01*
X146225000Y-176737000D01*
X145217000Y-176737000D01*
X145217000Y-176757000D01*
X144963000Y-176757000D01*
X144963000Y-176737000D01*
X143955000Y-176737000D01*
X143955000Y-177012000D01*
X143979795Y-177090000D01*
X125170000Y-177090000D01*
X125170000Y-175711452D01*
X125452839Y-175994785D01*
X126099479Y-176263293D01*
X126799650Y-176263904D01*
X127446757Y-175996525D01*
X127942285Y-175501861D01*
X128210793Y-174855221D01*
X128210795Y-174852150D01*
X130690796Y-174852150D01*
X130958175Y-175499257D01*
X131452839Y-175994785D01*
X132099479Y-176263293D01*
X132799650Y-176263904D01*
X132934948Y-176208000D01*
X143955000Y-176208000D01*
X143955000Y-176483000D01*
X144963000Y-176483000D01*
X144963000Y-175367046D01*
X145217000Y-175367046D01*
X145217000Y-176483000D01*
X146225000Y-176483000D01*
X146225000Y-176208000D01*
X150955000Y-176208000D01*
X150955000Y-176483000D01*
X151963000Y-176483000D01*
X151963000Y-175367046D01*
X152217000Y-175367046D01*
X152217000Y-176483000D01*
X153225000Y-176483000D01*
X153225000Y-176208000D01*
X153090002Y-175783322D01*
X152802763Y-175442632D01*
X152391874Y-175240881D01*
X152217000Y-175367046D01*
X151963000Y-175367046D01*
X151788126Y-175240881D01*
X151377237Y-175442632D01*
X151089998Y-175783322D01*
X150955000Y-176208000D01*
X146225000Y-176208000D01*
X146090002Y-175783322D01*
X145802763Y-175442632D01*
X145391874Y-175240881D01*
X145217000Y-175367046D01*
X144963000Y-175367046D01*
X144788126Y-175240881D01*
X144377237Y-175442632D01*
X144089998Y-175783322D01*
X143955000Y-176208000D01*
X132934948Y-176208000D01*
X133446757Y-175996525D01*
X133942285Y-175501861D01*
X134210793Y-174855221D01*
X134211357Y-174207938D01*
X144870732Y-174207938D01*
X145054448Y-174581821D01*
X145378951Y-174869568D01*
X145788869Y-175011229D01*
X145963000Y-174862563D01*
X145963000Y-174037000D01*
X146217000Y-174037000D01*
X146217000Y-174862563D01*
X146391131Y-175011229D01*
X146801049Y-174869568D01*
X147125552Y-174581821D01*
X147309268Y-174207938D01*
X149870732Y-174207938D01*
X150054448Y-174581821D01*
X150378951Y-174869568D01*
X150788869Y-175011229D01*
X150963000Y-174862563D01*
X150963000Y-174037000D01*
X151217000Y-174037000D01*
X151217000Y-174862563D01*
X151391131Y-175011229D01*
X151801049Y-174869568D01*
X151820691Y-174852150D01*
X162790796Y-174852150D01*
X163058175Y-175499257D01*
X163552839Y-175994785D01*
X164199479Y-176263293D01*
X164899650Y-176263904D01*
X165546757Y-175996525D01*
X166042285Y-175501861D01*
X166310793Y-174855221D01*
X166311404Y-174155050D01*
X166044025Y-173507943D01*
X165549361Y-173012415D01*
X164902721Y-172743907D01*
X164202550Y-172743296D01*
X163555443Y-173010675D01*
X163059915Y-173505339D01*
X162791407Y-174151979D01*
X162790796Y-174852150D01*
X151820691Y-174852150D01*
X152125552Y-174581821D01*
X152309268Y-174207938D01*
X152182734Y-174037000D01*
X151217000Y-174037000D01*
X150963000Y-174037000D01*
X149997266Y-174037000D01*
X149870732Y-174207938D01*
X147309268Y-174207938D01*
X147182734Y-174037000D01*
X146217000Y-174037000D01*
X145963000Y-174037000D01*
X144997266Y-174037000D01*
X144870732Y-174207938D01*
X134211357Y-174207938D01*
X134211404Y-174155050D01*
X133944025Y-173507943D01*
X133449361Y-173012415D01*
X132890272Y-172780261D01*
X136053858Y-172780261D01*
X136266090Y-173293903D01*
X136658730Y-173687229D01*
X137172000Y-173900357D01*
X137727761Y-173900842D01*
X138241403Y-173688610D01*
X138634729Y-173295970D01*
X138847857Y-172782700D01*
X138848342Y-172226939D01*
X138636110Y-171713297D01*
X138243470Y-171319971D01*
X137730200Y-171106843D01*
X137174439Y-171106358D01*
X136660797Y-171318590D01*
X136267471Y-171711230D01*
X136054343Y-172224500D01*
X136053858Y-172780261D01*
X132890272Y-172780261D01*
X132802721Y-172743907D01*
X132102550Y-172743296D01*
X131455443Y-173010675D01*
X130959915Y-173505339D01*
X130691407Y-174151979D01*
X130690796Y-174852150D01*
X128210795Y-174852150D01*
X128211404Y-174155050D01*
X127944025Y-173507943D01*
X127449361Y-173012415D01*
X126802721Y-172743907D01*
X126102550Y-172743296D01*
X125455443Y-173010675D01*
X125170000Y-173295620D01*
X125170000Y-169901892D01*
X142068514Y-169901892D01*
X142314817Y-170426358D01*
X142743076Y-170816645D01*
X143153110Y-170986476D01*
X143383000Y-170865155D01*
X143383000Y-169672000D01*
X142189181Y-169672000D01*
X142068514Y-169901892D01*
X125170000Y-169901892D01*
X125170000Y-164780261D01*
X136053858Y-164780261D01*
X136266090Y-165293903D01*
X136658730Y-165687229D01*
X137172000Y-165900357D01*
X137727761Y-165900842D01*
X138241403Y-165688610D01*
X138634729Y-165295970D01*
X138847857Y-164782700D01*
X138848342Y-164226939D01*
X138636110Y-163713297D01*
X138243470Y-163319971D01*
X137730200Y-163106843D01*
X137174439Y-163106358D01*
X136660797Y-163318590D01*
X136267471Y-163711230D01*
X136054343Y-164224500D01*
X136053858Y-164780261D01*
X125170000Y-164780261D01*
X125170000Y-163711452D01*
X125452839Y-163994785D01*
X126099479Y-164263293D01*
X126799650Y-164263904D01*
X127446757Y-163996525D01*
X127942285Y-163501861D01*
X128210793Y-162855221D01*
X128210795Y-162852150D01*
X130690796Y-162852150D01*
X130958175Y-163499257D01*
X131452839Y-163994785D01*
X132099479Y-164263293D01*
X132799650Y-164263904D01*
X133446757Y-163996525D01*
X133942285Y-163501861D01*
X134210793Y-162855221D01*
X134211404Y-162155050D01*
X133944025Y-161507943D01*
X133449361Y-161012415D01*
X132802721Y-160743907D01*
X132102550Y-160743296D01*
X131455443Y-161010675D01*
X130959915Y-161505339D01*
X130691407Y-162151979D01*
X130690796Y-162852150D01*
X128210795Y-162852150D01*
X128211404Y-162155050D01*
X127944025Y-161507943D01*
X127449361Y-161012415D01*
X126802721Y-160743907D01*
X126102550Y-160743296D01*
X125455443Y-161010675D01*
X125170000Y-161295620D01*
X125170000Y-148875750D01*
X125365510Y-148875750D01*
X125365510Y-149715799D01*
X125462183Y-149949188D01*
X125640811Y-150127817D01*
X125703013Y-150153582D01*
X125489928Y-150472486D01*
X125365510Y-151097978D01*
X125365510Y-151162022D01*
X125489928Y-151787514D01*
X125844241Y-152317781D01*
X126374508Y-152672094D01*
X127000000Y-152796512D01*
X127625492Y-152672094D01*
X128155759Y-152317781D01*
X128510072Y-151787514D01*
X128516388Y-151755763D01*
X128534820Y-151800372D01*
X128867875Y-152134009D01*
X129303255Y-152314794D01*
X129774677Y-152315206D01*
X130210372Y-152135180D01*
X130544009Y-151802125D01*
X130724794Y-151366745D01*
X130725206Y-150895323D01*
X130545180Y-150459628D01*
X130212125Y-150125991D01*
X129776745Y-149945206D01*
X129305323Y-149944794D01*
X128869628Y-150124820D01*
X128535991Y-150457875D01*
X128516502Y-150504811D01*
X128510072Y-150472486D01*
X128296987Y-150153582D01*
X128359189Y-150127817D01*
X128537817Y-149949188D01*
X128634490Y-149715799D01*
X128634490Y-149360216D01*
X128867875Y-149594009D01*
X129303255Y-149774794D01*
X129774677Y-149775206D01*
X130210372Y-149595180D01*
X130544009Y-149262125D01*
X130724794Y-148826745D01*
X130725206Y-148355323D01*
X130545180Y-147919628D01*
X130212125Y-147585991D01*
X129776745Y-147405206D01*
X129305323Y-147404794D01*
X128869628Y-147584820D01*
X128634490Y-147819548D01*
X128634490Y-147464201D01*
X128537817Y-147230812D01*
X128359189Y-147052183D01*
X128125800Y-146955510D01*
X127285750Y-146955510D01*
X127127000Y-147114260D01*
X127127000Y-148463000D01*
X127147000Y-148463000D01*
X127147000Y-148717000D01*
X127127000Y-148717000D01*
X127127000Y-148737000D01*
X126873000Y-148737000D01*
X126873000Y-148717000D01*
X125524260Y-148717000D01*
X125365510Y-148875750D01*
X125170000Y-148875750D01*
X125170000Y-147464201D01*
X125365510Y-147464201D01*
X125365510Y-148304250D01*
X125524260Y-148463000D01*
X126873000Y-148463000D01*
X126873000Y-147114260D01*
X126714250Y-146955510D01*
X125874200Y-146955510D01*
X125640811Y-147052183D01*
X125462183Y-147230812D01*
X125365510Y-147464201D01*
X125170000Y-147464201D01*
X125170000Y-138715750D01*
X125865000Y-138715750D01*
X125865000Y-139056310D01*
X125961673Y-139289699D01*
X126140302Y-139468327D01*
X126373691Y-139565000D01*
X126714250Y-139565000D01*
X126873000Y-139406250D01*
X126873000Y-138557000D01*
X127127000Y-138557000D01*
X127127000Y-139406250D01*
X127285750Y-139565000D01*
X127626309Y-139565000D01*
X127859698Y-139468327D01*
X128038327Y-139289699D01*
X128135000Y-139056310D01*
X128135000Y-138715750D01*
X127976250Y-138557000D01*
X127127000Y-138557000D01*
X126873000Y-138557000D01*
X126023750Y-138557000D01*
X125865000Y-138715750D01*
X125170000Y-138715750D01*
X125170000Y-118561452D01*
X125452839Y-118844785D01*
X126099479Y-119113293D01*
X126799650Y-119113904D01*
X127446757Y-118846525D01*
X127942285Y-118351861D01*
X128210793Y-117705221D01*
X128210795Y-117702150D01*
X130690796Y-117702150D01*
X130958175Y-118349257D01*
X131452839Y-118844785D01*
X132099479Y-119113293D01*
X132799650Y-119113904D01*
X133446757Y-118846525D01*
X133942285Y-118351861D01*
X134210793Y-117705221D01*
X134211404Y-117005050D01*
X133944025Y-116357943D01*
X133449361Y-115862415D01*
X132890272Y-115630261D01*
X136053858Y-115630261D01*
X136266090Y-116143903D01*
X136658730Y-116537229D01*
X137172000Y-116750357D01*
X137727761Y-116750842D01*
X138241403Y-116538610D01*
X138634729Y-116145970D01*
X138847857Y-115632700D01*
X138848342Y-115076939D01*
X138636110Y-114563297D01*
X138243470Y-114169971D01*
X137730200Y-113956843D01*
X137174439Y-113956358D01*
X136660797Y-114168590D01*
X136267471Y-114561230D01*
X136054343Y-115074500D01*
X136053858Y-115630261D01*
X132890272Y-115630261D01*
X132802721Y-115593907D01*
X132102550Y-115593296D01*
X131455443Y-115860675D01*
X130959915Y-116355339D01*
X130691407Y-117001979D01*
X130690796Y-117702150D01*
X128210795Y-117702150D01*
X128211404Y-117005050D01*
X127944025Y-116357943D01*
X127449361Y-115862415D01*
X126802721Y-115593907D01*
X126102550Y-115593296D01*
X125455443Y-115860675D01*
X125170000Y-116145620D01*
X125170000Y-106561452D01*
X125452839Y-106844785D01*
X126099479Y-107113293D01*
X126799650Y-107113904D01*
X127446757Y-106846525D01*
X127942285Y-106351861D01*
X128210793Y-105705221D01*
X128210795Y-105702150D01*
X130690796Y-105702150D01*
X130958175Y-106349257D01*
X131452839Y-106844785D01*
X132099479Y-107113293D01*
X132799650Y-107113904D01*
X133446757Y-106846525D01*
X133942285Y-106351861D01*
X134210793Y-105705221D01*
X134211404Y-105005050D01*
X133944025Y-104357943D01*
X133449361Y-103862415D01*
X132802721Y-103593907D01*
X132102550Y-103593296D01*
X131455443Y-103860675D01*
X130959915Y-104355339D01*
X130691407Y-105001979D01*
X130690796Y-105702150D01*
X128210795Y-105702150D01*
X128211404Y-105005050D01*
X127944025Y-104357943D01*
X127449361Y-103862415D01*
X126802721Y-103593907D01*
X126102550Y-103593296D01*
X125455443Y-103860675D01*
X125170000Y-104145620D01*
X125170000Y-97230000D01*
X132695946Y-97230000D01*
X132663142Y-97309001D01*
X132663142Y-97309001D01*
G37*
X132663142Y-97309001D02*
X132662657Y-97864762D01*
X132874889Y-98378404D01*
X133267529Y-98771730D01*
X133780799Y-98984858D01*
X134336560Y-98985343D01*
X134368954Y-98971958D01*
X138297662Y-102900666D01*
X137936501Y-103049895D01*
X137543175Y-103442535D01*
X137392413Y-103805611D01*
X133464183Y-99877381D01*
X133476757Y-99847100D01*
X133477242Y-99291339D01*
X133265010Y-98777697D01*
X132872370Y-98384371D01*
X132359100Y-98171243D01*
X131803339Y-98170758D01*
X131289697Y-98382990D01*
X130896371Y-98775630D01*
X130683243Y-99288900D01*
X130682758Y-99844661D01*
X130894990Y-100358303D01*
X131287630Y-100751629D01*
X131800900Y-100964757D01*
X132356661Y-100965242D01*
X132389055Y-100951857D01*
X137393747Y-105956549D01*
X137174439Y-105956358D01*
X136660797Y-106168590D01*
X136267471Y-106561230D01*
X136054343Y-107074500D01*
X136053858Y-107630261D01*
X136266090Y-108143903D01*
X136658730Y-108537229D01*
X137172000Y-108750357D01*
X137727761Y-108750842D01*
X138241403Y-108538610D01*
X138634729Y-108145970D01*
X138847857Y-107632700D01*
X138848051Y-107410853D01*
X140197639Y-108760441D01*
X140197639Y-113618841D01*
X140193840Y-113618838D01*
X139850064Y-113760883D01*
X139586815Y-114023673D01*
X139444169Y-114367201D01*
X139443845Y-114739167D01*
X139585890Y-115082943D01*
X139619007Y-115116118D01*
X139619007Y-117251399D01*
X139316406Y-117251135D01*
X138972630Y-117393180D01*
X138709381Y-117655970D01*
X138566735Y-117999498D01*
X138566411Y-118371464D01*
X138708456Y-118715240D01*
X138741573Y-118748415D01*
X138741573Y-124343625D01*
X127894081Y-135191117D01*
X127824802Y-135087434D01*
X127456582Y-134841397D01*
X127022236Y-134755000D01*
X126977764Y-134755000D01*
X126543418Y-134841397D01*
X126175198Y-135087434D01*
X125929161Y-135455654D01*
X125842764Y-135890000D01*
X125929161Y-136324346D01*
X126063234Y-136525000D01*
X125929161Y-136725654D01*
X125842764Y-137160000D01*
X125929161Y-137594346D01*
X125943083Y-137615182D01*
X125865000Y-137803690D01*
X125865000Y-138144250D01*
X126023750Y-138303000D01*
X126873000Y-138303000D01*
X126873000Y-138283000D01*
X126917436Y-138283000D01*
X126977764Y-138295000D01*
X127022236Y-138295000D01*
X127082564Y-138283000D01*
X127127000Y-138283000D01*
X127127000Y-138303000D01*
X127976250Y-138303000D01*
X128135000Y-138144250D01*
X128135000Y-137803690D01*
X128056917Y-137615182D01*
X128070839Y-137594346D01*
X128157236Y-137160000D01*
X128143559Y-137091243D01*
X137563801Y-127671001D01*
X137563597Y-127905521D01*
X137705642Y-128249297D01*
X137738759Y-128282472D01*
X137738759Y-128796325D01*
X137690327Y-128747808D01*
X137346799Y-128605162D01*
X136974833Y-128604838D01*
X136631057Y-128746883D01*
X136367808Y-129009673D01*
X136225162Y-129353201D01*
X136225121Y-129400077D01*
X131542599Y-134082599D01*
X131377852Y-134329161D01*
X131320000Y-134620000D01*
X131320000Y-139772537D01*
X131287808Y-139804673D01*
X131145162Y-140148201D01*
X131144838Y-140520167D01*
X131286883Y-140863943D01*
X131394752Y-140972000D01*
X129340463Y-140972000D01*
X129308327Y-140939808D01*
X128964799Y-140797162D01*
X128592833Y-140796838D01*
X128249057Y-140938883D01*
X127985808Y-141201673D01*
X127843162Y-141545201D01*
X127842838Y-141917167D01*
X127984883Y-142260943D01*
X128247673Y-142524192D01*
X128591201Y-142666838D01*
X128963167Y-142667162D01*
X129306943Y-142525117D01*
X129340118Y-142492000D01*
X131412302Y-142492000D01*
X131506826Y-142555159D01*
X131797666Y-142613011D01*
X133023683Y-142613011D01*
X133023531Y-142787325D01*
X133165576Y-143131101D01*
X133198693Y-143164276D01*
X133198693Y-150194867D01*
X133164833Y-150194838D01*
X132821057Y-150336883D01*
X132557808Y-150599673D01*
X132415162Y-150943201D01*
X132414838Y-151315167D01*
X132556883Y-151658943D01*
X132590000Y-151692118D01*
X132590000Y-152472537D01*
X132557808Y-152504673D01*
X132415162Y-152848201D01*
X132414838Y-153220167D01*
X132556883Y-153563943D01*
X132819673Y-153827192D01*
X133163201Y-153969838D01*
X133521001Y-153970150D01*
X133521001Y-157607337D01*
X133409799Y-157561162D01*
X133037833Y-157560838D01*
X132694057Y-157702883D01*
X132430808Y-157965673D01*
X132288162Y-158309201D01*
X132287838Y-158681167D01*
X132429883Y-159024943D01*
X132692673Y-159288192D01*
X133036201Y-159430838D01*
X133408167Y-159431162D01*
X133729900Y-159298225D01*
X133826883Y-159532943D01*
X134089673Y-159796192D01*
X134433201Y-159938838D01*
X134805167Y-159939162D01*
X135148943Y-159797117D01*
X135188163Y-159757965D01*
X142088229Y-166658031D01*
X142025000Y-166975907D01*
X142025000Y-167034093D01*
X142138039Y-167602378D01*
X142459946Y-168084147D01*
X142743101Y-168273345D01*
X142743076Y-168273355D01*
X142314817Y-168663642D01*
X142068514Y-169188108D01*
X142189181Y-169418000D01*
X143383000Y-169418000D01*
X143383000Y-169398000D01*
X143637000Y-169398000D01*
X143637000Y-169418000D01*
X143657000Y-169418000D01*
X143657000Y-169672000D01*
X143637000Y-169672000D01*
X143637000Y-170865155D01*
X143866890Y-170986476D01*
X144276924Y-170816645D01*
X144705183Y-170426358D01*
X144772298Y-170283447D01*
X144999946Y-170624147D01*
X145480174Y-170945024D01*
X145275320Y-171149878D01*
X145229833Y-171149838D01*
X144886057Y-171291883D01*
X144622808Y-171554673D01*
X144480162Y-171898201D01*
X144479838Y-172270167D01*
X144621883Y-172613943D01*
X144884673Y-172877192D01*
X145228201Y-173019838D01*
X145300608Y-173019901D01*
X145054448Y-173238179D01*
X144870732Y-173612062D01*
X144997266Y-173783000D01*
X145963000Y-173783000D01*
X145963000Y-172957437D01*
X146217000Y-172957437D01*
X146217000Y-173783000D01*
X147182734Y-173783000D01*
X147309268Y-173612062D01*
X147125552Y-173238179D01*
X146801049Y-172950432D01*
X146391131Y-172808771D01*
X146217000Y-172957437D01*
X145963000Y-172957437D01*
X145894178Y-172898679D01*
X145943943Y-172878117D01*
X146207192Y-172615327D01*
X146349838Y-172271799D01*
X146349879Y-172224923D01*
X147786148Y-170788654D01*
X148021715Y-170946054D01*
X148590000Y-171059093D01*
X149158285Y-170946054D01*
X149640054Y-170624147D01*
X149860000Y-170294974D01*
X150079946Y-170624147D01*
X150561715Y-170946054D01*
X151130000Y-171059093D01*
X151698285Y-170946054D01*
X152180054Y-170624147D01*
X152407702Y-170283447D01*
X152474817Y-170426358D01*
X152903076Y-170816645D01*
X152962473Y-170841247D01*
X152478720Y-171325000D01*
X150778063Y-171325000D01*
X150745927Y-171292808D01*
X150402399Y-171150162D01*
X150030433Y-171149838D01*
X149686657Y-171291883D01*
X149423408Y-171554673D01*
X149280762Y-171898201D01*
X149280438Y-172270167D01*
X149422483Y-172613943D01*
X149685273Y-172877192D01*
X150028801Y-173019838D01*
X150300412Y-173020075D01*
X150054448Y-173238179D01*
X149870732Y-173612062D01*
X149997266Y-173783000D01*
X150963000Y-173783000D01*
X150963000Y-173763000D01*
X151217000Y-173763000D01*
X151217000Y-173783000D01*
X152182734Y-173783000D01*
X152309268Y-173612062D01*
X152125552Y-173238179D01*
X151801049Y-172950432D01*
X151495965Y-172845000D01*
X152793522Y-172845000D01*
X153084361Y-172787148D01*
X153330923Y-172622401D01*
X155331402Y-170621922D01*
X155496149Y-170375360D01*
X155554001Y-170084521D01*
X155554001Y-167880478D01*
X155581449Y-167880478D01*
X155723494Y-168224254D01*
X155986284Y-168487503D01*
X156329812Y-168630149D01*
X156376688Y-168630190D01*
X158791100Y-171044602D01*
X158791100Y-171306069D01*
X158760797Y-171318590D01*
X158367471Y-171711230D01*
X158154343Y-172224500D01*
X158153858Y-172780261D01*
X158366090Y-173293903D01*
X158758730Y-173687229D01*
X159272000Y-173900357D01*
X159827761Y-173900842D01*
X160341403Y-173688610D01*
X160734729Y-173295970D01*
X160947857Y-172782700D01*
X160948342Y-172226939D01*
X160736110Y-171713297D01*
X160343470Y-171319971D01*
X160311100Y-171306530D01*
X160311100Y-170729800D01*
X160253248Y-170438961D01*
X160088501Y-170192399D01*
X157451733Y-167555631D01*
X157451773Y-167510144D01*
X157309728Y-167166368D01*
X157046938Y-166903119D01*
X156703410Y-166760473D01*
X156331444Y-166760149D01*
X155987668Y-166902194D01*
X155724419Y-167164984D01*
X155581773Y-167508512D01*
X155581449Y-167880478D01*
X155554001Y-167880478D01*
X155554001Y-162721105D01*
X155541521Y-162658365D01*
X155564573Y-162648840D01*
X155827822Y-162386050D01*
X155970468Y-162042522D01*
X155970507Y-161997809D01*
X158166917Y-164194219D01*
X158154343Y-164224500D01*
X158153858Y-164780261D01*
X158366090Y-165293903D01*
X158758730Y-165687229D01*
X159272000Y-165900357D01*
X159827761Y-165900842D01*
X160341403Y-165688610D01*
X160734729Y-165295970D01*
X160947857Y-164782700D01*
X160948342Y-164226939D01*
X160736110Y-163713297D01*
X160343470Y-163319971D01*
X159830200Y-163106843D01*
X159274439Y-163106358D01*
X159242045Y-163119743D01*
X158974452Y-162852150D01*
X162790796Y-162852150D01*
X163058175Y-163499257D01*
X163552839Y-163994785D01*
X164199479Y-164263293D01*
X164899650Y-164263904D01*
X165546757Y-163996525D01*
X166042285Y-163501861D01*
X166310793Y-162855221D01*
X166311404Y-162155050D01*
X166044025Y-161507943D01*
X165549361Y-161012415D01*
X164902721Y-160743907D01*
X164202550Y-160743296D01*
X163555443Y-161010675D01*
X163059915Y-161505339D01*
X162791407Y-162151979D01*
X162790796Y-162852150D01*
X158974452Y-162852150D01*
X156782800Y-160660498D01*
X156782879Y-160569877D01*
X156640834Y-160226101D01*
X156378044Y-159962852D01*
X156248536Y-159909076D01*
X156808399Y-159349213D01*
X156973146Y-159102652D01*
X157030998Y-158811812D01*
X157030998Y-154930800D01*
X157577599Y-155477401D01*
X157824160Y-155642148D01*
X158115000Y-155700000D01*
X158187537Y-155700000D01*
X158219673Y-155732192D01*
X158563201Y-155874838D01*
X158935167Y-155875162D01*
X159278943Y-155733117D01*
X159542192Y-155470327D01*
X159684838Y-155126799D01*
X159685162Y-154754833D01*
X159543117Y-154411057D01*
X159280327Y-154147808D01*
X158936799Y-154005162D01*
X158564833Y-154004838D01*
X158345335Y-154095533D01*
X157780122Y-153530320D01*
X157780162Y-153484833D01*
X157638117Y-153141057D01*
X157502171Y-153004873D01*
X169729812Y-153004873D01*
X169894646Y-153403800D01*
X170199595Y-153709282D01*
X170598233Y-153874811D01*
X171029873Y-153875188D01*
X171428800Y-153710354D01*
X171734282Y-153405405D01*
X171899811Y-153006767D01*
X171900188Y-152575127D01*
X171735354Y-152176200D01*
X171430405Y-151870718D01*
X171031767Y-151705189D01*
X170600127Y-151704812D01*
X170201200Y-151869646D01*
X169895718Y-152174595D01*
X169730189Y-152573233D01*
X169729812Y-153004873D01*
X157502171Y-153004873D01*
X157375327Y-152877808D01*
X157056343Y-152745354D01*
X157056343Y-150498450D01*
X157224568Y-150568303D01*
X157596534Y-150568627D01*
X157940310Y-150426582D01*
X157973485Y-150393465D01*
X158229475Y-150393465D01*
X158520314Y-150335613D01*
X158766876Y-150170866D01*
X158932869Y-150004873D01*
X169729812Y-150004873D01*
X169894646Y-150403800D01*
X170199595Y-150709282D01*
X170598233Y-150874811D01*
X171029873Y-150875188D01*
X171428800Y-150710354D01*
X171734282Y-150405405D01*
X171899811Y-150006767D01*
X171900188Y-149575127D01*
X171735354Y-149176200D01*
X171430405Y-148870718D01*
X171031767Y-148705189D01*
X170600127Y-148704812D01*
X170201200Y-148869646D01*
X169895718Y-149174595D01*
X169730189Y-149573233D01*
X169729812Y-150004873D01*
X158932869Y-150004873D01*
X160025592Y-148912150D01*
X160071079Y-148912190D01*
X160414855Y-148770145D01*
X160678104Y-148507355D01*
X160820750Y-148163827D01*
X160821074Y-147791861D01*
X160679029Y-147448085D01*
X160416239Y-147184836D01*
X160072711Y-147042190D01*
X159700745Y-147041866D01*
X159356969Y-147183911D01*
X159093720Y-147446701D01*
X158951074Y-147790229D01*
X158951033Y-147837105D01*
X157944277Y-148843861D01*
X157941694Y-148841273D01*
X157598166Y-148698627D01*
X157226200Y-148698303D01*
X157056343Y-148768486D01*
X157056343Y-146784274D01*
X157088535Y-146752138D01*
X157231181Y-146408610D01*
X157231278Y-146297237D01*
X157489655Y-146404525D01*
X157861621Y-146404849D01*
X158205397Y-146262804D01*
X158360304Y-146108167D01*
X161751838Y-146108167D01*
X161893883Y-146451943D01*
X162076615Y-146634994D01*
X161938088Y-146968602D01*
X161937764Y-147340568D01*
X162079809Y-147684344D01*
X162342599Y-147947593D01*
X162686127Y-148090239D01*
X163058093Y-148090563D01*
X163401869Y-147948518D01*
X163665118Y-147685728D01*
X163807764Y-147342200D01*
X163808088Y-146970234D01*
X163666043Y-146626458D01*
X163632926Y-146593283D01*
X163632926Y-146108926D01*
X163621887Y-146053430D01*
X163622162Y-145737833D01*
X163480117Y-145394057D01*
X163217327Y-145130808D01*
X162873799Y-144988162D01*
X162501833Y-144987838D01*
X162158057Y-145129883D01*
X161894808Y-145392673D01*
X161752162Y-145736201D01*
X161751838Y-146108167D01*
X158360304Y-146108167D01*
X158468646Y-146000014D01*
X158611292Y-145656486D01*
X158611616Y-145284520D01*
X158469571Y-144940744D01*
X158222261Y-144693002D01*
X164676998Y-144693002D01*
X164967837Y-144635150D01*
X165214399Y-144470403D01*
X170126100Y-139558702D01*
X170157764Y-139565000D01*
X170202236Y-139565000D01*
X170636582Y-139478603D01*
X171004802Y-139232566D01*
X171250839Y-138864346D01*
X171337236Y-138430000D01*
X171250839Y-137995654D01*
X171116766Y-137795000D01*
X171250839Y-137594346D01*
X171337236Y-137160000D01*
X171250839Y-136725654D01*
X171236917Y-136704818D01*
X171315000Y-136516310D01*
X171315000Y-136175750D01*
X171156250Y-136017000D01*
X170307000Y-136017000D01*
X170307000Y-136037000D01*
X170262564Y-136037000D01*
X170202236Y-136025000D01*
X170157764Y-136025000D01*
X170097436Y-136037000D01*
X170053000Y-136037000D01*
X170053000Y-136017000D01*
X170033000Y-136017000D01*
X170033000Y-135763000D01*
X170053000Y-135763000D01*
X170053000Y-134913750D01*
X170307000Y-134913750D01*
X170307000Y-135763000D01*
X171156250Y-135763000D01*
X171315000Y-135604250D01*
X171315000Y-135263690D01*
X171218327Y-135030301D01*
X171039698Y-134851673D01*
X170806309Y-134755000D01*
X170465750Y-134755000D01*
X170307000Y-134913750D01*
X170053000Y-134913750D01*
X169894250Y-134755000D01*
X169553691Y-134755000D01*
X169320302Y-134851673D01*
X169141673Y-135030301D01*
X169045000Y-135263690D01*
X169045000Y-135604250D01*
X169203748Y-135762998D01*
X169150694Y-135762998D01*
X162729745Y-129342049D01*
X162729745Y-126572063D01*
X162850368Y-126522223D01*
X163113617Y-126259433D01*
X163256263Y-125915905D01*
X163256587Y-125543939D01*
X163114542Y-125200163D01*
X162851752Y-124936914D01*
X162508224Y-124794268D01*
X162329679Y-124794112D01*
X162329679Y-119250739D01*
X162271827Y-118959900D01*
X162204760Y-118859527D01*
X162204842Y-118765573D01*
X162062797Y-118421797D01*
X161800007Y-118158548D01*
X161456479Y-118015902D01*
X161084513Y-118015578D01*
X160740737Y-118157623D01*
X160687535Y-118210733D01*
X160178952Y-117702150D01*
X162790796Y-117702150D01*
X163058175Y-118349257D01*
X163552839Y-118844785D01*
X164199479Y-119113293D01*
X164899650Y-119113904D01*
X165546757Y-118846525D01*
X166042285Y-118351861D01*
X166310793Y-117705221D01*
X166311404Y-117005050D01*
X166044025Y-116357943D01*
X165549361Y-115862415D01*
X164902721Y-115593907D01*
X164202550Y-115593296D01*
X163555443Y-115860675D01*
X163059915Y-116355339D01*
X162791407Y-117001979D01*
X162790796Y-117702150D01*
X160178952Y-117702150D01*
X159195318Y-116718516D01*
X159272000Y-116750357D01*
X159827761Y-116750842D01*
X160341403Y-116538610D01*
X160734729Y-116145970D01*
X160947857Y-115632700D01*
X160948342Y-115076939D01*
X160736110Y-114563297D01*
X160343470Y-114169971D01*
X159830200Y-113956843D01*
X159274439Y-113956358D01*
X158760797Y-114168590D01*
X158367471Y-114561230D01*
X158354030Y-114593600D01*
X157421982Y-114593600D01*
X157316247Y-114572568D01*
X156274404Y-113530725D01*
X156159365Y-113252308D01*
X155896575Y-112989059D01*
X155578340Y-112856916D01*
X155862180Y-112739636D01*
X156125429Y-112476846D01*
X156268075Y-112133318D01*
X156268399Y-111761352D01*
X156126354Y-111417576D01*
X156093237Y-111384401D01*
X156093237Y-111296710D01*
X158825142Y-108564805D01*
X159272000Y-108750357D01*
X159827761Y-108750842D01*
X160341403Y-108538610D01*
X160734729Y-108145970D01*
X160947857Y-107632700D01*
X160948342Y-107076939D01*
X160736110Y-106563297D01*
X160343470Y-106169971D01*
X159830200Y-105956843D01*
X159274439Y-105956358D01*
X158760797Y-106168590D01*
X158367471Y-106561230D01*
X158154343Y-107074500D01*
X158154333Y-107086010D01*
X154795836Y-110444507D01*
X154631089Y-110691069D01*
X154573237Y-110981908D01*
X154573237Y-111384056D01*
X154541045Y-111416192D01*
X154445832Y-111645488D01*
X153050560Y-110250216D01*
X152803998Y-110085469D01*
X152772008Y-110079106D01*
X152844652Y-109904161D01*
X152844693Y-109857285D01*
X153168669Y-109533309D01*
X153296310Y-109661174D01*
X153809580Y-109874302D01*
X154365341Y-109874787D01*
X154878983Y-109662555D01*
X155272309Y-109269915D01*
X155485437Y-108756645D01*
X155485922Y-108200884D01*
X155273690Y-107687242D01*
X154881050Y-107293916D01*
X154367780Y-107080788D01*
X153812019Y-107080303D01*
X153298377Y-107292535D01*
X152905051Y-107685175D01*
X152868380Y-107773490D01*
X152858792Y-107775397D01*
X152612230Y-107940144D01*
X151770134Y-108782240D01*
X151744217Y-108782217D01*
X151744217Y-107203045D01*
X151828691Y-107238122D01*
X152200657Y-107238446D01*
X152544433Y-107096401D01*
X152807682Y-106833611D01*
X152950328Y-106490083D01*
X152950369Y-106443207D01*
X153365941Y-106027635D01*
X155068889Y-106027635D01*
X155210934Y-106371411D01*
X155473724Y-106634660D01*
X155817252Y-106777306D01*
X156189218Y-106777630D01*
X156532994Y-106635585D01*
X156566169Y-106602468D01*
X156723757Y-106602468D01*
X157014596Y-106544616D01*
X157261158Y-106379869D01*
X157938877Y-105702150D01*
X162790796Y-105702150D01*
X163058175Y-106349257D01*
X163552839Y-106844785D01*
X164199479Y-107113293D01*
X164899650Y-107113904D01*
X165546757Y-106846525D01*
X166042285Y-106351861D01*
X166310793Y-105705221D01*
X166311404Y-105005050D01*
X166044025Y-104357943D01*
X165549361Y-103862415D01*
X164902721Y-103593907D01*
X164202550Y-103593296D01*
X163555443Y-103860675D01*
X163059915Y-104355339D01*
X162791407Y-105001979D01*
X162790796Y-105702150D01*
X157938877Y-105702150D01*
X158021939Y-105619088D01*
X158052220Y-105631662D01*
X158607981Y-105632147D01*
X159121623Y-105419915D01*
X159514949Y-105027275D01*
X159728077Y-104514005D01*
X159728562Y-103958244D01*
X159516330Y-103444602D01*
X159123690Y-103051276D01*
X158610420Y-102838148D01*
X158054659Y-102837663D01*
X157541017Y-103049895D01*
X157147691Y-103442535D01*
X156934563Y-103955805D01*
X156934078Y-104511566D01*
X156947463Y-104543960D01*
X156468501Y-105022922D01*
X156190850Y-104907630D01*
X155818884Y-104907306D01*
X155475108Y-105049351D01*
X155211859Y-105312141D01*
X155069213Y-105655669D01*
X155068889Y-106027635D01*
X153365941Y-106027635D01*
X158303577Y-101089999D01*
X164216125Y-101089999D01*
X164506964Y-101032147D01*
X164642776Y-100941401D01*
X164699024Y-100964757D01*
X165254785Y-100965242D01*
X165768427Y-100753010D01*
X166161753Y-100360370D01*
X166374881Y-99847100D01*
X166375366Y-99291339D01*
X166163134Y-98777697D01*
X165770494Y-98384371D01*
X165257224Y-98171243D01*
X164701463Y-98170758D01*
X164187821Y-98382990D01*
X163794495Y-98775630D01*
X163581367Y-99288900D01*
X163581122Y-99569999D01*
X158811519Y-99569999D01*
X159184346Y-99495839D01*
X159394304Y-99355549D01*
X159459791Y-99412127D01*
X159718126Y-99519119D01*
X159893000Y-99392954D01*
X159893000Y-98552000D01*
X160147000Y-98552000D01*
X160147000Y-99392954D01*
X160321874Y-99519119D01*
X160580209Y-99412127D01*
X160915323Y-99122604D01*
X161114132Y-98726877D01*
X160989135Y-98552000D01*
X160147000Y-98552000D01*
X159893000Y-98552000D01*
X159873000Y-98552000D01*
X159873000Y-98507564D01*
X159885000Y-98447236D01*
X159885000Y-98402764D01*
X159873000Y-98342436D01*
X159873000Y-98298000D01*
X159893000Y-98298000D01*
X159893000Y-97457046D01*
X160147000Y-97457046D01*
X160147000Y-98298000D01*
X160989135Y-98298000D01*
X161114132Y-98123123D01*
X160915323Y-97727396D01*
X160580209Y-97437873D01*
X160321874Y-97330881D01*
X160147000Y-97457046D01*
X159893000Y-97457046D01*
X159718126Y-97330881D01*
X159459791Y-97437873D01*
X159394304Y-97494451D01*
X159184346Y-97354161D01*
X158750000Y-97267764D01*
X158315654Y-97354161D01*
X158292241Y-97369805D01*
X158231890Y-97328569D01*
X157980000Y-97277560D01*
X156980000Y-97277560D01*
X156744683Y-97321838D01*
X156528559Y-97460910D01*
X156383569Y-97673110D01*
X156332560Y-97925000D01*
X156332560Y-98925000D01*
X156376838Y-99160317D01*
X156515910Y-99376441D01*
X156728110Y-99521431D01*
X156980000Y-99572440D01*
X157976503Y-99572440D01*
X157697936Y-99627851D01*
X157451374Y-99792598D01*
X152040001Y-105203971D01*
X152040001Y-99210001D01*
X152030118Y-99160317D01*
X151982149Y-98919161D01*
X151817402Y-98672600D01*
X150988702Y-97843900D01*
X150995000Y-97812236D01*
X150995000Y-97767764D01*
X150908603Y-97333418D01*
X150839501Y-97230000D01*
X161634272Y-97230000D01*
X161601468Y-97309001D01*
X161600983Y-97864762D01*
X161813215Y-98378404D01*
X162205855Y-98771730D01*
X162719125Y-98984858D01*
X163274886Y-98985343D01*
X163788528Y-98773111D01*
X164181854Y-98380471D01*
X164394982Y-97867201D01*
X164395467Y-97311440D01*
X164361817Y-97230000D01*
X172010000Y-97230000D01*
X172010000Y-104323859D01*
X171549361Y-103862415D01*
X170902721Y-103593907D01*
X170202550Y-103593296D01*
X169555443Y-103860675D01*
X169059915Y-104355339D01*
X168791407Y-105001979D01*
X168790796Y-105702150D01*
X169058175Y-106349257D01*
X169552839Y-106844785D01*
X170199479Y-107113293D01*
X170899650Y-107113904D01*
X171546757Y-106846525D01*
X172010000Y-106384090D01*
X172010000Y-116323859D01*
X171549361Y-115862415D01*
X170902721Y-115593907D01*
X170202550Y-115593296D01*
X169555443Y-115860675D01*
X169059915Y-116355339D01*
X168791407Y-117001979D01*
X168790796Y-117702150D01*
X169058175Y-118349257D01*
X169552839Y-118844785D01*
X170199479Y-119113293D01*
X170899650Y-119113904D01*
X171546757Y-118846525D01*
X172010000Y-118384090D01*
X172010000Y-161473859D01*
X171549361Y-161012415D01*
X170902721Y-160743907D01*
X170202550Y-160743296D01*
X169555443Y-161010675D01*
X169059915Y-161505339D01*
X168791407Y-162151979D01*
X168790796Y-162852150D01*
X169058175Y-163499257D01*
X169552839Y-163994785D01*
X170199479Y-164263293D01*
X170899650Y-164263904D01*
X171546757Y-163996525D01*
X172010000Y-163534090D01*
X172010000Y-173473859D01*
X171549361Y-173012415D01*
X170902721Y-172743907D01*
X170202550Y-172743296D01*
X169555443Y-173010675D01*
X169059915Y-173505339D01*
X168791407Y-174151979D01*
X168790796Y-174852150D01*
X169058175Y-175499257D01*
X169552839Y-175994785D01*
X170199479Y-176263293D01*
X170899650Y-176263904D01*
X171546757Y-175996525D01*
X172010000Y-175534090D01*
X172010000Y-177090000D01*
X153200205Y-177090000D01*
X153225000Y-177012000D01*
X153225000Y-176737000D01*
X152217000Y-176737000D01*
X152217000Y-176757000D01*
X151963000Y-176757000D01*
X151963000Y-176737000D01*
X150955000Y-176737000D01*
X150955000Y-177012000D01*
X150979795Y-177090000D01*
X146200205Y-177090000D01*
X146225000Y-177012000D01*
X146225000Y-176737000D01*
X145217000Y-176737000D01*
X145217000Y-176757000D01*
X144963000Y-176757000D01*
X144963000Y-176737000D01*
X143955000Y-176737000D01*
X143955000Y-177012000D01*
X143979795Y-177090000D01*
X125170000Y-177090000D01*
X125170000Y-175711452D01*
X125452839Y-175994785D01*
X126099479Y-176263293D01*
X126799650Y-176263904D01*
X127446757Y-175996525D01*
X127942285Y-175501861D01*
X128210793Y-174855221D01*
X128210795Y-174852150D01*
X130690796Y-174852150D01*
X130958175Y-175499257D01*
X131452839Y-175994785D01*
X132099479Y-176263293D01*
X132799650Y-176263904D01*
X132934948Y-176208000D01*
X143955000Y-176208000D01*
X143955000Y-176483000D01*
X144963000Y-176483000D01*
X144963000Y-175367046D01*
X145217000Y-175367046D01*
X145217000Y-176483000D01*
X146225000Y-176483000D01*
X146225000Y-176208000D01*
X150955000Y-176208000D01*
X150955000Y-176483000D01*
X151963000Y-176483000D01*
X151963000Y-175367046D01*
X152217000Y-175367046D01*
X152217000Y-176483000D01*
X153225000Y-176483000D01*
X153225000Y-176208000D01*
X153090002Y-175783322D01*
X152802763Y-175442632D01*
X152391874Y-175240881D01*
X152217000Y-175367046D01*
X151963000Y-175367046D01*
X151788126Y-175240881D01*
X151377237Y-175442632D01*
X151089998Y-175783322D01*
X150955000Y-176208000D01*
X146225000Y-176208000D01*
X146090002Y-175783322D01*
X145802763Y-175442632D01*
X145391874Y-175240881D01*
X145217000Y-175367046D01*
X144963000Y-175367046D01*
X144788126Y-175240881D01*
X144377237Y-175442632D01*
X144089998Y-175783322D01*
X143955000Y-176208000D01*
X132934948Y-176208000D01*
X133446757Y-175996525D01*
X133942285Y-175501861D01*
X134210793Y-174855221D01*
X134211357Y-174207938D01*
X144870732Y-174207938D01*
X145054448Y-174581821D01*
X145378951Y-174869568D01*
X145788869Y-175011229D01*
X145963000Y-174862563D01*
X145963000Y-174037000D01*
X146217000Y-174037000D01*
X146217000Y-174862563D01*
X146391131Y-175011229D01*
X146801049Y-174869568D01*
X147125552Y-174581821D01*
X147309268Y-174207938D01*
X149870732Y-174207938D01*
X150054448Y-174581821D01*
X150378951Y-174869568D01*
X150788869Y-175011229D01*
X150963000Y-174862563D01*
X150963000Y-174037000D01*
X151217000Y-174037000D01*
X151217000Y-174862563D01*
X151391131Y-175011229D01*
X151801049Y-174869568D01*
X151820691Y-174852150D01*
X162790796Y-174852150D01*
X163058175Y-175499257D01*
X163552839Y-175994785D01*
X164199479Y-176263293D01*
X164899650Y-176263904D01*
X165546757Y-175996525D01*
X166042285Y-175501861D01*
X166310793Y-174855221D01*
X166311404Y-174155050D01*
X166044025Y-173507943D01*
X165549361Y-173012415D01*
X164902721Y-172743907D01*
X164202550Y-172743296D01*
X163555443Y-173010675D01*
X163059915Y-173505339D01*
X162791407Y-174151979D01*
X162790796Y-174852150D01*
X151820691Y-174852150D01*
X152125552Y-174581821D01*
X152309268Y-174207938D01*
X152182734Y-174037000D01*
X151217000Y-174037000D01*
X150963000Y-174037000D01*
X149997266Y-174037000D01*
X149870732Y-174207938D01*
X147309268Y-174207938D01*
X147182734Y-174037000D01*
X146217000Y-174037000D01*
X145963000Y-174037000D01*
X144997266Y-174037000D01*
X144870732Y-174207938D01*
X134211357Y-174207938D01*
X134211404Y-174155050D01*
X133944025Y-173507943D01*
X133449361Y-173012415D01*
X132890272Y-172780261D01*
X136053858Y-172780261D01*
X136266090Y-173293903D01*
X136658730Y-173687229D01*
X137172000Y-173900357D01*
X137727761Y-173900842D01*
X138241403Y-173688610D01*
X138634729Y-173295970D01*
X138847857Y-172782700D01*
X138848342Y-172226939D01*
X138636110Y-171713297D01*
X138243470Y-171319971D01*
X137730200Y-171106843D01*
X137174439Y-171106358D01*
X136660797Y-171318590D01*
X136267471Y-171711230D01*
X136054343Y-172224500D01*
X136053858Y-172780261D01*
X132890272Y-172780261D01*
X132802721Y-172743907D01*
X132102550Y-172743296D01*
X131455443Y-173010675D01*
X130959915Y-173505339D01*
X130691407Y-174151979D01*
X130690796Y-174852150D01*
X128210795Y-174852150D01*
X128211404Y-174155050D01*
X127944025Y-173507943D01*
X127449361Y-173012415D01*
X126802721Y-172743907D01*
X126102550Y-172743296D01*
X125455443Y-173010675D01*
X125170000Y-173295620D01*
X125170000Y-169901892D01*
X142068514Y-169901892D01*
X142314817Y-170426358D01*
X142743076Y-170816645D01*
X143153110Y-170986476D01*
X143383000Y-170865155D01*
X143383000Y-169672000D01*
X142189181Y-169672000D01*
X142068514Y-169901892D01*
X125170000Y-169901892D01*
X125170000Y-164780261D01*
X136053858Y-164780261D01*
X136266090Y-165293903D01*
X136658730Y-165687229D01*
X137172000Y-165900357D01*
X137727761Y-165900842D01*
X138241403Y-165688610D01*
X138634729Y-165295970D01*
X138847857Y-164782700D01*
X138848342Y-164226939D01*
X138636110Y-163713297D01*
X138243470Y-163319971D01*
X137730200Y-163106843D01*
X137174439Y-163106358D01*
X136660797Y-163318590D01*
X136267471Y-163711230D01*
X136054343Y-164224500D01*
X136053858Y-164780261D01*
X125170000Y-164780261D01*
X125170000Y-163711452D01*
X125452839Y-163994785D01*
X126099479Y-164263293D01*
X126799650Y-164263904D01*
X127446757Y-163996525D01*
X127942285Y-163501861D01*
X128210793Y-162855221D01*
X128210795Y-162852150D01*
X130690796Y-162852150D01*
X130958175Y-163499257D01*
X131452839Y-163994785D01*
X132099479Y-164263293D01*
X132799650Y-164263904D01*
X133446757Y-163996525D01*
X133942285Y-163501861D01*
X134210793Y-162855221D01*
X134211404Y-162155050D01*
X133944025Y-161507943D01*
X133449361Y-161012415D01*
X132802721Y-160743907D01*
X132102550Y-160743296D01*
X131455443Y-161010675D01*
X130959915Y-161505339D01*
X130691407Y-162151979D01*
X130690796Y-162852150D01*
X128210795Y-162852150D01*
X128211404Y-162155050D01*
X127944025Y-161507943D01*
X127449361Y-161012415D01*
X126802721Y-160743907D01*
X126102550Y-160743296D01*
X125455443Y-161010675D01*
X125170000Y-161295620D01*
X125170000Y-148875750D01*
X125365510Y-148875750D01*
X125365510Y-149715799D01*
X125462183Y-149949188D01*
X125640811Y-150127817D01*
X125703013Y-150153582D01*
X125489928Y-150472486D01*
X125365510Y-151097978D01*
X125365510Y-151162022D01*
X125489928Y-151787514D01*
X125844241Y-152317781D01*
X126374508Y-152672094D01*
X127000000Y-152796512D01*
X127625492Y-152672094D01*
X128155759Y-152317781D01*
X128510072Y-151787514D01*
X128516388Y-151755763D01*
X128534820Y-151800372D01*
X128867875Y-152134009D01*
X129303255Y-152314794D01*
X129774677Y-152315206D01*
X130210372Y-152135180D01*
X130544009Y-151802125D01*
X130724794Y-151366745D01*
X130725206Y-150895323D01*
X130545180Y-150459628D01*
X130212125Y-150125991D01*
X129776745Y-149945206D01*
X129305323Y-149944794D01*
X128869628Y-150124820D01*
X128535991Y-150457875D01*
X128516502Y-150504811D01*
X128510072Y-150472486D01*
X128296987Y-150153582D01*
X128359189Y-150127817D01*
X128537817Y-149949188D01*
X128634490Y-149715799D01*
X128634490Y-149360216D01*
X128867875Y-149594009D01*
X129303255Y-149774794D01*
X129774677Y-149775206D01*
X130210372Y-149595180D01*
X130544009Y-149262125D01*
X130724794Y-148826745D01*
X130725206Y-148355323D01*
X130545180Y-147919628D01*
X130212125Y-147585991D01*
X129776745Y-147405206D01*
X129305323Y-147404794D01*
X128869628Y-147584820D01*
X128634490Y-147819548D01*
X128634490Y-147464201D01*
X128537817Y-147230812D01*
X128359189Y-147052183D01*
X128125800Y-146955510D01*
X127285750Y-146955510D01*
X127127000Y-147114260D01*
X127127000Y-148463000D01*
X127147000Y-148463000D01*
X127147000Y-148717000D01*
X127127000Y-148717000D01*
X127127000Y-148737000D01*
X126873000Y-148737000D01*
X126873000Y-148717000D01*
X125524260Y-148717000D01*
X125365510Y-148875750D01*
X125170000Y-148875750D01*
X125170000Y-147464201D01*
X125365510Y-147464201D01*
X125365510Y-148304250D01*
X125524260Y-148463000D01*
X126873000Y-148463000D01*
X126873000Y-147114260D01*
X126714250Y-146955510D01*
X125874200Y-146955510D01*
X125640811Y-147052183D01*
X125462183Y-147230812D01*
X125365510Y-147464201D01*
X125170000Y-147464201D01*
X125170000Y-138715750D01*
X125865000Y-138715750D01*
X125865000Y-139056310D01*
X125961673Y-139289699D01*
X126140302Y-139468327D01*
X126373691Y-139565000D01*
X126714250Y-139565000D01*
X126873000Y-139406250D01*
X126873000Y-138557000D01*
X127127000Y-138557000D01*
X127127000Y-139406250D01*
X127285750Y-139565000D01*
X127626309Y-139565000D01*
X127859698Y-139468327D01*
X128038327Y-139289699D01*
X128135000Y-139056310D01*
X128135000Y-138715750D01*
X127976250Y-138557000D01*
X127127000Y-138557000D01*
X126873000Y-138557000D01*
X126023750Y-138557000D01*
X125865000Y-138715750D01*
X125170000Y-138715750D01*
X125170000Y-118561452D01*
X125452839Y-118844785D01*
X126099479Y-119113293D01*
X126799650Y-119113904D01*
X127446757Y-118846525D01*
X127942285Y-118351861D01*
X128210793Y-117705221D01*
X128210795Y-117702150D01*
X130690796Y-117702150D01*
X130958175Y-118349257D01*
X131452839Y-118844785D01*
X132099479Y-119113293D01*
X132799650Y-119113904D01*
X133446757Y-118846525D01*
X133942285Y-118351861D01*
X134210793Y-117705221D01*
X134211404Y-117005050D01*
X133944025Y-116357943D01*
X133449361Y-115862415D01*
X132890272Y-115630261D01*
X136053858Y-115630261D01*
X136266090Y-116143903D01*
X136658730Y-116537229D01*
X137172000Y-116750357D01*
X137727761Y-116750842D01*
X138241403Y-116538610D01*
X138634729Y-116145970D01*
X138847857Y-115632700D01*
X138848342Y-115076939D01*
X138636110Y-114563297D01*
X138243470Y-114169971D01*
X137730200Y-113956843D01*
X137174439Y-113956358D01*
X136660797Y-114168590D01*
X136267471Y-114561230D01*
X136054343Y-115074500D01*
X136053858Y-115630261D01*
X132890272Y-115630261D01*
X132802721Y-115593907D01*
X132102550Y-115593296D01*
X131455443Y-115860675D01*
X130959915Y-116355339D01*
X130691407Y-117001979D01*
X130690796Y-117702150D01*
X128210795Y-117702150D01*
X128211404Y-117005050D01*
X127944025Y-116357943D01*
X127449361Y-115862415D01*
X126802721Y-115593907D01*
X126102550Y-115593296D01*
X125455443Y-115860675D01*
X125170000Y-116145620D01*
X125170000Y-106561452D01*
X125452839Y-106844785D01*
X126099479Y-107113293D01*
X126799650Y-107113904D01*
X127446757Y-106846525D01*
X127942285Y-106351861D01*
X128210793Y-105705221D01*
X128210795Y-105702150D01*
X130690796Y-105702150D01*
X130958175Y-106349257D01*
X131452839Y-106844785D01*
X132099479Y-107113293D01*
X132799650Y-107113904D01*
X133446757Y-106846525D01*
X133942285Y-106351861D01*
X134210793Y-105705221D01*
X134211404Y-105005050D01*
X133944025Y-104357943D01*
X133449361Y-103862415D01*
X132802721Y-103593907D01*
X132102550Y-103593296D01*
X131455443Y-103860675D01*
X130959915Y-104355339D01*
X130691407Y-105001979D01*
X130690796Y-105702150D01*
X128210795Y-105702150D01*
X128211404Y-105005050D01*
X127944025Y-104357943D01*
X127449361Y-103862415D01*
X126802721Y-103593907D01*
X126102550Y-103593296D01*
X125455443Y-103860675D01*
X125170000Y-104145620D01*
X125170000Y-97230000D01*
X132695946Y-97230000D01*
X132663142Y-97309001D01*
G36*
X153797000Y-169418000D02*
X153817000Y-169418000D01*
X153817000Y-169672000D01*
X153797000Y-169672000D01*
X153797000Y-169692000D01*
X153543000Y-169692000D01*
X153543000Y-169672000D01*
X153523000Y-169672000D01*
X153523000Y-169418000D01*
X153543000Y-169418000D01*
X153543000Y-169398000D01*
X153797000Y-169398000D01*
X153797000Y-169418000D01*
X153797000Y-169418000D01*
G37*
X153797000Y-169418000D02*
X153817000Y-169418000D01*
X153817000Y-169672000D01*
X153797000Y-169672000D01*
X153797000Y-169692000D01*
X153543000Y-169692000D01*
X153543000Y-169672000D01*
X153523000Y-169672000D01*
X153523000Y-169418000D01*
X153543000Y-169418000D01*
X153543000Y-169398000D01*
X153797000Y-169398000D01*
X153797000Y-169418000D01*
G36*
X152910000Y-147577071D02*
X152910000Y-153886737D01*
X152967852Y-154177576D01*
X153132599Y-154424138D01*
X153725933Y-155017472D01*
X153725933Y-158772215D01*
X153401711Y-158637586D01*
X153029745Y-158637262D01*
X152685969Y-158779307D01*
X152652794Y-158812424D01*
X152418232Y-158812424D01*
X152241603Y-158635486D01*
X151898075Y-158492840D01*
X151526109Y-158492516D01*
X151182333Y-158634561D01*
X150919084Y-158897351D01*
X150776438Y-159240879D01*
X150776114Y-159612845D01*
X150918159Y-159956621D01*
X151180949Y-160219870D01*
X151524477Y-160362516D01*
X151639079Y-160362616D01*
X151592313Y-160475240D01*
X151592272Y-160522116D01*
X151526470Y-160587918D01*
X151361723Y-160834480D01*
X151303871Y-161125319D01*
X151303871Y-162300353D01*
X150307580Y-161304062D01*
X150307580Y-158748583D01*
X150339772Y-158716447D01*
X150482418Y-158372919D01*
X150482742Y-158000953D01*
X150340697Y-157657177D01*
X150077907Y-157393928D01*
X149734379Y-157251282D01*
X149362413Y-157250958D01*
X149018637Y-157393003D01*
X148755388Y-157655793D01*
X148612742Y-157999321D01*
X148612418Y-158371287D01*
X148754463Y-158715063D01*
X148787580Y-158748238D01*
X148787580Y-161618864D01*
X148845432Y-161909703D01*
X149010179Y-162156265D01*
X151622635Y-164768721D01*
X151869197Y-164933468D01*
X152160036Y-164991320D01*
X152208377Y-164991320D01*
X152240513Y-165023512D01*
X152584041Y-165166158D01*
X152910000Y-165166442D01*
X152910000Y-165507560D01*
X152820000Y-165507560D01*
X152584683Y-165551838D01*
X152368559Y-165690910D01*
X152223569Y-165903110D01*
X152209914Y-165970541D01*
X152180054Y-165925853D01*
X151698285Y-165603946D01*
X151130000Y-165490907D01*
X150763592Y-165563790D01*
X149105820Y-163906018D01*
X148859258Y-163741271D01*
X148568419Y-163683419D01*
X148314401Y-163683419D01*
X148314563Y-163497825D01*
X148172518Y-163154049D01*
X147909728Y-162890800D01*
X147566200Y-162748154D01*
X147519324Y-162748113D01*
X147475343Y-162704132D01*
X147558878Y-162502959D01*
X147559202Y-162130993D01*
X147417157Y-161787217D01*
X147154367Y-161523968D01*
X146810839Y-161381322D01*
X146438873Y-161380998D01*
X146095097Y-161523043D01*
X145831848Y-161785833D01*
X145689202Y-162129361D01*
X145688878Y-162501327D01*
X145830923Y-162845103D01*
X145864040Y-162878278D01*
X145864040Y-162895440D01*
X145602328Y-162895440D01*
X145311489Y-162953292D01*
X145162579Y-163052790D01*
X145137006Y-162924226D01*
X144972259Y-162677665D01*
X144435889Y-162141295D01*
X144609747Y-161967741D01*
X144752393Y-161624213D01*
X144752562Y-161430650D01*
X145255009Y-161430650D01*
X145545848Y-161372798D01*
X145792410Y-161208051D01*
X148263202Y-158737259D01*
X148427949Y-158490697D01*
X148485801Y-158199858D01*
X148485801Y-155351895D01*
X149536670Y-156402764D01*
X149783232Y-156567511D01*
X150074071Y-156625363D01*
X151645866Y-156625363D01*
X151678002Y-156657555D01*
X152021530Y-156800201D01*
X152393496Y-156800525D01*
X152737272Y-156658480D01*
X153000521Y-156395690D01*
X153143167Y-156052162D01*
X153143491Y-155680196D01*
X153001446Y-155336420D01*
X152738656Y-155073171D01*
X152395128Y-154930525D01*
X152065009Y-154930237D01*
X152065162Y-154754833D01*
X151923117Y-154411057D01*
X151660327Y-154147808D01*
X151316799Y-154005162D01*
X150944833Y-154004838D01*
X150601057Y-154146883D01*
X150592237Y-154155688D01*
X150236055Y-153799506D01*
X150236095Y-153754019D01*
X150094050Y-153410243D01*
X150072823Y-153388979D01*
X150253680Y-153208122D01*
X150299167Y-153208162D01*
X150642943Y-153066117D01*
X150906192Y-152803327D01*
X151048838Y-152459799D01*
X151049162Y-152087833D01*
X150907117Y-151744057D01*
X150644327Y-151480808D01*
X150300799Y-151338162D01*
X149928833Y-151337838D01*
X149727124Y-151421182D01*
X149727124Y-148761788D01*
X149702965Y-148640334D01*
X149703194Y-148377529D01*
X149561149Y-148033753D01*
X149298359Y-147770504D01*
X148954831Y-147627858D01*
X148582865Y-147627534D01*
X148278316Y-147753371D01*
X148263202Y-147730751D01*
X148140633Y-147608182D01*
X148140673Y-147562695D01*
X148006469Y-147237895D01*
X148202067Y-147198988D01*
X148448629Y-147034241D01*
X149887241Y-145595629D01*
X149932728Y-145595669D01*
X150276504Y-145453624D01*
X150531751Y-145198822D01*
X152910000Y-147577071D01*
X152910000Y-147577071D01*
G37*
X152910000Y-147577071D02*
X152910000Y-153886737D01*
X152967852Y-154177576D01*
X153132599Y-154424138D01*
X153725933Y-155017472D01*
X153725933Y-158772215D01*
X153401711Y-158637586D01*
X153029745Y-158637262D01*
X152685969Y-158779307D01*
X152652794Y-158812424D01*
X152418232Y-158812424D01*
X152241603Y-158635486D01*
X151898075Y-158492840D01*
X151526109Y-158492516D01*
X151182333Y-158634561D01*
X150919084Y-158897351D01*
X150776438Y-159240879D01*
X150776114Y-159612845D01*
X150918159Y-159956621D01*
X151180949Y-160219870D01*
X151524477Y-160362516D01*
X151639079Y-160362616D01*
X151592313Y-160475240D01*
X151592272Y-160522116D01*
X151526470Y-160587918D01*
X151361723Y-160834480D01*
X151303871Y-161125319D01*
X151303871Y-162300353D01*
X150307580Y-161304062D01*
X150307580Y-158748583D01*
X150339772Y-158716447D01*
X150482418Y-158372919D01*
X150482742Y-158000953D01*
X150340697Y-157657177D01*
X150077907Y-157393928D01*
X149734379Y-157251282D01*
X149362413Y-157250958D01*
X149018637Y-157393003D01*
X148755388Y-157655793D01*
X148612742Y-157999321D01*
X148612418Y-158371287D01*
X148754463Y-158715063D01*
X148787580Y-158748238D01*
X148787580Y-161618864D01*
X148845432Y-161909703D01*
X149010179Y-162156265D01*
X151622635Y-164768721D01*
X151869197Y-164933468D01*
X152160036Y-164991320D01*
X152208377Y-164991320D01*
X152240513Y-165023512D01*
X152584041Y-165166158D01*
X152910000Y-165166442D01*
X152910000Y-165507560D01*
X152820000Y-165507560D01*
X152584683Y-165551838D01*
X152368559Y-165690910D01*
X152223569Y-165903110D01*
X152209914Y-165970541D01*
X152180054Y-165925853D01*
X151698285Y-165603946D01*
X151130000Y-165490907D01*
X150763592Y-165563790D01*
X149105820Y-163906018D01*
X148859258Y-163741271D01*
X148568419Y-163683419D01*
X148314401Y-163683419D01*
X148314563Y-163497825D01*
X148172518Y-163154049D01*
X147909728Y-162890800D01*
X147566200Y-162748154D01*
X147519324Y-162748113D01*
X147475343Y-162704132D01*
X147558878Y-162502959D01*
X147559202Y-162130993D01*
X147417157Y-161787217D01*
X147154367Y-161523968D01*
X146810839Y-161381322D01*
X146438873Y-161380998D01*
X146095097Y-161523043D01*
X145831848Y-161785833D01*
X145689202Y-162129361D01*
X145688878Y-162501327D01*
X145830923Y-162845103D01*
X145864040Y-162878278D01*
X145864040Y-162895440D01*
X145602328Y-162895440D01*
X145311489Y-162953292D01*
X145162579Y-163052790D01*
X145137006Y-162924226D01*
X144972259Y-162677665D01*
X144435889Y-162141295D01*
X144609747Y-161967741D01*
X144752393Y-161624213D01*
X144752562Y-161430650D01*
X145255009Y-161430650D01*
X145545848Y-161372798D01*
X145792410Y-161208051D01*
X148263202Y-158737259D01*
X148427949Y-158490697D01*
X148485801Y-158199858D01*
X148485801Y-155351895D01*
X149536670Y-156402764D01*
X149783232Y-156567511D01*
X150074071Y-156625363D01*
X151645866Y-156625363D01*
X151678002Y-156657555D01*
X152021530Y-156800201D01*
X152393496Y-156800525D01*
X152737272Y-156658480D01*
X153000521Y-156395690D01*
X153143167Y-156052162D01*
X153143491Y-155680196D01*
X153001446Y-155336420D01*
X152738656Y-155073171D01*
X152395128Y-154930525D01*
X152065009Y-154930237D01*
X152065162Y-154754833D01*
X151923117Y-154411057D01*
X151660327Y-154147808D01*
X151316799Y-154005162D01*
X150944833Y-154004838D01*
X150601057Y-154146883D01*
X150592237Y-154155688D01*
X150236055Y-153799506D01*
X150236095Y-153754019D01*
X150094050Y-153410243D01*
X150072823Y-153388979D01*
X150253680Y-153208122D01*
X150299167Y-153208162D01*
X150642943Y-153066117D01*
X150906192Y-152803327D01*
X151048838Y-152459799D01*
X151049162Y-152087833D01*
X150907117Y-151744057D01*
X150644327Y-151480808D01*
X150300799Y-151338162D01*
X149928833Y-151337838D01*
X149727124Y-151421182D01*
X149727124Y-148761788D01*
X149702965Y-148640334D01*
X149703194Y-148377529D01*
X149561149Y-148033753D01*
X149298359Y-147770504D01*
X148954831Y-147627858D01*
X148582865Y-147627534D01*
X148278316Y-147753371D01*
X148263202Y-147730751D01*
X148140633Y-147608182D01*
X148140673Y-147562695D01*
X148006469Y-147237895D01*
X148202067Y-147198988D01*
X148448629Y-147034241D01*
X149887241Y-145595629D01*
X149932728Y-145595669D01*
X150276504Y-145453624D01*
X150531751Y-145198822D01*
X152910000Y-147577071D01*
G36*
X143197602Y-144854592D02*
X143032855Y-145101154D01*
X142975003Y-145391993D01*
X142975003Y-156999745D01*
X142857010Y-156950750D01*
X142485044Y-156950426D01*
X142141268Y-157092471D01*
X141878019Y-157355261D01*
X141874387Y-157364007D01*
X137860010Y-153349630D01*
X137860010Y-149926167D01*
X138137838Y-149926167D01*
X138268069Y-150241351D01*
X138138162Y-150554201D01*
X138137838Y-150926167D01*
X138279883Y-151269943D01*
X138542673Y-151533192D01*
X138886201Y-151675838D01*
X139258167Y-151676162D01*
X139573351Y-151545931D01*
X139886201Y-151675838D01*
X140258167Y-151676162D01*
X140601943Y-151534117D01*
X140865192Y-151271327D01*
X141007838Y-150927799D01*
X141008162Y-150555833D01*
X140877931Y-150240649D01*
X141007838Y-149927799D01*
X141008162Y-149555833D01*
X140866117Y-149212057D01*
X140603327Y-148948808D01*
X140259799Y-148806162D01*
X139887833Y-148805838D01*
X139572649Y-148936069D01*
X139259799Y-148806162D01*
X138887833Y-148805838D01*
X138544057Y-148947883D01*
X138280808Y-149210673D01*
X138138162Y-149554201D01*
X138137838Y-149926167D01*
X137860010Y-149926167D01*
X137860010Y-147183963D01*
X137892202Y-147151827D01*
X138034848Y-146808299D01*
X138035172Y-146436333D01*
X137893127Y-146092557D01*
X137630337Y-145829308D01*
X137286809Y-145686662D01*
X137228537Y-145686611D01*
X137228537Y-145088582D01*
X139399770Y-145088582D01*
X140689934Y-146378746D01*
X140689830Y-146498262D01*
X140831875Y-146842038D01*
X141094665Y-147105287D01*
X141438193Y-147247933D01*
X141810159Y-147248257D01*
X142153935Y-147106212D01*
X142417184Y-146843422D01*
X142559830Y-146499894D01*
X142560154Y-146127928D01*
X142418109Y-145784152D01*
X142155319Y-145520903D01*
X141858405Y-145397613D01*
X141119096Y-144658304D01*
X143393890Y-144658304D01*
X143197602Y-144854592D01*
X143197602Y-144854592D01*
G37*
X143197602Y-144854592D02*
X143032855Y-145101154D01*
X142975003Y-145391993D01*
X142975003Y-156999745D01*
X142857010Y-156950750D01*
X142485044Y-156950426D01*
X142141268Y-157092471D01*
X141878019Y-157355261D01*
X141874387Y-157364007D01*
X137860010Y-153349630D01*
X137860010Y-149926167D01*
X138137838Y-149926167D01*
X138268069Y-150241351D01*
X138138162Y-150554201D01*
X138137838Y-150926167D01*
X138279883Y-151269943D01*
X138542673Y-151533192D01*
X138886201Y-151675838D01*
X139258167Y-151676162D01*
X139573351Y-151545931D01*
X139886201Y-151675838D01*
X140258167Y-151676162D01*
X140601943Y-151534117D01*
X140865192Y-151271327D01*
X141007838Y-150927799D01*
X141008162Y-150555833D01*
X140877931Y-150240649D01*
X141007838Y-149927799D01*
X141008162Y-149555833D01*
X140866117Y-149212057D01*
X140603327Y-148948808D01*
X140259799Y-148806162D01*
X139887833Y-148805838D01*
X139572649Y-148936069D01*
X139259799Y-148806162D01*
X138887833Y-148805838D01*
X138544057Y-148947883D01*
X138280808Y-149210673D01*
X138138162Y-149554201D01*
X138137838Y-149926167D01*
X137860010Y-149926167D01*
X137860010Y-147183963D01*
X137892202Y-147151827D01*
X138034848Y-146808299D01*
X138035172Y-146436333D01*
X137893127Y-146092557D01*
X137630337Y-145829308D01*
X137286809Y-145686662D01*
X137228537Y-145686611D01*
X137228537Y-145088582D01*
X139399770Y-145088582D01*
X140689934Y-146378746D01*
X140689830Y-146498262D01*
X140831875Y-146842038D01*
X141094665Y-147105287D01*
X141438193Y-147247933D01*
X141810159Y-147248257D01*
X142153935Y-147106212D01*
X142417184Y-146843422D01*
X142559830Y-146499894D01*
X142560154Y-146127928D01*
X142418109Y-145784152D01*
X142155319Y-145520903D01*
X141858405Y-145397613D01*
X141119096Y-144658304D01*
X143393890Y-144658304D01*
X143197602Y-144854592D01*
G36*
X146785515Y-141063312D02*
X147032077Y-141228059D01*
X147322916Y-141285911D01*
X149040276Y-141285911D01*
X149040259Y-141305056D01*
X149182304Y-141648832D01*
X149202557Y-141669120D01*
X149202557Y-143554826D01*
X149260409Y-143845665D01*
X149262743Y-143849158D01*
X149218618Y-143867390D01*
X148955369Y-144130180D01*
X148812723Y-144473708D01*
X148812682Y-144520584D01*
X147596426Y-145736840D01*
X146948158Y-145736840D01*
X146657319Y-145794692D01*
X146410757Y-145959439D01*
X144495003Y-147875193D01*
X144495003Y-145706795D01*
X145503342Y-144698456D01*
X145668089Y-144451895D01*
X145725941Y-144161055D01*
X145725941Y-140319802D01*
X146017842Y-140320056D01*
X146035120Y-140312917D01*
X146785515Y-141063312D01*
X146785515Y-141063312D01*
G37*
X146785515Y-141063312D02*
X147032077Y-141228059D01*
X147322916Y-141285911D01*
X149040276Y-141285911D01*
X149040259Y-141305056D01*
X149182304Y-141648832D01*
X149202557Y-141669120D01*
X149202557Y-143554826D01*
X149260409Y-143845665D01*
X149262743Y-143849158D01*
X149218618Y-143867390D01*
X148955369Y-144130180D01*
X148812723Y-144473708D01*
X148812682Y-144520584D01*
X147596426Y-145736840D01*
X146948158Y-145736840D01*
X146657319Y-145794692D01*
X146410757Y-145959439D01*
X144495003Y-147875193D01*
X144495003Y-145706795D01*
X145503342Y-144698456D01*
X145668089Y-144451895D01*
X145725941Y-144161055D01*
X145725941Y-140319802D01*
X146017842Y-140320056D01*
X146035120Y-140312917D01*
X146785515Y-141063312D01*
G36*
X140691306Y-140240582D02*
X140570755Y-140421000D01*
X140512903Y-140711839D01*
X140512903Y-141271999D01*
X138168466Y-141271999D01*
X137987173Y-141150863D01*
X137696334Y-141093011D01*
X135895627Y-141093011D01*
X135945223Y-141043501D01*
X136087869Y-140699973D01*
X136088193Y-140328007D01*
X136002469Y-140120539D01*
X136226546Y-140027952D01*
X136489795Y-139765162D01*
X136518997Y-139694836D01*
X140691306Y-139694836D01*
X140691306Y-140240582D01*
X140691306Y-140240582D01*
G37*
X140691306Y-140240582D02*
X140570755Y-140421000D01*
X140512903Y-140711839D01*
X140512903Y-141271999D01*
X138168466Y-141271999D01*
X137987173Y-141150863D01*
X137696334Y-141093011D01*
X135895627Y-141093011D01*
X135945223Y-141043501D01*
X136087869Y-140699973D01*
X136088193Y-140328007D01*
X136002469Y-140120539D01*
X136226546Y-140027952D01*
X136489795Y-139765162D01*
X136518997Y-139694836D01*
X140691306Y-139694836D01*
X140691306Y-140240582D01*
G36*
X160809679Y-139132776D02*
X160725706Y-139132703D01*
X160381930Y-139274748D01*
X160348755Y-139307865D01*
X159621689Y-139307865D01*
X156548659Y-136234835D01*
X156548699Y-136189348D01*
X156406654Y-135845572D01*
X156143864Y-135582323D01*
X155800336Y-135439677D01*
X155428370Y-135439353D01*
X155411163Y-135446463D01*
X157437438Y-133420188D01*
X157537783Y-133663043D01*
X157800573Y-133926292D01*
X157895862Y-133965860D01*
X157895739Y-134106667D01*
X158037784Y-134450443D01*
X158300574Y-134713692D01*
X158644102Y-134856338D01*
X159016068Y-134856662D01*
X159359844Y-134714617D01*
X159623093Y-134451827D01*
X159765739Y-134108299D01*
X159765817Y-134018585D01*
X160273980Y-133510422D01*
X160319467Y-133510462D01*
X160663243Y-133368417D01*
X160809679Y-133222236D01*
X160809679Y-139132776D01*
X160809679Y-139132776D01*
G37*
X160809679Y-139132776D02*
X160725706Y-139132703D01*
X160381930Y-139274748D01*
X160348755Y-139307865D01*
X159621689Y-139307865D01*
X156548659Y-136234835D01*
X156548699Y-136189348D01*
X156406654Y-135845572D01*
X156143864Y-135582323D01*
X155800336Y-135439677D01*
X155428370Y-135439353D01*
X155411163Y-135446463D01*
X157437438Y-133420188D01*
X157537783Y-133663043D01*
X157800573Y-133926292D01*
X157895862Y-133965860D01*
X157895739Y-134106667D01*
X158037784Y-134450443D01*
X158300574Y-134713692D01*
X158644102Y-134856338D01*
X159016068Y-134856662D01*
X159359844Y-134714617D01*
X159623093Y-134451827D01*
X159765739Y-134108299D01*
X159765817Y-134018585D01*
X160273980Y-133510422D01*
X160319467Y-133510462D01*
X160663243Y-133368417D01*
X160809679Y-133222236D01*
X160809679Y-139132776D01*
G36*
X150745011Y-126714750D02*
X150745011Y-127683858D01*
X150165587Y-128263282D01*
X149945004Y-128307159D01*
X149698442Y-128471906D01*
X148931256Y-129239092D01*
X148766509Y-129485654D01*
X148708657Y-129776493D01*
X148708657Y-130981342D01*
X148653630Y-130926219D01*
X148310102Y-130783573D01*
X147938136Y-130783249D01*
X147674570Y-130892152D01*
X147674570Y-129815308D01*
X147643051Y-129656851D01*
X147616718Y-129524468D01*
X147451971Y-129277907D01*
X146584123Y-128410059D01*
X147004003Y-127990179D01*
X147168750Y-127743617D01*
X147200102Y-127586002D01*
X147200034Y-127664007D01*
X147342079Y-128007783D01*
X147604869Y-128271032D01*
X147948397Y-128413678D01*
X148320363Y-128414002D01*
X148664139Y-128271957D01*
X148927388Y-128009167D01*
X149067565Y-127671585D01*
X149128072Y-127732197D01*
X149471600Y-127874843D01*
X149843566Y-127875167D01*
X150187342Y-127733122D01*
X150450591Y-127470332D01*
X150593237Y-127126804D01*
X150593561Y-126754838D01*
X150576937Y-126714604D01*
X150745011Y-126714750D01*
X150745011Y-126714750D01*
G37*
X150745011Y-126714750D02*
X150745011Y-127683858D01*
X150165587Y-128263282D01*
X149945004Y-128307159D01*
X149698442Y-128471906D01*
X148931256Y-129239092D01*
X148766509Y-129485654D01*
X148708657Y-129776493D01*
X148708657Y-130981342D01*
X148653630Y-130926219D01*
X148310102Y-130783573D01*
X147938136Y-130783249D01*
X147674570Y-130892152D01*
X147674570Y-129815308D01*
X147643051Y-129656851D01*
X147616718Y-129524468D01*
X147451971Y-129277907D01*
X146584123Y-128410059D01*
X147004003Y-127990179D01*
X147168750Y-127743617D01*
X147200102Y-127586002D01*
X147200034Y-127664007D01*
X147342079Y-128007783D01*
X147604869Y-128271032D01*
X147948397Y-128413678D01*
X148320363Y-128414002D01*
X148664139Y-128271957D01*
X148927388Y-128009167D01*
X149067565Y-127671585D01*
X149128072Y-127732197D01*
X149471600Y-127874843D01*
X149843566Y-127875167D01*
X150187342Y-127733122D01*
X150450591Y-127470332D01*
X150593237Y-127126804D01*
X150593561Y-126754838D01*
X150576937Y-126714604D01*
X150745011Y-126714750D01*
G36*
X155189485Y-126211357D02*
X155452275Y-126474606D01*
X155795803Y-126617252D01*
X156167769Y-126617576D01*
X156511545Y-126475531D01*
X156527210Y-126459894D01*
X156740283Y-126672967D01*
X156766697Y-126736894D01*
X157029487Y-127000143D01*
X157373015Y-127142789D01*
X157673575Y-127143051D01*
X156081730Y-128734896D01*
X154585749Y-128734896D01*
X154708892Y-128438336D01*
X154709216Y-128066370D01*
X154567171Y-127722594D01*
X154549829Y-127705222D01*
X154579943Y-127692779D01*
X154843192Y-127429989D01*
X154985838Y-127086461D01*
X154986162Y-126714495D01*
X154849012Y-126382565D01*
X155097153Y-126280035D01*
X155179213Y-126198118D01*
X155184015Y-126198118D01*
X155189485Y-126211357D01*
X155189485Y-126211357D01*
G37*
X155189485Y-126211357D02*
X155452275Y-126474606D01*
X155795803Y-126617252D01*
X156167769Y-126617576D01*
X156511545Y-126475531D01*
X156527210Y-126459894D01*
X156740283Y-126672967D01*
X156766697Y-126736894D01*
X157029487Y-127000143D01*
X157373015Y-127142789D01*
X157673575Y-127143051D01*
X156081730Y-128734896D01*
X154585749Y-128734896D01*
X154708892Y-128438336D01*
X154709216Y-128066370D01*
X154567171Y-127722594D01*
X154549829Y-127705222D01*
X154579943Y-127692779D01*
X154843192Y-127429989D01*
X154985838Y-127086461D01*
X154986162Y-126714495D01*
X154849012Y-126382565D01*
X155097153Y-126280035D01*
X155179213Y-126198118D01*
X155184015Y-126198118D01*
X155189485Y-126211357D01*
G36*
X146185000Y-97504250D02*
X146343750Y-97663000D01*
X147193000Y-97663000D01*
X147193000Y-97643000D01*
X147447000Y-97643000D01*
X147447000Y-97663000D01*
X147467000Y-97663000D01*
X147467000Y-97707436D01*
X147455000Y-97767764D01*
X147455000Y-97812236D01*
X147467000Y-97872564D01*
X147467000Y-97917000D01*
X147447000Y-97917000D01*
X147447000Y-98766250D01*
X147605750Y-98925000D01*
X147946310Y-98925000D01*
X148134818Y-98846917D01*
X148155654Y-98860839D01*
X148590000Y-98947236D01*
X149024346Y-98860839D01*
X149225000Y-98726766D01*
X149425654Y-98860839D01*
X149860000Y-98947236D01*
X149928757Y-98933559D01*
X150520001Y-99524803D01*
X150520001Y-103552560D01*
X149985000Y-103552560D01*
X149749683Y-103596838D01*
X149533559Y-103735910D01*
X149481214Y-103812519D01*
X149475785Y-103810265D01*
X149103819Y-103809941D01*
X148760043Y-103951986D01*
X148496794Y-104214776D01*
X148354148Y-104558304D01*
X148353824Y-104930270D01*
X148495869Y-105274046D01*
X148510576Y-105288779D01*
X148452172Y-105312911D01*
X148188923Y-105575701D01*
X148046277Y-105919229D01*
X148046236Y-105966105D01*
X142276555Y-111735786D01*
X142276555Y-109702482D01*
X142690344Y-109874302D01*
X143246105Y-109874787D01*
X143759747Y-109662555D01*
X144153073Y-109269915D01*
X144366201Y-108756645D01*
X144366686Y-108200884D01*
X144154454Y-107687242D01*
X143761814Y-107293916D01*
X143248544Y-107080788D01*
X142692783Y-107080303D01*
X142276555Y-107252284D01*
X142276555Y-105044757D01*
X142234467Y-104833167D01*
X144606838Y-104833167D01*
X144748883Y-105176943D01*
X145011673Y-105440192D01*
X145355201Y-105582838D01*
X145654063Y-105583098D01*
X145710910Y-105671441D01*
X145923110Y-105816431D01*
X146175000Y-105867440D01*
X147195000Y-105867440D01*
X147430317Y-105823162D01*
X147646441Y-105684090D01*
X147791431Y-105471890D01*
X147842440Y-105220000D01*
X147842440Y-104200000D01*
X147798162Y-103964683D01*
X147659090Y-103748559D01*
X147446890Y-103603569D01*
X147195000Y-103552560D01*
X146175000Y-103552560D01*
X145939683Y-103596838D01*
X145747100Y-103720761D01*
X145728799Y-103713162D01*
X145356833Y-103712838D01*
X145013057Y-103854883D01*
X144749808Y-104117673D01*
X144607162Y-104461201D01*
X144606838Y-104833167D01*
X142234467Y-104833167D01*
X142218703Y-104753918D01*
X142053956Y-104507356D01*
X138862350Y-101315750D01*
X145540000Y-101315750D01*
X145540000Y-101666310D01*
X145636673Y-101899699D01*
X145815302Y-102078327D01*
X146048691Y-102175000D01*
X146399250Y-102175000D01*
X146558000Y-102016250D01*
X146558000Y-101157000D01*
X146812000Y-101157000D01*
X146812000Y-102016250D01*
X146970750Y-102175000D01*
X147321309Y-102175000D01*
X147554698Y-102078327D01*
X147733327Y-101899699D01*
X147830000Y-101666310D01*
X147830000Y-101315750D01*
X149350000Y-101315750D01*
X149350000Y-101666310D01*
X149446673Y-101899699D01*
X149625302Y-102078327D01*
X149858691Y-102175000D01*
X150209250Y-102175000D01*
X150368000Y-102016250D01*
X150368000Y-101157000D01*
X149508750Y-101157000D01*
X149350000Y-101315750D01*
X147830000Y-101315750D01*
X147671250Y-101157000D01*
X146812000Y-101157000D01*
X146558000Y-101157000D01*
X145698750Y-101157000D01*
X145540000Y-101315750D01*
X138862350Y-101315750D01*
X137940290Y-100393690D01*
X145540000Y-100393690D01*
X145540000Y-100744250D01*
X145698750Y-100903000D01*
X146558000Y-100903000D01*
X146558000Y-100043750D01*
X146812000Y-100043750D01*
X146812000Y-100903000D01*
X147671250Y-100903000D01*
X147830000Y-100744250D01*
X147830000Y-100393690D01*
X149350000Y-100393690D01*
X149350000Y-100744250D01*
X149508750Y-100903000D01*
X150368000Y-100903000D01*
X150368000Y-100043750D01*
X150209250Y-99885000D01*
X149858691Y-99885000D01*
X149625302Y-99981673D01*
X149446673Y-100160301D01*
X149350000Y-100393690D01*
X147830000Y-100393690D01*
X147733327Y-100160301D01*
X147554698Y-99981673D01*
X147321309Y-99885000D01*
X146970750Y-99885000D01*
X146812000Y-100043750D01*
X146558000Y-100043750D01*
X146399250Y-99885000D01*
X146048691Y-99885000D01*
X145815302Y-99981673D01*
X145636673Y-100160301D01*
X145540000Y-100393690D01*
X137940290Y-100393690D01*
X137119040Y-99572440D01*
X137660000Y-99572440D01*
X137895317Y-99528162D01*
X137971073Y-99479414D01*
X137995654Y-99495839D01*
X138430000Y-99582236D01*
X138864346Y-99495839D01*
X139074304Y-99355549D01*
X139139791Y-99412127D01*
X139398126Y-99519119D01*
X139573000Y-99392954D01*
X139573000Y-98552000D01*
X139827000Y-98552000D01*
X139827000Y-99392954D01*
X140001874Y-99519119D01*
X140260209Y-99412127D01*
X140595323Y-99122604D01*
X140794132Y-98726877D01*
X140669135Y-98552000D01*
X139827000Y-98552000D01*
X139573000Y-98552000D01*
X139553000Y-98552000D01*
X139553000Y-98507564D01*
X139565000Y-98447236D01*
X139565000Y-98402764D01*
X139553000Y-98342436D01*
X139553000Y-98298000D01*
X139573000Y-98298000D01*
X139573000Y-97457046D01*
X139827000Y-97457046D01*
X139827000Y-98298000D01*
X140669135Y-98298000D01*
X140794132Y-98123123D01*
X140770333Y-98075750D01*
X146185000Y-98075750D01*
X146185000Y-98416309D01*
X146281673Y-98649698D01*
X146460301Y-98828327D01*
X146693690Y-98925000D01*
X147034250Y-98925000D01*
X147193000Y-98766250D01*
X147193000Y-97917000D01*
X146343750Y-97917000D01*
X146185000Y-98075750D01*
X140770333Y-98075750D01*
X140595323Y-97727396D01*
X140260209Y-97437873D01*
X140001874Y-97330881D01*
X139827000Y-97457046D01*
X139573000Y-97457046D01*
X139398126Y-97330881D01*
X139139791Y-97437873D01*
X139074304Y-97494451D01*
X138864346Y-97354161D01*
X138430000Y-97267764D01*
X137995654Y-97354161D01*
X137972241Y-97369805D01*
X137911890Y-97328569D01*
X137660000Y-97277560D01*
X136660000Y-97277560D01*
X136424683Y-97321838D01*
X136208559Y-97460910D01*
X136063569Y-97673110D01*
X136012560Y-97925000D01*
X136012560Y-98465960D01*
X135444082Y-97897482D01*
X135456656Y-97867201D01*
X135457141Y-97311440D01*
X135423491Y-97230000D01*
X146185000Y-97230000D01*
X146185000Y-97504250D01*
X146185000Y-97504250D01*
G37*
X146185000Y-97504250D02*
X146343750Y-97663000D01*
X147193000Y-97663000D01*
X147193000Y-97643000D01*
X147447000Y-97643000D01*
X147447000Y-97663000D01*
X147467000Y-97663000D01*
X147467000Y-97707436D01*
X147455000Y-97767764D01*
X147455000Y-97812236D01*
X147467000Y-97872564D01*
X147467000Y-97917000D01*
X147447000Y-97917000D01*
X147447000Y-98766250D01*
X147605750Y-98925000D01*
X147946310Y-98925000D01*
X148134818Y-98846917D01*
X148155654Y-98860839D01*
X148590000Y-98947236D01*
X149024346Y-98860839D01*
X149225000Y-98726766D01*
X149425654Y-98860839D01*
X149860000Y-98947236D01*
X149928757Y-98933559D01*
X150520001Y-99524803D01*
X150520001Y-103552560D01*
X149985000Y-103552560D01*
X149749683Y-103596838D01*
X149533559Y-103735910D01*
X149481214Y-103812519D01*
X149475785Y-103810265D01*
X149103819Y-103809941D01*
X148760043Y-103951986D01*
X148496794Y-104214776D01*
X148354148Y-104558304D01*
X148353824Y-104930270D01*
X148495869Y-105274046D01*
X148510576Y-105288779D01*
X148452172Y-105312911D01*
X148188923Y-105575701D01*
X148046277Y-105919229D01*
X148046236Y-105966105D01*
X142276555Y-111735786D01*
X142276555Y-109702482D01*
X142690344Y-109874302D01*
X143246105Y-109874787D01*
X143759747Y-109662555D01*
X144153073Y-109269915D01*
X144366201Y-108756645D01*
X144366686Y-108200884D01*
X144154454Y-107687242D01*
X143761814Y-107293916D01*
X143248544Y-107080788D01*
X142692783Y-107080303D01*
X142276555Y-107252284D01*
X142276555Y-105044757D01*
X142234467Y-104833167D01*
X144606838Y-104833167D01*
X144748883Y-105176943D01*
X145011673Y-105440192D01*
X145355201Y-105582838D01*
X145654063Y-105583098D01*
X145710910Y-105671441D01*
X145923110Y-105816431D01*
X146175000Y-105867440D01*
X147195000Y-105867440D01*
X147430317Y-105823162D01*
X147646441Y-105684090D01*
X147791431Y-105471890D01*
X147842440Y-105220000D01*
X147842440Y-104200000D01*
X147798162Y-103964683D01*
X147659090Y-103748559D01*
X147446890Y-103603569D01*
X147195000Y-103552560D01*
X146175000Y-103552560D01*
X145939683Y-103596838D01*
X145747100Y-103720761D01*
X145728799Y-103713162D01*
X145356833Y-103712838D01*
X145013057Y-103854883D01*
X144749808Y-104117673D01*
X144607162Y-104461201D01*
X144606838Y-104833167D01*
X142234467Y-104833167D01*
X142218703Y-104753918D01*
X142053956Y-104507356D01*
X138862350Y-101315750D01*
X145540000Y-101315750D01*
X145540000Y-101666310D01*
X145636673Y-101899699D01*
X145815302Y-102078327D01*
X146048691Y-102175000D01*
X146399250Y-102175000D01*
X146558000Y-102016250D01*
X146558000Y-101157000D01*
X146812000Y-101157000D01*
X146812000Y-102016250D01*
X146970750Y-102175000D01*
X147321309Y-102175000D01*
X147554698Y-102078327D01*
X147733327Y-101899699D01*
X147830000Y-101666310D01*
X147830000Y-101315750D01*
X149350000Y-101315750D01*
X149350000Y-101666310D01*
X149446673Y-101899699D01*
X149625302Y-102078327D01*
X149858691Y-102175000D01*
X150209250Y-102175000D01*
X150368000Y-102016250D01*
X150368000Y-101157000D01*
X149508750Y-101157000D01*
X149350000Y-101315750D01*
X147830000Y-101315750D01*
X147671250Y-101157000D01*
X146812000Y-101157000D01*
X146558000Y-101157000D01*
X145698750Y-101157000D01*
X145540000Y-101315750D01*
X138862350Y-101315750D01*
X137940290Y-100393690D01*
X145540000Y-100393690D01*
X145540000Y-100744250D01*
X145698750Y-100903000D01*
X146558000Y-100903000D01*
X146558000Y-100043750D01*
X146812000Y-100043750D01*
X146812000Y-100903000D01*
X147671250Y-100903000D01*
X147830000Y-100744250D01*
X147830000Y-100393690D01*
X149350000Y-100393690D01*
X149350000Y-100744250D01*
X149508750Y-100903000D01*
X150368000Y-100903000D01*
X150368000Y-100043750D01*
X150209250Y-99885000D01*
X149858691Y-99885000D01*
X149625302Y-99981673D01*
X149446673Y-100160301D01*
X149350000Y-100393690D01*
X147830000Y-100393690D01*
X147733327Y-100160301D01*
X147554698Y-99981673D01*
X147321309Y-99885000D01*
X146970750Y-99885000D01*
X146812000Y-100043750D01*
X146558000Y-100043750D01*
X146399250Y-99885000D01*
X146048691Y-99885000D01*
X145815302Y-99981673D01*
X145636673Y-100160301D01*
X145540000Y-100393690D01*
X137940290Y-100393690D01*
X137119040Y-99572440D01*
X137660000Y-99572440D01*
X137895317Y-99528162D01*
X137971073Y-99479414D01*
X137995654Y-99495839D01*
X138430000Y-99582236D01*
X138864346Y-99495839D01*
X139074304Y-99355549D01*
X139139791Y-99412127D01*
X139398126Y-99519119D01*
X139573000Y-99392954D01*
X139573000Y-98552000D01*
X139827000Y-98552000D01*
X139827000Y-99392954D01*
X140001874Y-99519119D01*
X140260209Y-99412127D01*
X140595323Y-99122604D01*
X140794132Y-98726877D01*
X140669135Y-98552000D01*
X139827000Y-98552000D01*
X139573000Y-98552000D01*
X139553000Y-98552000D01*
X139553000Y-98507564D01*
X139565000Y-98447236D01*
X139565000Y-98402764D01*
X139553000Y-98342436D01*
X139553000Y-98298000D01*
X139573000Y-98298000D01*
X139573000Y-97457046D01*
X139827000Y-97457046D01*
X139827000Y-98298000D01*
X140669135Y-98298000D01*
X140794132Y-98123123D01*
X140770333Y-98075750D01*
X146185000Y-98075750D01*
X146185000Y-98416309D01*
X146281673Y-98649698D01*
X146460301Y-98828327D01*
X146693690Y-98925000D01*
X147034250Y-98925000D01*
X147193000Y-98766250D01*
X147193000Y-97917000D01*
X146343750Y-97917000D01*
X146185000Y-98075750D01*
X140770333Y-98075750D01*
X140595323Y-97727396D01*
X140260209Y-97437873D01*
X140001874Y-97330881D01*
X139827000Y-97457046D01*
X139573000Y-97457046D01*
X139398126Y-97330881D01*
X139139791Y-97437873D01*
X139074304Y-97494451D01*
X138864346Y-97354161D01*
X138430000Y-97267764D01*
X137995654Y-97354161D01*
X137972241Y-97369805D01*
X137911890Y-97328569D01*
X137660000Y-97277560D01*
X136660000Y-97277560D01*
X136424683Y-97321838D01*
X136208559Y-97460910D01*
X136063569Y-97673110D01*
X136012560Y-97925000D01*
X136012560Y-98465960D01*
X135444082Y-97897482D01*
X135456656Y-97867201D01*
X135457141Y-97311440D01*
X135423491Y-97230000D01*
X146185000Y-97230000D01*
X146185000Y-97504250D01*
M02*
