G04 #@! TF.FileFunction,Copper,L1,Top,Signal*
%FSLAX46Y46*%
G04 Gerber Fmt 4.6, Leading zero omitted, Abs format (unit mm)*
G04 Created by KiCad (PCBNEW 4.0.7-e2-6376~58~ubuntu16.04.1) date Mon Apr 30 10:34:26 2018*
%MOMM*%
%LPD*%
G01*
G04 APERTURE LIST*
%ADD10C,0.100000*%
%ADD11R,0.800000X0.750000*%
%ADD12R,0.600000X0.500000*%
%ADD13R,0.500000X0.600000*%
%ADD14R,0.750000X0.800000*%
%ADD15R,1.700000X1.700000*%
%ADD16O,1.700000X1.700000*%
%ADD17R,1.200000X1.200000*%
%ADD18R,1.000000X1.000000*%
%ADD19O,1.000000X1.000000*%
%ADD20R,0.400000X1.350000*%
%ADD21O,1.250000X0.950000*%
%ADD22O,1.000000X1.550000*%
%ADD23O,1.998980X1.998980*%
%ADD24R,1.998980X1.998980*%
%ADD25R,0.900000X0.500000*%
%ADD26R,0.500000X0.900000*%
%ADD27C,2.250000*%
%ADD28C,1.524000*%
%ADD29R,0.800000X0.900000*%
%ADD30R,0.600000X0.400000*%
%ADD31R,0.400000X0.600000*%
%ADD32R,1.500000X0.700000*%
%ADD33R,0.800000X1.000000*%
%ADD34R,0.650000X0.700000*%
%ADD35R,0.750000X0.350000*%
%ADD36R,1.250000X0.900000*%
%ADD37R,0.250000X0.675000*%
%ADD38R,0.675000X0.250000*%
%ADD39R,0.200000X0.600000*%
%ADD40R,0.600000X0.200000*%
%ADD41R,0.200000X0.150000*%
%ADD42R,1.473200X0.279400*%
%ADD43R,0.279400X1.473200*%
%ADD44R,0.550000X0.300000*%
%ADD45R,0.520000X0.300000*%
%ADD46O,0.750000X0.300000*%
%ADD47O,0.300000X0.750000*%
%ADD48R,0.900000X0.900000*%
%ADD49C,0.600000*%
%ADD50R,1.900000X1.100000*%
%ADD51R,2.400000X1.900000*%
%ADD52C,0.250000*%
%ADD53C,0.152400*%
%ADD54C,0.254000*%
G04 APERTURE END LIST*
D10*
D11*
X153630500Y-148844000D03*
X155130500Y-148844000D03*
D12*
X148082000Y-126238000D03*
X149182000Y-126238000D03*
X147108000Y-110744000D03*
X146008000Y-110744000D03*
D13*
X147828000Y-157522000D03*
X147828000Y-156422000D03*
X131318000Y-138049000D03*
X131318000Y-136949000D03*
X138938000Y-133604000D03*
X138938000Y-134704000D03*
X138938000Y-136842500D03*
X138938000Y-135742500D03*
X138176000Y-138049000D03*
X138176000Y-139149000D03*
X138176000Y-143192500D03*
X138176000Y-142092500D03*
D12*
X151257000Y-143954500D03*
X152357000Y-143954500D03*
D13*
X142748000Y-139658000D03*
X142748000Y-140758000D03*
D12*
X145267500Y-132461000D03*
X146367500Y-132461000D03*
D13*
X154622500Y-134810500D03*
X154622500Y-135910500D03*
D14*
X159702500Y-145415000D03*
X159702500Y-146915000D03*
X132207000Y-159297500D03*
X132207000Y-157797500D03*
X163830000Y-146582000D03*
X163830000Y-148082000D03*
D11*
X135064500Y-155130500D03*
X133564500Y-155130500D03*
D14*
X136715500Y-152312500D03*
X136715500Y-150812500D03*
D11*
X143105000Y-147320000D03*
X141605000Y-147320000D03*
X142494000Y-150685500D03*
X143994000Y-150685500D03*
D15*
X153670000Y-167005000D03*
D16*
X153670000Y-169545000D03*
X151130000Y-167005000D03*
X151130000Y-169545000D03*
X148590000Y-167005000D03*
X148590000Y-169545000D03*
X146050000Y-167005000D03*
X146050000Y-169545000D03*
X143510000Y-167005000D03*
X143510000Y-169545000D03*
D17*
X155788000Y-140970000D03*
X157988000Y-140970000D03*
X125562000Y-101854000D03*
X127762000Y-101854000D03*
X125562000Y-98806000D03*
X127762000Y-98806000D03*
X171788000Y-98806000D03*
X169588000Y-98806000D03*
X171788000Y-101854000D03*
X169588000Y-101854000D03*
X135232500Y-124460000D03*
X133032500Y-124460000D03*
X135232500Y-126301500D03*
X133032500Y-126301500D03*
X135232500Y-128143000D03*
X133032500Y-128143000D03*
X139827000Y-155956000D03*
X139827000Y-153756000D03*
X144884500Y-152273000D03*
X142684500Y-152273000D03*
D18*
X137160000Y-98425000D03*
D19*
X138430000Y-98425000D03*
X139700000Y-98425000D03*
D18*
X157480000Y-98425000D03*
D19*
X158750000Y-98425000D03*
X160020000Y-98425000D03*
D20*
X147290000Y-173910000D03*
X147940000Y-173910000D03*
X148590000Y-173910000D03*
X149240000Y-173910000D03*
X149890000Y-173910000D03*
D21*
X146090000Y-173910000D03*
X151090000Y-173910000D03*
D22*
X145090000Y-176610000D03*
X152090000Y-176610000D03*
D18*
X170180000Y-135890000D03*
D19*
X170180000Y-137160000D03*
X170180000Y-138430000D03*
D18*
X147320000Y-97790000D03*
D19*
X148590000Y-97790000D03*
X149860000Y-97790000D03*
D18*
X127000000Y-138430000D03*
D19*
X127000000Y-137160000D03*
X127000000Y-135890000D03*
D23*
X127000000Y-151130000D03*
D24*
X127000000Y-148590000D03*
D25*
X156654500Y-152527000D03*
X156654500Y-151027000D03*
D26*
X162496500Y-148082000D03*
X160996500Y-148082000D03*
D25*
X132016500Y-155015500D03*
X132016500Y-156515500D03*
D27*
X132451100Y-117353600D03*
X126451100Y-117353600D03*
D28*
X137451100Y-107353600D03*
X137451100Y-115353600D03*
D27*
X126451100Y-105353600D03*
X132451100Y-105353600D03*
X164551100Y-105353600D03*
X170551100Y-105353600D03*
D28*
X159551100Y-115353600D03*
X159551100Y-107353600D03*
D27*
X170551100Y-117353600D03*
X164551100Y-117353600D03*
X164551100Y-162503600D03*
X170551100Y-162503600D03*
D28*
X159551100Y-172503600D03*
X159551100Y-164503600D03*
D27*
X170551100Y-174503600D03*
X164551100Y-174503600D03*
X132451100Y-174503600D03*
X126451100Y-174503600D03*
D28*
X137451100Y-164503600D03*
X137451100Y-172503600D03*
D27*
X126451100Y-162503600D03*
X132451100Y-162503600D03*
D29*
X147706000Y-120650000D03*
X149606000Y-120650000D03*
X148656000Y-118650000D03*
D30*
X149796500Y-151511000D03*
X149796500Y-150611000D03*
D31*
X149796500Y-149479000D03*
X150696500Y-149479000D03*
X160274000Y-140970000D03*
X159374000Y-140970000D03*
X149352000Y-172085000D03*
X148452000Y-172085000D03*
X146685000Y-172085000D03*
X147585000Y-172085000D03*
D30*
X151384000Y-123952000D03*
X151384000Y-124852000D03*
X156464000Y-126238000D03*
X156464000Y-127138000D03*
X155194000Y-126238000D03*
X155194000Y-127138000D03*
D31*
X157988000Y-123444000D03*
X158888000Y-123444000D03*
X156972000Y-122187999D03*
X157872000Y-122187999D03*
D30*
X155956000Y-121920000D03*
X155956000Y-121020000D03*
X154600000Y-122000000D03*
X154600000Y-121100000D03*
D31*
X148278000Y-116332000D03*
X147378000Y-116332000D03*
X151384000Y-114808000D03*
X150484000Y-114808000D03*
D30*
X151130000Y-111368000D03*
X151130000Y-112268000D03*
D31*
X146246000Y-162560000D03*
X145346000Y-162560000D03*
X151638000Y-161417000D03*
X150738000Y-161417000D03*
D30*
X150876000Y-157919000D03*
X150876000Y-158819000D03*
D31*
X126238000Y-103378000D03*
X127138000Y-103378000D03*
X127000000Y-100330000D03*
X126100000Y-100330000D03*
X171196000Y-100330000D03*
X170296000Y-100330000D03*
X170296000Y-103378000D03*
X171196000Y-103378000D03*
D30*
X149225000Y-103955000D03*
X149225000Y-103055000D03*
D31*
X146870000Y-102870000D03*
X147770000Y-102870000D03*
X143203500Y-136906000D03*
X142303500Y-136906000D03*
X143198000Y-138366500D03*
X142298000Y-138366500D03*
D30*
X148082000Y-131688000D03*
X148082000Y-132588000D03*
D31*
X137483000Y-124460000D03*
X136583000Y-124460000D03*
X137477500Y-126301500D03*
X136577500Y-126301500D03*
X137477500Y-128143000D03*
X136577500Y-128143000D03*
X136080500Y-149479000D03*
X136980500Y-149479000D03*
D30*
X139319000Y-147516000D03*
X139319000Y-146616000D03*
X141351000Y-155067000D03*
X141351000Y-155967000D03*
D31*
X142240000Y-149479000D03*
X143140000Y-149479000D03*
D30*
X146367500Y-151384000D03*
X146367500Y-152284000D03*
D31*
X138372000Y-147574000D03*
X137472000Y-147574000D03*
D30*
X140398500Y-147521500D03*
X140398500Y-146621500D03*
D32*
X169055000Y-153540000D03*
X169055000Y-150540000D03*
X169055000Y-149040000D03*
D33*
X171915000Y-154940000D03*
X171915000Y-147640000D03*
X169705000Y-147640000D03*
X169705000Y-154940000D03*
D28*
X142969444Y-108477545D03*
X138726804Y-104234905D03*
X132080000Y-99568000D03*
X134059899Y-97588101D03*
X154088680Y-108477545D03*
X158331320Y-104234905D03*
X162998225Y-97588101D03*
X164978124Y-99568000D03*
D34*
X132495500Y-136149000D03*
X135445500Y-136149000D03*
X132495500Y-138049000D03*
X135445500Y-138049000D03*
D35*
X155130000Y-153035000D03*
X155130000Y-152235000D03*
X155130000Y-151435000D03*
X155130000Y-150635000D03*
X151130000Y-150635000D03*
X151130000Y-151435000D03*
X151130000Y-152235000D03*
X151130000Y-153035000D03*
D36*
X152505000Y-150485000D03*
X152505000Y-151385000D03*
X152505000Y-152285000D03*
X152505000Y-153185000D03*
X153755000Y-150485000D03*
X153755000Y-151385000D03*
X153755000Y-152285000D03*
X153755000Y-153185000D03*
D37*
X148582500Y-122943500D03*
X148082500Y-122943500D03*
X149082500Y-122943500D03*
X148082500Y-124968500D03*
X148582500Y-124968500D03*
X149082500Y-124968500D03*
D38*
X147320000Y-123206000D03*
X147320000Y-123706000D03*
X147320000Y-124206000D03*
X147320000Y-124706000D03*
X149845000Y-124706000D03*
X149845000Y-124206000D03*
X149845000Y-123706000D03*
X149845000Y-123206000D03*
D39*
X155280716Y-124832999D03*
X155680716Y-124832999D03*
X156080716Y-124832999D03*
X156480716Y-124832999D03*
X156880716Y-124832999D03*
D40*
X156880716Y-124182999D03*
D39*
X156880716Y-123532999D03*
X156480716Y-123532999D03*
X156080716Y-123532999D03*
X155680716Y-123532999D03*
X155280716Y-123532999D03*
D40*
X155280716Y-124182999D03*
D41*
X155080716Y-124607999D03*
D42*
X144623600Y-135451400D03*
X144623600Y-135951399D03*
X144623600Y-136451401D03*
X144623600Y-136951400D03*
X144623600Y-137451399D03*
X144623600Y-137951400D03*
X144623600Y-138451400D03*
X144623600Y-138951401D03*
X144623600Y-139451400D03*
X144623600Y-139951399D03*
X144623600Y-140451401D03*
X144623600Y-140951400D03*
D43*
X146090000Y-142417800D03*
X146589999Y-142417800D03*
X147090001Y-142417800D03*
X147590000Y-142417800D03*
X148089999Y-142417800D03*
X148590000Y-142417800D03*
X149090000Y-142417800D03*
X149590001Y-142417800D03*
X150090000Y-142417800D03*
X150589999Y-142417800D03*
X151090001Y-142417800D03*
X151590000Y-142417800D03*
D42*
X153056400Y-140951400D03*
X153056400Y-140451401D03*
X153056400Y-139951399D03*
X153056400Y-139451400D03*
X153056400Y-138951401D03*
X153056400Y-138451400D03*
X153056400Y-137951400D03*
X153056400Y-137451399D03*
X153056400Y-136951400D03*
X153056400Y-136451401D03*
X153056400Y-135951399D03*
X153056400Y-135451400D03*
D43*
X151590000Y-133985000D03*
X151090001Y-133985000D03*
X150589999Y-133985000D03*
X150090000Y-133985000D03*
X149590001Y-133985000D03*
X149090000Y-133985000D03*
X148590000Y-133985000D03*
X148089999Y-133985000D03*
X147590000Y-133985000D03*
X147090001Y-133985000D03*
X146589999Y-133985000D03*
X146090000Y-133985000D03*
D44*
X161050986Y-145558002D03*
D45*
X161036000Y-146058001D03*
X161036000Y-146558000D03*
X161775998Y-146558000D03*
X161775998Y-146058001D03*
X161775998Y-145558002D03*
D44*
X133428486Y-156416502D03*
D45*
X133413500Y-156916501D03*
X133413500Y-157416500D03*
X134153498Y-157416500D03*
X134153498Y-156916501D03*
X134153498Y-156416502D03*
D46*
X138098000Y-149491000D03*
X138098000Y-149991000D03*
X138098000Y-150491000D03*
X138098000Y-150991000D03*
D47*
X138823000Y-151716000D03*
X139323000Y-151716000D03*
X139823000Y-151716000D03*
X140323000Y-151716000D03*
D46*
X141048000Y-150991000D03*
X141048000Y-150491000D03*
X141048000Y-149991000D03*
X141048000Y-149491000D03*
D47*
X140323000Y-148766000D03*
X139823000Y-148766000D03*
X139323000Y-148766000D03*
X138823000Y-148766000D03*
D48*
X140023000Y-150691000D03*
X140023000Y-149791000D03*
X139123000Y-150691000D03*
X139123000Y-149791000D03*
D49*
X139573000Y-150241000D03*
X139073000Y-149741000D03*
X140073000Y-149741000D03*
X140073000Y-150741000D03*
X139073000Y-150741000D03*
D50*
X140589000Y-134152000D03*
X140589000Y-136652000D03*
D51*
X140398500Y-138584500D03*
X140398500Y-142684500D03*
D17*
X135250000Y-122750000D03*
X133050000Y-122750000D03*
D31*
X137450000Y-122750000D03*
X136550000Y-122750000D03*
D46*
X146304000Y-112750000D03*
X146304000Y-113250000D03*
X146304000Y-113750000D03*
X146304000Y-114250000D03*
D47*
X147029000Y-114975000D03*
X147529000Y-114975000D03*
X148029000Y-114975000D03*
X148529000Y-114975000D03*
D46*
X149254000Y-114250000D03*
X149254000Y-113750000D03*
X149254000Y-113250000D03*
X149254000Y-112750000D03*
D47*
X148529000Y-112025000D03*
X148029000Y-112025000D03*
X147529000Y-112025000D03*
X147029000Y-112025000D03*
D48*
X148229000Y-113950000D03*
X148229000Y-113050000D03*
X147329000Y-113950000D03*
X147329000Y-113050000D03*
D49*
X147779000Y-113500000D03*
X147279000Y-113000000D03*
X148279000Y-113000000D03*
X148279000Y-114000000D03*
X147279000Y-114000000D03*
D46*
X146558000Y-159486000D03*
X146558000Y-159986000D03*
X146558000Y-160486000D03*
X146558000Y-160986000D03*
D47*
X147283000Y-161711000D03*
X147783000Y-161711000D03*
X148283000Y-161711000D03*
X148783000Y-161711000D03*
D46*
X149508000Y-160986000D03*
X149508000Y-160486000D03*
X149508000Y-159986000D03*
X149508000Y-159486000D03*
D47*
X148783000Y-158761000D03*
X148283000Y-158761000D03*
X147783000Y-158761000D03*
X147283000Y-158761000D03*
D48*
X148483000Y-160686000D03*
X148483000Y-159786000D03*
X147583000Y-160686000D03*
X147583000Y-159786000D03*
D49*
X148033000Y-160236000D03*
X147533000Y-159736000D03*
X148533000Y-159736000D03*
X148533000Y-160736000D03*
X147533000Y-160736000D03*
X149983243Y-111206037D03*
X144253001Y-111594503D03*
X155368011Y-169408211D03*
X158012968Y-126804331D03*
X146321803Y-131677577D03*
X153014584Y-161728576D03*
X140526714Y-140831167D03*
X138406252Y-154074306D03*
X164738384Y-146841473D03*
X163283447Y-145458980D03*
X153910428Y-125847251D03*
X149974395Y-126259811D03*
X155536743Y-135423459D03*
X146348251Y-128393599D03*
X144988530Y-128089078D03*
X150571652Y-128117192D03*
X153963695Y-111420516D03*
X146896573Y-145886909D03*
X149317524Y-146261201D03*
X135838011Y-151620730D03*
X135838011Y-150378416D03*
X133705991Y-153924000D03*
X144526000Y-147828000D03*
X129032000Y-101473000D03*
X129032000Y-98425000D03*
X154940000Y-113157000D03*
X151557830Y-157108493D03*
X151638000Y-154305000D03*
X160909000Y-144780000D03*
X167513000Y-148336000D03*
X151297693Y-148417107D03*
X160401000Y-138684000D03*
X137795000Y-152400000D03*
X138938000Y-140081000D03*
X135763000Y-137033000D03*
X137033000Y-135890000D03*
X132715000Y-132715000D03*
X130175000Y-137160000D03*
X168275000Y-101600000D03*
X168275000Y-99060000D03*
X152400000Y-99695000D03*
X150495000Y-99695000D03*
X130810000Y-159385000D03*
X130810000Y-155575000D03*
X145507477Y-159082650D03*
X147075190Y-149250400D03*
X154086510Y-123233364D03*
X154051000Y-126899662D03*
X153254568Y-124489744D03*
X149809243Y-125463033D03*
X148135196Y-127478840D03*
X147076816Y-125644343D03*
X137160000Y-129540000D03*
X132080000Y-140335000D03*
X133350000Y-151130000D03*
X133350000Y-153035000D03*
X152083067Y-160168936D03*
X145099376Y-112409425D03*
X152119556Y-113569605D03*
X161031615Y-142404216D03*
X158443021Y-118395241D03*
X157676454Y-145469687D03*
X154963752Y-116461223D03*
X148768032Y-148562696D03*
X148967124Y-152464884D03*
X154592020Y-146839940D03*
X161269680Y-118950740D03*
X149799040Y-116611400D03*
X135981777Y-142496497D03*
X143717709Y-164072062D03*
X145816683Y-137902954D03*
X135697603Y-139234835D03*
X146316574Y-116588602D03*
X148313290Y-119534558D03*
X149366948Y-153924368D03*
X151909814Y-109717362D03*
X151130000Y-154940000D03*
X156845000Y-153670000D03*
X158750000Y-154940000D03*
X156210000Y-120015000D03*
X154305000Y-132715000D03*
X142875000Y-125730000D03*
X141886577Y-140932925D03*
X153556046Y-112654480D03*
X150905333Y-118904172D03*
X154299513Y-120053216D03*
X142998521Y-127621674D03*
X143189732Y-131375070D03*
X156004051Y-105842468D03*
X146514319Y-135828820D03*
X145948009Y-148336000D03*
X142240000Y-135001000D03*
X144399000Y-134747000D03*
X142670211Y-157885588D03*
X150114000Y-152273000D03*
X146177000Y-150241000D03*
X144434858Y-163852481D03*
X141624992Y-146313095D03*
X132852230Y-140700739D03*
X138498759Y-127720354D03*
X145415000Y-172085000D03*
X147320000Y-165735000D03*
X136168538Y-144328582D03*
X149975421Y-141119889D03*
X134485235Y-142515821D03*
X134365257Y-140769513D03*
X139169380Y-131109131D03*
X154508894Y-136841182D03*
X156931632Y-139868920D03*
X156296343Y-146221811D03*
X155035630Y-161855723D03*
X135233918Y-142538042D03*
X139752439Y-131604997D03*
X135153031Y-140513174D03*
X142637782Y-163179692D03*
X133745045Y-142630439D03*
X133602491Y-140656974D03*
X139577439Y-129664677D03*
X158830901Y-133921500D03*
X160134300Y-132575300D03*
X146430010Y-117404797D03*
X147354246Y-118966072D03*
X158720962Y-120021191D03*
X162321425Y-125729106D03*
X152956013Y-119121724D03*
X139501573Y-118186297D03*
X156845000Y-118745000D03*
X145832675Y-139384894D03*
X147707991Y-137202223D03*
X128778000Y-141732000D03*
X144018000Y-141732000D03*
X148215506Y-135568099D03*
X149288986Y-104745103D03*
X143119631Y-112503398D03*
X150251062Y-112673194D03*
X155366248Y-113781251D03*
X155333237Y-111946519D03*
X148879607Y-157772739D03*
X156516611Y-167695311D03*
X152770840Y-164231320D03*
X151706727Y-159481705D03*
X153100383Y-159502649D03*
X155847717Y-160755044D03*
X152583952Y-160725832D03*
X152063871Y-162922492D03*
X145948969Y-164371719D03*
X142308580Y-164538660D03*
X146035009Y-121225600D03*
X147484432Y-119703684D03*
X150981680Y-141110351D03*
X150215600Y-172085000D03*
X160910873Y-140067865D03*
X155613537Y-136374515D03*
X147828000Y-122051595D03*
X149606137Y-122174137D03*
X155982602Y-125682414D03*
X154568210Y-125486918D03*
X148522127Y-123867525D03*
X149658399Y-126940005D03*
X148497089Y-138060631D03*
X158120077Y-124287981D03*
X156963795Y-121329965D03*
X149263316Y-138152577D03*
X155464017Y-120082287D03*
X152412643Y-121593760D03*
X152717169Y-128173913D03*
X156046858Y-122611895D03*
X153774054Y-121934112D03*
X153774054Y-128251537D03*
X148214407Y-139950850D03*
X148703574Y-139382314D03*
X160892349Y-131140200D03*
X158330900Y-133134100D03*
X152015490Y-106303284D03*
X142524035Y-130723537D03*
X148981115Y-106106028D03*
X145542000Y-104648000D03*
X163778488Y-143255445D03*
X149349611Y-139001323D03*
X148890528Y-136190497D03*
X148123303Y-131718411D03*
X157387844Y-125478948D03*
X151666255Y-119808401D03*
X157559814Y-126207951D03*
X153714343Y-125092825D03*
X150724768Y-125779732D03*
X150587379Y-124210046D03*
X143711696Y-115655585D03*
X144032476Y-130702291D03*
X144489479Y-115160448D03*
X145082970Y-130525995D03*
X137283664Y-143252398D03*
X144390931Y-143898304D03*
X140379007Y-114554000D03*
X137431010Y-136639321D03*
X143798773Y-113354102D03*
X151069778Y-137802960D03*
X151614455Y-130885005D03*
X145406361Y-127395054D03*
X149105889Y-110318835D03*
X143570632Y-111903359D03*
X151678892Y-110558463D03*
X150456567Y-138507008D03*
X147574000Y-162814000D03*
X149747561Y-144660507D03*
X147626254Y-147042255D03*
X149573436Y-163198972D03*
X144987219Y-161614711D03*
X151435508Y-162508492D03*
X143197447Y-159761869D03*
X144453760Y-131753266D03*
X137100010Y-146621500D03*
X142176500Y-132232400D03*
X147204906Y-147748907D03*
X144969035Y-146358017D03*
X145519060Y-160485270D03*
X146318937Y-138474507D03*
X155261444Y-142620777D03*
X144261514Y-149510438D03*
X143735003Y-159238749D03*
X151072772Y-136548951D03*
X148626497Y-154193086D03*
X162872926Y-147155401D03*
X157411367Y-149633465D03*
X152208329Y-155865363D03*
X159885912Y-147977028D03*
X162687000Y-145923000D03*
X134620000Y-159004000D03*
X133223000Y-158496000D03*
D52*
X138493500Y-142092500D02*
X138176000Y-142092500D01*
X138493500Y-142092500D02*
X138493500Y-140525500D01*
X138493500Y-140525500D02*
X138938000Y-140081000D01*
X138176000Y-139149000D02*
X138176000Y-139319000D01*
X138176000Y-139319000D02*
X138938000Y-140081000D01*
X150145206Y-111368000D02*
X149983243Y-111206037D01*
X150197722Y-111420516D02*
X149983243Y-111206037D01*
X151130000Y-111368000D02*
X150145206Y-111368000D01*
X153963695Y-111420516D02*
X150197722Y-111420516D01*
X143994000Y-150685500D02*
X143969000Y-150685500D01*
X143969000Y-150685500D02*
X143140000Y-149856500D01*
X143140000Y-149856500D02*
X143140000Y-149479000D01*
X151638000Y-161417000D02*
X152703008Y-161417000D01*
X152714585Y-161428577D02*
X153014584Y-161728576D01*
X152703008Y-161417000D02*
X152714585Y-161428577D01*
D53*
X148460462Y-124478600D02*
X148805100Y-124478600D01*
X148043018Y-124206000D02*
X148242817Y-124405799D01*
X148582500Y-124600638D02*
X148582500Y-124968500D01*
X147532500Y-123706000D02*
X148232299Y-124405799D01*
X147320000Y-124206000D02*
X148043018Y-124206000D01*
X148242817Y-124405799D02*
X148387661Y-124405799D01*
X148387661Y-124405799D02*
X148460462Y-124478600D01*
X149082500Y-124756000D02*
X149082500Y-124968500D01*
X148387661Y-124405799D02*
X148582500Y-124600638D01*
X148232299Y-124405799D02*
X148387661Y-124405799D01*
X147320000Y-123706000D02*
X147532500Y-123706000D01*
X148805100Y-124478600D02*
X149082500Y-124756000D01*
D52*
X144253001Y-112374823D02*
X144253001Y-112018767D01*
X145613461Y-112750000D02*
X145311259Y-113052201D01*
X144930379Y-113052201D02*
X144253001Y-112374823D01*
X145311259Y-113052201D02*
X144930379Y-113052201D01*
X146304000Y-112750000D02*
X145613461Y-112750000D01*
X144253001Y-112018767D02*
X144253001Y-111594503D01*
X147075190Y-149250400D02*
X146775191Y-148950401D01*
X146775191Y-148950401D02*
X145648401Y-148950401D01*
X145648401Y-148950401D02*
X144825999Y-148127999D01*
X144825999Y-148127999D02*
X144526000Y-147828000D01*
X145507477Y-159082650D02*
X146154650Y-159082650D01*
X146154650Y-159082650D02*
X146558000Y-159486000D01*
X155231222Y-169545000D02*
X155368011Y-169408211D01*
X153670000Y-169545000D02*
X155231222Y-169545000D01*
X158888000Y-123444000D02*
X158888000Y-125929299D01*
X158888000Y-125929299D02*
X158312967Y-126504332D01*
X158312967Y-126504332D02*
X158012968Y-126804331D01*
X146321803Y-131677577D02*
X146321803Y-132415303D01*
X146321803Y-132415303D02*
X146367500Y-132461000D01*
X146589999Y-133985000D02*
X146589999Y-132683499D01*
X146589999Y-132683499D02*
X146367500Y-132461000D01*
X133050000Y-122750000D02*
X133050000Y-124442500D01*
X133050000Y-124442500D02*
X133032500Y-124460000D01*
X138938000Y-140081000D02*
X138870827Y-140013827D01*
X140526714Y-140831167D02*
X141005328Y-140352553D01*
X141005328Y-140352553D02*
X142103447Y-140352553D01*
X142103447Y-140352553D02*
X142748000Y-139708000D01*
X142748000Y-139708000D02*
X142748000Y-139658000D01*
X150876000Y-157919000D02*
X150876000Y-157790323D01*
X150876000Y-157790323D02*
X151557830Y-157108493D01*
X138406252Y-154074306D02*
X139078749Y-154746803D01*
X140323000Y-152341000D02*
X140323000Y-151716000D01*
X139078749Y-154746803D02*
X140486199Y-154746803D01*
X140486199Y-154746803D02*
X140801551Y-154431451D01*
X140801551Y-154431451D02*
X140801551Y-152819551D01*
X140801551Y-152819551D02*
X140323000Y-152341000D01*
X138406252Y-154074306D02*
X138406252Y-153526746D01*
X138406252Y-153526746D02*
X139323000Y-152609998D01*
X139323000Y-152609998D02*
X139323000Y-151716000D01*
X164738384Y-146841473D02*
X164665940Y-146841473D01*
X164665940Y-146841473D02*
X163283447Y-145458980D01*
X164714473Y-146841473D02*
X164455000Y-146582000D01*
X164455000Y-146582000D02*
X163830000Y-146582000D01*
X164738384Y-146841473D02*
X164714473Y-146841473D01*
X149974395Y-126259811D02*
X150274394Y-126559810D01*
X150274394Y-126559810D02*
X152868037Y-126559810D01*
X152868037Y-126559810D02*
X153580596Y-125847251D01*
X153580596Y-125847251D02*
X153910428Y-125847251D01*
X149182000Y-126238000D02*
X149952584Y-126238000D01*
X149952584Y-126238000D02*
X149974395Y-126259811D01*
X155536743Y-134999195D02*
X155536743Y-135423459D01*
X155536743Y-133082283D02*
X155536743Y-134999195D01*
X150571652Y-128117192D02*
X155536743Y-133082283D01*
X155473784Y-135360500D02*
X155536743Y-135423459D01*
X155122500Y-135360500D02*
X155473784Y-135360500D01*
X154622500Y-135910500D02*
X154622500Y-135860500D01*
X154622500Y-135860500D02*
X155122500Y-135360500D01*
X146348251Y-128393599D02*
X146043730Y-128089078D01*
X146043730Y-128089078D02*
X144988530Y-128089078D01*
X151257000Y-144745989D02*
X149741788Y-146261201D01*
X151257000Y-143954500D02*
X151257000Y-144745989D01*
X149741788Y-146261201D02*
X149317524Y-146261201D01*
X147320837Y-145886909D02*
X146896573Y-145886909D01*
X148943232Y-145886909D02*
X147320837Y-145886909D01*
X149317524Y-146261201D02*
X148943232Y-145886909D01*
X136715500Y-152312500D02*
X136715500Y-152287500D01*
X136080500Y-150135927D02*
X135838011Y-150378416D01*
X136048730Y-151620730D02*
X135838011Y-151620730D01*
X135064500Y-155130500D02*
X135039500Y-155130500D01*
X136715500Y-152287500D02*
X136048730Y-151620730D01*
X133833000Y-153924000D02*
X133705991Y-153924000D01*
X135039500Y-155130500D02*
X133833000Y-153924000D01*
X136080500Y-149479000D02*
X136080500Y-150135927D01*
X144526000Y-147828000D02*
X143613000Y-147828000D01*
X143613000Y-147828000D02*
X143105000Y-147320000D01*
X129032000Y-101473000D02*
X128143000Y-101473000D01*
X128143000Y-101473000D02*
X127762000Y-101854000D01*
X127762000Y-98806000D02*
X128651000Y-98806000D01*
X128651000Y-98806000D02*
X129032000Y-98425000D01*
X151384000Y-114554000D02*
X153543000Y-114554000D01*
X153543000Y-114554000D02*
X154940000Y-113157000D01*
X152505000Y-153185000D02*
X152505000Y-153438000D01*
X152505000Y-153438000D02*
X151638000Y-154305000D01*
X160909000Y-144780000D02*
X160909000Y-145416016D01*
X160909000Y-145416016D02*
X161050986Y-145558002D01*
X160401000Y-139108264D02*
X160274000Y-139235264D01*
X160401000Y-138684000D02*
X160401000Y-139108264D01*
X161925000Y-143129000D02*
X161925000Y-140208000D01*
X160274000Y-139235264D02*
X160274000Y-140970000D01*
X161925000Y-140208000D02*
X160401000Y-138684000D01*
X161798000Y-143256000D02*
X161925000Y-143129000D01*
X161211500Y-143256000D02*
X161798000Y-143256000D01*
X159702500Y-145415000D02*
X159702500Y-144765000D01*
X159702500Y-144765000D02*
X161211500Y-143256000D01*
X167513000Y-148336000D02*
X168351000Y-148336000D01*
X168351000Y-148336000D02*
X169055000Y-149040000D01*
X161050986Y-145558002D02*
X159845502Y-145558002D01*
X159845502Y-145558002D02*
X159702500Y-145415000D01*
X161775998Y-146558000D02*
X163806000Y-146558000D01*
X163806000Y-146558000D02*
X163830000Y-146582000D01*
X151297693Y-148417107D02*
X151297693Y-148877807D01*
X151297693Y-148877807D02*
X150696500Y-149479000D01*
X137795000Y-152400000D02*
X136803000Y-152400000D01*
X136803000Y-152400000D02*
X136715500Y-152312500D01*
X137472000Y-147574000D02*
X137472000Y-148087500D01*
X137472000Y-148087500D02*
X136080500Y-149479000D01*
X143105000Y-147320000D02*
X143080000Y-147320000D01*
X143080000Y-147320000D02*
X142381500Y-146621500D01*
X142381500Y-146621500D02*
X142381500Y-145937500D01*
X142381500Y-145937500D02*
X142113000Y-145669000D01*
X142113000Y-145669000D02*
X140901000Y-145669000D01*
X140901000Y-145669000D02*
X140398500Y-146171500D01*
X140398500Y-146171500D02*
X140398500Y-146621500D01*
X139319000Y-146616000D02*
X140393000Y-146616000D01*
X140393000Y-146616000D02*
X140398500Y-146621500D01*
X137472000Y-147574000D02*
X138430000Y-146616000D01*
X138430000Y-146616000D02*
X139319000Y-146616000D01*
X135064500Y-155130500D02*
X135064500Y-153338500D01*
X135064500Y-153338500D02*
X136090500Y-152312500D01*
X136090500Y-152312500D02*
X136715500Y-152312500D01*
X132832000Y-159297500D02*
X132207000Y-159297500D01*
X133235504Y-159297500D02*
X132832000Y-159297500D01*
X134153498Y-158379506D02*
X133235504Y-159297500D01*
X134153498Y-157416500D02*
X134153498Y-158379506D01*
X135763000Y-137033000D02*
X135763000Y-136466500D01*
X135763000Y-136466500D02*
X135445500Y-136149000D01*
X138938000Y-135742500D02*
X137180500Y-135742500D01*
X137180500Y-135742500D02*
X137033000Y-135890000D01*
X138938000Y-135742500D02*
X138938000Y-134704000D01*
X158888000Y-123994000D02*
X158888000Y-123444000D01*
X158888000Y-124417954D02*
X158888000Y-123994000D01*
X158384079Y-124921875D02*
X158888000Y-124417954D01*
X157819592Y-124921875D02*
X158384079Y-124921875D01*
X156880716Y-124182999D02*
X157080716Y-124182999D01*
X157080716Y-124182999D02*
X157819592Y-124921875D01*
X158888000Y-123444000D02*
X158888000Y-123203999D01*
X158888000Y-123203999D02*
X157872000Y-122187999D01*
X133032500Y-126301500D02*
X133032500Y-124460000D01*
X133032500Y-128143000D02*
X133032500Y-126301500D01*
X132715000Y-132715000D02*
X133032500Y-132397500D01*
X133032500Y-132397500D02*
X133032500Y-128143000D01*
X131318000Y-136949000D02*
X130386000Y-136949000D01*
X130386000Y-136949000D02*
X130175000Y-137160000D01*
X168275000Y-101600000D02*
X169334000Y-101600000D01*
X169334000Y-101600000D02*
X169588000Y-101854000D01*
X168275000Y-99060000D02*
X169334000Y-99060000D01*
X169334000Y-99060000D02*
X169588000Y-98806000D01*
X150495000Y-99695000D02*
X152400000Y-99695000D01*
X132207000Y-159297500D02*
X130897500Y-159297500D01*
X130897500Y-159297500D02*
X130810000Y-159385000D01*
X133428486Y-156416502D02*
X133303486Y-156416502D01*
X133303486Y-156416502D02*
X132461984Y-155575000D01*
X132461984Y-155575000D02*
X130810000Y-155575000D01*
X149890000Y-173910000D02*
X151090000Y-173910000D01*
X149240000Y-173910000D02*
X149890000Y-173910000D01*
X143140000Y-149479000D02*
X143140000Y-147355000D01*
X143140000Y-147355000D02*
X143105000Y-147320000D01*
X138098000Y-150991000D02*
X138037000Y-150991000D01*
X138037000Y-150991000D02*
X136715500Y-152312500D01*
X153755000Y-152285000D02*
X155080000Y-152285000D01*
X155080000Y-152285000D02*
X155130000Y-152235000D01*
X153755000Y-151385000D02*
X155080000Y-151385000D01*
X155080000Y-151385000D02*
X155130000Y-151435000D01*
X152505000Y-150485000D02*
X151499000Y-149479000D01*
X151499000Y-149479000D02*
X150696500Y-149479000D01*
X153755000Y-150485000D02*
X153755000Y-148968500D01*
X153755000Y-148968500D02*
X153630500Y-148844000D01*
X153755000Y-152285000D02*
X153755000Y-153185000D01*
X153755000Y-151385000D02*
X153755000Y-152285000D01*
X153755000Y-150485000D02*
X153755000Y-151385000D01*
X152505000Y-150485000D02*
X153755000Y-150485000D01*
X152505000Y-151385000D02*
X152505000Y-150485000D01*
X152505000Y-152285000D02*
X152505000Y-151385000D01*
X152505000Y-153185000D02*
X152505000Y-152285000D01*
D53*
X149082500Y-124968500D02*
X149082500Y-126138500D01*
X149082500Y-126138500D02*
X149182000Y-126238000D01*
X148582500Y-124968500D02*
X148582500Y-125688500D01*
X148582500Y-125688500D02*
X149132000Y-126238000D01*
X149132000Y-126238000D02*
X149182000Y-126238000D01*
D52*
X131318000Y-136949000D02*
X131695500Y-136949000D01*
X131695500Y-136949000D02*
X132495500Y-136149000D01*
X132495500Y-136149000D02*
X135445500Y-136149000D01*
X154622500Y-135910500D02*
X154581601Y-135951399D01*
X154581601Y-135951399D02*
X153056400Y-135951399D01*
X151257000Y-143954500D02*
X151090001Y-143787501D01*
X151090001Y-143787501D02*
X151090001Y-142417800D01*
X143637000Y-138951401D02*
X144623600Y-138951401D01*
X143551714Y-139036687D02*
X143637000Y-138951401D01*
X142748000Y-139658000D02*
X142748000Y-139608000D01*
X142748000Y-139608000D02*
X143319313Y-139036687D01*
X143319313Y-139036687D02*
X143551714Y-139036687D01*
X154930716Y-124622570D02*
X154086510Y-123778364D01*
X154930716Y-124832999D02*
X154930716Y-124622570D01*
X154086510Y-123778364D02*
X154086510Y-123657628D01*
X154086510Y-123657628D02*
X154086510Y-123233364D01*
X154199329Y-127047991D02*
X154051000Y-126899662D01*
X155194000Y-127138000D02*
X154478356Y-127138000D01*
X154478356Y-127138000D02*
X154388347Y-127047991D01*
X154388347Y-127047991D02*
X154199329Y-127047991D01*
X152892312Y-124852000D02*
X153254568Y-124489744D01*
X151384000Y-124852000D02*
X152892312Y-124852000D01*
X149845000Y-124706000D02*
X149845000Y-125427276D01*
X149845000Y-125427276D02*
X149809243Y-125463033D01*
X148135196Y-127478840D02*
X147989375Y-127624661D01*
X147989375Y-127624661D02*
X147564699Y-127624661D01*
X147564699Y-127624661D02*
X146311029Y-126370991D01*
X142903647Y-126370991D02*
X140962140Y-128312498D01*
X138096998Y-128312498D02*
X137927500Y-128143000D01*
X146311029Y-126370991D02*
X142903647Y-126370991D01*
X137927500Y-128143000D02*
X137477500Y-128143000D01*
X140962140Y-128312498D02*
X138096998Y-128312498D01*
X147438343Y-125644343D02*
X147076816Y-125644343D01*
X148082000Y-126238000D02*
X148032000Y-126238000D01*
X148032000Y-126238000D02*
X147438343Y-125644343D01*
X132914500Y-153470500D02*
X133050001Y-153334999D01*
X132914500Y-154505500D02*
X132914500Y-153470500D01*
X133539500Y-155130500D02*
X132914500Y-154505500D01*
X133564500Y-155130500D02*
X133539500Y-155130500D01*
X133050001Y-153334999D02*
X133350000Y-153035000D01*
X132080000Y-140759264D02*
X132080000Y-140335000D01*
X133350000Y-151130000D02*
X132080000Y-149860000D01*
X132080000Y-149860000D02*
X132080000Y-140759264D01*
X155080716Y-124607999D02*
X155080716Y-124682999D01*
X155080716Y-124682999D02*
X154930716Y-124832999D01*
X154930716Y-124832999D02*
X155280716Y-124832999D01*
X137160000Y-129540000D02*
X137160000Y-128460500D01*
X137160000Y-128460500D02*
X137477500Y-128143000D01*
X133564500Y-155130500D02*
X132131500Y-155130500D01*
X132131500Y-155130500D02*
X132016500Y-155015500D01*
X133564500Y-155130500D02*
X134153498Y-155719498D01*
X134153498Y-155719498D02*
X134153498Y-156416502D01*
D53*
X156464000Y-127138000D02*
X155194000Y-127138000D01*
X148082500Y-124968500D02*
X148082500Y-126237500D01*
X148082500Y-126237500D02*
X148082000Y-126238000D01*
X151384000Y-124852000D02*
X149991000Y-124852000D01*
X149991000Y-124852000D02*
X149845000Y-124706000D01*
D52*
X147108000Y-110744000D02*
X147529000Y-111165000D01*
X147529000Y-111165000D02*
X147529000Y-112025000D01*
X149508000Y-159986000D02*
X151329794Y-159986000D01*
X151512730Y-160168936D02*
X151658803Y-160168936D01*
X151658803Y-160168936D02*
X152083067Y-160168936D01*
X152383066Y-157042590D02*
X152383066Y-159868937D01*
X152383066Y-159868937D02*
X152083067Y-160168936D01*
X151329794Y-159986000D02*
X151512730Y-160168936D01*
X150555998Y-155215522D02*
X152383066Y-157042590D01*
X146008000Y-111500801D02*
X145399375Y-112109426D01*
X146008000Y-110744000D02*
X146008000Y-111500801D01*
X145399375Y-112109426D02*
X145099376Y-112409425D01*
X149936950Y-113362966D02*
X151488653Y-113362966D01*
X149823984Y-113250000D02*
X149936950Y-113362966D01*
X151488653Y-113362966D02*
X151695292Y-113569605D01*
X149254000Y-113250000D02*
X149823984Y-113250000D01*
X151695292Y-113569605D02*
X152119556Y-113569605D01*
X137450000Y-122750000D02*
X142297745Y-122750000D01*
X142297745Y-122750000D02*
X148039214Y-117008531D01*
X149374776Y-116611400D02*
X149799040Y-116611400D01*
X148039214Y-117008531D02*
X148977645Y-117008531D01*
X148977645Y-117008531D02*
X149374776Y-116611400D01*
X150555998Y-155215522D02*
X149349520Y-156422000D01*
X149349520Y-156422000D02*
X147828000Y-156422000D01*
X149553235Y-152839403D02*
X150555998Y-153842166D01*
X150555998Y-153842166D02*
X150555998Y-155215522D01*
X161031615Y-142404216D02*
X161023313Y-142395914D01*
X161023313Y-142395914D02*
X160628626Y-142395914D01*
X160628626Y-142395914D02*
X157676454Y-145348086D01*
X157676454Y-145348086D02*
X157676454Y-145469687D01*
X158998520Y-118950740D02*
X158443021Y-118395241D01*
X161269680Y-118950740D02*
X158998520Y-118950740D01*
X154813575Y-116611400D02*
X154963752Y-116461223D01*
X149799040Y-116611400D02*
X154813575Y-116611400D01*
X149192296Y-148562696D02*
X148768032Y-148562696D01*
X150042146Y-148562696D02*
X149192296Y-148562696D01*
X151764902Y-146839940D02*
X150042146Y-148562696D01*
X154592020Y-146839940D02*
X151764902Y-146839940D01*
X149341643Y-152839403D02*
X149267123Y-152764883D01*
X149553235Y-152839403D02*
X149341643Y-152839403D01*
X148967124Y-152240376D02*
X148967124Y-152464884D01*
X149696500Y-151511000D02*
X148967124Y-152240376D01*
X149796500Y-151511000D02*
X149696500Y-151511000D01*
X149267123Y-152764883D02*
X148967124Y-152464884D01*
X149748832Y-153035000D02*
X149553235Y-152839403D01*
X151130000Y-153035000D02*
X149748832Y-153035000D01*
X147828000Y-157522000D02*
X147828000Y-158716000D01*
X147828000Y-158716000D02*
X147783000Y-158761000D01*
X135697603Y-139234835D02*
X135697603Y-139659099D01*
X135981777Y-139943273D02*
X135981777Y-142072233D01*
X135981777Y-142072233D02*
X135981777Y-142496497D01*
X135697603Y-139659099D02*
X135981777Y-139943273D01*
X148590000Y-169545000D02*
X147175001Y-168130001D01*
X145525646Y-165879999D02*
X144017708Y-164372061D01*
X144017708Y-164372061D02*
X143717709Y-164072062D01*
X146590001Y-165879999D02*
X145525646Y-165879999D01*
X147175001Y-166464999D02*
X146590001Y-165879999D01*
X147175001Y-168130001D02*
X147175001Y-166464999D01*
X145816683Y-137902954D02*
X145816683Y-138145157D01*
X145816683Y-138145157D02*
X145510440Y-138451400D01*
X145510440Y-138451400D02*
X144623600Y-138451400D01*
X135445500Y-138049000D02*
X135445500Y-138982732D01*
X135445500Y-138982732D02*
X135697603Y-139234835D01*
X132495500Y-138049000D02*
X133070500Y-138049000D01*
X133070500Y-138049000D02*
X135445500Y-138049000D01*
X131318000Y-138049000D02*
X132495500Y-138049000D01*
X140589000Y-134152000D02*
X140589000Y-134952000D01*
X140589000Y-134952000D02*
X141315002Y-135678002D01*
X142892677Y-135678002D02*
X143666076Y-136451401D01*
X143666076Y-136451401D02*
X144623600Y-136451401D01*
X141315002Y-135678002D02*
X142892677Y-135678002D01*
X140589000Y-134152000D02*
X139486000Y-134152000D01*
X139486000Y-134152000D02*
X138938000Y-133604000D01*
X140589000Y-136652000D02*
X139128500Y-136652000D01*
X139128500Y-136652000D02*
X138938000Y-136842500D01*
X142303500Y-136906000D02*
X140843000Y-136906000D01*
X140843000Y-136906000D02*
X140589000Y-136652000D01*
X140398500Y-138584500D02*
X138711500Y-138584500D01*
X138711500Y-138584500D02*
X138176000Y-138049000D01*
X140398500Y-138584500D02*
X141423680Y-137559320D01*
X141423680Y-137559320D02*
X143550534Y-137559320D01*
X143550534Y-137559320D02*
X143658455Y-137451399D01*
X143658455Y-137451399D02*
X144623600Y-137451399D01*
X138493500Y-143192500D02*
X138176000Y-143192500D01*
X142298000Y-138366500D02*
X142298000Y-138916500D01*
X142298000Y-138916500D02*
X141923501Y-139290999D01*
X141923501Y-139290999D02*
X141923501Y-139837495D01*
X141923501Y-139837495D02*
X141817903Y-139943093D01*
X141817903Y-139943093D02*
X140483042Y-139943093D01*
X140483042Y-139943093D02*
X138948500Y-141477635D01*
X138948500Y-141484500D02*
X140148500Y-142684500D01*
X138948500Y-141477635D02*
X138948500Y-141484500D01*
X140148500Y-142684500D02*
X140398500Y-142684500D01*
X138493500Y-143192500D02*
X139890500Y-143192500D01*
X139890500Y-143192500D02*
X140398500Y-142684500D01*
X145648010Y-148036001D02*
X145948009Y-148336000D01*
X144763547Y-147151538D02*
X145648010Y-148036001D01*
X144501436Y-147151538D02*
X144763547Y-147151538D01*
X142748000Y-140758000D02*
X142748000Y-145398102D01*
X142748000Y-145398102D02*
X144501436Y-147151538D01*
X146316574Y-116588602D02*
X147121398Y-116588602D01*
X147121398Y-116588602D02*
X147378000Y-116332000D01*
X148656000Y-119350000D02*
X148471442Y-119534558D01*
X148656000Y-118650000D02*
X148656000Y-119350000D01*
X148471442Y-119534558D02*
X148313290Y-119534558D01*
X148272668Y-152336668D02*
X148272668Y-152830088D01*
X146177000Y-150241000D02*
X148272668Y-152336668D01*
X149066949Y-153624369D02*
X149366948Y-153924368D01*
X148272668Y-152830088D02*
X149066949Y-153624369D01*
X145788712Y-154767087D02*
X148948493Y-154767087D01*
X142670211Y-157885588D02*
X145788712Y-154767087D01*
X148948493Y-154767087D02*
X149366948Y-154348632D01*
X149366948Y-154348632D02*
X149366948Y-153924368D01*
X142670211Y-157885588D02*
X142370212Y-158185587D01*
X144854000Y-162560000D02*
X145346000Y-162560000D01*
X142370212Y-158185587D02*
X142370212Y-160841075D01*
X142370212Y-160841075D02*
X143541553Y-162012416D01*
X143541553Y-162012416D02*
X144306416Y-162012416D01*
X144306416Y-162012416D02*
X144854000Y-162560000D01*
X154340609Y-110712735D02*
X152905187Y-110712735D01*
X152905187Y-110712735D02*
X152209813Y-110017361D01*
X152209813Y-110017361D02*
X151909814Y-109717362D01*
X154639609Y-111570917D02*
X154639609Y-111011735D01*
X154639609Y-111011735D02*
X154340609Y-110712735D01*
X153556046Y-112654480D02*
X154639609Y-111570917D01*
X154918981Y-170669001D02*
X160587101Y-165000881D01*
X160587101Y-165000881D02*
X160587101Y-156777101D01*
X152254001Y-170669001D02*
X154918981Y-170669001D01*
X159049999Y-155239999D02*
X158750000Y-154940000D01*
X160587101Y-156777101D02*
X159049999Y-155239999D01*
X151130000Y-169545000D02*
X152254001Y-170669001D01*
X156845000Y-153670000D02*
X155575000Y-154940000D01*
X155575000Y-154940000D02*
X151130000Y-154940000D01*
X162496500Y-148082000D02*
X162496500Y-151193500D01*
X162496500Y-151193500D02*
X158750000Y-154940000D01*
X162496500Y-148082000D02*
X162496500Y-148282000D01*
X167754500Y-153540000D02*
X168055000Y-153540000D01*
X162496500Y-148282000D02*
X167754500Y-153540000D01*
X168055000Y-153540000D02*
X169055000Y-153540000D01*
X163830000Y-148082000D02*
X162496500Y-148082000D01*
X156210000Y-120015000D02*
X156210000Y-120766000D01*
X156210000Y-120766000D02*
X155956000Y-121020000D01*
X154622500Y-134810500D02*
X154622500Y-133032500D01*
X154622500Y-133032500D02*
X154305000Y-132715000D01*
X141605000Y-124460000D02*
X137483000Y-124460000D01*
X146090000Y-133985000D02*
X146090000Y-133283500D01*
X146090000Y-133283500D02*
X145267500Y-132461000D01*
X145267500Y-132461000D02*
X144275662Y-132461000D01*
X144275662Y-132461000D02*
X143189732Y-131375070D01*
X141605000Y-124460000D02*
X142875000Y-125730000D01*
X141886577Y-140932925D02*
X142573075Y-140932925D01*
X142573075Y-140932925D02*
X142748000Y-140758000D01*
X161775998Y-145558002D02*
X161885998Y-145558002D01*
X161885998Y-145558002D02*
X162579002Y-144864998D01*
X162579002Y-144864998D02*
X163812362Y-144864998D01*
X163812362Y-144864998D02*
X165354000Y-146406636D01*
X165354000Y-146406636D02*
X165354000Y-147183000D01*
X165354000Y-147183000D02*
X164455000Y-148082000D01*
X164455000Y-148082000D02*
X163830000Y-148082000D01*
X148656000Y-118650000D02*
X150651161Y-118650000D01*
X150651161Y-118650000D02*
X150905333Y-118904172D01*
X154599512Y-120353215D02*
X154299513Y-120053216D01*
X154686000Y-120439703D02*
X154599512Y-120353215D01*
X154686000Y-121020000D02*
X154686000Y-120439703D01*
X153628173Y-121020000D02*
X154136000Y-121020000D01*
X154136000Y-121020000D02*
X154686000Y-121020000D01*
X152990063Y-122210114D02*
X152990063Y-121658110D01*
X155280716Y-123532999D02*
X155280716Y-123332999D01*
X155280716Y-123332999D02*
X154456830Y-122509113D01*
X153289063Y-122509114D02*
X152990063Y-122210114D01*
X154456830Y-122509113D02*
X153289063Y-122509114D01*
X152990063Y-121658110D02*
X153628173Y-121020000D01*
X153056400Y-131420589D02*
X153056400Y-135451400D01*
X142998521Y-127621674D02*
X143228731Y-127391464D01*
X143228731Y-127391464D02*
X143778478Y-127391464D01*
X143778478Y-127391464D02*
X144387928Y-126782014D01*
X144387928Y-126782014D02*
X146127557Y-126782014D01*
X146127557Y-126782014D02*
X147399387Y-128053844D01*
X147399387Y-128053844D02*
X149689655Y-128053844D01*
X149689655Y-128053844D02*
X153056400Y-131420589D01*
X156004051Y-106266732D02*
X156004051Y-105842468D01*
X156004051Y-106562174D02*
X156004051Y-106266732D01*
X154088680Y-108477545D02*
X156004051Y-106562174D01*
X146214320Y-135528821D02*
X146514319Y-135828820D01*
X146090000Y-133985000D02*
X146090000Y-135404501D01*
X146090000Y-135404501D02*
X146214320Y-135528821D01*
X152357000Y-144454500D02*
X149231780Y-147579720D01*
X147649675Y-148320096D02*
X147633771Y-148336000D01*
X148182997Y-147579720D02*
X147649675Y-148113042D01*
X147633771Y-148336000D02*
X146372273Y-148336000D01*
X147649675Y-148113042D02*
X147649675Y-148320096D01*
X149231780Y-147579720D02*
X148182997Y-147579720D01*
X146372273Y-148336000D02*
X145948009Y-148336000D01*
X152357000Y-143954500D02*
X152357000Y-144454500D01*
X144399000Y-134747000D02*
X142494000Y-134747000D01*
X142494000Y-134747000D02*
X142240000Y-135001000D01*
X144399000Y-134747000D02*
X144399000Y-135226800D01*
X144399000Y-135226800D02*
X144623600Y-135451400D01*
X150114000Y-152273000D02*
X150952000Y-151435000D01*
X150952000Y-151435000D02*
X151130000Y-151435000D01*
X155280716Y-124182999D02*
X155280716Y-123532999D01*
X154686000Y-121020000D02*
X155956000Y-121020000D01*
X154622500Y-134810500D02*
X153697300Y-134810500D01*
X153697300Y-134810500D02*
X153056400Y-135451400D01*
X152357000Y-143954500D02*
X152357000Y-143184800D01*
X152357000Y-143184800D02*
X151590000Y-142417800D01*
X143773412Y-139451400D02*
X144623600Y-139451400D01*
X143561999Y-139662813D02*
X143773412Y-139451400D01*
X142748000Y-140708000D02*
X143561999Y-139894001D01*
X143561999Y-139894001D02*
X143561999Y-139662813D01*
X142748000Y-140758000D02*
X142748000Y-140708000D01*
X127000000Y-151130000D02*
X127999489Y-152129489D01*
X127999489Y-152129489D02*
X134457507Y-152129489D01*
X134457507Y-152129489D02*
X135541995Y-151045001D01*
X135541995Y-151045001D02*
X136482999Y-151045001D01*
X136482999Y-151045001D02*
X136715500Y-150812500D01*
X138098000Y-150491000D02*
X137037000Y-150491000D01*
X137037000Y-150491000D02*
X136715500Y-150812500D01*
X138098000Y-149991000D02*
X138098000Y-150491000D01*
X132852230Y-140700739D02*
X132852230Y-142551048D01*
X135744274Y-144328582D02*
X136168538Y-144328582D01*
X134629764Y-144328582D02*
X135744274Y-144328582D01*
X132852230Y-142551048D02*
X134629764Y-144328582D01*
X146017378Y-165435001D02*
X144734857Y-164152480D01*
X147020001Y-165435001D02*
X146017378Y-165435001D01*
X147320000Y-165735000D02*
X147020001Y-165435001D01*
X144734857Y-164152480D02*
X144434858Y-163852481D01*
X141605000Y-147320000D02*
X141605000Y-146333087D01*
X141605000Y-146333087D02*
X141624992Y-146313095D01*
X138498759Y-127422759D02*
X138498759Y-127720354D01*
X137477500Y-126401500D02*
X138498759Y-127422759D01*
X137477500Y-126301500D02*
X137477500Y-126401500D01*
X145415000Y-172085000D02*
X146315000Y-172985000D01*
X146315000Y-172985000D02*
X146840000Y-172985000D01*
X146840000Y-172985000D02*
X147290000Y-173435000D01*
X147290000Y-173435000D02*
X147290000Y-173910000D01*
X140323000Y-148766000D02*
X140323000Y-148602000D01*
X140323000Y-148602000D02*
X141605000Y-147320000D01*
X149975421Y-141119889D02*
X150314301Y-140781009D01*
X150314301Y-140781009D02*
X150378124Y-140781009D01*
X151694788Y-136876009D02*
X151694788Y-135076388D01*
X151644788Y-136926009D02*
X151694788Y-136876009D01*
X151644788Y-139514345D02*
X151644788Y-136926009D01*
X150378124Y-140781009D02*
X151644788Y-139514345D01*
X151590000Y-134971600D02*
X151590000Y-133985000D01*
X151694788Y-135076388D02*
X151590000Y-134971600D01*
X134365257Y-142395843D02*
X134485235Y-142515821D01*
X134365257Y-140769513D02*
X134365257Y-142395843D01*
X150589999Y-133985000D02*
X150589999Y-131261463D01*
X150589999Y-131261463D02*
X148791498Y-129462962D01*
X148791498Y-129462962D02*
X140815549Y-129462962D01*
X140815549Y-129462962D02*
X139469379Y-130809132D01*
X139469379Y-130809132D02*
X139169380Y-131109131D01*
X153056400Y-136451401D02*
X154119113Y-136451401D01*
X154119113Y-136451401D02*
X154508894Y-136841182D01*
X156931632Y-139868920D02*
X156880517Y-139920035D01*
X156880517Y-139920035D02*
X156880517Y-144483894D01*
X156880517Y-144483894D02*
X156296343Y-145068068D01*
X156296343Y-145068068D02*
X156296343Y-146221811D01*
X148590000Y-167005000D02*
X151982079Y-163612921D01*
X151982079Y-163612921D02*
X153278432Y-163612921D01*
X153278432Y-163612921D02*
X154735631Y-162155722D01*
X154735631Y-162155722D02*
X155035630Y-161855723D01*
X135153031Y-142457155D02*
X135233918Y-142538042D01*
X135153031Y-140513174D02*
X135153031Y-142457155D01*
X150090000Y-131335096D02*
X150090000Y-132998400D01*
X150090000Y-132998400D02*
X150090000Y-133985000D01*
X141450890Y-129906546D02*
X148661450Y-129906546D01*
X139752439Y-131604997D02*
X141450890Y-129906546D01*
X148661450Y-129906546D02*
X150090000Y-131335096D01*
X146050000Y-169545000D02*
X144812836Y-168307836D01*
X144812836Y-168307836D02*
X144812836Y-165987748D01*
X144812836Y-165987748D02*
X142637782Y-163812694D01*
X142637782Y-163812694D02*
X142637782Y-163603956D01*
X142637782Y-163603956D02*
X142637782Y-163179692D01*
X133602491Y-142487885D02*
X133745045Y-142630439D01*
X133602491Y-140656974D02*
X133602491Y-142487885D01*
X151090001Y-133985000D02*
X151090001Y-131194914D01*
X151090001Y-131194914D02*
X148866101Y-128971014D01*
X148866101Y-128971014D02*
X140271102Y-128971014D01*
X139877438Y-129364678D02*
X139577439Y-129664677D01*
X140271102Y-128971014D02*
X139877438Y-129364678D01*
X153056400Y-140951400D02*
X155769400Y-140951400D01*
X155769400Y-140951400D02*
X155788000Y-140970000D01*
X159374000Y-140970000D02*
X157988000Y-140970000D01*
X125562000Y-101854000D02*
X125562000Y-102702000D01*
X125562000Y-102702000D02*
X126238000Y-103378000D01*
X125562000Y-98806000D02*
X125562000Y-99792000D01*
X125562000Y-99792000D02*
X126100000Y-100330000D01*
X171196000Y-100330000D02*
X171196000Y-99398000D01*
X171196000Y-99398000D02*
X171788000Y-98806000D01*
X171788000Y-101854000D02*
X171788000Y-102786000D01*
X171788000Y-102786000D02*
X171196000Y-103378000D01*
X135232500Y-124460000D02*
X136583000Y-124460000D01*
X135232500Y-126301500D02*
X136577500Y-126301500D01*
X135232500Y-128143000D02*
X136577500Y-128143000D01*
X139827000Y-155956000D02*
X141340000Y-155956000D01*
X141340000Y-155956000D02*
X141351000Y-155967000D01*
X139823000Y-151716000D02*
X139823000Y-153752000D01*
X139823000Y-153752000D02*
X139827000Y-153756000D01*
X144884500Y-152273000D02*
X146356500Y-152273000D01*
X146356500Y-152273000D02*
X146367500Y-152284000D01*
X142684500Y-152273000D02*
X142330000Y-152273000D01*
X142330000Y-152273000D02*
X141048000Y-150991000D01*
X153056400Y-140451401D02*
X154706162Y-140451401D01*
X154468445Y-110230725D02*
X153781698Y-110230725D01*
X159506011Y-122461489D02*
X155955013Y-118910491D01*
X159506011Y-136410979D02*
X159506011Y-122461489D01*
X155955013Y-118910491D02*
X155955013Y-111717293D01*
X152467552Y-108916579D02*
X148921579Y-108916579D01*
X148921579Y-108916579D02*
X138929999Y-98924999D01*
X155955013Y-111717293D02*
X154468445Y-110230725D01*
X154706162Y-140451401D02*
X155106088Y-140051475D01*
X155865515Y-140051475D02*
X159506011Y-136410979D01*
X138929999Y-98924999D02*
X138430000Y-98425000D01*
X155106088Y-140051475D02*
X155865515Y-140051475D01*
X153781698Y-110230725D02*
X152467552Y-108916579D01*
X160134300Y-132575300D02*
X160134300Y-122288300D01*
X160134300Y-122288300D02*
X157868011Y-120022011D01*
X157868011Y-120022011D02*
X157868011Y-112540611D01*
X157868011Y-112540611D02*
X156969466Y-111642066D01*
X156969466Y-111642066D02*
X156969466Y-100912640D01*
X156969466Y-100912640D02*
X158750000Y-99132106D01*
X158750000Y-99132106D02*
X158750000Y-98425000D01*
X153056400Y-139951399D02*
X154592782Y-139951399D01*
X154592782Y-139951399D02*
X154908930Y-139635251D01*
X154908930Y-139635251D02*
X155690262Y-139635251D01*
X158830901Y-134345764D02*
X158830901Y-133921500D01*
X155690262Y-139635251D02*
X158830901Y-136494612D01*
X158830901Y-136494612D02*
X158830901Y-134345764D01*
X147940000Y-173910000D02*
X147940000Y-172440000D01*
X147940000Y-172440000D02*
X147585000Y-172085000D01*
X148590000Y-173910000D02*
X148590000Y-172223000D01*
X148590000Y-172223000D02*
X148452000Y-172085000D01*
X139501573Y-118186297D02*
X140283073Y-117404797D01*
X140283073Y-117404797D02*
X146005746Y-117404797D01*
X146005746Y-117404797D02*
X146430010Y-117404797D01*
X149606000Y-120650000D02*
X149184267Y-120650000D01*
X147082609Y-121477585D02*
X146910430Y-121305406D01*
X148356682Y-121477585D02*
X147082609Y-121477585D01*
X149184267Y-120650000D02*
X148356682Y-121477585D01*
X146910430Y-121305406D02*
X146910430Y-119409888D01*
X146910430Y-119409888D02*
X147054247Y-119266071D01*
X147054247Y-119266071D02*
X147354246Y-118966072D01*
X152590500Y-105870500D02*
X149775000Y-103055000D01*
X153787666Y-109672407D02*
X152590500Y-108475241D01*
X156355024Y-118255024D02*
X156355024Y-111529824D01*
X149775000Y-103055000D02*
X149225000Y-103055000D01*
X156845000Y-118745000D02*
X156355024Y-118255024D01*
X152590500Y-108475241D02*
X152590500Y-105870500D01*
X154497607Y-109672407D02*
X153787666Y-109672407D01*
X156355024Y-111529824D02*
X154497607Y-109672407D01*
X162321425Y-123621654D02*
X158720962Y-120021191D01*
X162321425Y-125729106D02*
X162321425Y-123621654D01*
X151852001Y-120650000D02*
X152956013Y-119545988D01*
X152956013Y-119545988D02*
X152956013Y-119121724D01*
X149606000Y-120650000D02*
X151852001Y-120650000D01*
X147770000Y-102870000D02*
X147770000Y-102320000D01*
X147770000Y-102320000D02*
X148590000Y-101500000D01*
X148590000Y-101500000D02*
X148590000Y-98497106D01*
X148590000Y-98497106D02*
X148590000Y-97790000D01*
X149225000Y-103055000D02*
X147955000Y-103055000D01*
X147955000Y-103055000D02*
X147770000Y-102870000D01*
X145832675Y-139728924D02*
X145610200Y-139951399D01*
X145832675Y-139384894D02*
X145832675Y-139728924D01*
X145610200Y-139951399D02*
X144623600Y-139951399D01*
X147039335Y-138516738D02*
X146972436Y-138583637D01*
X147707991Y-137202223D02*
X147039335Y-137870879D01*
X146972436Y-138583637D02*
X146972436Y-138634194D01*
X145699044Y-140451401D02*
X145610200Y-140451401D01*
X146413723Y-139192908D02*
X146413723Y-139736722D01*
X145610200Y-140451401D02*
X144623600Y-140451401D01*
X147039335Y-137870879D02*
X147039335Y-138516738D01*
X146972436Y-138634194D02*
X146413723Y-139192908D01*
X146413723Y-139736722D02*
X145699044Y-140451401D01*
X128778000Y-141732000D02*
X128778000Y-137668000D01*
X128778000Y-137668000D02*
X127000000Y-135890000D01*
X144623600Y-140951400D02*
X144623600Y-141126400D01*
X144623600Y-141126400D02*
X144018000Y-141732000D01*
X146839383Y-139879556D02*
X146090000Y-140628939D01*
X146090000Y-140628939D02*
X146090000Y-141431200D01*
X146090000Y-141431200D02*
X146090000Y-142417800D01*
X147439346Y-138682427D02*
X147372447Y-138749326D01*
X147372447Y-138749326D02*
X147372447Y-138799883D01*
X147372447Y-138799883D02*
X146839383Y-139332947D01*
X146839383Y-139332947D02*
X146839383Y-139879556D01*
X148305829Y-137436037D02*
X147439346Y-138302520D01*
X148305829Y-136082686D02*
X148305829Y-137436037D01*
X148215506Y-135992363D02*
X148305829Y-136082686D01*
X147439346Y-138302520D02*
X147439346Y-138682427D01*
X148215506Y-135568099D02*
X148215506Y-135992363D01*
X149225000Y-104681117D02*
X149288986Y-104745103D01*
X149225000Y-103955000D02*
X149225000Y-104681117D01*
X155130000Y-153035000D02*
X156146500Y-153035000D01*
X156146500Y-153035000D02*
X156654500Y-152527000D01*
X161036000Y-146058001D02*
X160525999Y-146058001D01*
X160525999Y-146058001D02*
X160418681Y-146165319D01*
X160418681Y-146165319D02*
X159075600Y-146165319D01*
X159075600Y-146165319D02*
X158936747Y-146304172D01*
X158936747Y-146304172D02*
X158936747Y-148018094D01*
X158936747Y-148018094D02*
X159700653Y-148782000D01*
X159700653Y-148782000D02*
X160496500Y-148782000D01*
X160496500Y-148782000D02*
X160996500Y-148282000D01*
X160996500Y-148282000D02*
X160996500Y-148082000D01*
X133413500Y-156916501D02*
X132417501Y-156916501D01*
X132417501Y-156916501D02*
X132016500Y-156515500D01*
X137451100Y-107353600D02*
X143435179Y-107353600D01*
X147096223Y-109689021D02*
X148029000Y-110621798D01*
X143435179Y-107353600D02*
X145770600Y-109689021D01*
X145770600Y-109689021D02*
X147096223Y-109689021D01*
X148029000Y-110621798D02*
X148029000Y-111400000D01*
X148029000Y-111400000D02*
X148029000Y-112025000D01*
X142695367Y-112503398D02*
X143119631Y-112503398D01*
X140301302Y-112503398D02*
X142695367Y-112503398D01*
X137451100Y-115353600D02*
X140301302Y-112503398D01*
X150174256Y-112750000D02*
X150251062Y-112673194D01*
X149254000Y-112750000D02*
X150174256Y-112750000D01*
X148529000Y-114975000D02*
X148929000Y-114975000D01*
X148929000Y-114975000D02*
X149483476Y-115529476D01*
X149483476Y-115529476D02*
X153611671Y-115529476D01*
X153611671Y-115529476D02*
X155359896Y-113781251D01*
X155359896Y-113781251D02*
X155366248Y-113781251D01*
X155333237Y-111946519D02*
X153130451Y-114149305D01*
X153130451Y-114149305D02*
X150174439Y-114149305D01*
X150174439Y-114149305D02*
X149775134Y-113750000D01*
X149775134Y-113750000D02*
X149254000Y-113750000D01*
X148879607Y-157772739D02*
X148283000Y-158369346D01*
X148283000Y-158369346D02*
X148283000Y-158761000D01*
X153070839Y-164531319D02*
X153352619Y-164531319D01*
X153352619Y-164531319D02*
X156216612Y-167395312D01*
X156216612Y-167395312D02*
X156516611Y-167695311D01*
X152770840Y-164231320D02*
X153070839Y-164531319D01*
X151702432Y-159486000D02*
X151706727Y-159481705D01*
X149508000Y-159486000D02*
X151702432Y-159486000D01*
X153400382Y-159802648D02*
X153100383Y-159502649D01*
X155847717Y-160755044D02*
X154352778Y-160755044D01*
X154352778Y-160755044D02*
X153400382Y-159802648D01*
X137451100Y-164503600D02*
X139517777Y-162436923D01*
X148783000Y-163479825D02*
X148783000Y-162336000D01*
X139517777Y-162436923D02*
X143801042Y-162436923D01*
X143801042Y-162436923D02*
X144713754Y-163349635D01*
X147026728Y-163830000D02*
X148432825Y-163830000D01*
X144713754Y-163349635D02*
X146546363Y-163349635D01*
X146546363Y-163349635D02*
X147026728Y-163830000D01*
X148432825Y-163830000D02*
X148783000Y-163479825D01*
X148783000Y-162336000D02*
X148783000Y-161711000D01*
X151265508Y-160486000D02*
X151522446Y-160742938D01*
X149508000Y-160486000D02*
X151265508Y-160486000D01*
X151522446Y-160742938D02*
X152566846Y-160742938D01*
X152566846Y-160742938D02*
X152583952Y-160725832D01*
X145948969Y-164371719D02*
X146248968Y-164671718D01*
X146248968Y-164671718D02*
X150314645Y-164671718D01*
X150314645Y-164671718D02*
X151763872Y-163222491D01*
X151763872Y-163222491D02*
X152063871Y-162922492D01*
X142308580Y-164538660D02*
X137451100Y-169396140D01*
X137451100Y-169396140D02*
X137451100Y-172503600D01*
X146035009Y-121649864D02*
X146035009Y-121225600D01*
X148427571Y-126898964D02*
X147496845Y-126898964D01*
X146035009Y-125437128D02*
X146035009Y-121649864D01*
X149934400Y-127515006D02*
X149043613Y-127515006D01*
X154263242Y-127488586D02*
X149960820Y-127488586D01*
X157136239Y-136958265D02*
X157136239Y-130361583D01*
X155445046Y-138649458D02*
X157136239Y-136958265D01*
X154405080Y-138649458D02*
X155445046Y-138649458D01*
X149960820Y-127488586D02*
X149934400Y-127515006D01*
X147496845Y-126898964D02*
X146035009Y-125437128D01*
X149043613Y-127515006D02*
X148427571Y-126898964D01*
X153056400Y-138951401D02*
X154103137Y-138951401D01*
X154103137Y-138951401D02*
X154405080Y-138649458D01*
X157136239Y-130361583D02*
X154263242Y-127488586D01*
X147706000Y-119925252D02*
X147484432Y-119703684D01*
X147706000Y-120650000D02*
X147706000Y-119925252D01*
X149796500Y-149479000D02*
X149796500Y-150611000D01*
X151130000Y-150635000D02*
X149820500Y-150635000D01*
X149820500Y-150635000D02*
X149796500Y-150611000D01*
X150981680Y-141054408D02*
X152044799Y-139991289D01*
X150981680Y-141110351D02*
X150981680Y-141054408D01*
X152044799Y-137091698D02*
X152185097Y-136951400D01*
X152044799Y-139991289D02*
X152044799Y-137091698D01*
X152185097Y-136951400D02*
X153056400Y-136951400D01*
X150215600Y-172085000D02*
X149352000Y-172085000D01*
X160910873Y-140067865D02*
X160910873Y-141402060D01*
X156980798Y-148038794D02*
X158175998Y-149233994D01*
X156710026Y-168313670D02*
X150618744Y-168313670D01*
X146685000Y-171985000D02*
X146685000Y-172085000D01*
X150618744Y-168313670D02*
X149800606Y-169131808D01*
X158175998Y-149233994D02*
X158175998Y-166847698D01*
X149800606Y-170284029D02*
X149124958Y-170959677D01*
X147710323Y-170959677D02*
X146685000Y-171985000D01*
X149800606Y-169131808D02*
X149800606Y-170284029D01*
X160910873Y-141402060D02*
X156980798Y-145332135D01*
X149124958Y-170959677D02*
X147710323Y-170959677D01*
X158175998Y-166847698D02*
X156710026Y-168313670D01*
X156980798Y-145332135D02*
X156980798Y-148038794D01*
X153056400Y-137451399D02*
X153091616Y-137416183D01*
X153091616Y-137416183D02*
X154826245Y-137416183D01*
X154826245Y-137416183D02*
X155313538Y-136928890D01*
X155313538Y-136928890D02*
X155313538Y-136674514D01*
X155313538Y-136674514D02*
X155613537Y-136374515D01*
D53*
X147528001Y-122351594D02*
X147828000Y-122051595D01*
X147320000Y-122559595D02*
X147528001Y-122351594D01*
X147320000Y-123206000D02*
X147320000Y-122559595D01*
X149082500Y-122731000D02*
X149606137Y-122207363D01*
X149606137Y-122207363D02*
X149606137Y-122174137D01*
X149082500Y-122943500D02*
X149082500Y-122731000D01*
X149343790Y-122682210D02*
X149082500Y-122943500D01*
X150466610Y-122682210D02*
X149343790Y-122682210D01*
X151384000Y-123599600D02*
X150466610Y-122682210D01*
X151384000Y-123952000D02*
X151384000Y-123599600D01*
X149438302Y-121597798D02*
X151109325Y-121597798D01*
X148582500Y-122453600D02*
X149438302Y-121597798D01*
X148582500Y-122943500D02*
X148582500Y-122453600D01*
X154568210Y-125056683D02*
X154568210Y-125062654D01*
X154568210Y-125062654D02*
X154568210Y-125486918D01*
X151109325Y-121597798D02*
X154568210Y-125056683D01*
X156080716Y-124832999D02*
X156080716Y-125854716D01*
X156080716Y-125854716D02*
X156464000Y-126238000D01*
X148516625Y-123867525D02*
X148522127Y-123867525D01*
X148082500Y-123433400D02*
X148516625Y-123867525D01*
X148082500Y-122943500D02*
X148082500Y-123433400D01*
X155680716Y-125177975D02*
X155194000Y-125664691D01*
X155194000Y-125664691D02*
X155194000Y-125885600D01*
X155194000Y-125885600D02*
X155194000Y-126238000D01*
X155680716Y-124832999D02*
X155680716Y-125177975D01*
X155194000Y-126238000D02*
X154298457Y-126238000D01*
X153142491Y-126940005D02*
X150082663Y-126940005D01*
X150082663Y-126940005D02*
X149658399Y-126940005D01*
X154298457Y-126238000D02*
X154163005Y-126373452D01*
X154163005Y-126373452D02*
X153709044Y-126373452D01*
X153709044Y-126373452D02*
X153142491Y-126940005D01*
D52*
X147772458Y-138915015D02*
X147839357Y-138848116D01*
X147839357Y-138848116D02*
X147839357Y-138718363D01*
X147839357Y-138718363D02*
X148197090Y-138360630D01*
X148197090Y-138360630D02*
X148497089Y-138060631D01*
X146589999Y-142417800D02*
X146589999Y-140694640D01*
X146589999Y-140694640D02*
X147239394Y-140045245D01*
X147239394Y-140045245D02*
X147239394Y-139498636D01*
X147239394Y-139498636D02*
X147772458Y-138965572D01*
X147772458Y-138965572D02*
X147772458Y-138915015D01*
X157988000Y-124155904D02*
X158120077Y-124287981D01*
X157988000Y-123444000D02*
X157988000Y-124155904D01*
D53*
X157988000Y-123444000D02*
X156969715Y-123444000D01*
X156969715Y-123444000D02*
X156880716Y-123532999D01*
D52*
X156972000Y-122187999D02*
X156972000Y-121338170D01*
X156972000Y-121338170D02*
X156963795Y-121329965D01*
X148963317Y-138452576D02*
X149263316Y-138152577D01*
X148634189Y-138781704D02*
X148963317Y-138452576D01*
X148471469Y-138781704D02*
X148634189Y-138781704D01*
X148172469Y-139154892D02*
X148172469Y-139080704D01*
X148172469Y-139080704D02*
X148471469Y-138781704D01*
X147639405Y-139687956D02*
X148172469Y-139154892D01*
X147639405Y-140210934D02*
X147639405Y-139687956D01*
X147090001Y-140760338D02*
X147639405Y-140210934D01*
X147090001Y-142417800D02*
X147090001Y-140760338D01*
D53*
X156972000Y-122287999D02*
X156972000Y-122187999D01*
X156619600Y-122640399D02*
X156972000Y-122287999D01*
X156480716Y-122935978D02*
X156619600Y-122797094D01*
X156480716Y-123532999D02*
X156480716Y-122935978D01*
X156619600Y-122797094D02*
X156619600Y-122640399D01*
D52*
X155164018Y-119782288D02*
X155464017Y-120082287D01*
X154698725Y-119316995D02*
X155164018Y-119782288D01*
X153987683Y-119316995D02*
X154698725Y-119316995D01*
X152412643Y-120892035D02*
X153987683Y-119316995D01*
X152412643Y-121593760D02*
X152412643Y-120892035D01*
X153056400Y-137951400D02*
X153939945Y-137951400D01*
X153139341Y-128596085D02*
X153017168Y-128473912D01*
X153139341Y-128718615D02*
X153139341Y-128596085D01*
X154075152Y-137816194D02*
X155146910Y-137816194D01*
X153939945Y-137951400D02*
X154075152Y-137816194D01*
X155146910Y-137816194D02*
X156336217Y-136626887D01*
X156336217Y-136626887D02*
X156336217Y-131915491D01*
X156336217Y-131915491D02*
X153139341Y-128718615D01*
X153017168Y-128473912D02*
X152717169Y-128173913D01*
D53*
X155956000Y-122521037D02*
X156046858Y-122611895D01*
X156080716Y-122645753D02*
X156046858Y-122611895D01*
X156080716Y-123532999D02*
X156080716Y-122645753D01*
X155956000Y-121920000D02*
X155956000Y-122521037D01*
D52*
X153788166Y-121920000D02*
X153774054Y-121934112D01*
X154686000Y-121920000D02*
X153788166Y-121920000D01*
D53*
X154786000Y-121920000D02*
X154686000Y-121920000D01*
X155138400Y-122458313D02*
X155138400Y-122272400D01*
X155138400Y-122272400D02*
X154786000Y-121920000D01*
X155680716Y-123532999D02*
X155680716Y-123000629D01*
X155680716Y-123000629D02*
X155138400Y-122458313D01*
D52*
X154074053Y-128551536D02*
X153774054Y-128251537D01*
X154011662Y-138451400D02*
X154246857Y-138216205D01*
X154246857Y-138216205D02*
X155312599Y-138216205D01*
X155312599Y-138216205D02*
X156736228Y-136792576D01*
X156736228Y-136792576D02*
X156736228Y-131213711D01*
X156736228Y-131213711D02*
X154074053Y-128551536D01*
X153056400Y-138451400D02*
X154011662Y-138451400D01*
X148278000Y-116332000D02*
X148029000Y-116083000D01*
X148029000Y-116083000D02*
X148029000Y-114975000D01*
X150484000Y-114808000D02*
X149812000Y-114808000D01*
X149812000Y-114808000D02*
X149254000Y-114250000D01*
X151130000Y-112268000D02*
X150695390Y-112268000D01*
X150695390Y-112268000D02*
X150452390Y-112025000D01*
X150452390Y-112025000D02*
X148929000Y-112025000D01*
X148929000Y-112025000D02*
X148529000Y-112025000D01*
X146246000Y-162560000D02*
X146470478Y-162560000D01*
X146470478Y-162560000D02*
X147341468Y-163430990D01*
X148283000Y-162336000D02*
X148283000Y-161711000D01*
X147341468Y-163430990D02*
X147806532Y-163430990D01*
X148283000Y-162954522D02*
X148283000Y-162336000D01*
X147806532Y-163430990D02*
X148283000Y-162954522D01*
X149939000Y-161417000D02*
X149508000Y-160986000D01*
X150738000Y-161417000D02*
X149939000Y-161417000D01*
X150876000Y-158819000D02*
X148841000Y-158819000D01*
X148841000Y-158819000D02*
X148783000Y-158761000D01*
X150735659Y-158819000D02*
X150876000Y-158819000D01*
X148214407Y-140201632D02*
X148214407Y-139950850D01*
X147590000Y-140826039D02*
X148214407Y-140201632D01*
X147590000Y-142417800D02*
X147590000Y-140826039D01*
X132080000Y-99568000D02*
X128270000Y-103378000D01*
X128270000Y-103378000D02*
X127138000Y-103378000D01*
X148089999Y-140891740D02*
X149003573Y-139978166D01*
X148089999Y-142417800D02*
X148089999Y-140891740D01*
X149003573Y-139682313D02*
X148703574Y-139382314D01*
X149003573Y-139978166D02*
X149003573Y-139682313D01*
X134059899Y-97588101D02*
X130764901Y-97588101D01*
X130764901Y-97588101D02*
X128023002Y-100330000D01*
X128023002Y-100330000D02*
X127450000Y-100330000D01*
X127450000Y-100330000D02*
X127000000Y-100330000D01*
X162998225Y-97588101D02*
X162998225Y-129034324D01*
X162998225Y-129034324D02*
X161192348Y-130840201D01*
X161192348Y-130840201D02*
X160892349Y-131140200D01*
X154260334Y-139451400D02*
X154660657Y-139051077D01*
X153056400Y-139451400D02*
X154260334Y-139451400D01*
X157536250Y-137123954D02*
X157536250Y-133928750D01*
X157536250Y-133928750D02*
X158030901Y-133434099D01*
X158030901Y-133434099D02*
X158330900Y-133134100D01*
X155609127Y-139051077D02*
X157536250Y-137123954D01*
X154660657Y-139051077D02*
X155609127Y-139051077D01*
X169846000Y-100330000D02*
X170296000Y-100330000D01*
X165888701Y-97588101D02*
X168630600Y-100330000D01*
X168630600Y-100330000D02*
X169846000Y-100330000D01*
X162998225Y-97588101D02*
X165888701Y-97588101D01*
X142524035Y-130723537D02*
X142524035Y-131594499D01*
X142524035Y-131594499D02*
X145665769Y-134736233D01*
X145665769Y-134736233D02*
X145665769Y-135895830D01*
X145665769Y-135895830D02*
X145610200Y-135951399D01*
X145610200Y-135951399D02*
X144623600Y-135951399D01*
X151818234Y-106106028D02*
X152015490Y-106303284D01*
X148981115Y-106106028D02*
X151818234Y-106106028D01*
X167640000Y-103378000D02*
X167640000Y-102229876D01*
X167640000Y-102229876D02*
X164978124Y-99568000D01*
X170296000Y-103378000D02*
X167640000Y-103378000D01*
X146870000Y-102870000D02*
X146870000Y-103320000D01*
X146870000Y-103320000D02*
X145542000Y-104648000D01*
X143203500Y-136906000D02*
X143248900Y-136951400D01*
X143248900Y-136951400D02*
X144623600Y-136951400D01*
X143773410Y-137951400D02*
X144623600Y-137951400D01*
X143358310Y-138366500D02*
X143773410Y-137951400D01*
X143198000Y-138366500D02*
X143358310Y-138366500D01*
X163778488Y-143255445D02*
X165856011Y-145332968D01*
X165856011Y-145332968D02*
X165856011Y-147741011D01*
X165856011Y-147741011D02*
X168655000Y-150540000D01*
X168655000Y-150540000D02*
X169055000Y-150540000D01*
X149649610Y-138701324D02*
X149349611Y-139001323D01*
X149881565Y-138469369D02*
X149649610Y-138701324D01*
X149881565Y-137181534D02*
X149881565Y-138469369D01*
X148890528Y-136190497D02*
X149881565Y-137181534D01*
X148082000Y-131688000D02*
X148092892Y-131688000D01*
X148092892Y-131688000D02*
X148123303Y-131718411D01*
X148082000Y-132588000D02*
X148082000Y-133977001D01*
X148082000Y-133977001D02*
X148089999Y-133985000D01*
X138098000Y-149491000D02*
X136992500Y-149491000D01*
X136992500Y-149491000D02*
X136980500Y-149479000D01*
X139323000Y-148766000D02*
X139323000Y-147520000D01*
X139323000Y-147520000D02*
X139319000Y-147516000D01*
X142240000Y-149479000D02*
X141060000Y-149479000D01*
X141060000Y-149479000D02*
X141048000Y-149491000D01*
X138823000Y-148766000D02*
X138823000Y-148025000D01*
X138823000Y-148025000D02*
X138372000Y-147574000D01*
X139823000Y-148766000D02*
X139823000Y-148097000D01*
X139823000Y-148097000D02*
X140398500Y-147521500D01*
D53*
X151666255Y-119384137D02*
X151666255Y-119808401D01*
X147934220Y-117608798D02*
X150382768Y-117608798D01*
X150382768Y-117608798D02*
X151666255Y-118892285D01*
X151666255Y-118892285D02*
X151666255Y-119384137D01*
X147320000Y-124706000D02*
X146830100Y-124706000D01*
X146830100Y-124706000D02*
X146681788Y-124557688D01*
X146560219Y-121450468D02*
X146560219Y-118982799D01*
X146560219Y-118982799D02*
X147934220Y-117608798D01*
X146681788Y-124557688D02*
X146681788Y-121572037D01*
X146681788Y-121572037D02*
X146560219Y-121450468D01*
X156880716Y-125032999D02*
X157326665Y-125478948D01*
X156880716Y-124832999D02*
X156880716Y-125032999D01*
X157326665Y-125478948D02*
X157387844Y-125478948D01*
X157281057Y-126207951D02*
X157559814Y-126207951D01*
X156480716Y-125407610D02*
X157281057Y-126207951D01*
X156480716Y-124832999D02*
X156480716Y-125407610D01*
X153414344Y-125392824D02*
X153714343Y-125092825D01*
X153027436Y-125779732D02*
X153414344Y-125392824D01*
X150724768Y-125779732D02*
X153027436Y-125779732D01*
X149845000Y-124206000D02*
X150583333Y-124206000D01*
X150583333Y-124206000D02*
X150587379Y-124210046D01*
D52*
X147529000Y-114975000D02*
X147529000Y-115299640D01*
X147094191Y-115734449D02*
X144214824Y-115734449D01*
X144214824Y-115734449D02*
X144135960Y-115655585D01*
X147529000Y-115299640D02*
X147094191Y-115734449D01*
X144135960Y-115655585D02*
X143711696Y-115655585D01*
X144032476Y-130702291D02*
X144433499Y-131103314D01*
X145848170Y-130704564D02*
X148033805Y-130704567D01*
X149090000Y-132998400D02*
X149090000Y-133985000D01*
X148033805Y-130704567D02*
X149090000Y-131760762D01*
X144433499Y-131103314D02*
X145449417Y-131103316D01*
X145449417Y-131103316D02*
X145848170Y-130704564D01*
X149090000Y-131760762D02*
X149090000Y-132998400D01*
X144489479Y-115160448D02*
X146843552Y-115160448D01*
X146843552Y-115160448D02*
X147029000Y-114975000D01*
X149590001Y-132998400D02*
X149590001Y-133985000D01*
X145082970Y-130525995D02*
X145462452Y-130525995D01*
X149590001Y-131668931D02*
X149590001Y-132998400D01*
X148226627Y-130305557D02*
X149590001Y-131668931D01*
X145462452Y-130525995D02*
X145682894Y-130305554D01*
X145682894Y-130305554D02*
X148226627Y-130305557D01*
X137431010Y-143105052D02*
X137283664Y-143252398D01*
X137431010Y-136639321D02*
X137431010Y-143105052D01*
X140923535Y-114009472D02*
X144165833Y-114009472D01*
X140379007Y-114554000D02*
X140923535Y-114009472D01*
X146079000Y-114250000D02*
X146304000Y-114250000D01*
X145679000Y-114650000D02*
X146079000Y-114250000D01*
X144165833Y-114009472D02*
X144806361Y-114650000D01*
X144806361Y-114650000D02*
X145679000Y-114650000D01*
X149590001Y-142417800D02*
X149504701Y-142503100D01*
X149504701Y-142503100D02*
X149504701Y-143374401D01*
X149504701Y-143374401D02*
X149158305Y-143720797D01*
X149158305Y-143720797D02*
X144813422Y-143720797D01*
X144813422Y-143720797D02*
X144690930Y-143598305D01*
X144690930Y-143598305D02*
X144390931Y-143898304D01*
X145979360Y-113750000D02*
X145878270Y-113851090D01*
X144571737Y-113851090D02*
X144074749Y-113354102D01*
X144074749Y-113354102D02*
X143798773Y-113354102D01*
X145878270Y-113851090D02*
X144571737Y-113851090D01*
X146304000Y-113750000D02*
X145979360Y-113750000D01*
X149090000Y-142417800D02*
X149090000Y-141070288D01*
X149090000Y-141070288D02*
X151031568Y-139128721D01*
X151031568Y-139128721D02*
X151031568Y-137841170D01*
X151031568Y-137841170D02*
X151069778Y-137802960D01*
X149256169Y-128549673D02*
X151591501Y-130885005D01*
X151591501Y-130885005D02*
X151614455Y-130885005D01*
X145406361Y-127395054D02*
X146164123Y-127395054D01*
X146164123Y-127395054D02*
X147318742Y-128549673D01*
X147318742Y-128549673D02*
X149256169Y-128549673D01*
X151678892Y-110558463D02*
X149345517Y-110558463D01*
X149345517Y-110558463D02*
X149105889Y-110318835D01*
X143853990Y-112186717D02*
X143570632Y-111903359D01*
X143853990Y-112540098D02*
X143853990Y-112186717D01*
X145476534Y-113451212D02*
X144765104Y-113451212D01*
X144765104Y-113451212D02*
X143853990Y-112540098D01*
X146304000Y-113250000D02*
X145677746Y-113250000D01*
X145677746Y-113250000D02*
X145476534Y-113451212D01*
X150456567Y-139138023D02*
X150456567Y-138931272D01*
X150456567Y-138931272D02*
X150456567Y-138507008D01*
X148590000Y-142417800D02*
X148590000Y-141004590D01*
X148590000Y-141004590D02*
X150456567Y-139138023D01*
X147574000Y-162814000D02*
X147783000Y-162605000D01*
X147783000Y-162605000D02*
X147783000Y-161711000D01*
X150047560Y-144360508D02*
X149747561Y-144660507D01*
X150589999Y-143818069D02*
X150047560Y-144360508D01*
X150589999Y-142417800D02*
X150589999Y-143818069D01*
X147201990Y-147042255D02*
X147626254Y-147042255D01*
X146304000Y-145628478D02*
X146304000Y-146144265D01*
X146304000Y-146144265D02*
X147201990Y-147042255D01*
X147811670Y-144120808D02*
X146304000Y-145628478D01*
X150090000Y-142417800D02*
X150090000Y-143404400D01*
X150090000Y-143404400D02*
X149373592Y-144120808D01*
X149373592Y-144120808D02*
X147811670Y-144120808D01*
X149997700Y-163198972D02*
X149573436Y-163198972D01*
X150745028Y-163198972D02*
X149997700Y-163198972D01*
X151435508Y-162508492D02*
X150745028Y-163198972D01*
X144987219Y-161614711D02*
X147186711Y-161614711D01*
X147186711Y-161614711D02*
X147283000Y-161711000D01*
X142176500Y-132232400D02*
X139014200Y-132232400D01*
X139014200Y-132232400D02*
X136410700Y-134835900D01*
X136410700Y-134835900D02*
X136410700Y-137778160D01*
X136664673Y-138032133D02*
X136664673Y-143985859D01*
X136410700Y-137778160D02*
X136664673Y-138032133D01*
X136664673Y-143985859D02*
X137100010Y-144421196D01*
X137100010Y-144421196D02*
X137100010Y-146197236D01*
X137100010Y-146197236D02*
X137100010Y-146621500D01*
X146558000Y-160986000D02*
X145867852Y-160986000D01*
X144894204Y-160709936D02*
X144894204Y-159961202D01*
X145867852Y-160986000D02*
X145794581Y-161059271D01*
X145794581Y-161059271D02*
X145243539Y-161059271D01*
X145243539Y-161059271D02*
X144894204Y-160709936D01*
X144894204Y-159961202D02*
X143396780Y-159961202D01*
X143396780Y-159961202D02*
X143197447Y-159761869D01*
X147090001Y-132998400D02*
X147090001Y-133985000D01*
X147090001Y-131615016D02*
X147090001Y-132998400D01*
X146578560Y-131103575D02*
X147090001Y-131615016D01*
X146027516Y-131103575D02*
X146578560Y-131103575D01*
X144453760Y-131753266D02*
X145377825Y-131753266D01*
X145377825Y-131753266D02*
X146027516Y-131103575D01*
X146359925Y-147748907D02*
X146780642Y-147748907D01*
X144969035Y-146358017D02*
X146359925Y-147748907D01*
X146780642Y-147748907D02*
X147204906Y-147748907D01*
X145519060Y-160485270D02*
X146557270Y-160485270D01*
X146557270Y-160485270D02*
X146558000Y-160486000D01*
X147590000Y-133985000D02*
X147590000Y-136361046D01*
X146624844Y-137326202D02*
X146624844Y-138168600D01*
X146624844Y-138168600D02*
X146618936Y-138174508D01*
X147590000Y-136361046D02*
X146624844Y-137326202D01*
X146618936Y-138174508D02*
X146318937Y-138474507D01*
X149893526Y-147988695D02*
X154961445Y-142920776D01*
X148338306Y-147988695D02*
X149893526Y-147988695D01*
X148048685Y-148278316D02*
X148338306Y-147988695D01*
X148048685Y-148485371D02*
X148048685Y-148278316D01*
X147690056Y-148844000D02*
X148048685Y-148485371D01*
X146799669Y-149824401D02*
X147350711Y-149824401D01*
X154961445Y-142920776D02*
X155261444Y-142620777D01*
X144261514Y-149510438D02*
X146485706Y-149510438D01*
X147350711Y-149824401D02*
X147690056Y-149485056D01*
X146485706Y-149510438D02*
X146799669Y-149824401D01*
X147690056Y-149485056D02*
X147690056Y-148844000D01*
X145933000Y-159986000D02*
X146558000Y-159986000D01*
X145858269Y-159911269D02*
X145933000Y-159986000D01*
X144737451Y-159238749D02*
X145409971Y-159911269D01*
X143735003Y-159238749D02*
X144737451Y-159238749D01*
X145409971Y-159911269D02*
X145858269Y-159911269D01*
X151072772Y-136548951D02*
X150852950Y-136768773D01*
X150852950Y-136768773D02*
X150578277Y-136768773D01*
X150578277Y-136768773D02*
X148590000Y-134780496D01*
X148590000Y-134780496D02*
X148590000Y-133985000D01*
X148326498Y-153893087D02*
X148626497Y-154193086D01*
X147447000Y-153013589D02*
X148326498Y-153893087D01*
X147447000Y-152363500D02*
X147447000Y-153013589D01*
X162872926Y-147155401D02*
X161233401Y-147155401D01*
X161233401Y-147155401D02*
X161036000Y-146958000D01*
X161036000Y-146958000D02*
X161036000Y-146558000D01*
X157411367Y-149633465D02*
X156654500Y-150390332D01*
X156654500Y-150390332D02*
X156654500Y-151027000D01*
X152632593Y-155865363D02*
X152208329Y-155865363D01*
X155602436Y-155865363D02*
X152632593Y-155865363D01*
X157720427Y-153747372D02*
X155602436Y-155865363D01*
X157720427Y-151892927D02*
X157720427Y-153747372D01*
X156854500Y-151027000D02*
X157720427Y-151892927D01*
X156654500Y-151027000D02*
X156854500Y-151027000D01*
X137752998Y-153827001D02*
X137752998Y-155532000D01*
X137752998Y-155532000D02*
X139446998Y-157226000D01*
X139446998Y-157226000D02*
X141621684Y-157226000D01*
X142108617Y-156739067D02*
X142108617Y-155324911D01*
X141621684Y-157226000D02*
X142108617Y-156739067D01*
X142108617Y-155324911D02*
X141850706Y-155067000D01*
X141850706Y-155067000D02*
X141351000Y-155067000D01*
X159885912Y-147977028D02*
X159885912Y-147098412D01*
X159885912Y-147098412D02*
X159702500Y-146915000D01*
X162687000Y-145923000D02*
X162551999Y-146058001D01*
X162551999Y-146058001D02*
X161775998Y-146058001D01*
X159745500Y-146958000D02*
X159702500Y-146915000D01*
X160926000Y-146558000D02*
X160526000Y-146958000D01*
X161036000Y-146558000D02*
X160926000Y-146558000D01*
X160526000Y-146958000D02*
X159745500Y-146958000D01*
X147447000Y-152363500D02*
X144743500Y-155067000D01*
X144743500Y-155067000D02*
X141351000Y-155067000D01*
X146367500Y-151384000D02*
X146467500Y-151384000D01*
X146467500Y-151384000D02*
X147447000Y-152363500D01*
X142494000Y-150685500D02*
X142519000Y-150685500D01*
X142519000Y-150685500D02*
X143217500Y-151384000D01*
X143217500Y-151384000D02*
X145817500Y-151384000D01*
X145817500Y-151384000D02*
X146367500Y-151384000D01*
X137752998Y-153827001D02*
X134663498Y-156916501D01*
X137752998Y-153411002D02*
X137752998Y-153827001D01*
X138823000Y-152341000D02*
X137752998Y-153411002D01*
X138823000Y-151716000D02*
X138823000Y-152341000D01*
X134153498Y-156916501D02*
X134663498Y-156916501D01*
X134663498Y-156916501D02*
X135255000Y-157508003D01*
X135255000Y-157508003D02*
X135255000Y-157861000D01*
X134620000Y-159004000D02*
X134620000Y-158496000D01*
X134620000Y-158496000D02*
X135255000Y-157861000D01*
X132207000Y-157797500D02*
X132524500Y-157797500D01*
X132524500Y-157797500D02*
X133223000Y-158496000D01*
X132207000Y-157797500D02*
X133032500Y-157797500D01*
X133032500Y-157797500D02*
X133413500Y-157416500D01*
X141048000Y-149991000D02*
X141799500Y-149991000D01*
X141799500Y-149991000D02*
X142494000Y-150685500D01*
X142494000Y-150685500D02*
X142299500Y-150491000D01*
X142299500Y-150491000D02*
X141048000Y-150491000D01*
X155130000Y-150635000D02*
X155130000Y-148844500D01*
X155130000Y-148844500D02*
X155130500Y-148844000D01*
X156654500Y-151027000D02*
X156262500Y-150635000D01*
X156262500Y-150635000D02*
X155130000Y-150635000D01*
X136550000Y-122750000D02*
X135250000Y-122750000D01*
D54*
G36*
X146172560Y-97290000D02*
X146172560Y-98290000D01*
X146216838Y-98525317D01*
X146355910Y-98741441D01*
X146568110Y-98886431D01*
X146820000Y-98937440D01*
X147820000Y-98937440D01*
X147830000Y-98935558D01*
X147830000Y-101185198D01*
X147232599Y-101782599D01*
X147130847Y-101934882D01*
X147070000Y-101922560D01*
X146670000Y-101922560D01*
X146434683Y-101966838D01*
X146218559Y-102105910D01*
X146073569Y-102318110D01*
X146022560Y-102570000D01*
X146022560Y-103092638D01*
X145402320Y-103712878D01*
X145356833Y-103712838D01*
X145013057Y-103854883D01*
X144973837Y-103894035D01*
X140398883Y-99319081D01*
X140502566Y-99249802D01*
X140748603Y-98881582D01*
X140835000Y-98447236D01*
X140835000Y-98402764D01*
X140748603Y-97968418D01*
X140502566Y-97600198D01*
X140134346Y-97354161D01*
X139700000Y-97267764D01*
X139265654Y-97354161D01*
X139065000Y-97488234D01*
X138864346Y-97354161D01*
X138430000Y-97267764D01*
X137995654Y-97354161D01*
X137974818Y-97368083D01*
X137786310Y-97290000D01*
X137445750Y-97290000D01*
X137287000Y-97448750D01*
X137287000Y-98298000D01*
X137307000Y-98298000D01*
X137307000Y-98342436D01*
X137295000Y-98402764D01*
X137295000Y-98447236D01*
X137307000Y-98507564D01*
X137307000Y-98552000D01*
X137287000Y-98552000D01*
X137287000Y-99401250D01*
X137445750Y-99560000D01*
X137786310Y-99560000D01*
X137974818Y-99481917D01*
X137995654Y-99495839D01*
X138430000Y-99582236D01*
X138498757Y-99568559D01*
X148384178Y-109453980D01*
X148542702Y-109559902D01*
X148313697Y-109788508D01*
X148301026Y-109819022D01*
X147633624Y-109151620D01*
X147387062Y-108986873D01*
X147096223Y-108929021D01*
X146085402Y-108929021D01*
X143972580Y-106816199D01*
X143726018Y-106651452D01*
X143435179Y-106593600D01*
X138648631Y-106593600D01*
X138636110Y-106563297D01*
X138243470Y-106169971D01*
X137730200Y-105956843D01*
X137174439Y-105956358D01*
X136660797Y-106168590D01*
X136267471Y-106561230D01*
X136054343Y-107074500D01*
X136053858Y-107630261D01*
X136266090Y-108143903D01*
X136658730Y-108537229D01*
X137172000Y-108750357D01*
X137727761Y-108750842D01*
X138241403Y-108538610D01*
X138634729Y-108145970D01*
X138648170Y-108113600D01*
X141594948Y-108113600D01*
X141588082Y-108130176D01*
X141710213Y-108350545D01*
X142662836Y-108350545D01*
X142775695Y-108463404D01*
X142955303Y-108283796D01*
X142842444Y-108170937D01*
X142842444Y-108113600D01*
X143096444Y-108113600D01*
X143096444Y-108170937D01*
X142983585Y-108283796D01*
X143163193Y-108463404D01*
X143276052Y-108350545D01*
X143357322Y-108350545D01*
X143611322Y-108604545D01*
X143096444Y-108604545D01*
X143096444Y-109736776D01*
X143316813Y-109858907D01*
X143818995Y-109620825D01*
X144191841Y-109208689D01*
X144198761Y-109191984D01*
X145167309Y-110160532D01*
X145111569Y-110242110D01*
X145060560Y-110494000D01*
X145060560Y-110994000D01*
X145097360Y-111189576D01*
X145046118Y-111065560D01*
X144783328Y-110802311D01*
X144439800Y-110659665D01*
X144067834Y-110659341D01*
X143724058Y-110801386D01*
X143556806Y-110968346D01*
X143385465Y-110968197D01*
X143041689Y-111110242D01*
X142778440Y-111373032D01*
X142648283Y-111686483D01*
X142590688Y-111710281D01*
X142557513Y-111743398D01*
X140301302Y-111743398D01*
X140010462Y-111801250D01*
X139763901Y-111965997D01*
X137760481Y-113969417D01*
X137730200Y-113956843D01*
X137174439Y-113956358D01*
X136660797Y-114168590D01*
X136267471Y-114561230D01*
X136054343Y-115074500D01*
X136053858Y-115630261D01*
X136266090Y-116143903D01*
X136658730Y-116537229D01*
X137172000Y-116750357D01*
X137727761Y-116750842D01*
X138241403Y-116538610D01*
X138634729Y-116145970D01*
X138847857Y-115632700D01*
X138848342Y-115076939D01*
X138834957Y-115044545D01*
X139444110Y-114435392D01*
X139443845Y-114739167D01*
X139585890Y-115082943D01*
X139848680Y-115346192D01*
X140192208Y-115488838D01*
X140564174Y-115489162D01*
X140907950Y-115347117D01*
X141171199Y-115084327D01*
X141301939Y-114769472D01*
X143407821Y-114769472D01*
X143182753Y-114862468D01*
X142919504Y-115125258D01*
X142776858Y-115468786D01*
X142776534Y-115840752D01*
X142918579Y-116184528D01*
X143181369Y-116447777D01*
X143524897Y-116590423D01*
X143896863Y-116590747D01*
X144157513Y-116483049D01*
X144214824Y-116494449D01*
X146184788Y-116494449D01*
X145901067Y-116611680D01*
X145867892Y-116644797D01*
X140283073Y-116644797D01*
X139992234Y-116702649D01*
X139745672Y-116867396D01*
X139361893Y-117251175D01*
X139316406Y-117251135D01*
X138972630Y-117393180D01*
X138709381Y-117655970D01*
X138566735Y-117999498D01*
X138566411Y-118371464D01*
X138708456Y-118715240D01*
X138971246Y-118978489D01*
X139314774Y-119121135D01*
X139686740Y-119121459D01*
X140030516Y-118979414D01*
X140293765Y-118716624D01*
X140436411Y-118373096D01*
X140436452Y-118326220D01*
X140597875Y-118164797D01*
X145808146Y-118164797D01*
X141982943Y-121990000D01*
X138101563Y-121990000D01*
X137901890Y-121853569D01*
X137650000Y-121802560D01*
X137250000Y-121802560D01*
X137014683Y-121846838D01*
X137003021Y-121854342D01*
X137001890Y-121853569D01*
X136750000Y-121802560D01*
X136381013Y-121802560D01*
X136314090Y-121698559D01*
X136101890Y-121553569D01*
X135850000Y-121502560D01*
X134650000Y-121502560D01*
X134414683Y-121546838D01*
X134198559Y-121685910D01*
X134150866Y-121755711D01*
X134114090Y-121698559D01*
X133901890Y-121553569D01*
X133650000Y-121502560D01*
X132450000Y-121502560D01*
X132214683Y-121546838D01*
X131998559Y-121685910D01*
X131853569Y-121898110D01*
X131802560Y-122150000D01*
X131802560Y-123350000D01*
X131846838Y-123585317D01*
X131849168Y-123588938D01*
X131836069Y-123608110D01*
X131785060Y-123860000D01*
X131785060Y-125060000D01*
X131829338Y-125295317D01*
X131883734Y-125379850D01*
X131836069Y-125449610D01*
X131785060Y-125701500D01*
X131785060Y-126901500D01*
X131829338Y-127136817D01*
X131883734Y-127221350D01*
X131836069Y-127291110D01*
X131785060Y-127543000D01*
X131785060Y-128743000D01*
X131829338Y-128978317D01*
X131968410Y-129194441D01*
X132180610Y-129339431D01*
X132272500Y-129358039D01*
X132272500Y-131886166D01*
X132186057Y-131921883D01*
X131922808Y-132184673D01*
X131780162Y-132528201D01*
X131779838Y-132900167D01*
X131921883Y-133243943D01*
X132184673Y-133507192D01*
X132528201Y-133649838D01*
X132900167Y-133650162D01*
X133243943Y-133508117D01*
X133507192Y-133245327D01*
X133649838Y-132901799D01*
X133649913Y-132815154D01*
X133734648Y-132688339D01*
X133792500Y-132397500D01*
X133792500Y-129360334D01*
X133867817Y-129346162D01*
X134083941Y-129207090D01*
X134131634Y-129137289D01*
X134168410Y-129194441D01*
X134380610Y-129339431D01*
X134632500Y-129390440D01*
X135832500Y-129390440D01*
X136067817Y-129346162D01*
X136283941Y-129207090D01*
X136288764Y-129200032D01*
X136225162Y-129353201D01*
X136224838Y-129725167D01*
X136366883Y-130068943D01*
X136629673Y-130332192D01*
X136973201Y-130474838D01*
X137345167Y-130475162D01*
X137688943Y-130333117D01*
X137952192Y-130070327D01*
X138094838Y-129726799D01*
X138095162Y-129354833D01*
X137967893Y-129046817D01*
X138096998Y-129072498D01*
X138847207Y-129072498D01*
X138785247Y-129134350D01*
X138642601Y-129477878D01*
X138642277Y-129849844D01*
X138784322Y-130193620D01*
X138828806Y-130238182D01*
X138640437Y-130316014D01*
X138377188Y-130578804D01*
X138234542Y-130922332D01*
X138234218Y-131294298D01*
X138376263Y-131638074D01*
X138454925Y-131716873D01*
X135873299Y-134298499D01*
X135708552Y-134545061D01*
X135650700Y-134835900D01*
X135650700Y-135151560D01*
X135120500Y-135151560D01*
X134885183Y-135195838D01*
X134669059Y-135334910D01*
X134632101Y-135389000D01*
X133311257Y-135389000D01*
X133284590Y-135347559D01*
X133072390Y-135202569D01*
X132820500Y-135151560D01*
X132170500Y-135151560D01*
X131935183Y-135195838D01*
X131719059Y-135334910D01*
X131574069Y-135547110D01*
X131523060Y-135799000D01*
X131523060Y-136001560D01*
X131068000Y-136001560D01*
X130832683Y-136045838D01*
X130616559Y-136184910D01*
X130613764Y-136189000D01*
X130386000Y-136189000D01*
X130204890Y-136225025D01*
X129989833Y-136224838D01*
X129646057Y-136366883D01*
X129382808Y-136629673D01*
X129240162Y-136973201D01*
X129240090Y-137055288D01*
X128143559Y-135958757D01*
X128157236Y-135890000D01*
X128070839Y-135455654D01*
X127824802Y-135087434D01*
X127456582Y-134841397D01*
X127022236Y-134755000D01*
X126977764Y-134755000D01*
X126543418Y-134841397D01*
X126175198Y-135087434D01*
X125929161Y-135455654D01*
X125842764Y-135890000D01*
X125929161Y-136324346D01*
X126063234Y-136525000D01*
X125929161Y-136725654D01*
X125842764Y-137160000D01*
X125929161Y-137594346D01*
X125944805Y-137617759D01*
X125903569Y-137678110D01*
X125852560Y-137930000D01*
X125852560Y-138930000D01*
X125896838Y-139165317D01*
X126035910Y-139381441D01*
X126248110Y-139526431D01*
X126500000Y-139577440D01*
X127500000Y-139577440D01*
X127735317Y-139533162D01*
X127951441Y-139394090D01*
X128018000Y-139296678D01*
X128018000Y-141169537D01*
X127985808Y-141201673D01*
X127843162Y-141545201D01*
X127842838Y-141917167D01*
X127984883Y-142260943D01*
X128247673Y-142524192D01*
X128591201Y-142666838D01*
X128963167Y-142667162D01*
X129306943Y-142525117D01*
X129570192Y-142262327D01*
X129712838Y-141918799D01*
X129713162Y-141546833D01*
X129571117Y-141203057D01*
X129538000Y-141169882D01*
X129538000Y-137845333D01*
X129644673Y-137952192D01*
X129988201Y-138094838D01*
X130360167Y-138095162D01*
X130420560Y-138070208D01*
X130420560Y-138349000D01*
X130464838Y-138584317D01*
X130603910Y-138800441D01*
X130816110Y-138945431D01*
X131068000Y-138996440D01*
X131568000Y-138996440D01*
X131803317Y-138952162D01*
X131830080Y-138934941D01*
X131918610Y-138995431D01*
X132170500Y-139046440D01*
X132820500Y-139046440D01*
X133055817Y-139002162D01*
X133271941Y-138863090D01*
X133308899Y-138809000D01*
X134629743Y-138809000D01*
X134656410Y-138850441D01*
X134685500Y-138870317D01*
X134685500Y-138982732D01*
X134743352Y-139273571D01*
X134762544Y-139302293D01*
X134762441Y-139420002D01*
X134848165Y-139627470D01*
X134624088Y-139720057D01*
X134509307Y-139834638D01*
X134180090Y-139834351D01*
X134119662Y-139859319D01*
X133789290Y-139722136D01*
X133417324Y-139721812D01*
X133174489Y-139822149D01*
X133039029Y-139765901D01*
X132832852Y-139765721D01*
X132610327Y-139542808D01*
X132266799Y-139400162D01*
X131894833Y-139399838D01*
X131551057Y-139541883D01*
X131287808Y-139804673D01*
X131145162Y-140148201D01*
X131144838Y-140520167D01*
X131286883Y-140863943D01*
X131320000Y-140897118D01*
X131320000Y-149860000D01*
X131377852Y-150150839D01*
X131542599Y-150397401D01*
X132414878Y-151269680D01*
X132414838Y-151315167D01*
X132437283Y-151369489D01*
X130723655Y-151369489D01*
X130724794Y-151366745D01*
X130725206Y-150895323D01*
X130545180Y-150459628D01*
X130212125Y-150125991D01*
X129776745Y-149945206D01*
X129305323Y-149944794D01*
X128869628Y-150124820D01*
X128535991Y-150457875D01*
X128516502Y-150504811D01*
X128510072Y-150472486D01*
X128296547Y-150152923D01*
X128450931Y-150053580D01*
X128595921Y-149841380D01*
X128646930Y-149589490D01*
X128646930Y-149372678D01*
X128867875Y-149594009D01*
X129303255Y-149774794D01*
X129774677Y-149775206D01*
X130210372Y-149595180D01*
X130544009Y-149262125D01*
X130724794Y-148826745D01*
X130725206Y-148355323D01*
X130545180Y-147919628D01*
X130212125Y-147585991D01*
X129776745Y-147405206D01*
X129305323Y-147404794D01*
X128869628Y-147584820D01*
X128646930Y-147807130D01*
X128646930Y-147590510D01*
X128602652Y-147355193D01*
X128463580Y-147139069D01*
X128251380Y-146994079D01*
X127999490Y-146943070D01*
X126000510Y-146943070D01*
X125765193Y-146987348D01*
X125549069Y-147126420D01*
X125404079Y-147338620D01*
X125353070Y-147590510D01*
X125353070Y-149589490D01*
X125397348Y-149824807D01*
X125536420Y-150040931D01*
X125702473Y-150154390D01*
X125489928Y-150472486D01*
X125365510Y-151097978D01*
X125365510Y-151162022D01*
X125489928Y-151787514D01*
X125844241Y-152317781D01*
X126374508Y-152672094D01*
X127000000Y-152796512D01*
X127505575Y-152695947D01*
X127708650Y-152831637D01*
X127999489Y-152889489D01*
X132415126Y-152889489D01*
X132415121Y-152895077D01*
X132377099Y-152933099D01*
X132212352Y-153179661D01*
X132154500Y-153470500D01*
X132154500Y-154118060D01*
X131566500Y-154118060D01*
X131331183Y-154162338D01*
X131115059Y-154301410D01*
X130970069Y-154513610D01*
X130944451Y-154640116D01*
X130624833Y-154639838D01*
X130281057Y-154781883D01*
X130017808Y-155044673D01*
X129875162Y-155388201D01*
X129874838Y-155760167D01*
X130016883Y-156103943D01*
X130279673Y-156367192D01*
X130623201Y-156509838D01*
X130919060Y-156510096D01*
X130919060Y-156765500D01*
X130963338Y-157000817D01*
X131102410Y-157216941D01*
X131206695Y-157288196D01*
X131184560Y-157397500D01*
X131184560Y-158197500D01*
X131228838Y-158432817D01*
X131296200Y-158537500D01*
X131207131Y-158537500D01*
X130996799Y-158450162D01*
X130624833Y-158449838D01*
X130281057Y-158591883D01*
X130017808Y-158854673D01*
X129875162Y-159198201D01*
X129874838Y-159570167D01*
X130016883Y-159913943D01*
X130279673Y-160177192D01*
X130623201Y-160319838D01*
X130995167Y-160320162D01*
X131338943Y-160178117D01*
X131368064Y-160149046D01*
X131580110Y-160293931D01*
X131832000Y-160344940D01*
X132582000Y-160344940D01*
X132817317Y-160300662D01*
X133033441Y-160161590D01*
X133104563Y-160057500D01*
X133235504Y-160057500D01*
X133526343Y-159999648D01*
X133772905Y-159834901D01*
X133950765Y-159657041D01*
X134089673Y-159796192D01*
X134433201Y-159938838D01*
X134805167Y-159939162D01*
X135148943Y-159797117D01*
X135412192Y-159534327D01*
X135554838Y-159190799D01*
X135555162Y-158818833D01*
X135501600Y-158689202D01*
X135792401Y-158398401D01*
X135957148Y-158151839D01*
X136015000Y-157861000D01*
X136015000Y-157508003D01*
X135957148Y-157217164D01*
X135792401Y-156970602D01*
X135738300Y-156916501D01*
X137014534Y-155640267D01*
X137050850Y-155822839D01*
X137215597Y-156069401D01*
X138909597Y-157763401D01*
X139156159Y-157928148D01*
X139446998Y-157986000D01*
X141621684Y-157986000D01*
X141912523Y-157928148D01*
X142159085Y-157763401D01*
X142646018Y-157276468D01*
X142810765Y-157029907D01*
X142868617Y-156739067D01*
X142868617Y-155827000D01*
X144743500Y-155827000D01*
X145034339Y-155769148D01*
X145280901Y-155604401D01*
X147121956Y-153763347D01*
X147691375Y-154332766D01*
X147691335Y-154378253D01*
X147833380Y-154722029D01*
X148096170Y-154985278D01*
X148439698Y-155127924D01*
X148811664Y-155128248D01*
X149155440Y-154986203D01*
X149418689Y-154723413D01*
X149561335Y-154379885D01*
X149561659Y-154007919D01*
X149501604Y-153862574D01*
X149795998Y-154156968D01*
X149795998Y-154900720D01*
X149034718Y-155662000D01*
X148529563Y-155662000D01*
X148329890Y-155525569D01*
X148078000Y-155474560D01*
X147578000Y-155474560D01*
X147342683Y-155518838D01*
X147126559Y-155657910D01*
X146981569Y-155870110D01*
X146930560Y-156122000D01*
X146930560Y-156722000D01*
X146974838Y-156957317D01*
X146982342Y-156968979D01*
X146981569Y-156970110D01*
X146930560Y-157222000D01*
X146930560Y-157822000D01*
X146931184Y-157825319D01*
X146727921Y-157961134D01*
X146557755Y-158215807D01*
X146515667Y-158427394D01*
X146445489Y-158380502D01*
X146154650Y-158322650D01*
X146069940Y-158322650D01*
X146037804Y-158290458D01*
X145694276Y-158147812D01*
X145322310Y-158147488D01*
X144978534Y-158289533D01*
X144780425Y-158487297D01*
X144737451Y-158478749D01*
X144297466Y-158478749D01*
X144265330Y-158446557D01*
X143921802Y-158303911D01*
X143549836Y-158303587D01*
X143206060Y-158445632D01*
X142942811Y-158708422D01*
X142869135Y-158885853D01*
X142668504Y-158968752D01*
X142405255Y-159231542D01*
X142262609Y-159575070D01*
X142262285Y-159947036D01*
X142404330Y-160290812D01*
X142667120Y-160554061D01*
X143010648Y-160696707D01*
X143274793Y-160696937D01*
X143396780Y-160721202D01*
X144136445Y-160721202D01*
X144192056Y-161000775D01*
X144226757Y-161052709D01*
X144195027Y-161084384D01*
X144052381Y-161427912D01*
X144052121Y-161726866D01*
X143801042Y-161676923D01*
X139517777Y-161676923D01*
X139226938Y-161734775D01*
X138980376Y-161899522D01*
X137760481Y-163119417D01*
X137730200Y-163106843D01*
X137174439Y-163106358D01*
X136660797Y-163318590D01*
X136267471Y-163711230D01*
X136054343Y-164224500D01*
X136053858Y-164780261D01*
X136266090Y-165293903D01*
X136658730Y-165687229D01*
X137172000Y-165900357D01*
X137727761Y-165900842D01*
X138241403Y-165688610D01*
X138634729Y-165295970D01*
X138847857Y-164782700D01*
X138848342Y-164226939D01*
X138834957Y-164194545D01*
X139832579Y-163196923D01*
X141702766Y-163196923D01*
X141702620Y-163364859D01*
X141844665Y-163708635D01*
X141851760Y-163715742D01*
X141779637Y-163745543D01*
X141516388Y-164008333D01*
X141373742Y-164351861D01*
X141373701Y-164398737D01*
X136913699Y-168858739D01*
X136748952Y-169105301D01*
X136691100Y-169396140D01*
X136691100Y-171306069D01*
X136660797Y-171318590D01*
X136267471Y-171711230D01*
X136054343Y-172224500D01*
X136053858Y-172780261D01*
X136266090Y-173293903D01*
X136658730Y-173687229D01*
X137172000Y-173900357D01*
X137727761Y-173900842D01*
X138241403Y-173688610D01*
X138634729Y-173295970D01*
X138847857Y-172782700D01*
X138848342Y-172226939D01*
X138636110Y-171713297D01*
X138243470Y-171319971D01*
X138211100Y-171306530D01*
X138211100Y-169710942D01*
X142448260Y-165473782D01*
X142493747Y-165473822D01*
X142837523Y-165331777D01*
X142959900Y-165209614D01*
X143285791Y-165535505D01*
X142941715Y-165603946D01*
X142459946Y-165925853D01*
X142138039Y-166407622D01*
X142025000Y-166975907D01*
X142025000Y-167034093D01*
X142138039Y-167602378D01*
X142459946Y-168084147D01*
X142745578Y-168275000D01*
X142459946Y-168465853D01*
X142138039Y-168947622D01*
X142025000Y-169515907D01*
X142025000Y-169574093D01*
X142138039Y-170142378D01*
X142459946Y-170624147D01*
X142941715Y-170946054D01*
X143510000Y-171059093D01*
X144078285Y-170946054D01*
X144560054Y-170624147D01*
X144780000Y-170294974D01*
X144999946Y-170624147D01*
X145481715Y-170946054D01*
X146050000Y-171059093D01*
X146618285Y-170946054D01*
X146711283Y-170883915D01*
X146451296Y-171143902D01*
X146249683Y-171181838D01*
X146033559Y-171320910D01*
X146009106Y-171356698D01*
X145945327Y-171292808D01*
X145601799Y-171150162D01*
X145229833Y-171149838D01*
X144886057Y-171291883D01*
X144622808Y-171554673D01*
X144480162Y-171898201D01*
X144479838Y-172270167D01*
X144621883Y-172613943D01*
X144884673Y-172877192D01*
X145228201Y-173019838D01*
X145275077Y-173019879D01*
X145280220Y-173025022D01*
X145130426Y-173125111D01*
X144889809Y-173485221D01*
X144805315Y-173910000D01*
X144889809Y-174334779D01*
X145130426Y-174694889D01*
X145490536Y-174935506D01*
X145915315Y-175020000D01*
X146264685Y-175020000D01*
X146575542Y-174958167D01*
X146625910Y-175036441D01*
X146838110Y-175181431D01*
X147090000Y-175232440D01*
X147490000Y-175232440D01*
X147619589Y-175208056D01*
X147740000Y-175232440D01*
X148140000Y-175232440D01*
X148269589Y-175208056D01*
X148390000Y-175232440D01*
X148790000Y-175232440D01*
X148919589Y-175208056D01*
X149040000Y-175232440D01*
X149440000Y-175232440D01*
X149569589Y-175208056D01*
X149690000Y-175232440D01*
X150090000Y-175232440D01*
X150325317Y-175188162D01*
X150541441Y-175049090D01*
X150603673Y-174958010D01*
X150915315Y-175020000D01*
X151264685Y-175020000D01*
X151689464Y-174935506D01*
X151814215Y-174852150D01*
X162790796Y-174852150D01*
X163058175Y-175499257D01*
X163552839Y-175994785D01*
X164199479Y-176263293D01*
X164899650Y-176263904D01*
X165546757Y-175996525D01*
X166042285Y-175501861D01*
X166310793Y-174855221D01*
X166311404Y-174155050D01*
X166044025Y-173507943D01*
X165549361Y-173012415D01*
X164902721Y-172743907D01*
X164202550Y-172743296D01*
X163555443Y-173010675D01*
X163059915Y-173505339D01*
X162791407Y-174151979D01*
X162790796Y-174852150D01*
X151814215Y-174852150D01*
X152049574Y-174694889D01*
X152290191Y-174334779D01*
X152374685Y-173910000D01*
X152290191Y-173485221D01*
X152049574Y-173125111D01*
X151689464Y-172884494D01*
X151264685Y-172800000D01*
X150915315Y-172800000D01*
X150799774Y-172822983D01*
X150842570Y-172780261D01*
X158153858Y-172780261D01*
X158366090Y-173293903D01*
X158758730Y-173687229D01*
X159272000Y-173900357D01*
X159827761Y-173900842D01*
X160341403Y-173688610D01*
X160734729Y-173295970D01*
X160947857Y-172782700D01*
X160948342Y-172226939D01*
X160736110Y-171713297D01*
X160343470Y-171319971D01*
X159830200Y-171106843D01*
X159274439Y-171106358D01*
X158760797Y-171318590D01*
X158367471Y-171711230D01*
X158154343Y-172224500D01*
X158153858Y-172780261D01*
X150842570Y-172780261D01*
X151007792Y-172615327D01*
X151150438Y-172271799D01*
X151150762Y-171899833D01*
X151008717Y-171556057D01*
X150745927Y-171292808D01*
X150402399Y-171150162D01*
X150030433Y-171149838D01*
X149994929Y-171164508D01*
X150338007Y-170821430D01*
X150349482Y-170804256D01*
X150363076Y-170816645D01*
X150773110Y-170986476D01*
X151003000Y-170865155D01*
X151003000Y-169672000D01*
X150983000Y-169672000D01*
X150983000Y-169418000D01*
X151003000Y-169418000D01*
X151003000Y-169398000D01*
X151257000Y-169398000D01*
X151257000Y-169418000D01*
X151277000Y-169418000D01*
X151277000Y-169672000D01*
X151257000Y-169672000D01*
X151257000Y-170865155D01*
X151486890Y-170986476D01*
X151896924Y-170816645D01*
X152325183Y-170426358D01*
X152392298Y-170283447D01*
X152619946Y-170624147D01*
X153101715Y-170946054D01*
X153670000Y-171059093D01*
X154238285Y-170946054D01*
X154720054Y-170624147D01*
X154933301Y-170305000D01*
X155089580Y-170305000D01*
X155181212Y-170343049D01*
X155553178Y-170343373D01*
X155896954Y-170201328D01*
X156160203Y-169938538D01*
X156302849Y-169595010D01*
X156303173Y-169223044D01*
X156241453Y-169073670D01*
X156710026Y-169073670D01*
X157000865Y-169015818D01*
X157247427Y-168851071D01*
X158713399Y-167385099D01*
X158859550Y-167166368D01*
X158878146Y-167138537D01*
X158935998Y-166847698D01*
X158935998Y-165760837D01*
X159272000Y-165900357D01*
X159827761Y-165900842D01*
X160341403Y-165688610D01*
X160734729Y-165295970D01*
X160947857Y-164782700D01*
X160948342Y-164226939D01*
X160736110Y-163713297D01*
X160343470Y-163319971D01*
X159830200Y-163106843D01*
X159274439Y-163106358D01*
X158935998Y-163246199D01*
X158935998Y-162852150D01*
X162790796Y-162852150D01*
X163058175Y-163499257D01*
X163552839Y-163994785D01*
X164199479Y-164263293D01*
X164899650Y-164263904D01*
X165546757Y-163996525D01*
X166042285Y-163501861D01*
X166310793Y-162855221D01*
X166311404Y-162155050D01*
X166044025Y-161507943D01*
X165549361Y-161012415D01*
X164902721Y-160743907D01*
X164202550Y-160743296D01*
X163555443Y-161010675D01*
X163059915Y-161505339D01*
X162791407Y-162151979D01*
X162790796Y-162852150D01*
X158935998Y-162852150D01*
X158935998Y-153825750D01*
X167670000Y-153825750D01*
X167670000Y-154016309D01*
X167766673Y-154249698D01*
X167945301Y-154428327D01*
X168178690Y-154525000D01*
X168657560Y-154525000D01*
X168657560Y-155440000D01*
X168701838Y-155675317D01*
X168840910Y-155891441D01*
X169053110Y-156036431D01*
X169305000Y-156087440D01*
X170105000Y-156087440D01*
X170340317Y-156043162D01*
X170556441Y-155904090D01*
X170701431Y-155691890D01*
X170752440Y-155440000D01*
X170752440Y-154440000D01*
X170708162Y-154204683D01*
X170569090Y-153988559D01*
X170440000Y-153900356D01*
X170440000Y-153825750D01*
X170411539Y-153797289D01*
X170598233Y-153874811D01*
X171029873Y-153875188D01*
X171428800Y-153710354D01*
X171734282Y-153405405D01*
X171899811Y-153006767D01*
X171900188Y-152575127D01*
X171735354Y-152176200D01*
X171430405Y-151870718D01*
X171031767Y-151705189D01*
X170600127Y-151704812D01*
X170201200Y-151869646D01*
X169895718Y-152174595D01*
X169737760Y-152555000D01*
X169340750Y-152555000D01*
X169182000Y-152713750D01*
X169182000Y-153413000D01*
X169202000Y-153413000D01*
X169202000Y-153667000D01*
X169182000Y-153667000D01*
X169182000Y-153687000D01*
X168928000Y-153687000D01*
X168928000Y-153667000D01*
X167828750Y-153667000D01*
X167670000Y-153825750D01*
X158935998Y-153825750D01*
X158935998Y-153063691D01*
X167670000Y-153063691D01*
X167670000Y-153254250D01*
X167828750Y-153413000D01*
X168928000Y-153413000D01*
X168928000Y-152713750D01*
X168769250Y-152555000D01*
X168178690Y-152555000D01*
X167945301Y-152651673D01*
X167766673Y-152830302D01*
X167670000Y-153063691D01*
X158935998Y-153063691D01*
X158935998Y-149233994D01*
X158900777Y-149056926D01*
X159163252Y-149319401D01*
X159409813Y-149484148D01*
X159700653Y-149542000D01*
X160496500Y-149542000D01*
X160787339Y-149484148D01*
X161033901Y-149319401D01*
X161173862Y-149179440D01*
X161246500Y-149179440D01*
X161481817Y-149135162D01*
X161697941Y-148996090D01*
X161744469Y-148927994D01*
X161886802Y-149070327D01*
X162120191Y-149167000D01*
X162212750Y-149167000D01*
X162371500Y-149008250D01*
X162371500Y-148209000D01*
X162349500Y-148209000D01*
X162349500Y-147955000D01*
X162360437Y-147955000D01*
X162686127Y-148090239D01*
X162820000Y-148090356D01*
X162820000Y-148209000D01*
X162621500Y-148209000D01*
X162621500Y-149008250D01*
X162780250Y-149167000D01*
X162872809Y-149167000D01*
X163106198Y-149070327D01*
X163138362Y-149038163D01*
X163328690Y-149117000D01*
X163544250Y-149117000D01*
X163703000Y-148958250D01*
X163703000Y-148209000D01*
X163957000Y-148209000D01*
X163957000Y-148958250D01*
X164115750Y-149117000D01*
X164331310Y-149117000D01*
X164564699Y-149020327D01*
X164743327Y-148841698D01*
X164840000Y-148608309D01*
X164840000Y-148367750D01*
X164681250Y-148209000D01*
X163957000Y-148209000D01*
X163703000Y-148209000D01*
X163683000Y-148209000D01*
X163683000Y-147955000D01*
X163703000Y-147955000D01*
X163703000Y-147935000D01*
X163957000Y-147935000D01*
X163957000Y-147955000D01*
X164681250Y-147955000D01*
X164840000Y-147796250D01*
X164840000Y-147776562D01*
X164923551Y-147776635D01*
X165096011Y-147705376D01*
X165096011Y-147741011D01*
X165153863Y-148031850D01*
X165318610Y-148278412D01*
X167657560Y-150617362D01*
X167657560Y-150890000D01*
X167701838Y-151125317D01*
X167840910Y-151341441D01*
X168053110Y-151486431D01*
X168305000Y-151537440D01*
X169805000Y-151537440D01*
X170040317Y-151493162D01*
X170256441Y-151354090D01*
X170401431Y-151141890D01*
X170452440Y-150890000D01*
X170452440Y-150814272D01*
X170598233Y-150874811D01*
X171029873Y-150875188D01*
X171428800Y-150710354D01*
X171734282Y-150405405D01*
X171899811Y-150006767D01*
X171900188Y-149575127D01*
X171735354Y-149176200D01*
X171430405Y-148870718D01*
X171031767Y-148705189D01*
X170600127Y-148704812D01*
X170452440Y-148765835D01*
X170452440Y-148690000D01*
X170449253Y-148673063D01*
X170556441Y-148604090D01*
X170701431Y-148391890D01*
X170752440Y-148140000D01*
X170752440Y-147140000D01*
X170708162Y-146904683D01*
X170569090Y-146688559D01*
X170356890Y-146543569D01*
X170105000Y-146492560D01*
X169305000Y-146492560D01*
X169069683Y-146536838D01*
X168853559Y-146675910D01*
X168708569Y-146888110D01*
X168657560Y-147140000D01*
X168657560Y-147644356D01*
X168641839Y-147633852D01*
X168351000Y-147576000D01*
X168075463Y-147576000D01*
X168043327Y-147543808D01*
X167699799Y-147401162D01*
X167327833Y-147400838D01*
X166984057Y-147542883D01*
X166858261Y-147668459D01*
X166616011Y-147426209D01*
X166616011Y-145332968D01*
X166606862Y-145286973D01*
X166558159Y-145042128D01*
X166393412Y-144795567D01*
X164713610Y-143115765D01*
X164713650Y-143070278D01*
X164571605Y-142726502D01*
X164308815Y-142463253D01*
X163965287Y-142320607D01*
X163593321Y-142320283D01*
X163249545Y-142462328D01*
X162986296Y-142725118D01*
X162843650Y-143068646D01*
X162843326Y-143440612D01*
X162985371Y-143784388D01*
X163248161Y-144047637D01*
X163591689Y-144190283D01*
X163638565Y-144190324D01*
X165096011Y-145647770D01*
X165096011Y-145977569D01*
X164925183Y-145906635D01*
X164805800Y-145906531D01*
X164739954Y-145840685D01*
X164669090Y-145730559D01*
X164545129Y-145645860D01*
X164218569Y-145319300D01*
X164218609Y-145273813D01*
X164076564Y-144930037D01*
X163813774Y-144666788D01*
X163470246Y-144524142D01*
X163098280Y-144523818D01*
X162754504Y-144665863D01*
X162491255Y-144928653D01*
X162480522Y-144954501D01*
X162395696Y-144869675D01*
X162162307Y-144773002D01*
X162061748Y-144773002D01*
X161903000Y-144931750D01*
X161903000Y-144773002D01*
X161844007Y-144773002D01*
X161844162Y-144594833D01*
X161702117Y-144251057D01*
X161496860Y-144045442D01*
X161526302Y-144016000D01*
X161798000Y-144016000D01*
X162088839Y-143958148D01*
X162335401Y-143793401D01*
X162462401Y-143666401D01*
X162627148Y-143419839D01*
X162685000Y-143129000D01*
X162685000Y-140208000D01*
X162628924Y-139926090D01*
X162627148Y-139917160D01*
X162462401Y-139670599D01*
X161336122Y-138544320D01*
X161336162Y-138498833D01*
X161194117Y-138155057D01*
X160931327Y-137891808D01*
X160587799Y-137749162D01*
X160215833Y-137748838D01*
X159872057Y-137890883D01*
X159608808Y-138153673D01*
X159466162Y-138497201D01*
X159465838Y-138869167D01*
X159547506Y-139066819D01*
X159514000Y-139235264D01*
X159514000Y-140022560D01*
X159174000Y-140022560D01*
X159124952Y-140031789D01*
X159052090Y-139918559D01*
X158839890Y-139773569D01*
X158588000Y-139722560D01*
X157866760Y-139722560D01*
X157866794Y-139683753D01*
X157724749Y-139339977D01*
X157688314Y-139303478D01*
X159831792Y-137160000D01*
X169022764Y-137160000D01*
X169109161Y-137594346D01*
X169243234Y-137795000D01*
X169109161Y-137995654D01*
X169022764Y-138430000D01*
X169109161Y-138864346D01*
X169355198Y-139232566D01*
X169723418Y-139478603D01*
X170157764Y-139565000D01*
X170202236Y-139565000D01*
X170636582Y-139478603D01*
X171004802Y-139232566D01*
X171250839Y-138864346D01*
X171337236Y-138430000D01*
X171250839Y-137995654D01*
X171116766Y-137795000D01*
X171250839Y-137594346D01*
X171337236Y-137160000D01*
X171250839Y-136725654D01*
X171235195Y-136702241D01*
X171276431Y-136641890D01*
X171327440Y-136390000D01*
X171327440Y-135390000D01*
X171283162Y-135154683D01*
X171144090Y-134938559D01*
X170931890Y-134793569D01*
X170680000Y-134742560D01*
X169680000Y-134742560D01*
X169444683Y-134786838D01*
X169228559Y-134925910D01*
X169083569Y-135138110D01*
X169032560Y-135390000D01*
X169032560Y-136390000D01*
X169076838Y-136625317D01*
X169125586Y-136701073D01*
X169109161Y-136725654D01*
X169022764Y-137160000D01*
X159831792Y-137160000D01*
X160043412Y-136948380D01*
X160208159Y-136701818D01*
X160266011Y-136410979D01*
X160266011Y-133510415D01*
X160319467Y-133510462D01*
X160663243Y-133368417D01*
X160926492Y-133105627D01*
X161069138Y-132762099D01*
X161069462Y-132390133D01*
X160939352Y-132075242D01*
X161077516Y-132075362D01*
X161421292Y-131933317D01*
X161684541Y-131670527D01*
X161827187Y-131326999D01*
X161827228Y-131280123D01*
X163535626Y-129571725D01*
X163700373Y-129325163D01*
X163758225Y-129034324D01*
X163758225Y-118930069D01*
X164199479Y-119113293D01*
X164899650Y-119113904D01*
X165546757Y-118846525D01*
X166042285Y-118351861D01*
X166310793Y-117705221D01*
X166311404Y-117005050D01*
X166044025Y-116357943D01*
X165549361Y-115862415D01*
X164902721Y-115593907D01*
X164202550Y-115593296D01*
X163758225Y-115776887D01*
X163758225Y-106930069D01*
X164199479Y-107113293D01*
X164899650Y-107113904D01*
X165546757Y-106846525D01*
X166042285Y-106351861D01*
X166310793Y-105705221D01*
X166311404Y-105005050D01*
X166044025Y-104357943D01*
X165549361Y-103862415D01*
X164902721Y-103593907D01*
X164202550Y-103593296D01*
X163758225Y-103776887D01*
X163758225Y-100273865D01*
X163793114Y-100358303D01*
X164185754Y-100751629D01*
X164699024Y-100964757D01*
X165254785Y-100965242D01*
X165287179Y-100951857D01*
X166880000Y-102544678D01*
X166880000Y-103378000D01*
X166937852Y-103668839D01*
X167102599Y-103915401D01*
X167349161Y-104080148D01*
X167640000Y-104138000D01*
X169277634Y-104138000D01*
X169059915Y-104355339D01*
X168791407Y-105001979D01*
X168790796Y-105702150D01*
X169058175Y-106349257D01*
X169552839Y-106844785D01*
X170199479Y-107113293D01*
X170899650Y-107113904D01*
X171546757Y-106846525D01*
X172010000Y-106384090D01*
X172010000Y-116323859D01*
X171549361Y-115862415D01*
X170902721Y-115593907D01*
X170202550Y-115593296D01*
X169555443Y-115860675D01*
X169059915Y-116355339D01*
X168791407Y-117001979D01*
X168790796Y-117702150D01*
X169058175Y-118349257D01*
X169552839Y-118844785D01*
X170199479Y-119113293D01*
X170899650Y-119113904D01*
X171546757Y-118846525D01*
X172010000Y-118384090D01*
X172010000Y-146492560D01*
X171515000Y-146492560D01*
X171279683Y-146536838D01*
X171063559Y-146675910D01*
X170918569Y-146888110D01*
X170867560Y-147140000D01*
X170867560Y-148140000D01*
X170911838Y-148375317D01*
X171050910Y-148591441D01*
X171263110Y-148736431D01*
X171515000Y-148787440D01*
X172010000Y-148787440D01*
X172010000Y-153792560D01*
X171515000Y-153792560D01*
X171279683Y-153836838D01*
X171063559Y-153975910D01*
X170918569Y-154188110D01*
X170867560Y-154440000D01*
X170867560Y-155440000D01*
X170911838Y-155675317D01*
X171050910Y-155891441D01*
X171263110Y-156036431D01*
X171515000Y-156087440D01*
X172010000Y-156087440D01*
X172010000Y-161473859D01*
X171549361Y-161012415D01*
X170902721Y-160743907D01*
X170202550Y-160743296D01*
X169555443Y-161010675D01*
X169059915Y-161505339D01*
X168791407Y-162151979D01*
X168790796Y-162852150D01*
X169058175Y-163499257D01*
X169552839Y-163994785D01*
X170199479Y-164263293D01*
X170899650Y-164263904D01*
X171546757Y-163996525D01*
X172010000Y-163534090D01*
X172010000Y-173473859D01*
X171549361Y-173012415D01*
X170902721Y-172743907D01*
X170202550Y-172743296D01*
X169555443Y-173010675D01*
X169059915Y-173505339D01*
X168791407Y-174151979D01*
X168790796Y-174852150D01*
X169058175Y-175499257D01*
X169552839Y-175994785D01*
X170199479Y-176263293D01*
X170899650Y-176263904D01*
X171546757Y-175996525D01*
X172010000Y-175534090D01*
X172010000Y-177090000D01*
X153189718Y-177090000D01*
X153225000Y-176912624D01*
X153225000Y-176307376D01*
X153138603Y-175873030D01*
X152892566Y-175504810D01*
X152524346Y-175258773D01*
X152090000Y-175172376D01*
X151655654Y-175258773D01*
X151287434Y-175504810D01*
X151041397Y-175873030D01*
X150955000Y-176307376D01*
X150955000Y-176912624D01*
X150990282Y-177090000D01*
X146189718Y-177090000D01*
X146225000Y-176912624D01*
X146225000Y-176307376D01*
X146138603Y-175873030D01*
X145892566Y-175504810D01*
X145524346Y-175258773D01*
X145090000Y-175172376D01*
X144655654Y-175258773D01*
X144287434Y-175504810D01*
X144041397Y-175873030D01*
X143955000Y-176307376D01*
X143955000Y-176912624D01*
X143990282Y-177090000D01*
X125170000Y-177090000D01*
X125170000Y-175711452D01*
X125452839Y-175994785D01*
X126099479Y-176263293D01*
X126799650Y-176263904D01*
X127446757Y-175996525D01*
X127942285Y-175501861D01*
X128210793Y-174855221D01*
X128210795Y-174852150D01*
X130690796Y-174852150D01*
X130958175Y-175499257D01*
X131452839Y-175994785D01*
X132099479Y-176263293D01*
X132799650Y-176263904D01*
X133446757Y-175996525D01*
X133942285Y-175501861D01*
X134210793Y-174855221D01*
X134211404Y-174155050D01*
X133944025Y-173507943D01*
X133449361Y-173012415D01*
X132802721Y-172743907D01*
X132102550Y-172743296D01*
X131455443Y-173010675D01*
X130959915Y-173505339D01*
X130691407Y-174151979D01*
X130690796Y-174852150D01*
X128210795Y-174852150D01*
X128211404Y-174155050D01*
X127944025Y-173507943D01*
X127449361Y-173012415D01*
X126802721Y-172743907D01*
X126102550Y-172743296D01*
X125455443Y-173010675D01*
X125170000Y-173295620D01*
X125170000Y-163711452D01*
X125452839Y-163994785D01*
X126099479Y-164263293D01*
X126799650Y-164263904D01*
X127446757Y-163996525D01*
X127942285Y-163501861D01*
X128210793Y-162855221D01*
X128210795Y-162852150D01*
X130690796Y-162852150D01*
X130958175Y-163499257D01*
X131452839Y-163994785D01*
X132099479Y-164263293D01*
X132799650Y-164263904D01*
X133446757Y-163996525D01*
X133942285Y-163501861D01*
X134210793Y-162855221D01*
X134211404Y-162155050D01*
X133944025Y-161507943D01*
X133449361Y-161012415D01*
X132802721Y-160743907D01*
X132102550Y-160743296D01*
X131455443Y-161010675D01*
X130959915Y-161505339D01*
X130691407Y-162151979D01*
X130690796Y-162852150D01*
X128210795Y-162852150D01*
X128211404Y-162155050D01*
X127944025Y-161507943D01*
X127449361Y-161012415D01*
X126802721Y-160743907D01*
X126102550Y-160743296D01*
X125455443Y-161010675D01*
X125170000Y-161295620D01*
X125170000Y-118561452D01*
X125452839Y-118844785D01*
X126099479Y-119113293D01*
X126799650Y-119113904D01*
X127446757Y-118846525D01*
X127942285Y-118351861D01*
X128210793Y-117705221D01*
X128210795Y-117702150D01*
X130690796Y-117702150D01*
X130958175Y-118349257D01*
X131452839Y-118844785D01*
X132099479Y-119113293D01*
X132799650Y-119113904D01*
X133446757Y-118846525D01*
X133942285Y-118351861D01*
X134210793Y-117705221D01*
X134211404Y-117005050D01*
X133944025Y-116357943D01*
X133449361Y-115862415D01*
X132802721Y-115593907D01*
X132102550Y-115593296D01*
X131455443Y-115860675D01*
X130959915Y-116355339D01*
X130691407Y-117001979D01*
X130690796Y-117702150D01*
X128210795Y-117702150D01*
X128211404Y-117005050D01*
X127944025Y-116357943D01*
X127449361Y-115862415D01*
X126802721Y-115593907D01*
X126102550Y-115593296D01*
X125455443Y-115860675D01*
X125170000Y-116145620D01*
X125170000Y-108824914D01*
X141588082Y-108824914D01*
X141826164Y-109327096D01*
X142238300Y-109699942D01*
X142622075Y-109858907D01*
X142842444Y-109736776D01*
X142842444Y-108604545D01*
X141710213Y-108604545D01*
X141588082Y-108824914D01*
X125170000Y-108824914D01*
X125170000Y-106561452D01*
X125452839Y-106844785D01*
X126099479Y-107113293D01*
X126799650Y-107113904D01*
X127446757Y-106846525D01*
X127942285Y-106351861D01*
X128210793Y-105705221D01*
X128210795Y-105702150D01*
X130690796Y-105702150D01*
X130958175Y-106349257D01*
X131452839Y-106844785D01*
X132099479Y-107113293D01*
X132799650Y-107113904D01*
X133446757Y-106846525D01*
X133942285Y-106351861D01*
X134210793Y-105705221D01*
X134211404Y-105005050D01*
X134036717Y-104582274D01*
X137345442Y-104582274D01*
X137583524Y-105084456D01*
X137995660Y-105457302D01*
X138379435Y-105616267D01*
X138599804Y-105494136D01*
X138599804Y-104361905D01*
X138853804Y-104361905D01*
X138853804Y-105494136D01*
X139074173Y-105616267D01*
X139576355Y-105378185D01*
X139949201Y-104966049D01*
X140108166Y-104582274D01*
X139986035Y-104361905D01*
X138853804Y-104361905D01*
X138599804Y-104361905D01*
X137467573Y-104361905D01*
X137345442Y-104582274D01*
X134036717Y-104582274D01*
X133944025Y-104357943D01*
X133474439Y-103887536D01*
X137345442Y-103887536D01*
X137467573Y-104107905D01*
X138599804Y-104107905D01*
X138599804Y-102975674D01*
X138853804Y-102975674D01*
X138853804Y-104107905D01*
X139986035Y-104107905D01*
X140108166Y-103887536D01*
X139870084Y-103385354D01*
X139457948Y-103012508D01*
X139074173Y-102853543D01*
X138853804Y-102975674D01*
X138599804Y-102975674D01*
X138379435Y-102853543D01*
X137877253Y-103091625D01*
X137504407Y-103503761D01*
X137345442Y-103887536D01*
X133474439Y-103887536D01*
X133449361Y-103862415D01*
X132802721Y-103593907D01*
X132102550Y-103593296D01*
X131455443Y-103860675D01*
X130959915Y-104355339D01*
X130691407Y-105001979D01*
X130690796Y-105702150D01*
X128210795Y-105702150D01*
X128211404Y-105005050D01*
X127944025Y-104357943D01*
X127752365Y-104165948D01*
X127789441Y-104142090D01*
X127792236Y-104138000D01*
X128270000Y-104138000D01*
X128560839Y-104080148D01*
X128807401Y-103915401D01*
X131770619Y-100952183D01*
X131800900Y-100964757D01*
X132356661Y-100965242D01*
X132870303Y-100753010D01*
X133263629Y-100360370D01*
X133476757Y-99847100D01*
X133477242Y-99291339D01*
X133265010Y-98777697D01*
X132872370Y-98384371D01*
X132785022Y-98348101D01*
X132862368Y-98348101D01*
X132874889Y-98378404D01*
X133267529Y-98771730D01*
X133780799Y-98984858D01*
X134336560Y-98985343D01*
X134850202Y-98773111D01*
X134912671Y-98710750D01*
X136025000Y-98710750D01*
X136025000Y-99051309D01*
X136121673Y-99284698D01*
X136300301Y-99463327D01*
X136533690Y-99560000D01*
X136874250Y-99560000D01*
X137033000Y-99401250D01*
X137033000Y-98552000D01*
X136183750Y-98552000D01*
X136025000Y-98710750D01*
X134912671Y-98710750D01*
X135243528Y-98380471D01*
X135456656Y-97867201D01*
X135456715Y-97798691D01*
X136025000Y-97798691D01*
X136025000Y-98139250D01*
X136183750Y-98298000D01*
X137033000Y-98298000D01*
X137033000Y-97448750D01*
X136874250Y-97290000D01*
X136533690Y-97290000D01*
X136300301Y-97386673D01*
X136121673Y-97565302D01*
X136025000Y-97798691D01*
X135456715Y-97798691D01*
X135457141Y-97311440D01*
X135423491Y-97230000D01*
X146184710Y-97230000D01*
X146172560Y-97290000D01*
X146172560Y-97290000D01*
G37*
X146172560Y-97290000D02*
X146172560Y-98290000D01*
X146216838Y-98525317D01*
X146355910Y-98741441D01*
X146568110Y-98886431D01*
X146820000Y-98937440D01*
X147820000Y-98937440D01*
X147830000Y-98935558D01*
X147830000Y-101185198D01*
X147232599Y-101782599D01*
X147130847Y-101934882D01*
X147070000Y-101922560D01*
X146670000Y-101922560D01*
X146434683Y-101966838D01*
X146218559Y-102105910D01*
X146073569Y-102318110D01*
X146022560Y-102570000D01*
X146022560Y-103092638D01*
X145402320Y-103712878D01*
X145356833Y-103712838D01*
X145013057Y-103854883D01*
X144973837Y-103894035D01*
X140398883Y-99319081D01*
X140502566Y-99249802D01*
X140748603Y-98881582D01*
X140835000Y-98447236D01*
X140835000Y-98402764D01*
X140748603Y-97968418D01*
X140502566Y-97600198D01*
X140134346Y-97354161D01*
X139700000Y-97267764D01*
X139265654Y-97354161D01*
X139065000Y-97488234D01*
X138864346Y-97354161D01*
X138430000Y-97267764D01*
X137995654Y-97354161D01*
X137974818Y-97368083D01*
X137786310Y-97290000D01*
X137445750Y-97290000D01*
X137287000Y-97448750D01*
X137287000Y-98298000D01*
X137307000Y-98298000D01*
X137307000Y-98342436D01*
X137295000Y-98402764D01*
X137295000Y-98447236D01*
X137307000Y-98507564D01*
X137307000Y-98552000D01*
X137287000Y-98552000D01*
X137287000Y-99401250D01*
X137445750Y-99560000D01*
X137786310Y-99560000D01*
X137974818Y-99481917D01*
X137995654Y-99495839D01*
X138430000Y-99582236D01*
X138498757Y-99568559D01*
X148384178Y-109453980D01*
X148542702Y-109559902D01*
X148313697Y-109788508D01*
X148301026Y-109819022D01*
X147633624Y-109151620D01*
X147387062Y-108986873D01*
X147096223Y-108929021D01*
X146085402Y-108929021D01*
X143972580Y-106816199D01*
X143726018Y-106651452D01*
X143435179Y-106593600D01*
X138648631Y-106593600D01*
X138636110Y-106563297D01*
X138243470Y-106169971D01*
X137730200Y-105956843D01*
X137174439Y-105956358D01*
X136660797Y-106168590D01*
X136267471Y-106561230D01*
X136054343Y-107074500D01*
X136053858Y-107630261D01*
X136266090Y-108143903D01*
X136658730Y-108537229D01*
X137172000Y-108750357D01*
X137727761Y-108750842D01*
X138241403Y-108538610D01*
X138634729Y-108145970D01*
X138648170Y-108113600D01*
X141594948Y-108113600D01*
X141588082Y-108130176D01*
X141710213Y-108350545D01*
X142662836Y-108350545D01*
X142775695Y-108463404D01*
X142955303Y-108283796D01*
X142842444Y-108170937D01*
X142842444Y-108113600D01*
X143096444Y-108113600D01*
X143096444Y-108170937D01*
X142983585Y-108283796D01*
X143163193Y-108463404D01*
X143276052Y-108350545D01*
X143357322Y-108350545D01*
X143611322Y-108604545D01*
X143096444Y-108604545D01*
X143096444Y-109736776D01*
X143316813Y-109858907D01*
X143818995Y-109620825D01*
X144191841Y-109208689D01*
X144198761Y-109191984D01*
X145167309Y-110160532D01*
X145111569Y-110242110D01*
X145060560Y-110494000D01*
X145060560Y-110994000D01*
X145097360Y-111189576D01*
X145046118Y-111065560D01*
X144783328Y-110802311D01*
X144439800Y-110659665D01*
X144067834Y-110659341D01*
X143724058Y-110801386D01*
X143556806Y-110968346D01*
X143385465Y-110968197D01*
X143041689Y-111110242D01*
X142778440Y-111373032D01*
X142648283Y-111686483D01*
X142590688Y-111710281D01*
X142557513Y-111743398D01*
X140301302Y-111743398D01*
X140010462Y-111801250D01*
X139763901Y-111965997D01*
X137760481Y-113969417D01*
X137730200Y-113956843D01*
X137174439Y-113956358D01*
X136660797Y-114168590D01*
X136267471Y-114561230D01*
X136054343Y-115074500D01*
X136053858Y-115630261D01*
X136266090Y-116143903D01*
X136658730Y-116537229D01*
X137172000Y-116750357D01*
X137727761Y-116750842D01*
X138241403Y-116538610D01*
X138634729Y-116145970D01*
X138847857Y-115632700D01*
X138848342Y-115076939D01*
X138834957Y-115044545D01*
X139444110Y-114435392D01*
X139443845Y-114739167D01*
X139585890Y-115082943D01*
X139848680Y-115346192D01*
X140192208Y-115488838D01*
X140564174Y-115489162D01*
X140907950Y-115347117D01*
X141171199Y-115084327D01*
X141301939Y-114769472D01*
X143407821Y-114769472D01*
X143182753Y-114862468D01*
X142919504Y-115125258D01*
X142776858Y-115468786D01*
X142776534Y-115840752D01*
X142918579Y-116184528D01*
X143181369Y-116447777D01*
X143524897Y-116590423D01*
X143896863Y-116590747D01*
X144157513Y-116483049D01*
X144214824Y-116494449D01*
X146184788Y-116494449D01*
X145901067Y-116611680D01*
X145867892Y-116644797D01*
X140283073Y-116644797D01*
X139992234Y-116702649D01*
X139745672Y-116867396D01*
X139361893Y-117251175D01*
X139316406Y-117251135D01*
X138972630Y-117393180D01*
X138709381Y-117655970D01*
X138566735Y-117999498D01*
X138566411Y-118371464D01*
X138708456Y-118715240D01*
X138971246Y-118978489D01*
X139314774Y-119121135D01*
X139686740Y-119121459D01*
X140030516Y-118979414D01*
X140293765Y-118716624D01*
X140436411Y-118373096D01*
X140436452Y-118326220D01*
X140597875Y-118164797D01*
X145808146Y-118164797D01*
X141982943Y-121990000D01*
X138101563Y-121990000D01*
X137901890Y-121853569D01*
X137650000Y-121802560D01*
X137250000Y-121802560D01*
X137014683Y-121846838D01*
X137003021Y-121854342D01*
X137001890Y-121853569D01*
X136750000Y-121802560D01*
X136381013Y-121802560D01*
X136314090Y-121698559D01*
X136101890Y-121553569D01*
X135850000Y-121502560D01*
X134650000Y-121502560D01*
X134414683Y-121546838D01*
X134198559Y-121685910D01*
X134150866Y-121755711D01*
X134114090Y-121698559D01*
X133901890Y-121553569D01*
X133650000Y-121502560D01*
X132450000Y-121502560D01*
X132214683Y-121546838D01*
X131998559Y-121685910D01*
X131853569Y-121898110D01*
X131802560Y-122150000D01*
X131802560Y-123350000D01*
X131846838Y-123585317D01*
X131849168Y-123588938D01*
X131836069Y-123608110D01*
X131785060Y-123860000D01*
X131785060Y-125060000D01*
X131829338Y-125295317D01*
X131883734Y-125379850D01*
X131836069Y-125449610D01*
X131785060Y-125701500D01*
X131785060Y-126901500D01*
X131829338Y-127136817D01*
X131883734Y-127221350D01*
X131836069Y-127291110D01*
X131785060Y-127543000D01*
X131785060Y-128743000D01*
X131829338Y-128978317D01*
X131968410Y-129194441D01*
X132180610Y-129339431D01*
X132272500Y-129358039D01*
X132272500Y-131886166D01*
X132186057Y-131921883D01*
X131922808Y-132184673D01*
X131780162Y-132528201D01*
X131779838Y-132900167D01*
X131921883Y-133243943D01*
X132184673Y-133507192D01*
X132528201Y-133649838D01*
X132900167Y-133650162D01*
X133243943Y-133508117D01*
X133507192Y-133245327D01*
X133649838Y-132901799D01*
X133649913Y-132815154D01*
X133734648Y-132688339D01*
X133792500Y-132397500D01*
X133792500Y-129360334D01*
X133867817Y-129346162D01*
X134083941Y-129207090D01*
X134131634Y-129137289D01*
X134168410Y-129194441D01*
X134380610Y-129339431D01*
X134632500Y-129390440D01*
X135832500Y-129390440D01*
X136067817Y-129346162D01*
X136283941Y-129207090D01*
X136288764Y-129200032D01*
X136225162Y-129353201D01*
X136224838Y-129725167D01*
X136366883Y-130068943D01*
X136629673Y-130332192D01*
X136973201Y-130474838D01*
X137345167Y-130475162D01*
X137688943Y-130333117D01*
X137952192Y-130070327D01*
X138094838Y-129726799D01*
X138095162Y-129354833D01*
X137967893Y-129046817D01*
X138096998Y-129072498D01*
X138847207Y-129072498D01*
X138785247Y-129134350D01*
X138642601Y-129477878D01*
X138642277Y-129849844D01*
X138784322Y-130193620D01*
X138828806Y-130238182D01*
X138640437Y-130316014D01*
X138377188Y-130578804D01*
X138234542Y-130922332D01*
X138234218Y-131294298D01*
X138376263Y-131638074D01*
X138454925Y-131716873D01*
X135873299Y-134298499D01*
X135708552Y-134545061D01*
X135650700Y-134835900D01*
X135650700Y-135151560D01*
X135120500Y-135151560D01*
X134885183Y-135195838D01*
X134669059Y-135334910D01*
X134632101Y-135389000D01*
X133311257Y-135389000D01*
X133284590Y-135347559D01*
X133072390Y-135202569D01*
X132820500Y-135151560D01*
X132170500Y-135151560D01*
X131935183Y-135195838D01*
X131719059Y-135334910D01*
X131574069Y-135547110D01*
X131523060Y-135799000D01*
X131523060Y-136001560D01*
X131068000Y-136001560D01*
X130832683Y-136045838D01*
X130616559Y-136184910D01*
X130613764Y-136189000D01*
X130386000Y-136189000D01*
X130204890Y-136225025D01*
X129989833Y-136224838D01*
X129646057Y-136366883D01*
X129382808Y-136629673D01*
X129240162Y-136973201D01*
X129240090Y-137055288D01*
X128143559Y-135958757D01*
X128157236Y-135890000D01*
X128070839Y-135455654D01*
X127824802Y-135087434D01*
X127456582Y-134841397D01*
X127022236Y-134755000D01*
X126977764Y-134755000D01*
X126543418Y-134841397D01*
X126175198Y-135087434D01*
X125929161Y-135455654D01*
X125842764Y-135890000D01*
X125929161Y-136324346D01*
X126063234Y-136525000D01*
X125929161Y-136725654D01*
X125842764Y-137160000D01*
X125929161Y-137594346D01*
X125944805Y-137617759D01*
X125903569Y-137678110D01*
X125852560Y-137930000D01*
X125852560Y-138930000D01*
X125896838Y-139165317D01*
X126035910Y-139381441D01*
X126248110Y-139526431D01*
X126500000Y-139577440D01*
X127500000Y-139577440D01*
X127735317Y-139533162D01*
X127951441Y-139394090D01*
X128018000Y-139296678D01*
X128018000Y-141169537D01*
X127985808Y-141201673D01*
X127843162Y-141545201D01*
X127842838Y-141917167D01*
X127984883Y-142260943D01*
X128247673Y-142524192D01*
X128591201Y-142666838D01*
X128963167Y-142667162D01*
X129306943Y-142525117D01*
X129570192Y-142262327D01*
X129712838Y-141918799D01*
X129713162Y-141546833D01*
X129571117Y-141203057D01*
X129538000Y-141169882D01*
X129538000Y-137845333D01*
X129644673Y-137952192D01*
X129988201Y-138094838D01*
X130360167Y-138095162D01*
X130420560Y-138070208D01*
X130420560Y-138349000D01*
X130464838Y-138584317D01*
X130603910Y-138800441D01*
X130816110Y-138945431D01*
X131068000Y-138996440D01*
X131568000Y-138996440D01*
X131803317Y-138952162D01*
X131830080Y-138934941D01*
X131918610Y-138995431D01*
X132170500Y-139046440D01*
X132820500Y-139046440D01*
X133055817Y-139002162D01*
X133271941Y-138863090D01*
X133308899Y-138809000D01*
X134629743Y-138809000D01*
X134656410Y-138850441D01*
X134685500Y-138870317D01*
X134685500Y-138982732D01*
X134743352Y-139273571D01*
X134762544Y-139302293D01*
X134762441Y-139420002D01*
X134848165Y-139627470D01*
X134624088Y-139720057D01*
X134509307Y-139834638D01*
X134180090Y-139834351D01*
X134119662Y-139859319D01*
X133789290Y-139722136D01*
X133417324Y-139721812D01*
X133174489Y-139822149D01*
X133039029Y-139765901D01*
X132832852Y-139765721D01*
X132610327Y-139542808D01*
X132266799Y-139400162D01*
X131894833Y-139399838D01*
X131551057Y-139541883D01*
X131287808Y-139804673D01*
X131145162Y-140148201D01*
X131144838Y-140520167D01*
X131286883Y-140863943D01*
X131320000Y-140897118D01*
X131320000Y-149860000D01*
X131377852Y-150150839D01*
X131542599Y-150397401D01*
X132414878Y-151269680D01*
X132414838Y-151315167D01*
X132437283Y-151369489D01*
X130723655Y-151369489D01*
X130724794Y-151366745D01*
X130725206Y-150895323D01*
X130545180Y-150459628D01*
X130212125Y-150125991D01*
X129776745Y-149945206D01*
X129305323Y-149944794D01*
X128869628Y-150124820D01*
X128535991Y-150457875D01*
X128516502Y-150504811D01*
X128510072Y-150472486D01*
X128296547Y-150152923D01*
X128450931Y-150053580D01*
X128595921Y-149841380D01*
X128646930Y-149589490D01*
X128646930Y-149372678D01*
X128867875Y-149594009D01*
X129303255Y-149774794D01*
X129774677Y-149775206D01*
X130210372Y-149595180D01*
X130544009Y-149262125D01*
X130724794Y-148826745D01*
X130725206Y-148355323D01*
X130545180Y-147919628D01*
X130212125Y-147585991D01*
X129776745Y-147405206D01*
X129305323Y-147404794D01*
X128869628Y-147584820D01*
X128646930Y-147807130D01*
X128646930Y-147590510D01*
X128602652Y-147355193D01*
X128463580Y-147139069D01*
X128251380Y-146994079D01*
X127999490Y-146943070D01*
X126000510Y-146943070D01*
X125765193Y-146987348D01*
X125549069Y-147126420D01*
X125404079Y-147338620D01*
X125353070Y-147590510D01*
X125353070Y-149589490D01*
X125397348Y-149824807D01*
X125536420Y-150040931D01*
X125702473Y-150154390D01*
X125489928Y-150472486D01*
X125365510Y-151097978D01*
X125365510Y-151162022D01*
X125489928Y-151787514D01*
X125844241Y-152317781D01*
X126374508Y-152672094D01*
X127000000Y-152796512D01*
X127505575Y-152695947D01*
X127708650Y-152831637D01*
X127999489Y-152889489D01*
X132415126Y-152889489D01*
X132415121Y-152895077D01*
X132377099Y-152933099D01*
X132212352Y-153179661D01*
X132154500Y-153470500D01*
X132154500Y-154118060D01*
X131566500Y-154118060D01*
X131331183Y-154162338D01*
X131115059Y-154301410D01*
X130970069Y-154513610D01*
X130944451Y-154640116D01*
X130624833Y-154639838D01*
X130281057Y-154781883D01*
X130017808Y-155044673D01*
X129875162Y-155388201D01*
X129874838Y-155760167D01*
X130016883Y-156103943D01*
X130279673Y-156367192D01*
X130623201Y-156509838D01*
X130919060Y-156510096D01*
X130919060Y-156765500D01*
X130963338Y-157000817D01*
X131102410Y-157216941D01*
X131206695Y-157288196D01*
X131184560Y-157397500D01*
X131184560Y-158197500D01*
X131228838Y-158432817D01*
X131296200Y-158537500D01*
X131207131Y-158537500D01*
X130996799Y-158450162D01*
X130624833Y-158449838D01*
X130281057Y-158591883D01*
X130017808Y-158854673D01*
X129875162Y-159198201D01*
X129874838Y-159570167D01*
X130016883Y-159913943D01*
X130279673Y-160177192D01*
X130623201Y-160319838D01*
X130995167Y-160320162D01*
X131338943Y-160178117D01*
X131368064Y-160149046D01*
X131580110Y-160293931D01*
X131832000Y-160344940D01*
X132582000Y-160344940D01*
X132817317Y-160300662D01*
X133033441Y-160161590D01*
X133104563Y-160057500D01*
X133235504Y-160057500D01*
X133526343Y-159999648D01*
X133772905Y-159834901D01*
X133950765Y-159657041D01*
X134089673Y-159796192D01*
X134433201Y-159938838D01*
X134805167Y-159939162D01*
X135148943Y-159797117D01*
X135412192Y-159534327D01*
X135554838Y-159190799D01*
X135555162Y-158818833D01*
X135501600Y-158689202D01*
X135792401Y-158398401D01*
X135957148Y-158151839D01*
X136015000Y-157861000D01*
X136015000Y-157508003D01*
X135957148Y-157217164D01*
X135792401Y-156970602D01*
X135738300Y-156916501D01*
X137014534Y-155640267D01*
X137050850Y-155822839D01*
X137215597Y-156069401D01*
X138909597Y-157763401D01*
X139156159Y-157928148D01*
X139446998Y-157986000D01*
X141621684Y-157986000D01*
X141912523Y-157928148D01*
X142159085Y-157763401D01*
X142646018Y-157276468D01*
X142810765Y-157029907D01*
X142868617Y-156739067D01*
X142868617Y-155827000D01*
X144743500Y-155827000D01*
X145034339Y-155769148D01*
X145280901Y-155604401D01*
X147121956Y-153763347D01*
X147691375Y-154332766D01*
X147691335Y-154378253D01*
X147833380Y-154722029D01*
X148096170Y-154985278D01*
X148439698Y-155127924D01*
X148811664Y-155128248D01*
X149155440Y-154986203D01*
X149418689Y-154723413D01*
X149561335Y-154379885D01*
X149561659Y-154007919D01*
X149501604Y-153862574D01*
X149795998Y-154156968D01*
X149795998Y-154900720D01*
X149034718Y-155662000D01*
X148529563Y-155662000D01*
X148329890Y-155525569D01*
X148078000Y-155474560D01*
X147578000Y-155474560D01*
X147342683Y-155518838D01*
X147126559Y-155657910D01*
X146981569Y-155870110D01*
X146930560Y-156122000D01*
X146930560Y-156722000D01*
X146974838Y-156957317D01*
X146982342Y-156968979D01*
X146981569Y-156970110D01*
X146930560Y-157222000D01*
X146930560Y-157822000D01*
X146931184Y-157825319D01*
X146727921Y-157961134D01*
X146557755Y-158215807D01*
X146515667Y-158427394D01*
X146445489Y-158380502D01*
X146154650Y-158322650D01*
X146069940Y-158322650D01*
X146037804Y-158290458D01*
X145694276Y-158147812D01*
X145322310Y-158147488D01*
X144978534Y-158289533D01*
X144780425Y-158487297D01*
X144737451Y-158478749D01*
X144297466Y-158478749D01*
X144265330Y-158446557D01*
X143921802Y-158303911D01*
X143549836Y-158303587D01*
X143206060Y-158445632D01*
X142942811Y-158708422D01*
X142869135Y-158885853D01*
X142668504Y-158968752D01*
X142405255Y-159231542D01*
X142262609Y-159575070D01*
X142262285Y-159947036D01*
X142404330Y-160290812D01*
X142667120Y-160554061D01*
X143010648Y-160696707D01*
X143274793Y-160696937D01*
X143396780Y-160721202D01*
X144136445Y-160721202D01*
X144192056Y-161000775D01*
X144226757Y-161052709D01*
X144195027Y-161084384D01*
X144052381Y-161427912D01*
X144052121Y-161726866D01*
X143801042Y-161676923D01*
X139517777Y-161676923D01*
X139226938Y-161734775D01*
X138980376Y-161899522D01*
X137760481Y-163119417D01*
X137730200Y-163106843D01*
X137174439Y-163106358D01*
X136660797Y-163318590D01*
X136267471Y-163711230D01*
X136054343Y-164224500D01*
X136053858Y-164780261D01*
X136266090Y-165293903D01*
X136658730Y-165687229D01*
X137172000Y-165900357D01*
X137727761Y-165900842D01*
X138241403Y-165688610D01*
X138634729Y-165295970D01*
X138847857Y-164782700D01*
X138848342Y-164226939D01*
X138834957Y-164194545D01*
X139832579Y-163196923D01*
X141702766Y-163196923D01*
X141702620Y-163364859D01*
X141844665Y-163708635D01*
X141851760Y-163715742D01*
X141779637Y-163745543D01*
X141516388Y-164008333D01*
X141373742Y-164351861D01*
X141373701Y-164398737D01*
X136913699Y-168858739D01*
X136748952Y-169105301D01*
X136691100Y-169396140D01*
X136691100Y-171306069D01*
X136660797Y-171318590D01*
X136267471Y-171711230D01*
X136054343Y-172224500D01*
X136053858Y-172780261D01*
X136266090Y-173293903D01*
X136658730Y-173687229D01*
X137172000Y-173900357D01*
X137727761Y-173900842D01*
X138241403Y-173688610D01*
X138634729Y-173295970D01*
X138847857Y-172782700D01*
X138848342Y-172226939D01*
X138636110Y-171713297D01*
X138243470Y-171319971D01*
X138211100Y-171306530D01*
X138211100Y-169710942D01*
X142448260Y-165473782D01*
X142493747Y-165473822D01*
X142837523Y-165331777D01*
X142959900Y-165209614D01*
X143285791Y-165535505D01*
X142941715Y-165603946D01*
X142459946Y-165925853D01*
X142138039Y-166407622D01*
X142025000Y-166975907D01*
X142025000Y-167034093D01*
X142138039Y-167602378D01*
X142459946Y-168084147D01*
X142745578Y-168275000D01*
X142459946Y-168465853D01*
X142138039Y-168947622D01*
X142025000Y-169515907D01*
X142025000Y-169574093D01*
X142138039Y-170142378D01*
X142459946Y-170624147D01*
X142941715Y-170946054D01*
X143510000Y-171059093D01*
X144078285Y-170946054D01*
X144560054Y-170624147D01*
X144780000Y-170294974D01*
X144999946Y-170624147D01*
X145481715Y-170946054D01*
X146050000Y-171059093D01*
X146618285Y-170946054D01*
X146711283Y-170883915D01*
X146451296Y-171143902D01*
X146249683Y-171181838D01*
X146033559Y-171320910D01*
X146009106Y-171356698D01*
X145945327Y-171292808D01*
X145601799Y-171150162D01*
X145229833Y-171149838D01*
X144886057Y-171291883D01*
X144622808Y-171554673D01*
X144480162Y-171898201D01*
X144479838Y-172270167D01*
X144621883Y-172613943D01*
X144884673Y-172877192D01*
X145228201Y-173019838D01*
X145275077Y-173019879D01*
X145280220Y-173025022D01*
X145130426Y-173125111D01*
X144889809Y-173485221D01*
X144805315Y-173910000D01*
X144889809Y-174334779D01*
X145130426Y-174694889D01*
X145490536Y-174935506D01*
X145915315Y-175020000D01*
X146264685Y-175020000D01*
X146575542Y-174958167D01*
X146625910Y-175036441D01*
X146838110Y-175181431D01*
X147090000Y-175232440D01*
X147490000Y-175232440D01*
X147619589Y-175208056D01*
X147740000Y-175232440D01*
X148140000Y-175232440D01*
X148269589Y-175208056D01*
X148390000Y-175232440D01*
X148790000Y-175232440D01*
X148919589Y-175208056D01*
X149040000Y-175232440D01*
X149440000Y-175232440D01*
X149569589Y-175208056D01*
X149690000Y-175232440D01*
X150090000Y-175232440D01*
X150325317Y-175188162D01*
X150541441Y-175049090D01*
X150603673Y-174958010D01*
X150915315Y-175020000D01*
X151264685Y-175020000D01*
X151689464Y-174935506D01*
X151814215Y-174852150D01*
X162790796Y-174852150D01*
X163058175Y-175499257D01*
X163552839Y-175994785D01*
X164199479Y-176263293D01*
X164899650Y-176263904D01*
X165546757Y-175996525D01*
X166042285Y-175501861D01*
X166310793Y-174855221D01*
X166311404Y-174155050D01*
X166044025Y-173507943D01*
X165549361Y-173012415D01*
X164902721Y-172743907D01*
X164202550Y-172743296D01*
X163555443Y-173010675D01*
X163059915Y-173505339D01*
X162791407Y-174151979D01*
X162790796Y-174852150D01*
X151814215Y-174852150D01*
X152049574Y-174694889D01*
X152290191Y-174334779D01*
X152374685Y-173910000D01*
X152290191Y-173485221D01*
X152049574Y-173125111D01*
X151689464Y-172884494D01*
X151264685Y-172800000D01*
X150915315Y-172800000D01*
X150799774Y-172822983D01*
X150842570Y-172780261D01*
X158153858Y-172780261D01*
X158366090Y-173293903D01*
X158758730Y-173687229D01*
X159272000Y-173900357D01*
X159827761Y-173900842D01*
X160341403Y-173688610D01*
X160734729Y-173295970D01*
X160947857Y-172782700D01*
X160948342Y-172226939D01*
X160736110Y-171713297D01*
X160343470Y-171319971D01*
X159830200Y-171106843D01*
X159274439Y-171106358D01*
X158760797Y-171318590D01*
X158367471Y-171711230D01*
X158154343Y-172224500D01*
X158153858Y-172780261D01*
X150842570Y-172780261D01*
X151007792Y-172615327D01*
X151150438Y-172271799D01*
X151150762Y-171899833D01*
X151008717Y-171556057D01*
X150745927Y-171292808D01*
X150402399Y-171150162D01*
X150030433Y-171149838D01*
X149994929Y-171164508D01*
X150338007Y-170821430D01*
X150349482Y-170804256D01*
X150363076Y-170816645D01*
X150773110Y-170986476D01*
X151003000Y-170865155D01*
X151003000Y-169672000D01*
X150983000Y-169672000D01*
X150983000Y-169418000D01*
X151003000Y-169418000D01*
X151003000Y-169398000D01*
X151257000Y-169398000D01*
X151257000Y-169418000D01*
X151277000Y-169418000D01*
X151277000Y-169672000D01*
X151257000Y-169672000D01*
X151257000Y-170865155D01*
X151486890Y-170986476D01*
X151896924Y-170816645D01*
X152325183Y-170426358D01*
X152392298Y-170283447D01*
X152619946Y-170624147D01*
X153101715Y-170946054D01*
X153670000Y-171059093D01*
X154238285Y-170946054D01*
X154720054Y-170624147D01*
X154933301Y-170305000D01*
X155089580Y-170305000D01*
X155181212Y-170343049D01*
X155553178Y-170343373D01*
X155896954Y-170201328D01*
X156160203Y-169938538D01*
X156302849Y-169595010D01*
X156303173Y-169223044D01*
X156241453Y-169073670D01*
X156710026Y-169073670D01*
X157000865Y-169015818D01*
X157247427Y-168851071D01*
X158713399Y-167385099D01*
X158859550Y-167166368D01*
X158878146Y-167138537D01*
X158935998Y-166847698D01*
X158935998Y-165760837D01*
X159272000Y-165900357D01*
X159827761Y-165900842D01*
X160341403Y-165688610D01*
X160734729Y-165295970D01*
X160947857Y-164782700D01*
X160948342Y-164226939D01*
X160736110Y-163713297D01*
X160343470Y-163319971D01*
X159830200Y-163106843D01*
X159274439Y-163106358D01*
X158935998Y-163246199D01*
X158935998Y-162852150D01*
X162790796Y-162852150D01*
X163058175Y-163499257D01*
X163552839Y-163994785D01*
X164199479Y-164263293D01*
X164899650Y-164263904D01*
X165546757Y-163996525D01*
X166042285Y-163501861D01*
X166310793Y-162855221D01*
X166311404Y-162155050D01*
X166044025Y-161507943D01*
X165549361Y-161012415D01*
X164902721Y-160743907D01*
X164202550Y-160743296D01*
X163555443Y-161010675D01*
X163059915Y-161505339D01*
X162791407Y-162151979D01*
X162790796Y-162852150D01*
X158935998Y-162852150D01*
X158935998Y-153825750D01*
X167670000Y-153825750D01*
X167670000Y-154016309D01*
X167766673Y-154249698D01*
X167945301Y-154428327D01*
X168178690Y-154525000D01*
X168657560Y-154525000D01*
X168657560Y-155440000D01*
X168701838Y-155675317D01*
X168840910Y-155891441D01*
X169053110Y-156036431D01*
X169305000Y-156087440D01*
X170105000Y-156087440D01*
X170340317Y-156043162D01*
X170556441Y-155904090D01*
X170701431Y-155691890D01*
X170752440Y-155440000D01*
X170752440Y-154440000D01*
X170708162Y-154204683D01*
X170569090Y-153988559D01*
X170440000Y-153900356D01*
X170440000Y-153825750D01*
X170411539Y-153797289D01*
X170598233Y-153874811D01*
X171029873Y-153875188D01*
X171428800Y-153710354D01*
X171734282Y-153405405D01*
X171899811Y-153006767D01*
X171900188Y-152575127D01*
X171735354Y-152176200D01*
X171430405Y-151870718D01*
X171031767Y-151705189D01*
X170600127Y-151704812D01*
X170201200Y-151869646D01*
X169895718Y-152174595D01*
X169737760Y-152555000D01*
X169340750Y-152555000D01*
X169182000Y-152713750D01*
X169182000Y-153413000D01*
X169202000Y-153413000D01*
X169202000Y-153667000D01*
X169182000Y-153667000D01*
X169182000Y-153687000D01*
X168928000Y-153687000D01*
X168928000Y-153667000D01*
X167828750Y-153667000D01*
X167670000Y-153825750D01*
X158935998Y-153825750D01*
X158935998Y-153063691D01*
X167670000Y-153063691D01*
X167670000Y-153254250D01*
X167828750Y-153413000D01*
X168928000Y-153413000D01*
X168928000Y-152713750D01*
X168769250Y-152555000D01*
X168178690Y-152555000D01*
X167945301Y-152651673D01*
X167766673Y-152830302D01*
X167670000Y-153063691D01*
X158935998Y-153063691D01*
X158935998Y-149233994D01*
X158900777Y-149056926D01*
X159163252Y-149319401D01*
X159409813Y-149484148D01*
X159700653Y-149542000D01*
X160496500Y-149542000D01*
X160787339Y-149484148D01*
X161033901Y-149319401D01*
X161173862Y-149179440D01*
X161246500Y-149179440D01*
X161481817Y-149135162D01*
X161697941Y-148996090D01*
X161744469Y-148927994D01*
X161886802Y-149070327D01*
X162120191Y-149167000D01*
X162212750Y-149167000D01*
X162371500Y-149008250D01*
X162371500Y-148209000D01*
X162349500Y-148209000D01*
X162349500Y-147955000D01*
X162360437Y-147955000D01*
X162686127Y-148090239D01*
X162820000Y-148090356D01*
X162820000Y-148209000D01*
X162621500Y-148209000D01*
X162621500Y-149008250D01*
X162780250Y-149167000D01*
X162872809Y-149167000D01*
X163106198Y-149070327D01*
X163138362Y-149038163D01*
X163328690Y-149117000D01*
X163544250Y-149117000D01*
X163703000Y-148958250D01*
X163703000Y-148209000D01*
X163957000Y-148209000D01*
X163957000Y-148958250D01*
X164115750Y-149117000D01*
X164331310Y-149117000D01*
X164564699Y-149020327D01*
X164743327Y-148841698D01*
X164840000Y-148608309D01*
X164840000Y-148367750D01*
X164681250Y-148209000D01*
X163957000Y-148209000D01*
X163703000Y-148209000D01*
X163683000Y-148209000D01*
X163683000Y-147955000D01*
X163703000Y-147955000D01*
X163703000Y-147935000D01*
X163957000Y-147935000D01*
X163957000Y-147955000D01*
X164681250Y-147955000D01*
X164840000Y-147796250D01*
X164840000Y-147776562D01*
X164923551Y-147776635D01*
X165096011Y-147705376D01*
X165096011Y-147741011D01*
X165153863Y-148031850D01*
X165318610Y-148278412D01*
X167657560Y-150617362D01*
X167657560Y-150890000D01*
X167701838Y-151125317D01*
X167840910Y-151341441D01*
X168053110Y-151486431D01*
X168305000Y-151537440D01*
X169805000Y-151537440D01*
X170040317Y-151493162D01*
X170256441Y-151354090D01*
X170401431Y-151141890D01*
X170452440Y-150890000D01*
X170452440Y-150814272D01*
X170598233Y-150874811D01*
X171029873Y-150875188D01*
X171428800Y-150710354D01*
X171734282Y-150405405D01*
X171899811Y-150006767D01*
X171900188Y-149575127D01*
X171735354Y-149176200D01*
X171430405Y-148870718D01*
X171031767Y-148705189D01*
X170600127Y-148704812D01*
X170452440Y-148765835D01*
X170452440Y-148690000D01*
X170449253Y-148673063D01*
X170556441Y-148604090D01*
X170701431Y-148391890D01*
X170752440Y-148140000D01*
X170752440Y-147140000D01*
X170708162Y-146904683D01*
X170569090Y-146688559D01*
X170356890Y-146543569D01*
X170105000Y-146492560D01*
X169305000Y-146492560D01*
X169069683Y-146536838D01*
X168853559Y-146675910D01*
X168708569Y-146888110D01*
X168657560Y-147140000D01*
X168657560Y-147644356D01*
X168641839Y-147633852D01*
X168351000Y-147576000D01*
X168075463Y-147576000D01*
X168043327Y-147543808D01*
X167699799Y-147401162D01*
X167327833Y-147400838D01*
X166984057Y-147542883D01*
X166858261Y-147668459D01*
X166616011Y-147426209D01*
X166616011Y-145332968D01*
X166606862Y-145286973D01*
X166558159Y-145042128D01*
X166393412Y-144795567D01*
X164713610Y-143115765D01*
X164713650Y-143070278D01*
X164571605Y-142726502D01*
X164308815Y-142463253D01*
X163965287Y-142320607D01*
X163593321Y-142320283D01*
X163249545Y-142462328D01*
X162986296Y-142725118D01*
X162843650Y-143068646D01*
X162843326Y-143440612D01*
X162985371Y-143784388D01*
X163248161Y-144047637D01*
X163591689Y-144190283D01*
X163638565Y-144190324D01*
X165096011Y-145647770D01*
X165096011Y-145977569D01*
X164925183Y-145906635D01*
X164805800Y-145906531D01*
X164739954Y-145840685D01*
X164669090Y-145730559D01*
X164545129Y-145645860D01*
X164218569Y-145319300D01*
X164218609Y-145273813D01*
X164076564Y-144930037D01*
X163813774Y-144666788D01*
X163470246Y-144524142D01*
X163098280Y-144523818D01*
X162754504Y-144665863D01*
X162491255Y-144928653D01*
X162480522Y-144954501D01*
X162395696Y-144869675D01*
X162162307Y-144773002D01*
X162061748Y-144773002D01*
X161903000Y-144931750D01*
X161903000Y-144773002D01*
X161844007Y-144773002D01*
X161844162Y-144594833D01*
X161702117Y-144251057D01*
X161496860Y-144045442D01*
X161526302Y-144016000D01*
X161798000Y-144016000D01*
X162088839Y-143958148D01*
X162335401Y-143793401D01*
X162462401Y-143666401D01*
X162627148Y-143419839D01*
X162685000Y-143129000D01*
X162685000Y-140208000D01*
X162628924Y-139926090D01*
X162627148Y-139917160D01*
X162462401Y-139670599D01*
X161336122Y-138544320D01*
X161336162Y-138498833D01*
X161194117Y-138155057D01*
X160931327Y-137891808D01*
X160587799Y-137749162D01*
X160215833Y-137748838D01*
X159872057Y-137890883D01*
X159608808Y-138153673D01*
X159466162Y-138497201D01*
X159465838Y-138869167D01*
X159547506Y-139066819D01*
X159514000Y-139235264D01*
X159514000Y-140022560D01*
X159174000Y-140022560D01*
X159124952Y-140031789D01*
X159052090Y-139918559D01*
X158839890Y-139773569D01*
X158588000Y-139722560D01*
X157866760Y-139722560D01*
X157866794Y-139683753D01*
X157724749Y-139339977D01*
X157688314Y-139303478D01*
X159831792Y-137160000D01*
X169022764Y-137160000D01*
X169109161Y-137594346D01*
X169243234Y-137795000D01*
X169109161Y-137995654D01*
X169022764Y-138430000D01*
X169109161Y-138864346D01*
X169355198Y-139232566D01*
X169723418Y-139478603D01*
X170157764Y-139565000D01*
X170202236Y-139565000D01*
X170636582Y-139478603D01*
X171004802Y-139232566D01*
X171250839Y-138864346D01*
X171337236Y-138430000D01*
X171250839Y-137995654D01*
X171116766Y-137795000D01*
X171250839Y-137594346D01*
X171337236Y-137160000D01*
X171250839Y-136725654D01*
X171235195Y-136702241D01*
X171276431Y-136641890D01*
X171327440Y-136390000D01*
X171327440Y-135390000D01*
X171283162Y-135154683D01*
X171144090Y-134938559D01*
X170931890Y-134793569D01*
X170680000Y-134742560D01*
X169680000Y-134742560D01*
X169444683Y-134786838D01*
X169228559Y-134925910D01*
X169083569Y-135138110D01*
X169032560Y-135390000D01*
X169032560Y-136390000D01*
X169076838Y-136625317D01*
X169125586Y-136701073D01*
X169109161Y-136725654D01*
X169022764Y-137160000D01*
X159831792Y-137160000D01*
X160043412Y-136948380D01*
X160208159Y-136701818D01*
X160266011Y-136410979D01*
X160266011Y-133510415D01*
X160319467Y-133510462D01*
X160663243Y-133368417D01*
X160926492Y-133105627D01*
X161069138Y-132762099D01*
X161069462Y-132390133D01*
X160939352Y-132075242D01*
X161077516Y-132075362D01*
X161421292Y-131933317D01*
X161684541Y-131670527D01*
X161827187Y-131326999D01*
X161827228Y-131280123D01*
X163535626Y-129571725D01*
X163700373Y-129325163D01*
X163758225Y-129034324D01*
X163758225Y-118930069D01*
X164199479Y-119113293D01*
X164899650Y-119113904D01*
X165546757Y-118846525D01*
X166042285Y-118351861D01*
X166310793Y-117705221D01*
X166311404Y-117005050D01*
X166044025Y-116357943D01*
X165549361Y-115862415D01*
X164902721Y-115593907D01*
X164202550Y-115593296D01*
X163758225Y-115776887D01*
X163758225Y-106930069D01*
X164199479Y-107113293D01*
X164899650Y-107113904D01*
X165546757Y-106846525D01*
X166042285Y-106351861D01*
X166310793Y-105705221D01*
X166311404Y-105005050D01*
X166044025Y-104357943D01*
X165549361Y-103862415D01*
X164902721Y-103593907D01*
X164202550Y-103593296D01*
X163758225Y-103776887D01*
X163758225Y-100273865D01*
X163793114Y-100358303D01*
X164185754Y-100751629D01*
X164699024Y-100964757D01*
X165254785Y-100965242D01*
X165287179Y-100951857D01*
X166880000Y-102544678D01*
X166880000Y-103378000D01*
X166937852Y-103668839D01*
X167102599Y-103915401D01*
X167349161Y-104080148D01*
X167640000Y-104138000D01*
X169277634Y-104138000D01*
X169059915Y-104355339D01*
X168791407Y-105001979D01*
X168790796Y-105702150D01*
X169058175Y-106349257D01*
X169552839Y-106844785D01*
X170199479Y-107113293D01*
X170899650Y-107113904D01*
X171546757Y-106846525D01*
X172010000Y-106384090D01*
X172010000Y-116323859D01*
X171549361Y-115862415D01*
X170902721Y-115593907D01*
X170202550Y-115593296D01*
X169555443Y-115860675D01*
X169059915Y-116355339D01*
X168791407Y-117001979D01*
X168790796Y-117702150D01*
X169058175Y-118349257D01*
X169552839Y-118844785D01*
X170199479Y-119113293D01*
X170899650Y-119113904D01*
X171546757Y-118846525D01*
X172010000Y-118384090D01*
X172010000Y-146492560D01*
X171515000Y-146492560D01*
X171279683Y-146536838D01*
X171063559Y-146675910D01*
X170918569Y-146888110D01*
X170867560Y-147140000D01*
X170867560Y-148140000D01*
X170911838Y-148375317D01*
X171050910Y-148591441D01*
X171263110Y-148736431D01*
X171515000Y-148787440D01*
X172010000Y-148787440D01*
X172010000Y-153792560D01*
X171515000Y-153792560D01*
X171279683Y-153836838D01*
X171063559Y-153975910D01*
X170918569Y-154188110D01*
X170867560Y-154440000D01*
X170867560Y-155440000D01*
X170911838Y-155675317D01*
X171050910Y-155891441D01*
X171263110Y-156036431D01*
X171515000Y-156087440D01*
X172010000Y-156087440D01*
X172010000Y-161473859D01*
X171549361Y-161012415D01*
X170902721Y-160743907D01*
X170202550Y-160743296D01*
X169555443Y-161010675D01*
X169059915Y-161505339D01*
X168791407Y-162151979D01*
X168790796Y-162852150D01*
X169058175Y-163499257D01*
X169552839Y-163994785D01*
X170199479Y-164263293D01*
X170899650Y-164263904D01*
X171546757Y-163996525D01*
X172010000Y-163534090D01*
X172010000Y-173473859D01*
X171549361Y-173012415D01*
X170902721Y-172743907D01*
X170202550Y-172743296D01*
X169555443Y-173010675D01*
X169059915Y-173505339D01*
X168791407Y-174151979D01*
X168790796Y-174852150D01*
X169058175Y-175499257D01*
X169552839Y-175994785D01*
X170199479Y-176263293D01*
X170899650Y-176263904D01*
X171546757Y-175996525D01*
X172010000Y-175534090D01*
X172010000Y-177090000D01*
X153189718Y-177090000D01*
X153225000Y-176912624D01*
X153225000Y-176307376D01*
X153138603Y-175873030D01*
X152892566Y-175504810D01*
X152524346Y-175258773D01*
X152090000Y-175172376D01*
X151655654Y-175258773D01*
X151287434Y-175504810D01*
X151041397Y-175873030D01*
X150955000Y-176307376D01*
X150955000Y-176912624D01*
X150990282Y-177090000D01*
X146189718Y-177090000D01*
X146225000Y-176912624D01*
X146225000Y-176307376D01*
X146138603Y-175873030D01*
X145892566Y-175504810D01*
X145524346Y-175258773D01*
X145090000Y-175172376D01*
X144655654Y-175258773D01*
X144287434Y-175504810D01*
X144041397Y-175873030D01*
X143955000Y-176307376D01*
X143955000Y-176912624D01*
X143990282Y-177090000D01*
X125170000Y-177090000D01*
X125170000Y-175711452D01*
X125452839Y-175994785D01*
X126099479Y-176263293D01*
X126799650Y-176263904D01*
X127446757Y-175996525D01*
X127942285Y-175501861D01*
X128210793Y-174855221D01*
X128210795Y-174852150D01*
X130690796Y-174852150D01*
X130958175Y-175499257D01*
X131452839Y-175994785D01*
X132099479Y-176263293D01*
X132799650Y-176263904D01*
X133446757Y-175996525D01*
X133942285Y-175501861D01*
X134210793Y-174855221D01*
X134211404Y-174155050D01*
X133944025Y-173507943D01*
X133449361Y-173012415D01*
X132802721Y-172743907D01*
X132102550Y-172743296D01*
X131455443Y-173010675D01*
X130959915Y-173505339D01*
X130691407Y-174151979D01*
X130690796Y-174852150D01*
X128210795Y-174852150D01*
X128211404Y-174155050D01*
X127944025Y-173507943D01*
X127449361Y-173012415D01*
X126802721Y-172743907D01*
X126102550Y-172743296D01*
X125455443Y-173010675D01*
X125170000Y-173295620D01*
X125170000Y-163711452D01*
X125452839Y-163994785D01*
X126099479Y-164263293D01*
X126799650Y-164263904D01*
X127446757Y-163996525D01*
X127942285Y-163501861D01*
X128210793Y-162855221D01*
X128210795Y-162852150D01*
X130690796Y-162852150D01*
X130958175Y-163499257D01*
X131452839Y-163994785D01*
X132099479Y-164263293D01*
X132799650Y-164263904D01*
X133446757Y-163996525D01*
X133942285Y-163501861D01*
X134210793Y-162855221D01*
X134211404Y-162155050D01*
X133944025Y-161507943D01*
X133449361Y-161012415D01*
X132802721Y-160743907D01*
X132102550Y-160743296D01*
X131455443Y-161010675D01*
X130959915Y-161505339D01*
X130691407Y-162151979D01*
X130690796Y-162852150D01*
X128210795Y-162852150D01*
X128211404Y-162155050D01*
X127944025Y-161507943D01*
X127449361Y-161012415D01*
X126802721Y-160743907D01*
X126102550Y-160743296D01*
X125455443Y-161010675D01*
X125170000Y-161295620D01*
X125170000Y-118561452D01*
X125452839Y-118844785D01*
X126099479Y-119113293D01*
X126799650Y-119113904D01*
X127446757Y-118846525D01*
X127942285Y-118351861D01*
X128210793Y-117705221D01*
X128210795Y-117702150D01*
X130690796Y-117702150D01*
X130958175Y-118349257D01*
X131452839Y-118844785D01*
X132099479Y-119113293D01*
X132799650Y-119113904D01*
X133446757Y-118846525D01*
X133942285Y-118351861D01*
X134210793Y-117705221D01*
X134211404Y-117005050D01*
X133944025Y-116357943D01*
X133449361Y-115862415D01*
X132802721Y-115593907D01*
X132102550Y-115593296D01*
X131455443Y-115860675D01*
X130959915Y-116355339D01*
X130691407Y-117001979D01*
X130690796Y-117702150D01*
X128210795Y-117702150D01*
X128211404Y-117005050D01*
X127944025Y-116357943D01*
X127449361Y-115862415D01*
X126802721Y-115593907D01*
X126102550Y-115593296D01*
X125455443Y-115860675D01*
X125170000Y-116145620D01*
X125170000Y-108824914D01*
X141588082Y-108824914D01*
X141826164Y-109327096D01*
X142238300Y-109699942D01*
X142622075Y-109858907D01*
X142842444Y-109736776D01*
X142842444Y-108604545D01*
X141710213Y-108604545D01*
X141588082Y-108824914D01*
X125170000Y-108824914D01*
X125170000Y-106561452D01*
X125452839Y-106844785D01*
X126099479Y-107113293D01*
X126799650Y-107113904D01*
X127446757Y-106846525D01*
X127942285Y-106351861D01*
X128210793Y-105705221D01*
X128210795Y-105702150D01*
X130690796Y-105702150D01*
X130958175Y-106349257D01*
X131452839Y-106844785D01*
X132099479Y-107113293D01*
X132799650Y-107113904D01*
X133446757Y-106846525D01*
X133942285Y-106351861D01*
X134210793Y-105705221D01*
X134211404Y-105005050D01*
X134036717Y-104582274D01*
X137345442Y-104582274D01*
X137583524Y-105084456D01*
X137995660Y-105457302D01*
X138379435Y-105616267D01*
X138599804Y-105494136D01*
X138599804Y-104361905D01*
X138853804Y-104361905D01*
X138853804Y-105494136D01*
X139074173Y-105616267D01*
X139576355Y-105378185D01*
X139949201Y-104966049D01*
X140108166Y-104582274D01*
X139986035Y-104361905D01*
X138853804Y-104361905D01*
X138599804Y-104361905D01*
X137467573Y-104361905D01*
X137345442Y-104582274D01*
X134036717Y-104582274D01*
X133944025Y-104357943D01*
X133474439Y-103887536D01*
X137345442Y-103887536D01*
X137467573Y-104107905D01*
X138599804Y-104107905D01*
X138599804Y-102975674D01*
X138853804Y-102975674D01*
X138853804Y-104107905D01*
X139986035Y-104107905D01*
X140108166Y-103887536D01*
X139870084Y-103385354D01*
X139457948Y-103012508D01*
X139074173Y-102853543D01*
X138853804Y-102975674D01*
X138599804Y-102975674D01*
X138379435Y-102853543D01*
X137877253Y-103091625D01*
X137504407Y-103503761D01*
X137345442Y-103887536D01*
X133474439Y-103887536D01*
X133449361Y-103862415D01*
X132802721Y-103593907D01*
X132102550Y-103593296D01*
X131455443Y-103860675D01*
X130959915Y-104355339D01*
X130691407Y-105001979D01*
X130690796Y-105702150D01*
X128210795Y-105702150D01*
X128211404Y-105005050D01*
X127944025Y-104357943D01*
X127752365Y-104165948D01*
X127789441Y-104142090D01*
X127792236Y-104138000D01*
X128270000Y-104138000D01*
X128560839Y-104080148D01*
X128807401Y-103915401D01*
X131770619Y-100952183D01*
X131800900Y-100964757D01*
X132356661Y-100965242D01*
X132870303Y-100753010D01*
X133263629Y-100360370D01*
X133476757Y-99847100D01*
X133477242Y-99291339D01*
X133265010Y-98777697D01*
X132872370Y-98384371D01*
X132785022Y-98348101D01*
X132862368Y-98348101D01*
X132874889Y-98378404D01*
X133267529Y-98771730D01*
X133780799Y-98984858D01*
X134336560Y-98985343D01*
X134850202Y-98773111D01*
X134912671Y-98710750D01*
X136025000Y-98710750D01*
X136025000Y-99051309D01*
X136121673Y-99284698D01*
X136300301Y-99463327D01*
X136533690Y-99560000D01*
X136874250Y-99560000D01*
X137033000Y-99401250D01*
X137033000Y-98552000D01*
X136183750Y-98552000D01*
X136025000Y-98710750D01*
X134912671Y-98710750D01*
X135243528Y-98380471D01*
X135456656Y-97867201D01*
X135456715Y-97798691D01*
X136025000Y-97798691D01*
X136025000Y-98139250D01*
X136183750Y-98298000D01*
X137033000Y-98298000D01*
X137033000Y-97448750D01*
X136874250Y-97290000D01*
X136533690Y-97290000D01*
X136300301Y-97386673D01*
X136121673Y-97565302D01*
X136025000Y-97798691D01*
X135456715Y-97798691D01*
X135457141Y-97311440D01*
X135423491Y-97230000D01*
X146184710Y-97230000D01*
X146172560Y-97290000D01*
G36*
X145398560Y-162589635D02*
X145199000Y-162589635D01*
X145199000Y-162538876D01*
X145398560Y-162456420D01*
X145398560Y-162589635D01*
X145398560Y-162589635D01*
G37*
X145398560Y-162589635D02*
X145199000Y-162589635D01*
X145199000Y-162538876D01*
X145398560Y-162456420D01*
X145398560Y-162589635D01*
G36*
X152484000Y-143829500D02*
X152504000Y-143829500D01*
X152504000Y-144079500D01*
X152484000Y-144079500D01*
X152484000Y-144101500D01*
X152230000Y-144101500D01*
X152230000Y-144079500D01*
X152210000Y-144079500D01*
X152210000Y-143829500D01*
X152230000Y-143829500D01*
X152230000Y-143807500D01*
X152484000Y-143807500D01*
X152484000Y-143829500D01*
X152484000Y-143829500D01*
G37*
X152484000Y-143829500D02*
X152504000Y-143829500D01*
X152504000Y-144079500D01*
X152484000Y-144079500D01*
X152484000Y-144101500D01*
X152230000Y-144101500D01*
X152230000Y-144079500D01*
X152210000Y-144079500D01*
X152210000Y-143829500D01*
X152230000Y-143829500D01*
X152230000Y-143807500D01*
X152484000Y-143807500D01*
X152484000Y-143829500D01*
G36*
X146830000Y-136046244D02*
X146087443Y-136788801D01*
X146007640Y-136908235D01*
X146007640Y-136811700D01*
X145986124Y-136697351D01*
X146007640Y-136591101D01*
X146007640Y-136582319D01*
X146147601Y-136488800D01*
X146203170Y-136433231D01*
X146367917Y-136186670D01*
X146388404Y-136083675D01*
X146425769Y-135895830D01*
X146425769Y-135364073D01*
X146450299Y-135369040D01*
X146729699Y-135369040D01*
X146830000Y-135350167D01*
X146830000Y-136046244D01*
X146830000Y-136046244D01*
G37*
X146830000Y-136046244D02*
X146087443Y-136788801D01*
X146007640Y-136908235D01*
X146007640Y-136811700D01*
X145986124Y-136697351D01*
X146007640Y-136591101D01*
X146007640Y-136582319D01*
X146147601Y-136488800D01*
X146203170Y-136433231D01*
X146367917Y-136186670D01*
X146388404Y-136083675D01*
X146425769Y-135895830D01*
X146425769Y-135364073D01*
X146450299Y-135369040D01*
X146729699Y-135369040D01*
X146830000Y-135350167D01*
X146830000Y-136046244D01*
G36*
X144531434Y-134676700D02*
X144496598Y-134676700D01*
X144496598Y-134835448D01*
X144337850Y-134676700D01*
X143760690Y-134676700D01*
X143527301Y-134773373D01*
X143348673Y-134952002D01*
X143305133Y-135057116D01*
X143183516Y-134975854D01*
X142892677Y-134918002D01*
X142142699Y-134918002D01*
X142186440Y-134702000D01*
X142186440Y-133602000D01*
X142142162Y-133366683D01*
X142013836Y-133167259D01*
X142361667Y-133167562D01*
X142705443Y-133025517D01*
X142792923Y-132938189D01*
X144531434Y-134676700D01*
X144531434Y-134676700D01*
G37*
X144531434Y-134676700D02*
X144496598Y-134676700D01*
X144496598Y-134835448D01*
X144337850Y-134676700D01*
X143760690Y-134676700D01*
X143527301Y-134773373D01*
X143348673Y-134952002D01*
X143305133Y-135057116D01*
X143183516Y-134975854D01*
X142892677Y-134918002D01*
X142142699Y-134918002D01*
X142186440Y-134702000D01*
X142186440Y-133602000D01*
X142142162Y-133366683D01*
X142013836Y-133167259D01*
X142361667Y-133167562D01*
X142705443Y-133025517D01*
X142792923Y-132938189D01*
X144531434Y-134676700D01*
G36*
X144471523Y-127208255D02*
X144471451Y-127291059D01*
X144459587Y-127295961D01*
X144196338Y-127558751D01*
X144053692Y-127902279D01*
X144053423Y-128211014D01*
X142138426Y-128211014D01*
X143218449Y-127130991D01*
X144503606Y-127130991D01*
X144471523Y-127208255D01*
X144471523Y-127208255D01*
G37*
X144471523Y-127208255D02*
X144471451Y-127291059D01*
X144459587Y-127295961D01*
X144196338Y-127558751D01*
X144053692Y-127902279D01*
X144053423Y-128211014D01*
X142138426Y-128211014D01*
X143218449Y-127130991D01*
X144503606Y-127130991D01*
X144471523Y-127208255D01*
G36*
X145100171Y-121038801D02*
X145099847Y-121410767D01*
X145241892Y-121754543D01*
X145275009Y-121787718D01*
X145275009Y-125437128D01*
X145309593Y-125610991D01*
X142903647Y-125610991D01*
X142612808Y-125668843D01*
X142366246Y-125833590D01*
X140647338Y-127552498D01*
X139433906Y-127552498D01*
X139433921Y-127535187D01*
X139291876Y-127191411D01*
X139136978Y-127036242D01*
X139036160Y-126885358D01*
X138324940Y-126174138D01*
X138324940Y-126001500D01*
X138280662Y-125766183D01*
X138141590Y-125550059D01*
X137929390Y-125405069D01*
X137832412Y-125385430D01*
X138042698Y-125298327D01*
X138221327Y-125119699D01*
X138318000Y-124886310D01*
X138318000Y-124745750D01*
X138159250Y-124587000D01*
X137583000Y-124587000D01*
X137583000Y-124607000D01*
X137430440Y-124607000D01*
X137430440Y-124313000D01*
X137583000Y-124313000D01*
X137583000Y-124333000D01*
X138159250Y-124333000D01*
X138318000Y-124174250D01*
X138318000Y-124033690D01*
X138221327Y-123800301D01*
X138042698Y-123621673D01*
X137976722Y-123594345D01*
X138101441Y-123514090D01*
X138104236Y-123510000D01*
X142297745Y-123510000D01*
X142588584Y-123452148D01*
X142835146Y-123287401D01*
X145111834Y-121010713D01*
X145100171Y-121038801D01*
X145100171Y-121038801D01*
G37*
X145100171Y-121038801D02*
X145099847Y-121410767D01*
X145241892Y-121754543D01*
X145275009Y-121787718D01*
X145275009Y-125437128D01*
X145309593Y-125610991D01*
X142903647Y-125610991D01*
X142612808Y-125668843D01*
X142366246Y-125833590D01*
X140647338Y-127552498D01*
X139433906Y-127552498D01*
X139433921Y-127535187D01*
X139291876Y-127191411D01*
X139136978Y-127036242D01*
X139036160Y-126885358D01*
X138324940Y-126174138D01*
X138324940Y-126001500D01*
X138280662Y-125766183D01*
X138141590Y-125550059D01*
X137929390Y-125405069D01*
X137832412Y-125385430D01*
X138042698Y-125298327D01*
X138221327Y-125119699D01*
X138318000Y-124886310D01*
X138318000Y-124745750D01*
X138159250Y-124587000D01*
X137583000Y-124587000D01*
X137583000Y-124607000D01*
X137430440Y-124607000D01*
X137430440Y-124313000D01*
X137583000Y-124313000D01*
X137583000Y-124333000D01*
X138159250Y-124333000D01*
X138318000Y-124174250D01*
X138318000Y-124033690D01*
X138221327Y-123800301D01*
X138042698Y-123621673D01*
X137976722Y-123594345D01*
X138101441Y-123514090D01*
X138104236Y-123510000D01*
X142297745Y-123510000D01*
X142588584Y-123452148D01*
X142835146Y-123287401D01*
X145111834Y-121010713D01*
X145100171Y-121038801D01*
G36*
X161601468Y-97309001D02*
X161600983Y-97864762D01*
X161813215Y-98378404D01*
X162205855Y-98771730D01*
X162238225Y-98785171D01*
X162238225Y-122463652D01*
X159656084Y-119881511D01*
X159656124Y-119836024D01*
X159604358Y-119710740D01*
X160707217Y-119710740D01*
X160739353Y-119742932D01*
X161082881Y-119885578D01*
X161454847Y-119885902D01*
X161798623Y-119743857D01*
X162061872Y-119481067D01*
X162204518Y-119137539D01*
X162204842Y-118765573D01*
X162062797Y-118421797D01*
X161800007Y-118158548D01*
X161456479Y-118015902D01*
X161084513Y-118015578D01*
X160740737Y-118157623D01*
X160707562Y-118190740D01*
X159370194Y-118190740D01*
X159236138Y-117866298D01*
X158973348Y-117603049D01*
X158629820Y-117460403D01*
X158628011Y-117460401D01*
X158628011Y-116406282D01*
X158758730Y-116537229D01*
X159272000Y-116750357D01*
X159827761Y-116750842D01*
X160341403Y-116538610D01*
X160734729Y-116145970D01*
X160947857Y-115632700D01*
X160948342Y-115076939D01*
X160736110Y-114563297D01*
X160343470Y-114169971D01*
X159830200Y-113956843D01*
X159274439Y-113956358D01*
X158760797Y-114168590D01*
X158628011Y-114301144D01*
X158628011Y-112540611D01*
X158570159Y-112249772D01*
X158405412Y-112003210D01*
X157729466Y-111327264D01*
X157729466Y-107630261D01*
X158153858Y-107630261D01*
X158366090Y-108143903D01*
X158758730Y-108537229D01*
X159272000Y-108750357D01*
X159827761Y-108750842D01*
X160341403Y-108538610D01*
X160734729Y-108145970D01*
X160947857Y-107632700D01*
X160948342Y-107076939D01*
X160736110Y-106563297D01*
X160343470Y-106169971D01*
X159830200Y-105956843D01*
X159274439Y-105956358D01*
X158760797Y-106168590D01*
X158367471Y-106561230D01*
X158154343Y-107074500D01*
X158153858Y-107630261D01*
X157729466Y-107630261D01*
X157729466Y-105510856D01*
X157983951Y-105616267D01*
X158204320Y-105494136D01*
X158204320Y-104541513D01*
X158317179Y-104428654D01*
X158250430Y-104361905D01*
X158458320Y-104361905D01*
X158458320Y-105494136D01*
X158678689Y-105616267D01*
X159180871Y-105378185D01*
X159553717Y-104966049D01*
X159712682Y-104582274D01*
X159590551Y-104361905D01*
X158458320Y-104361905D01*
X158250430Y-104361905D01*
X158137571Y-104249046D01*
X158024712Y-104361905D01*
X157729466Y-104361905D01*
X157729466Y-104107905D01*
X158024712Y-104107905D01*
X158137571Y-104220764D01*
X158317179Y-104041156D01*
X158204320Y-103928297D01*
X158204320Y-102975674D01*
X158458320Y-102975674D01*
X158458320Y-104107905D01*
X159590551Y-104107905D01*
X159712682Y-103887536D01*
X159474600Y-103385354D01*
X159062464Y-103012508D01*
X158678689Y-102853543D01*
X158458320Y-102975674D01*
X158204320Y-102975674D01*
X157983951Y-102853543D01*
X157729466Y-102974193D01*
X157729466Y-101227442D01*
X159287401Y-99669507D01*
X159452148Y-99422946D01*
X159455012Y-99408547D01*
X159585654Y-99495839D01*
X160020000Y-99582236D01*
X160454346Y-99495839D01*
X160822566Y-99249802D01*
X161068603Y-98881582D01*
X161155000Y-98447236D01*
X161155000Y-98402764D01*
X161068603Y-97968418D01*
X160822566Y-97600198D01*
X160454346Y-97354161D01*
X160020000Y-97267764D01*
X159585654Y-97354161D01*
X159385000Y-97488234D01*
X159184346Y-97354161D01*
X158750000Y-97267764D01*
X158315654Y-97354161D01*
X158294818Y-97368083D01*
X158106310Y-97290000D01*
X157765750Y-97290000D01*
X157607000Y-97448750D01*
X157607000Y-98298000D01*
X157627000Y-98298000D01*
X157627000Y-98342436D01*
X157615000Y-98402764D01*
X157615000Y-98447236D01*
X157627000Y-98507564D01*
X157627000Y-98552000D01*
X157607000Y-98552000D01*
X157607000Y-98572000D01*
X157353000Y-98572000D01*
X157353000Y-98552000D01*
X156503750Y-98552000D01*
X156345000Y-98710750D01*
X156345000Y-99051309D01*
X156441673Y-99284698D01*
X156620301Y-99463327D01*
X156853690Y-99560000D01*
X157194250Y-99560000D01*
X157352998Y-99401252D01*
X157352998Y-99454306D01*
X156432065Y-100375239D01*
X156267318Y-100621801D01*
X156209466Y-100912640D01*
X156209466Y-110309464D01*
X155214949Y-109314947D01*
X155311077Y-109208689D01*
X155470042Y-108824914D01*
X155347911Y-108604545D01*
X154395288Y-108604545D01*
X154282429Y-108491686D01*
X154102821Y-108671294D01*
X154215680Y-108784153D01*
X154215680Y-108912407D01*
X154102468Y-108912407D01*
X153967947Y-108777886D01*
X154074539Y-108671294D01*
X153894931Y-108491686D01*
X153788339Y-108598278D01*
X153540606Y-108350545D01*
X153782072Y-108350545D01*
X153894931Y-108463404D01*
X154074539Y-108283796D01*
X153961680Y-108170937D01*
X153961680Y-107218314D01*
X154215680Y-107218314D01*
X154215680Y-108350545D01*
X155347911Y-108350545D01*
X155470042Y-108130176D01*
X155231960Y-107627994D01*
X154819824Y-107255148D01*
X154436049Y-107096183D01*
X154215680Y-107218314D01*
X153961680Y-107218314D01*
X153741311Y-107096183D01*
X153350500Y-107281465D01*
X153350500Y-105870500D01*
X153312595Y-105679941D01*
X153292648Y-105579660D01*
X153127901Y-105333099D01*
X150312401Y-102517599D01*
X150065839Y-102352852D01*
X149852881Y-102310492D01*
X149776890Y-102258569D01*
X149525000Y-102207560D01*
X148957242Y-102207560D01*
X149127401Y-102037401D01*
X149292148Y-101790839D01*
X149350000Y-101500000D01*
X149350000Y-98810289D01*
X149425654Y-98860839D01*
X149860000Y-98947236D01*
X149935711Y-98932176D01*
X149702808Y-99164673D01*
X149560162Y-99508201D01*
X149559838Y-99880167D01*
X149701883Y-100223943D01*
X149964673Y-100487192D01*
X150308201Y-100629838D01*
X150680167Y-100630162D01*
X151023943Y-100488117D01*
X151057118Y-100455000D01*
X151837537Y-100455000D01*
X151869673Y-100487192D01*
X152213201Y-100629838D01*
X152585167Y-100630162D01*
X152928943Y-100488117D01*
X153192192Y-100225327D01*
X153334838Y-99881799D01*
X153335162Y-99509833D01*
X153193117Y-99166057D01*
X152930327Y-98902808D01*
X152586799Y-98760162D01*
X152214833Y-98759838D01*
X151871057Y-98901883D01*
X151837882Y-98935000D01*
X151057463Y-98935000D01*
X151025327Y-98902808D01*
X150681799Y-98760162D01*
X150445328Y-98759956D01*
X150662566Y-98614802D01*
X150908603Y-98246582D01*
X150995000Y-97812236D01*
X150995000Y-97798691D01*
X156345000Y-97798691D01*
X156345000Y-98139250D01*
X156503750Y-98298000D01*
X157353000Y-98298000D01*
X157353000Y-97448750D01*
X157194250Y-97290000D01*
X156853690Y-97290000D01*
X156620301Y-97386673D01*
X156441673Y-97565302D01*
X156345000Y-97798691D01*
X150995000Y-97798691D01*
X150995000Y-97767764D01*
X150908603Y-97333418D01*
X150839501Y-97230000D01*
X161634272Y-97230000D01*
X161601468Y-97309001D01*
X161601468Y-97309001D01*
G37*
X161601468Y-97309001D02*
X161600983Y-97864762D01*
X161813215Y-98378404D01*
X162205855Y-98771730D01*
X162238225Y-98785171D01*
X162238225Y-122463652D01*
X159656084Y-119881511D01*
X159656124Y-119836024D01*
X159604358Y-119710740D01*
X160707217Y-119710740D01*
X160739353Y-119742932D01*
X161082881Y-119885578D01*
X161454847Y-119885902D01*
X161798623Y-119743857D01*
X162061872Y-119481067D01*
X162204518Y-119137539D01*
X162204842Y-118765573D01*
X162062797Y-118421797D01*
X161800007Y-118158548D01*
X161456479Y-118015902D01*
X161084513Y-118015578D01*
X160740737Y-118157623D01*
X160707562Y-118190740D01*
X159370194Y-118190740D01*
X159236138Y-117866298D01*
X158973348Y-117603049D01*
X158629820Y-117460403D01*
X158628011Y-117460401D01*
X158628011Y-116406282D01*
X158758730Y-116537229D01*
X159272000Y-116750357D01*
X159827761Y-116750842D01*
X160341403Y-116538610D01*
X160734729Y-116145970D01*
X160947857Y-115632700D01*
X160948342Y-115076939D01*
X160736110Y-114563297D01*
X160343470Y-114169971D01*
X159830200Y-113956843D01*
X159274439Y-113956358D01*
X158760797Y-114168590D01*
X158628011Y-114301144D01*
X158628011Y-112540611D01*
X158570159Y-112249772D01*
X158405412Y-112003210D01*
X157729466Y-111327264D01*
X157729466Y-107630261D01*
X158153858Y-107630261D01*
X158366090Y-108143903D01*
X158758730Y-108537229D01*
X159272000Y-108750357D01*
X159827761Y-108750842D01*
X160341403Y-108538610D01*
X160734729Y-108145970D01*
X160947857Y-107632700D01*
X160948342Y-107076939D01*
X160736110Y-106563297D01*
X160343470Y-106169971D01*
X159830200Y-105956843D01*
X159274439Y-105956358D01*
X158760797Y-106168590D01*
X158367471Y-106561230D01*
X158154343Y-107074500D01*
X158153858Y-107630261D01*
X157729466Y-107630261D01*
X157729466Y-105510856D01*
X157983951Y-105616267D01*
X158204320Y-105494136D01*
X158204320Y-104541513D01*
X158317179Y-104428654D01*
X158250430Y-104361905D01*
X158458320Y-104361905D01*
X158458320Y-105494136D01*
X158678689Y-105616267D01*
X159180871Y-105378185D01*
X159553717Y-104966049D01*
X159712682Y-104582274D01*
X159590551Y-104361905D01*
X158458320Y-104361905D01*
X158250430Y-104361905D01*
X158137571Y-104249046D01*
X158024712Y-104361905D01*
X157729466Y-104361905D01*
X157729466Y-104107905D01*
X158024712Y-104107905D01*
X158137571Y-104220764D01*
X158317179Y-104041156D01*
X158204320Y-103928297D01*
X158204320Y-102975674D01*
X158458320Y-102975674D01*
X158458320Y-104107905D01*
X159590551Y-104107905D01*
X159712682Y-103887536D01*
X159474600Y-103385354D01*
X159062464Y-103012508D01*
X158678689Y-102853543D01*
X158458320Y-102975674D01*
X158204320Y-102975674D01*
X157983951Y-102853543D01*
X157729466Y-102974193D01*
X157729466Y-101227442D01*
X159287401Y-99669507D01*
X159452148Y-99422946D01*
X159455012Y-99408547D01*
X159585654Y-99495839D01*
X160020000Y-99582236D01*
X160454346Y-99495839D01*
X160822566Y-99249802D01*
X161068603Y-98881582D01*
X161155000Y-98447236D01*
X161155000Y-98402764D01*
X161068603Y-97968418D01*
X160822566Y-97600198D01*
X160454346Y-97354161D01*
X160020000Y-97267764D01*
X159585654Y-97354161D01*
X159385000Y-97488234D01*
X159184346Y-97354161D01*
X158750000Y-97267764D01*
X158315654Y-97354161D01*
X158294818Y-97368083D01*
X158106310Y-97290000D01*
X157765750Y-97290000D01*
X157607000Y-97448750D01*
X157607000Y-98298000D01*
X157627000Y-98298000D01*
X157627000Y-98342436D01*
X157615000Y-98402764D01*
X157615000Y-98447236D01*
X157627000Y-98507564D01*
X157627000Y-98552000D01*
X157607000Y-98552000D01*
X157607000Y-98572000D01*
X157353000Y-98572000D01*
X157353000Y-98552000D01*
X156503750Y-98552000D01*
X156345000Y-98710750D01*
X156345000Y-99051309D01*
X156441673Y-99284698D01*
X156620301Y-99463327D01*
X156853690Y-99560000D01*
X157194250Y-99560000D01*
X157352998Y-99401252D01*
X157352998Y-99454306D01*
X156432065Y-100375239D01*
X156267318Y-100621801D01*
X156209466Y-100912640D01*
X156209466Y-110309464D01*
X155214949Y-109314947D01*
X155311077Y-109208689D01*
X155470042Y-108824914D01*
X155347911Y-108604545D01*
X154395288Y-108604545D01*
X154282429Y-108491686D01*
X154102821Y-108671294D01*
X154215680Y-108784153D01*
X154215680Y-108912407D01*
X154102468Y-108912407D01*
X153967947Y-108777886D01*
X154074539Y-108671294D01*
X153894931Y-108491686D01*
X153788339Y-108598278D01*
X153540606Y-108350545D01*
X153782072Y-108350545D01*
X153894931Y-108463404D01*
X154074539Y-108283796D01*
X153961680Y-108170937D01*
X153961680Y-107218314D01*
X154215680Y-107218314D01*
X154215680Y-108350545D01*
X155347911Y-108350545D01*
X155470042Y-108130176D01*
X155231960Y-107627994D01*
X154819824Y-107255148D01*
X154436049Y-107096183D01*
X154215680Y-107218314D01*
X153961680Y-107218314D01*
X153741311Y-107096183D01*
X153350500Y-107281465D01*
X153350500Y-105870500D01*
X153312595Y-105679941D01*
X153292648Y-105579660D01*
X153127901Y-105333099D01*
X150312401Y-102517599D01*
X150065839Y-102352852D01*
X149852881Y-102310492D01*
X149776890Y-102258569D01*
X149525000Y-102207560D01*
X148957242Y-102207560D01*
X149127401Y-102037401D01*
X149292148Y-101790839D01*
X149350000Y-101500000D01*
X149350000Y-98810289D01*
X149425654Y-98860839D01*
X149860000Y-98947236D01*
X149935711Y-98932176D01*
X149702808Y-99164673D01*
X149560162Y-99508201D01*
X149559838Y-99880167D01*
X149701883Y-100223943D01*
X149964673Y-100487192D01*
X150308201Y-100629838D01*
X150680167Y-100630162D01*
X151023943Y-100488117D01*
X151057118Y-100455000D01*
X151837537Y-100455000D01*
X151869673Y-100487192D01*
X152213201Y-100629838D01*
X152585167Y-100630162D01*
X152928943Y-100488117D01*
X153192192Y-100225327D01*
X153334838Y-99881799D01*
X153335162Y-99509833D01*
X153193117Y-99166057D01*
X152930327Y-98902808D01*
X152586799Y-98760162D01*
X152214833Y-98759838D01*
X151871057Y-98901883D01*
X151837882Y-98935000D01*
X151057463Y-98935000D01*
X151025327Y-98902808D01*
X150681799Y-98760162D01*
X150445328Y-98759956D01*
X150662566Y-98614802D01*
X150908603Y-98246582D01*
X150995000Y-97812236D01*
X150995000Y-97798691D01*
X156345000Y-97798691D01*
X156345000Y-98139250D01*
X156503750Y-98298000D01*
X157353000Y-98298000D01*
X157353000Y-97448750D01*
X157194250Y-97290000D01*
X156853690Y-97290000D01*
X156620301Y-97386673D01*
X156441673Y-97565302D01*
X156345000Y-97798691D01*
X150995000Y-97798691D01*
X150995000Y-97767764D01*
X150908603Y-97333418D01*
X150839501Y-97230000D01*
X161634272Y-97230000D01*
X161601468Y-97309001D01*
G36*
X154727000Y-121000000D02*
X154747000Y-121000000D01*
X154747000Y-121152560D01*
X154453000Y-121152560D01*
X154453000Y-121000000D01*
X154473000Y-121000000D01*
X154473000Y-120953000D01*
X154727000Y-120953000D01*
X154727000Y-121000000D01*
X154727000Y-121000000D01*
G37*
X154727000Y-121000000D02*
X154747000Y-121000000D01*
X154747000Y-121152560D01*
X154453000Y-121152560D01*
X154453000Y-121000000D01*
X154473000Y-121000000D01*
X154473000Y-120953000D01*
X154727000Y-120953000D01*
X154727000Y-121000000D01*
G36*
X156083000Y-120920000D02*
X156103000Y-120920000D01*
X156103000Y-120964851D01*
X156058275Y-121072560D01*
X155656000Y-121072560D01*
X155535000Y-121095328D01*
X155535000Y-121017350D01*
X155649184Y-121017449D01*
X155992960Y-120875404D01*
X155995368Y-120873000D01*
X156083000Y-120873000D01*
X156083000Y-120920000D01*
X156083000Y-120920000D01*
G37*
X156083000Y-120920000D02*
X156103000Y-120920000D01*
X156103000Y-120964851D01*
X156058275Y-121072560D01*
X155656000Y-121072560D01*
X155535000Y-121095328D01*
X155535000Y-121017350D01*
X155649184Y-121017449D01*
X155992960Y-120875404D01*
X155995368Y-120873000D01*
X156083000Y-120873000D01*
X156083000Y-120920000D01*
G36*
X150955055Y-119186874D02*
X150955055Y-119197223D01*
X150874063Y-119278074D01*
X150731417Y-119621602D01*
X150731183Y-119890000D01*
X150561105Y-119890000D01*
X150470090Y-119748559D01*
X150257890Y-119603569D01*
X150006000Y-119552560D01*
X149501466Y-119552560D01*
X149594327Y-119459698D01*
X149691000Y-119226309D01*
X149691000Y-118935750D01*
X149532250Y-118777000D01*
X148783000Y-118777000D01*
X148783000Y-119576250D01*
X148869012Y-119662262D01*
X148754559Y-119735910D01*
X148655367Y-119881083D01*
X148570090Y-119748559D01*
X148443314Y-119661936D01*
X148529000Y-119576250D01*
X148529000Y-118777000D01*
X148509000Y-118777000D01*
X148509000Y-118523000D01*
X148529000Y-118523000D01*
X148529000Y-118503000D01*
X148783000Y-118503000D01*
X148783000Y-118523000D01*
X149532250Y-118523000D01*
X149691000Y-118364250D01*
X149691000Y-118319998D01*
X150088180Y-118319998D01*
X150955055Y-119186874D01*
X150955055Y-119186874D01*
G37*
X150955055Y-119186874D02*
X150955055Y-119197223D01*
X150874063Y-119278074D01*
X150731417Y-119621602D01*
X150731183Y-119890000D01*
X150561105Y-119890000D01*
X150470090Y-119748559D01*
X150257890Y-119603569D01*
X150006000Y-119552560D01*
X149501466Y-119552560D01*
X149594327Y-119459698D01*
X149691000Y-119226309D01*
X149691000Y-118935750D01*
X149532250Y-118777000D01*
X148783000Y-118777000D01*
X148783000Y-119576250D01*
X148869012Y-119662262D01*
X148754559Y-119735910D01*
X148655367Y-119881083D01*
X148570090Y-119748559D01*
X148443314Y-119661936D01*
X148529000Y-119576250D01*
X148529000Y-118777000D01*
X148509000Y-118777000D01*
X148509000Y-118523000D01*
X148529000Y-118523000D01*
X148529000Y-118503000D01*
X148783000Y-118503000D01*
X148783000Y-118523000D01*
X149532250Y-118523000D01*
X149691000Y-118364250D01*
X149691000Y-118319998D01*
X150088180Y-118319998D01*
X150955055Y-119186874D01*
M02*
