G04 #@! TF.FileFunction,Legend,Top*
%FSLAX46Y46*%
G04 Gerber Fmt 4.6, Leading zero omitted, Abs format (unit mm)*
G04 Created by KiCad (PCBNEW 4.0.7-e2-6376~58~ubuntu16.04.1) date Mon Apr 16 03:32:28 2018*
%MOMM*%
%LPD*%
G01*
G04 APERTURE LIST*
%ADD10C,0.100000*%
%ADD11C,0.300000*%
%ADD12C,0.150000*%
%ADD13C,0.120000*%
%ADD14C,0.200000*%
%ADD15C,0.152400*%
%ADD16C,0.060000*%
G04 APERTURE END LIST*
D10*
D11*
X140892858Y-121678571D02*
X140607144Y-121678571D01*
X140464287Y-121750000D01*
X140392858Y-121821429D01*
X140250001Y-122035714D01*
X140178572Y-122321429D01*
X140178572Y-122892857D01*
X140250001Y-123035714D01*
X140321429Y-123107143D01*
X140464287Y-123178571D01*
X140750001Y-123178571D01*
X140892858Y-123107143D01*
X140964287Y-123035714D01*
X141035715Y-122892857D01*
X141035715Y-122535714D01*
X140964287Y-122392857D01*
X140892858Y-122321429D01*
X140750001Y-122250000D01*
X140464287Y-122250000D01*
X140321429Y-122321429D01*
X140250001Y-122392857D01*
X140178572Y-122535714D01*
X141464286Y-121678571D02*
X141964286Y-123178571D01*
X142464286Y-121678571D01*
X140321429Y-129428571D02*
X139464286Y-129428571D01*
X139892858Y-129428571D02*
X139892858Y-127928571D01*
X139750001Y-128142857D01*
X139607143Y-128285714D01*
X139464286Y-128357143D01*
X140750000Y-127928571D02*
X141250000Y-129428571D01*
X141750000Y-127928571D01*
X142464286Y-128571429D02*
X142321428Y-128500000D01*
X142250000Y-128428571D01*
X142178571Y-128285714D01*
X142178571Y-128214286D01*
X142250000Y-128071429D01*
X142321428Y-128000000D01*
X142464286Y-127928571D01*
X142750000Y-127928571D01*
X142892857Y-128000000D01*
X142964286Y-128071429D01*
X143035714Y-128214286D01*
X143035714Y-128285714D01*
X142964286Y-128428571D01*
X142892857Y-128500000D01*
X142750000Y-128571429D01*
X142464286Y-128571429D01*
X142321428Y-128642857D01*
X142250000Y-128714286D01*
X142178571Y-128857143D01*
X142178571Y-129142857D01*
X142250000Y-129285714D01*
X142321428Y-129357143D01*
X142464286Y-129428571D01*
X142750000Y-129428571D01*
X142892857Y-129357143D01*
X142964286Y-129285714D01*
X143035714Y-129142857D01*
X143035714Y-128857143D01*
X142964286Y-128714286D01*
X142892857Y-128642857D01*
X142750000Y-128571429D01*
X139500001Y-125928571D02*
X139500001Y-127142857D01*
X139571429Y-127285714D01*
X139642858Y-127357143D01*
X139785715Y-127428571D01*
X140071429Y-127428571D01*
X140214287Y-127357143D01*
X140285715Y-127285714D01*
X140357144Y-127142857D01*
X140357144Y-125928571D01*
X141000001Y-127357143D02*
X141214287Y-127428571D01*
X141571430Y-127428571D01*
X141714287Y-127357143D01*
X141785716Y-127285714D01*
X141857144Y-127142857D01*
X141857144Y-127000000D01*
X141785716Y-126857143D01*
X141714287Y-126785714D01*
X141571430Y-126714286D01*
X141285716Y-126642857D01*
X141142858Y-126571429D01*
X141071430Y-126500000D01*
X141000001Y-126357143D01*
X141000001Y-126214286D01*
X141071430Y-126071429D01*
X141142858Y-126000000D01*
X141285716Y-125928571D01*
X141642858Y-125928571D01*
X141857144Y-126000000D01*
X143000001Y-126642857D02*
X143214287Y-126714286D01*
X143285715Y-126785714D01*
X143357144Y-126928571D01*
X143357144Y-127142857D01*
X143285715Y-127285714D01*
X143214287Y-127357143D01*
X143071429Y-127428571D01*
X142500001Y-127428571D01*
X142500001Y-125928571D01*
X143000001Y-125928571D01*
X143142858Y-126000000D01*
X143214287Y-126071429D01*
X143285715Y-126214286D01*
X143285715Y-126357143D01*
X143214287Y-126500000D01*
X143142858Y-126571429D01*
X143000001Y-126642857D01*
X142500001Y-126642857D01*
X144714287Y-125928571D02*
X144000001Y-125928571D01*
X143928572Y-126642857D01*
X144000001Y-126571429D01*
X144142858Y-126500000D01*
X144500001Y-126500000D01*
X144642858Y-126571429D01*
X144714287Y-126642857D01*
X144785715Y-126785714D01*
X144785715Y-127142857D01*
X144714287Y-127285714D01*
X144642858Y-127357143D01*
X144500001Y-127428571D01*
X144142858Y-127428571D01*
X144000001Y-127357143D01*
X143928572Y-127285714D01*
X145214286Y-125928571D02*
X145714286Y-127428571D01*
X146214286Y-125928571D01*
X139392858Y-123678571D02*
X140321429Y-123678571D01*
X139821429Y-124250000D01*
X140035715Y-124250000D01*
X140178572Y-124321429D01*
X140250001Y-124392857D01*
X140321429Y-124535714D01*
X140321429Y-124892857D01*
X140250001Y-125035714D01*
X140178572Y-125107143D01*
X140035715Y-125178571D01*
X139607143Y-125178571D01*
X139464286Y-125107143D01*
X139392858Y-125035714D01*
X140750000Y-123678571D02*
X141250000Y-125178571D01*
X141750000Y-123678571D01*
X142107143Y-123678571D02*
X143035714Y-123678571D01*
X142535714Y-124250000D01*
X142750000Y-124250000D01*
X142892857Y-124321429D01*
X142964286Y-124392857D01*
X143035714Y-124535714D01*
X143035714Y-124892857D01*
X142964286Y-125035714D01*
X142892857Y-125107143D01*
X142750000Y-125178571D01*
X142321428Y-125178571D01*
X142178571Y-125107143D01*
X142107143Y-125035714D01*
D12*
X145954000Y-111875000D02*
X148829000Y-111875000D01*
X146729000Y-115125000D02*
X148829000Y-115125000D01*
D13*
X154030500Y-148244000D02*
X154730500Y-148244000D01*
X154730500Y-149444000D02*
X154030500Y-149444000D01*
X148882000Y-125768000D02*
X148382000Y-125768000D01*
X148382000Y-126708000D02*
X148882000Y-126708000D01*
X148141500Y-115354000D02*
X147641500Y-115354000D01*
X147641500Y-116294000D02*
X148141500Y-116294000D01*
X149136000Y-162090000D02*
X148636000Y-162090000D01*
X148636000Y-163030000D02*
X149136000Y-163030000D01*
X130848000Y-137249000D02*
X130848000Y-137749000D01*
X131788000Y-137749000D02*
X131788000Y-137249000D01*
X139408000Y-134404000D02*
X139408000Y-133904000D01*
X138468000Y-133904000D02*
X138468000Y-134404000D01*
X138468000Y-136042500D02*
X138468000Y-136542500D01*
X139408000Y-136542500D02*
X139408000Y-136042500D01*
X138963500Y-138849000D02*
X138963500Y-138349000D01*
X138023500Y-138349000D02*
X138023500Y-138849000D01*
X138023500Y-142392500D02*
X138023500Y-142892500D01*
X138963500Y-142892500D02*
X138963500Y-142392500D01*
X152057000Y-143484500D02*
X151557000Y-143484500D01*
X151557000Y-144424500D02*
X152057000Y-144424500D01*
X143218000Y-140458000D02*
X143218000Y-139958000D01*
X142278000Y-139958000D02*
X142278000Y-140458000D01*
X146067500Y-131991000D02*
X145567500Y-131991000D01*
X145567500Y-132931000D02*
X146067500Y-132931000D01*
X155092500Y-135610500D02*
X155092500Y-135110500D01*
X154152500Y-135110500D02*
X154152500Y-135610500D01*
X160302500Y-145815000D02*
X160302500Y-146515000D01*
X159102500Y-146515000D02*
X159102500Y-145815000D01*
X131607000Y-158897500D02*
X131607000Y-158197500D01*
X132807000Y-158197500D02*
X132807000Y-158897500D01*
X164430000Y-146982000D02*
X164430000Y-147682000D01*
X163230000Y-147682000D02*
X163230000Y-146982000D01*
X134664500Y-155730500D02*
X133964500Y-155730500D01*
X133964500Y-154530500D02*
X134664500Y-154530500D01*
X136115500Y-151912500D02*
X136115500Y-151212500D01*
X137315500Y-151212500D02*
X137315500Y-151912500D01*
X142705000Y-147920000D02*
X142005000Y-147920000D01*
X142005000Y-146720000D02*
X142705000Y-146720000D01*
X142894000Y-150085500D02*
X143594000Y-150085500D01*
X143594000Y-151285500D02*
X142894000Y-151285500D01*
X142180000Y-165675000D02*
X142180000Y-170875000D01*
X152400000Y-165675000D02*
X142180000Y-165675000D01*
X155000000Y-170875000D02*
X142180000Y-170875000D01*
X152400000Y-165675000D02*
X152400000Y-168275000D01*
X152400000Y-168275000D02*
X155000000Y-168275000D01*
X155000000Y-168275000D02*
X155000000Y-170875000D01*
X153670000Y-165675000D02*
X155000000Y-165675000D01*
X155000000Y-165675000D02*
X155000000Y-167005000D01*
X158688000Y-141670000D02*
X158688000Y-140270000D01*
X158688000Y-140270000D02*
X155888000Y-140270000D01*
X158688000Y-141670000D02*
X155888000Y-141670000D01*
X128462000Y-102554000D02*
X128462000Y-101154000D01*
X128462000Y-101154000D02*
X125662000Y-101154000D01*
X128462000Y-102554000D02*
X125662000Y-102554000D01*
X128462000Y-99506000D02*
X128462000Y-98106000D01*
X128462000Y-98106000D02*
X125662000Y-98106000D01*
X128462000Y-99506000D02*
X125662000Y-99506000D01*
X168888000Y-98106000D02*
X168888000Y-99506000D01*
X168888000Y-99506000D02*
X171688000Y-99506000D01*
X168888000Y-98106000D02*
X171688000Y-98106000D01*
X168888000Y-101154000D02*
X168888000Y-102554000D01*
X168888000Y-102554000D02*
X171688000Y-102554000D01*
X168888000Y-101154000D02*
X171688000Y-101154000D01*
X132332500Y-123760000D02*
X132332500Y-125160000D01*
X132332500Y-125160000D02*
X135132500Y-125160000D01*
X132332500Y-123760000D02*
X135132500Y-123760000D01*
X132332500Y-125601500D02*
X132332500Y-127001500D01*
X132332500Y-127001500D02*
X135132500Y-127001500D01*
X132332500Y-125601500D02*
X135132500Y-125601500D01*
X132332500Y-127443000D02*
X132332500Y-128843000D01*
X132332500Y-128843000D02*
X135132500Y-128843000D01*
X132332500Y-127443000D02*
X135132500Y-127443000D01*
X140527000Y-153056000D02*
X139127000Y-153056000D01*
X139127000Y-153056000D02*
X139127000Y-155856000D01*
X140527000Y-153056000D02*
X140527000Y-155856000D01*
X141984500Y-151573000D02*
X141984500Y-152973000D01*
X141984500Y-152973000D02*
X144784500Y-152973000D01*
X141984500Y-151573000D02*
X144784500Y-151573000D01*
X136465000Y-97665000D02*
X136465000Y-96865000D01*
X136465000Y-96865000D02*
X140395000Y-96865000D01*
X140395000Y-96865000D02*
X140395000Y-97985000D01*
X140395000Y-97985000D02*
X140319677Y-97985000D01*
X136900000Y-96865000D02*
X136900000Y-92865000D01*
X136900000Y-92865000D02*
X137420000Y-92865000D01*
X137420000Y-92865000D02*
X137420000Y-96865000D01*
X136960000Y-96865000D02*
X136960000Y-92865000D01*
X137080000Y-96865000D02*
X137080000Y-92865000D01*
X137200000Y-96865000D02*
X137200000Y-92865000D01*
X137320000Y-96865000D02*
X137320000Y-92865000D01*
X137795000Y-97665000D02*
X137795000Y-96865000D01*
X138170000Y-96865000D02*
X138170000Y-92865000D01*
X138170000Y-92865000D02*
X138690000Y-92865000D01*
X138690000Y-92865000D02*
X138690000Y-96865000D01*
X139065000Y-97985000D02*
X139065000Y-96865000D01*
X139049677Y-97985000D02*
X139080323Y-97985000D01*
X139440000Y-96865000D02*
X139440000Y-92865000D01*
X139440000Y-92865000D02*
X139960000Y-92865000D01*
X139960000Y-92865000D02*
X139960000Y-96865000D01*
X137160000Y-99185000D02*
X136400000Y-99185000D01*
X136400000Y-99185000D02*
X136400000Y-98425000D01*
X156785000Y-97665000D02*
X156785000Y-96865000D01*
X156785000Y-96865000D02*
X160715000Y-96865000D01*
X160715000Y-96865000D02*
X160715000Y-97985000D01*
X160715000Y-97985000D02*
X160639677Y-97985000D01*
X157220000Y-96865000D02*
X157220000Y-92865000D01*
X157220000Y-92865000D02*
X157740000Y-92865000D01*
X157740000Y-92865000D02*
X157740000Y-96865000D01*
X157280000Y-96865000D02*
X157280000Y-92865000D01*
X157400000Y-96865000D02*
X157400000Y-92865000D01*
X157520000Y-96865000D02*
X157520000Y-92865000D01*
X157640000Y-96865000D02*
X157640000Y-92865000D01*
X158115000Y-97665000D02*
X158115000Y-96865000D01*
X158490000Y-96865000D02*
X158490000Y-92865000D01*
X158490000Y-92865000D02*
X159010000Y-92865000D01*
X159010000Y-92865000D02*
X159010000Y-96865000D01*
X159385000Y-97985000D02*
X159385000Y-96865000D01*
X159369677Y-97985000D02*
X159400323Y-97985000D01*
X159760000Y-96865000D02*
X159760000Y-92865000D01*
X159760000Y-92865000D02*
X160280000Y-92865000D01*
X160280000Y-92865000D02*
X160280000Y-96865000D01*
X157480000Y-99185000D02*
X156720000Y-99185000D01*
X156720000Y-99185000D02*
X156720000Y-98425000D01*
X144240000Y-179290000D02*
X152940000Y-179290000D01*
X144240000Y-172880000D02*
X152940000Y-172880000D01*
X152940000Y-172880000D02*
X152940000Y-179290000D01*
X152940000Y-178060000D02*
X144240000Y-178060000D01*
X144240000Y-179290000D02*
X144240000Y-172880000D01*
X170940000Y-135195000D02*
X171740000Y-135195000D01*
X171740000Y-135195000D02*
X171740000Y-139125000D01*
X171740000Y-139125000D02*
X170620000Y-139125000D01*
X170620000Y-139125000D02*
X170620000Y-139049677D01*
X171740000Y-135630000D02*
X175740000Y-135630000D01*
X175740000Y-135630000D02*
X175740000Y-136150000D01*
X175740000Y-136150000D02*
X171740000Y-136150000D01*
X171740000Y-135690000D02*
X175740000Y-135690000D01*
X171740000Y-135810000D02*
X175740000Y-135810000D01*
X171740000Y-135930000D02*
X175740000Y-135930000D01*
X171740000Y-136050000D02*
X175740000Y-136050000D01*
X170940000Y-136525000D02*
X171740000Y-136525000D01*
X171740000Y-136900000D02*
X175740000Y-136900000D01*
X175740000Y-136900000D02*
X175740000Y-137420000D01*
X175740000Y-137420000D02*
X171740000Y-137420000D01*
X170620000Y-137795000D02*
X171740000Y-137795000D01*
X170620000Y-137779677D02*
X170620000Y-137810323D01*
X171740000Y-138170000D02*
X175740000Y-138170000D01*
X175740000Y-138170000D02*
X175740000Y-138690000D01*
X175740000Y-138690000D02*
X171740000Y-138690000D01*
X169420000Y-135890000D02*
X169420000Y-135130000D01*
X169420000Y-135130000D02*
X170180000Y-135130000D01*
X146625000Y-97030000D02*
X146625000Y-96230000D01*
X146625000Y-96230000D02*
X150555000Y-96230000D01*
X150555000Y-96230000D02*
X150555000Y-97350000D01*
X150555000Y-97350000D02*
X150479677Y-97350000D01*
X147060000Y-96230000D02*
X147060000Y-92230000D01*
X147060000Y-92230000D02*
X147580000Y-92230000D01*
X147580000Y-92230000D02*
X147580000Y-96230000D01*
X147120000Y-96230000D02*
X147120000Y-92230000D01*
X147240000Y-96230000D02*
X147240000Y-92230000D01*
X147360000Y-96230000D02*
X147360000Y-92230000D01*
X147480000Y-96230000D02*
X147480000Y-92230000D01*
X147955000Y-97030000D02*
X147955000Y-96230000D01*
X148330000Y-96230000D02*
X148330000Y-92230000D01*
X148330000Y-92230000D02*
X148850000Y-92230000D01*
X148850000Y-92230000D02*
X148850000Y-96230000D01*
X149225000Y-97350000D02*
X149225000Y-96230000D01*
X149209677Y-97350000D02*
X149240323Y-97350000D01*
X149600000Y-96230000D02*
X149600000Y-92230000D01*
X149600000Y-92230000D02*
X150120000Y-92230000D01*
X150120000Y-92230000D02*
X150120000Y-96230000D01*
X147320000Y-98550000D02*
X146560000Y-98550000D01*
X146560000Y-98550000D02*
X146560000Y-97790000D01*
X126240000Y-139125000D02*
X125440000Y-139125000D01*
X125440000Y-139125000D02*
X125440000Y-135195000D01*
X125440000Y-135195000D02*
X126560000Y-135195000D01*
X126560000Y-135195000D02*
X126560000Y-135270323D01*
X125440000Y-138690000D02*
X121440000Y-138690000D01*
X121440000Y-138690000D02*
X121440000Y-138170000D01*
X121440000Y-138170000D02*
X125440000Y-138170000D01*
X125440000Y-138630000D02*
X121440000Y-138630000D01*
X125440000Y-138510000D02*
X121440000Y-138510000D01*
X125440000Y-138390000D02*
X121440000Y-138390000D01*
X125440000Y-138270000D02*
X121440000Y-138270000D01*
X126240000Y-137795000D02*
X125440000Y-137795000D01*
X125440000Y-137420000D02*
X121440000Y-137420000D01*
X121440000Y-137420000D02*
X121440000Y-136900000D01*
X121440000Y-136900000D02*
X125440000Y-136900000D01*
X126560000Y-136525000D02*
X125440000Y-136525000D01*
X126560000Y-136540323D02*
X126560000Y-136509677D01*
X125440000Y-136150000D02*
X121440000Y-136150000D01*
X121440000Y-136150000D02*
X121440000Y-135630000D01*
X121440000Y-135630000D02*
X125440000Y-135630000D01*
X127760000Y-138430000D02*
X127760000Y-139190000D01*
X127760000Y-139190000D02*
X127000000Y-139190000D01*
X157334500Y-151277000D02*
X157334500Y-152277000D01*
X155974500Y-152277000D02*
X155974500Y-151277000D01*
X161246500Y-147402000D02*
X162246500Y-147402000D01*
X162246500Y-148762000D02*
X161246500Y-148762000D01*
X131336500Y-156265500D02*
X131336500Y-155265500D01*
X132696500Y-155265500D02*
X132696500Y-156265500D01*
D12*
X135451100Y-106353600D02*
X135451100Y-116353600D01*
X135451100Y-116353600D02*
X123451100Y-116353600D01*
X123451100Y-116353600D02*
X123451100Y-106353600D01*
X123451100Y-106353600D02*
X135451100Y-106353600D01*
X161551100Y-116353600D02*
X161551100Y-106353600D01*
X161551100Y-106353600D02*
X173551100Y-106353600D01*
X173551100Y-106353600D02*
X173551100Y-116353600D01*
X173551100Y-116353600D02*
X161551100Y-116353600D01*
X161551100Y-173503600D02*
X161551100Y-163503600D01*
X161551100Y-163503600D02*
X173551100Y-163503600D01*
X173551100Y-163503600D02*
X173551100Y-173503600D01*
X173551100Y-173503600D02*
X161551100Y-173503600D01*
X135451100Y-163503600D02*
X135451100Y-173503600D01*
X135451100Y-173503600D02*
X123451100Y-173503600D01*
X123451100Y-173503600D02*
X123451100Y-163503600D01*
X123451100Y-163503600D02*
X135451100Y-163503600D01*
D13*
X150236000Y-118890000D02*
X149306000Y-118890000D01*
X147076000Y-118890000D02*
X148006000Y-118890000D01*
X147076000Y-118890000D02*
X147076000Y-121050000D01*
X150236000Y-118890000D02*
X150236000Y-120350000D01*
X149266500Y-150811000D02*
X149266500Y-151311000D01*
X150326500Y-151311000D02*
X150326500Y-150811000D01*
X150496500Y-148949000D02*
X149996500Y-148949000D01*
X149996500Y-150009000D02*
X150496500Y-150009000D01*
X159574000Y-141500000D02*
X160074000Y-141500000D01*
X160074000Y-140440000D02*
X159574000Y-140440000D01*
X148652000Y-172615000D02*
X149152000Y-172615000D01*
X149152000Y-171555000D02*
X148652000Y-171555000D01*
X147385000Y-171555000D02*
X146885000Y-171555000D01*
X146885000Y-172615000D02*
X147385000Y-172615000D01*
X151914000Y-124652000D02*
X151914000Y-124152000D01*
X150854000Y-124152000D02*
X150854000Y-124652000D01*
X156994000Y-126938000D02*
X156994000Y-126438000D01*
X155934000Y-126438000D02*
X155934000Y-126938000D01*
X155724000Y-126938000D02*
X155724000Y-126438000D01*
X154664000Y-126438000D02*
X154664000Y-126938000D01*
X158688000Y-122914000D02*
X158188000Y-122914000D01*
X158188000Y-123974000D02*
X158688000Y-123974000D01*
X157672000Y-121657999D02*
X157172000Y-121657999D01*
X157172000Y-122717999D02*
X157672000Y-122717999D01*
X155426000Y-121220000D02*
X155426000Y-121720000D01*
X156486000Y-121720000D02*
X156486000Y-121220000D01*
X154070000Y-121300000D02*
X154070000Y-121800000D01*
X155130000Y-121800000D02*
X155130000Y-121300000D01*
X145564000Y-115508000D02*
X145564000Y-115008000D01*
X144504000Y-115008000D02*
X144504000Y-115508000D01*
X150684000Y-115338000D02*
X151184000Y-115338000D01*
X151184000Y-114278000D02*
X150684000Y-114278000D01*
X151660000Y-112068000D02*
X151660000Y-111568000D01*
X150600000Y-111568000D02*
X150600000Y-112068000D01*
X145818000Y-162429000D02*
X145818000Y-161929000D01*
X144758000Y-161929000D02*
X144758000Y-162429000D01*
X150938000Y-161947000D02*
X151438000Y-161947000D01*
X151438000Y-160887000D02*
X150938000Y-160887000D01*
X151406000Y-158619000D02*
X151406000Y-158119000D01*
X150346000Y-158119000D02*
X150346000Y-158619000D01*
X126938000Y-102848000D02*
X126438000Y-102848000D01*
X126438000Y-103908000D02*
X126938000Y-103908000D01*
X126300000Y-100860000D02*
X126800000Y-100860000D01*
X126800000Y-99800000D02*
X126300000Y-99800000D01*
X170496000Y-100860000D02*
X170996000Y-100860000D01*
X170996000Y-99800000D02*
X170496000Y-99800000D01*
X170996000Y-102848000D02*
X170496000Y-102848000D01*
X170496000Y-103908000D02*
X170996000Y-103908000D01*
X148695000Y-103255000D02*
X148695000Y-103755000D01*
X149755000Y-103755000D02*
X149755000Y-103255000D01*
X147570000Y-102340000D02*
X147070000Y-102340000D01*
X147070000Y-103400000D02*
X147570000Y-103400000D01*
X142503500Y-137436000D02*
X143003500Y-137436000D01*
X143003500Y-136376000D02*
X142503500Y-136376000D01*
X142498000Y-138896500D02*
X142998000Y-138896500D01*
X142998000Y-137836500D02*
X142498000Y-137836500D01*
X148612000Y-132388000D02*
X148612000Y-131888000D01*
X147552000Y-131888000D02*
X147552000Y-132388000D01*
X136783000Y-124990000D02*
X137283000Y-124990000D01*
X137283000Y-123930000D02*
X136783000Y-123930000D01*
X136777500Y-126831500D02*
X137277500Y-126831500D01*
X137277500Y-125771500D02*
X136777500Y-125771500D01*
X136777500Y-128673000D02*
X137277500Y-128673000D01*
X137277500Y-127613000D02*
X136777500Y-127613000D01*
X136780500Y-148949000D02*
X136280500Y-148949000D01*
X136280500Y-150009000D02*
X136780500Y-150009000D01*
X138789000Y-146816000D02*
X138789000Y-147316000D01*
X139849000Y-147316000D02*
X139849000Y-146816000D01*
X141881000Y-155767000D02*
X141881000Y-155267000D01*
X140821000Y-155267000D02*
X140821000Y-155767000D01*
X142940000Y-148949000D02*
X142440000Y-148949000D01*
X142440000Y-150009000D02*
X142940000Y-150009000D01*
X146897500Y-152084000D02*
X146897500Y-151584000D01*
X145837500Y-151584000D02*
X145837500Y-152084000D01*
X137672000Y-148104000D02*
X138172000Y-148104000D01*
X138172000Y-147044000D02*
X137672000Y-147044000D01*
X139868500Y-146821500D02*
X139868500Y-147321500D01*
X140928500Y-147321500D02*
X140928500Y-146821500D01*
X169365000Y-149890000D02*
X169365000Y-149690000D01*
X173505000Y-152690000D02*
X173715000Y-152490000D01*
X173505000Y-151390000D02*
X173715000Y-151590000D01*
X172215000Y-152690000D02*
X173505000Y-152690000D01*
X173715000Y-152490000D02*
X173715000Y-151590000D01*
X173505000Y-151390000D02*
X172215000Y-151390000D01*
X172215000Y-154140000D02*
X172215000Y-148440000D01*
X169365000Y-152890000D02*
X169365000Y-151190000D01*
X170415000Y-154740000D02*
X171205000Y-154740000D01*
X171205000Y-147840000D02*
X170415000Y-147840000D01*
D12*
X131970500Y-137899000D02*
X131970500Y-136299000D01*
X135170500Y-138599000D02*
X132770500Y-138599000D01*
X135970500Y-136299000D02*
X135970500Y-137899000D01*
X132770500Y-135599000D02*
X135170500Y-135599000D01*
D14*
X131670500Y-136149000D02*
G75*
G03X131670500Y-136149000I-100000J0D01*
G01*
D12*
X154755000Y-149685000D02*
X151505000Y-149685000D01*
X155580000Y-153985000D02*
X151505000Y-153985000D01*
D10*
X146882500Y-122606000D02*
X147702500Y-122606000D01*
X146982500Y-125306000D02*
X147702500Y-125306000D01*
X146982500Y-125306000D02*
X146982500Y-125086000D01*
X150182500Y-125086000D02*
X150182500Y-125306000D01*
X150182500Y-125306000D02*
X149462500Y-125306000D01*
X149462500Y-122606000D02*
X150182500Y-122606000D01*
X150182500Y-122606000D02*
X150182500Y-122826000D01*
D12*
X154730716Y-125382999D02*
X154730716Y-122982999D01*
X154730716Y-122982999D02*
X157430716Y-122982999D01*
X157430716Y-122982999D02*
X157430716Y-125382999D01*
X157430716Y-125382999D02*
X154730716Y-125382999D01*
X146208000Y-158611000D02*
X149083000Y-158611000D01*
X146983000Y-161861000D02*
X149083000Y-161861000D01*
D15*
X145106200Y-141935200D02*
X145617560Y-141935200D01*
X152573800Y-141935200D02*
X152573800Y-141423840D01*
X152573800Y-134467600D02*
X152062440Y-134467600D01*
X145106200Y-134467600D02*
X145106200Y-134978960D01*
X145106200Y-141423840D02*
X145106200Y-141935200D01*
X152062440Y-141935200D02*
X152573800Y-141935200D01*
X152573800Y-134978960D02*
X152573800Y-134467600D01*
X145617560Y-134467600D02*
X145106200Y-134467600D01*
X160626999Y-147062001D02*
X162184999Y-147062001D01*
X162184999Y-145054001D02*
X160626999Y-145054001D01*
X133004499Y-157920501D02*
X134562499Y-157920501D01*
X134562499Y-155912501D02*
X133004499Y-155912501D01*
D12*
X141198000Y-148616000D02*
X141198000Y-149116000D01*
X137948000Y-151866000D02*
X137948000Y-151366000D01*
X141198000Y-151866000D02*
X141198000Y-151366000D01*
X137948000Y-148616000D02*
X138448000Y-148616000D01*
X137948000Y-151866000D02*
X138448000Y-151866000D01*
X141198000Y-151866000D02*
X140698000Y-151866000D01*
X141198000Y-148616000D02*
X140698000Y-148616000D01*
D13*
X132350000Y-122050000D02*
X132350000Y-123450000D01*
X132350000Y-123450000D02*
X135150000Y-123450000D01*
X132350000Y-122050000D02*
X135150000Y-122050000D01*
X136750000Y-123280000D02*
X137250000Y-123280000D01*
X137250000Y-122220000D02*
X136750000Y-122220000D01*
D12*
X146750428Y-110621429D02*
X146750428Y-111107143D01*
X146779000Y-111164286D01*
X146807571Y-111192857D01*
X146864714Y-111221429D01*
X146979000Y-111221429D01*
X147036142Y-111192857D01*
X147064714Y-111164286D01*
X147093285Y-111107143D01*
X147093285Y-110621429D01*
X147321856Y-110621429D02*
X147693285Y-110621429D01*
X147493285Y-110850000D01*
X147578999Y-110850000D01*
X147636142Y-110878571D01*
X147664713Y-110907143D01*
X147693285Y-110964286D01*
X147693285Y-111107143D01*
X147664713Y-111164286D01*
X147636142Y-111192857D01*
X147578999Y-111221429D01*
X147407571Y-111221429D01*
X147350428Y-111192857D01*
X147321856Y-111164286D01*
X148064714Y-110621429D02*
X148121857Y-110621429D01*
X148179000Y-110650000D01*
X148207571Y-110678571D01*
X148236142Y-110735714D01*
X148264714Y-110850000D01*
X148264714Y-110992857D01*
X148236142Y-111107143D01*
X148207571Y-111164286D01*
X148179000Y-111192857D01*
X148121857Y-111221429D01*
X148064714Y-111221429D01*
X148007571Y-111192857D01*
X147979000Y-111164286D01*
X147950428Y-111107143D01*
X147921857Y-110992857D01*
X147921857Y-110850000D01*
X147950428Y-110735714D01*
X147979000Y-110678571D01*
X148007571Y-110650000D01*
X148064714Y-110621429D01*
X148836143Y-111221429D02*
X148493286Y-111221429D01*
X148664714Y-111221429D02*
X148664714Y-110621429D01*
X148607571Y-110707143D01*
X148550429Y-110764286D01*
X148493286Y-110792857D01*
X154280500Y-147915286D02*
X154251929Y-147943857D01*
X154166215Y-147972429D01*
X154109072Y-147972429D01*
X154023357Y-147943857D01*
X153966215Y-147886714D01*
X153937643Y-147829571D01*
X153909072Y-147715286D01*
X153909072Y-147629571D01*
X153937643Y-147515286D01*
X153966215Y-147458143D01*
X154023357Y-147401000D01*
X154109072Y-147372429D01*
X154166215Y-147372429D01*
X154251929Y-147401000D01*
X154280500Y-147429571D01*
X154851929Y-147972429D02*
X154509072Y-147972429D01*
X154680500Y-147972429D02*
X154680500Y-147372429D01*
X154623357Y-147458143D01*
X154566215Y-147515286D01*
X154509072Y-147543857D01*
X147960571Y-127714286D02*
X147932000Y-127742857D01*
X147846286Y-127771429D01*
X147789143Y-127771429D01*
X147703428Y-127742857D01*
X147646286Y-127685714D01*
X147617714Y-127628571D01*
X147589143Y-127514286D01*
X147589143Y-127428571D01*
X147617714Y-127314286D01*
X147646286Y-127257143D01*
X147703428Y-127200000D01*
X147789143Y-127171429D01*
X147846286Y-127171429D01*
X147932000Y-127200000D01*
X147960571Y-127228571D01*
X148189143Y-127228571D02*
X148217714Y-127200000D01*
X148274857Y-127171429D01*
X148417714Y-127171429D01*
X148474857Y-127200000D01*
X148503428Y-127228571D01*
X148532000Y-127285714D01*
X148532000Y-127342857D01*
X148503428Y-127428571D01*
X148160571Y-127771429D01*
X148532000Y-127771429D01*
X148903429Y-127171429D02*
X148960572Y-127171429D01*
X149017715Y-127200000D01*
X149046286Y-127228571D01*
X149074857Y-127285714D01*
X149103429Y-127400000D01*
X149103429Y-127542857D01*
X149074857Y-127657143D01*
X149046286Y-127714286D01*
X149017715Y-127742857D01*
X148960572Y-127771429D01*
X148903429Y-127771429D01*
X148846286Y-127742857D01*
X148817715Y-127714286D01*
X148789143Y-127657143D01*
X148760572Y-127542857D01*
X148760572Y-127400000D01*
X148789143Y-127285714D01*
X148817715Y-127228571D01*
X148846286Y-127200000D01*
X148903429Y-127171429D01*
X149674858Y-127771429D02*
X149332001Y-127771429D01*
X149503429Y-127771429D02*
X149503429Y-127171429D01*
X149446286Y-127257143D01*
X149389144Y-127314286D01*
X149332001Y-127342857D01*
X147220071Y-117214286D02*
X147191500Y-117242857D01*
X147105786Y-117271429D01*
X147048643Y-117271429D01*
X146962928Y-117242857D01*
X146905786Y-117185714D01*
X146877214Y-117128571D01*
X146848643Y-117014286D01*
X146848643Y-116928571D01*
X146877214Y-116814286D01*
X146905786Y-116757143D01*
X146962928Y-116700000D01*
X147048643Y-116671429D01*
X147105786Y-116671429D01*
X147191500Y-116700000D01*
X147220071Y-116728571D01*
X147420071Y-116671429D02*
X147791500Y-116671429D01*
X147591500Y-116900000D01*
X147677214Y-116900000D01*
X147734357Y-116928571D01*
X147762928Y-116957143D01*
X147791500Y-117014286D01*
X147791500Y-117157143D01*
X147762928Y-117214286D01*
X147734357Y-117242857D01*
X147677214Y-117271429D01*
X147505786Y-117271429D01*
X147448643Y-117242857D01*
X147420071Y-117214286D01*
X148162929Y-116671429D02*
X148220072Y-116671429D01*
X148277215Y-116700000D01*
X148305786Y-116728571D01*
X148334357Y-116785714D01*
X148362929Y-116900000D01*
X148362929Y-117042857D01*
X148334357Y-117157143D01*
X148305786Y-117214286D01*
X148277215Y-117242857D01*
X148220072Y-117271429D01*
X148162929Y-117271429D01*
X148105786Y-117242857D01*
X148077215Y-117214286D01*
X148048643Y-117157143D01*
X148020072Y-117042857D01*
X148020072Y-116900000D01*
X148048643Y-116785714D01*
X148077215Y-116728571D01*
X148105786Y-116700000D01*
X148162929Y-116671429D01*
X148934358Y-117271429D02*
X148591501Y-117271429D01*
X148762929Y-117271429D02*
X148762929Y-116671429D01*
X148705786Y-116757143D01*
X148648644Y-116814286D01*
X148591501Y-116842857D01*
X148236071Y-163980786D02*
X148207500Y-164009357D01*
X148121786Y-164037929D01*
X148064643Y-164037929D01*
X147978928Y-164009357D01*
X147921786Y-163952214D01*
X147893214Y-163895071D01*
X147864643Y-163780786D01*
X147864643Y-163695071D01*
X147893214Y-163580786D01*
X147921786Y-163523643D01*
X147978928Y-163466500D01*
X148064643Y-163437929D01*
X148121786Y-163437929D01*
X148207500Y-163466500D01*
X148236071Y-163495071D01*
X148436071Y-163437929D02*
X148807500Y-163437929D01*
X148607500Y-163666500D01*
X148693214Y-163666500D01*
X148750357Y-163695071D01*
X148778928Y-163723643D01*
X148807500Y-163780786D01*
X148807500Y-163923643D01*
X148778928Y-163980786D01*
X148750357Y-164009357D01*
X148693214Y-164037929D01*
X148521786Y-164037929D01*
X148464643Y-164009357D01*
X148436071Y-163980786D01*
X149178929Y-163437929D02*
X149236072Y-163437929D01*
X149293215Y-163466500D01*
X149321786Y-163495071D01*
X149350357Y-163552214D01*
X149378929Y-163666500D01*
X149378929Y-163809357D01*
X149350357Y-163923643D01*
X149321786Y-163980786D01*
X149293215Y-164009357D01*
X149236072Y-164037929D01*
X149178929Y-164037929D01*
X149121786Y-164009357D01*
X149093215Y-163980786D01*
X149064643Y-163923643D01*
X149036072Y-163809357D01*
X149036072Y-163666500D01*
X149064643Y-163552214D01*
X149093215Y-163495071D01*
X149121786Y-163466500D01*
X149178929Y-163437929D01*
X149578929Y-163437929D02*
X149950358Y-163437929D01*
X149750358Y-163666500D01*
X149836072Y-163666500D01*
X149893215Y-163695071D01*
X149921786Y-163723643D01*
X149950358Y-163780786D01*
X149950358Y-163923643D01*
X149921786Y-163980786D01*
X149893215Y-164009357D01*
X149836072Y-164037929D01*
X149664644Y-164037929D01*
X149607501Y-164009357D01*
X149578929Y-163980786D01*
X130262286Y-138170429D02*
X130290857Y-138199000D01*
X130319429Y-138284714D01*
X130319429Y-138341857D01*
X130290857Y-138427572D01*
X130233714Y-138484714D01*
X130176571Y-138513286D01*
X130062286Y-138541857D01*
X129976571Y-138541857D01*
X129862286Y-138513286D01*
X129805143Y-138484714D01*
X129748000Y-138427572D01*
X129719429Y-138341857D01*
X129719429Y-138284714D01*
X129748000Y-138199000D01*
X129776571Y-138170429D01*
X129719429Y-137656143D02*
X129719429Y-137770429D01*
X129748000Y-137827572D01*
X129776571Y-137856143D01*
X129862286Y-137913286D01*
X129976571Y-137941857D01*
X130205143Y-137941857D01*
X130262286Y-137913286D01*
X130290857Y-137884714D01*
X130319429Y-137827572D01*
X130319429Y-137713286D01*
X130290857Y-137656143D01*
X130262286Y-137627572D01*
X130205143Y-137599000D01*
X130062286Y-137599000D01*
X130005143Y-137627572D01*
X129976571Y-137656143D01*
X129948000Y-137713286D01*
X129948000Y-137827572D01*
X129976571Y-137884714D01*
X130005143Y-137913286D01*
X130062286Y-137941857D01*
X129719429Y-137227571D02*
X129719429Y-137170428D01*
X129748000Y-137113285D01*
X129776571Y-137084714D01*
X129833714Y-137056143D01*
X129948000Y-137027571D01*
X130090857Y-137027571D01*
X130205143Y-137056143D01*
X130262286Y-137084714D01*
X130290857Y-137113285D01*
X130319429Y-137170428D01*
X130319429Y-137227571D01*
X130290857Y-137284714D01*
X130262286Y-137313285D01*
X130205143Y-137341857D01*
X130090857Y-137370428D01*
X129948000Y-137370428D01*
X129833714Y-137341857D01*
X129776571Y-137313285D01*
X129748000Y-137284714D01*
X129719429Y-137227571D01*
X130319429Y-136456142D02*
X130319429Y-136798999D01*
X130319429Y-136627571D02*
X129719429Y-136627571D01*
X129805143Y-136684714D01*
X129862286Y-136741856D01*
X129890857Y-136798999D01*
X138136286Y-134402429D02*
X138164857Y-134431000D01*
X138193429Y-134516714D01*
X138193429Y-134573857D01*
X138164857Y-134659572D01*
X138107714Y-134716714D01*
X138050571Y-134745286D01*
X137936286Y-134773857D01*
X137850571Y-134773857D01*
X137736286Y-134745286D01*
X137679143Y-134716714D01*
X137622000Y-134659572D01*
X137593429Y-134573857D01*
X137593429Y-134516714D01*
X137622000Y-134431000D01*
X137650571Y-134402429D01*
X137593429Y-133888143D02*
X137593429Y-134002429D01*
X137622000Y-134059572D01*
X137650571Y-134088143D01*
X137736286Y-134145286D01*
X137850571Y-134173857D01*
X138079143Y-134173857D01*
X138136286Y-134145286D01*
X138164857Y-134116714D01*
X138193429Y-134059572D01*
X138193429Y-133945286D01*
X138164857Y-133888143D01*
X138136286Y-133859572D01*
X138079143Y-133831000D01*
X137936286Y-133831000D01*
X137879143Y-133859572D01*
X137850571Y-133888143D01*
X137822000Y-133945286D01*
X137822000Y-134059572D01*
X137850571Y-134116714D01*
X137879143Y-134145286D01*
X137936286Y-134173857D01*
X137593429Y-133459571D02*
X137593429Y-133402428D01*
X137622000Y-133345285D01*
X137650571Y-133316714D01*
X137707714Y-133288143D01*
X137822000Y-133259571D01*
X137964857Y-133259571D01*
X138079143Y-133288143D01*
X138136286Y-133316714D01*
X138164857Y-133345285D01*
X138193429Y-133402428D01*
X138193429Y-133459571D01*
X138164857Y-133516714D01*
X138136286Y-133545285D01*
X138079143Y-133573857D01*
X137964857Y-133602428D01*
X137822000Y-133602428D01*
X137707714Y-133573857D01*
X137650571Y-133545285D01*
X137622000Y-133516714D01*
X137593429Y-133459571D01*
X137650571Y-133030999D02*
X137622000Y-133002428D01*
X137593429Y-132945285D01*
X137593429Y-132802428D01*
X137622000Y-132745285D01*
X137650571Y-132716714D01*
X137707714Y-132688142D01*
X137764857Y-132688142D01*
X137850571Y-132716714D01*
X138193429Y-133059571D01*
X138193429Y-132688142D01*
X138136286Y-136963929D02*
X138164857Y-136992500D01*
X138193429Y-137078214D01*
X138193429Y-137135357D01*
X138164857Y-137221072D01*
X138107714Y-137278214D01*
X138050571Y-137306786D01*
X137936286Y-137335357D01*
X137850571Y-137335357D01*
X137736286Y-137306786D01*
X137679143Y-137278214D01*
X137622000Y-137221072D01*
X137593429Y-137135357D01*
X137593429Y-137078214D01*
X137622000Y-136992500D01*
X137650571Y-136963929D01*
X137593429Y-136449643D02*
X137593429Y-136563929D01*
X137622000Y-136621072D01*
X137650571Y-136649643D01*
X137736286Y-136706786D01*
X137850571Y-136735357D01*
X138079143Y-136735357D01*
X138136286Y-136706786D01*
X138164857Y-136678214D01*
X138193429Y-136621072D01*
X138193429Y-136506786D01*
X138164857Y-136449643D01*
X138136286Y-136421072D01*
X138079143Y-136392500D01*
X137936286Y-136392500D01*
X137879143Y-136421072D01*
X137850571Y-136449643D01*
X137822000Y-136506786D01*
X137822000Y-136621072D01*
X137850571Y-136678214D01*
X137879143Y-136706786D01*
X137936286Y-136735357D01*
X137593429Y-136021071D02*
X137593429Y-135963928D01*
X137622000Y-135906785D01*
X137650571Y-135878214D01*
X137707714Y-135849643D01*
X137822000Y-135821071D01*
X137964857Y-135821071D01*
X138079143Y-135849643D01*
X138136286Y-135878214D01*
X138164857Y-135906785D01*
X138193429Y-135963928D01*
X138193429Y-136021071D01*
X138164857Y-136078214D01*
X138136286Y-136106785D01*
X138079143Y-136135357D01*
X137964857Y-136163928D01*
X137822000Y-136163928D01*
X137707714Y-136135357D01*
X137650571Y-136106785D01*
X137622000Y-136078214D01*
X137593429Y-136021071D01*
X137593429Y-135621071D02*
X137593429Y-135249642D01*
X137822000Y-135449642D01*
X137822000Y-135363928D01*
X137850571Y-135306785D01*
X137879143Y-135278214D01*
X137936286Y-135249642D01*
X138079143Y-135249642D01*
X138136286Y-135278214D01*
X138164857Y-135306785D01*
X138193429Y-135363928D01*
X138193429Y-135535356D01*
X138164857Y-135592499D01*
X138136286Y-135621071D01*
X137501286Y-139270429D02*
X137529857Y-139299000D01*
X137558429Y-139384714D01*
X137558429Y-139441857D01*
X137529857Y-139527572D01*
X137472714Y-139584714D01*
X137415571Y-139613286D01*
X137301286Y-139641857D01*
X137215571Y-139641857D01*
X137101286Y-139613286D01*
X137044143Y-139584714D01*
X136987000Y-139527572D01*
X136958429Y-139441857D01*
X136958429Y-139384714D01*
X136987000Y-139299000D01*
X137015571Y-139270429D01*
X136958429Y-138756143D02*
X136958429Y-138870429D01*
X136987000Y-138927572D01*
X137015571Y-138956143D01*
X137101286Y-139013286D01*
X137215571Y-139041857D01*
X137444143Y-139041857D01*
X137501286Y-139013286D01*
X137529857Y-138984714D01*
X137558429Y-138927572D01*
X137558429Y-138813286D01*
X137529857Y-138756143D01*
X137501286Y-138727572D01*
X137444143Y-138699000D01*
X137301286Y-138699000D01*
X137244143Y-138727572D01*
X137215571Y-138756143D01*
X137187000Y-138813286D01*
X137187000Y-138927572D01*
X137215571Y-138984714D01*
X137244143Y-139013286D01*
X137301286Y-139041857D01*
X136958429Y-138327571D02*
X136958429Y-138270428D01*
X136987000Y-138213285D01*
X137015571Y-138184714D01*
X137072714Y-138156143D01*
X137187000Y-138127571D01*
X137329857Y-138127571D01*
X137444143Y-138156143D01*
X137501286Y-138184714D01*
X137529857Y-138213285D01*
X137558429Y-138270428D01*
X137558429Y-138327571D01*
X137529857Y-138384714D01*
X137501286Y-138413285D01*
X137444143Y-138441857D01*
X137329857Y-138470428D01*
X137187000Y-138470428D01*
X137072714Y-138441857D01*
X137015571Y-138413285D01*
X136987000Y-138384714D01*
X136958429Y-138327571D01*
X137158429Y-137613285D02*
X137558429Y-137613285D01*
X136929857Y-137756142D02*
X137358429Y-137898999D01*
X137358429Y-137527571D01*
X137437786Y-143313929D02*
X137466357Y-143342500D01*
X137494929Y-143428214D01*
X137494929Y-143485357D01*
X137466357Y-143571072D01*
X137409214Y-143628214D01*
X137352071Y-143656786D01*
X137237786Y-143685357D01*
X137152071Y-143685357D01*
X137037786Y-143656786D01*
X136980643Y-143628214D01*
X136923500Y-143571072D01*
X136894929Y-143485357D01*
X136894929Y-143428214D01*
X136923500Y-143342500D01*
X136952071Y-143313929D01*
X136894929Y-142799643D02*
X136894929Y-142913929D01*
X136923500Y-142971072D01*
X136952071Y-142999643D01*
X137037786Y-143056786D01*
X137152071Y-143085357D01*
X137380643Y-143085357D01*
X137437786Y-143056786D01*
X137466357Y-143028214D01*
X137494929Y-142971072D01*
X137494929Y-142856786D01*
X137466357Y-142799643D01*
X137437786Y-142771072D01*
X137380643Y-142742500D01*
X137237786Y-142742500D01*
X137180643Y-142771072D01*
X137152071Y-142799643D01*
X137123500Y-142856786D01*
X137123500Y-142971072D01*
X137152071Y-143028214D01*
X137180643Y-143056786D01*
X137237786Y-143085357D01*
X136894929Y-142371071D02*
X136894929Y-142313928D01*
X136923500Y-142256785D01*
X136952071Y-142228214D01*
X137009214Y-142199643D01*
X137123500Y-142171071D01*
X137266357Y-142171071D01*
X137380643Y-142199643D01*
X137437786Y-142228214D01*
X137466357Y-142256785D01*
X137494929Y-142313928D01*
X137494929Y-142371071D01*
X137466357Y-142428214D01*
X137437786Y-142456785D01*
X137380643Y-142485357D01*
X137266357Y-142513928D01*
X137123500Y-142513928D01*
X137009214Y-142485357D01*
X136952071Y-142456785D01*
X136923500Y-142428214D01*
X136894929Y-142371071D01*
X136894929Y-141628214D02*
X136894929Y-141913928D01*
X137180643Y-141942499D01*
X137152071Y-141913928D01*
X137123500Y-141856785D01*
X137123500Y-141713928D01*
X137152071Y-141656785D01*
X137180643Y-141628214D01*
X137237786Y-141599642D01*
X137380643Y-141599642D01*
X137437786Y-141628214D01*
X137466357Y-141656785D01*
X137494929Y-141713928D01*
X137494929Y-141856785D01*
X137466357Y-141913928D01*
X137437786Y-141942499D01*
X151093571Y-145311786D02*
X151065000Y-145340357D01*
X150979286Y-145368929D01*
X150922143Y-145368929D01*
X150836428Y-145340357D01*
X150779286Y-145283214D01*
X150750714Y-145226071D01*
X150722143Y-145111786D01*
X150722143Y-145026071D01*
X150750714Y-144911786D01*
X150779286Y-144854643D01*
X150836428Y-144797500D01*
X150922143Y-144768929D01*
X150979286Y-144768929D01*
X151065000Y-144797500D01*
X151093571Y-144826071D01*
X151607857Y-144768929D02*
X151493571Y-144768929D01*
X151436428Y-144797500D01*
X151407857Y-144826071D01*
X151350714Y-144911786D01*
X151322143Y-145026071D01*
X151322143Y-145254643D01*
X151350714Y-145311786D01*
X151379286Y-145340357D01*
X151436428Y-145368929D01*
X151550714Y-145368929D01*
X151607857Y-145340357D01*
X151636428Y-145311786D01*
X151665000Y-145254643D01*
X151665000Y-145111786D01*
X151636428Y-145054643D01*
X151607857Y-145026071D01*
X151550714Y-144997500D01*
X151436428Y-144997500D01*
X151379286Y-145026071D01*
X151350714Y-145054643D01*
X151322143Y-145111786D01*
X152036429Y-144768929D02*
X152093572Y-144768929D01*
X152150715Y-144797500D01*
X152179286Y-144826071D01*
X152207857Y-144883214D01*
X152236429Y-144997500D01*
X152236429Y-145140357D01*
X152207857Y-145254643D01*
X152179286Y-145311786D01*
X152150715Y-145340357D01*
X152093572Y-145368929D01*
X152036429Y-145368929D01*
X151979286Y-145340357D01*
X151950715Y-145311786D01*
X151922143Y-145254643D01*
X151893572Y-145140357D01*
X151893572Y-144997500D01*
X151922143Y-144883214D01*
X151950715Y-144826071D01*
X151979286Y-144797500D01*
X152036429Y-144768929D01*
X152750715Y-144768929D02*
X152636429Y-144768929D01*
X152579286Y-144797500D01*
X152550715Y-144826071D01*
X152493572Y-144911786D01*
X152465001Y-145026071D01*
X152465001Y-145254643D01*
X152493572Y-145311786D01*
X152522144Y-145340357D01*
X152579286Y-145368929D01*
X152693572Y-145368929D01*
X152750715Y-145340357D01*
X152779286Y-145311786D01*
X152807858Y-145254643D01*
X152807858Y-145111786D01*
X152779286Y-145054643D01*
X152750715Y-145026071D01*
X152693572Y-144997500D01*
X152579286Y-144997500D01*
X152522144Y-145026071D01*
X152493572Y-145054643D01*
X152465001Y-145111786D01*
X142962286Y-143228929D02*
X142990857Y-143257500D01*
X143019429Y-143343214D01*
X143019429Y-143400357D01*
X142990857Y-143486072D01*
X142933714Y-143543214D01*
X142876571Y-143571786D01*
X142762286Y-143600357D01*
X142676571Y-143600357D01*
X142562286Y-143571786D01*
X142505143Y-143543214D01*
X142448000Y-143486072D01*
X142419429Y-143400357D01*
X142419429Y-143343214D01*
X142448000Y-143257500D01*
X142476571Y-143228929D01*
X142419429Y-142714643D02*
X142419429Y-142828929D01*
X142448000Y-142886072D01*
X142476571Y-142914643D01*
X142562286Y-142971786D01*
X142676571Y-143000357D01*
X142905143Y-143000357D01*
X142962286Y-142971786D01*
X142990857Y-142943214D01*
X143019429Y-142886072D01*
X143019429Y-142771786D01*
X142990857Y-142714643D01*
X142962286Y-142686072D01*
X142905143Y-142657500D01*
X142762286Y-142657500D01*
X142705143Y-142686072D01*
X142676571Y-142714643D01*
X142648000Y-142771786D01*
X142648000Y-142886072D01*
X142676571Y-142943214D01*
X142705143Y-142971786D01*
X142762286Y-143000357D01*
X142419429Y-142286071D02*
X142419429Y-142228928D01*
X142448000Y-142171785D01*
X142476571Y-142143214D01*
X142533714Y-142114643D01*
X142648000Y-142086071D01*
X142790857Y-142086071D01*
X142905143Y-142114643D01*
X142962286Y-142143214D01*
X142990857Y-142171785D01*
X143019429Y-142228928D01*
X143019429Y-142286071D01*
X142990857Y-142343214D01*
X142962286Y-142371785D01*
X142905143Y-142400357D01*
X142790857Y-142428928D01*
X142648000Y-142428928D01*
X142533714Y-142400357D01*
X142476571Y-142371785D01*
X142448000Y-142343214D01*
X142419429Y-142286071D01*
X142419429Y-141886071D02*
X142419429Y-141486071D01*
X143019429Y-141743214D01*
X145146071Y-131405286D02*
X145117500Y-131433857D01*
X145031786Y-131462429D01*
X144974643Y-131462429D01*
X144888928Y-131433857D01*
X144831786Y-131376714D01*
X144803214Y-131319571D01*
X144774643Y-131205286D01*
X144774643Y-131119571D01*
X144803214Y-131005286D01*
X144831786Y-130948143D01*
X144888928Y-130891000D01*
X144974643Y-130862429D01*
X145031786Y-130862429D01*
X145117500Y-130891000D01*
X145146071Y-130919571D01*
X145660357Y-130862429D02*
X145546071Y-130862429D01*
X145488928Y-130891000D01*
X145460357Y-130919571D01*
X145403214Y-131005286D01*
X145374643Y-131119571D01*
X145374643Y-131348143D01*
X145403214Y-131405286D01*
X145431786Y-131433857D01*
X145488928Y-131462429D01*
X145603214Y-131462429D01*
X145660357Y-131433857D01*
X145688928Y-131405286D01*
X145717500Y-131348143D01*
X145717500Y-131205286D01*
X145688928Y-131148143D01*
X145660357Y-131119571D01*
X145603214Y-131091000D01*
X145488928Y-131091000D01*
X145431786Y-131119571D01*
X145403214Y-131148143D01*
X145374643Y-131205286D01*
X146088929Y-130862429D02*
X146146072Y-130862429D01*
X146203215Y-130891000D01*
X146231786Y-130919571D01*
X146260357Y-130976714D01*
X146288929Y-131091000D01*
X146288929Y-131233857D01*
X146260357Y-131348143D01*
X146231786Y-131405286D01*
X146203215Y-131433857D01*
X146146072Y-131462429D01*
X146088929Y-131462429D01*
X146031786Y-131433857D01*
X146003215Y-131405286D01*
X145974643Y-131348143D01*
X145946072Y-131233857D01*
X145946072Y-131091000D01*
X145974643Y-130976714D01*
X146003215Y-130919571D01*
X146031786Y-130891000D01*
X146088929Y-130862429D01*
X146631786Y-131119571D02*
X146574644Y-131091000D01*
X146546072Y-131062429D01*
X146517501Y-131005286D01*
X146517501Y-130976714D01*
X146546072Y-130919571D01*
X146574644Y-130891000D01*
X146631786Y-130862429D01*
X146746072Y-130862429D01*
X146803215Y-130891000D01*
X146831786Y-130919571D01*
X146860358Y-130976714D01*
X146860358Y-131005286D01*
X146831786Y-131062429D01*
X146803215Y-131091000D01*
X146746072Y-131119571D01*
X146631786Y-131119571D01*
X146574644Y-131148143D01*
X146546072Y-131176714D01*
X146517501Y-131233857D01*
X146517501Y-131348143D01*
X146546072Y-131405286D01*
X146574644Y-131433857D01*
X146631786Y-131462429D01*
X146746072Y-131462429D01*
X146803215Y-131433857D01*
X146831786Y-131405286D01*
X146860358Y-131348143D01*
X146860358Y-131233857D01*
X146831786Y-131176714D01*
X146803215Y-131148143D01*
X146746072Y-131119571D01*
X156106786Y-136031929D02*
X156135357Y-136060500D01*
X156163929Y-136146214D01*
X156163929Y-136203357D01*
X156135357Y-136289072D01*
X156078214Y-136346214D01*
X156021071Y-136374786D01*
X155906786Y-136403357D01*
X155821071Y-136403357D01*
X155706786Y-136374786D01*
X155649643Y-136346214D01*
X155592500Y-136289072D01*
X155563929Y-136203357D01*
X155563929Y-136146214D01*
X155592500Y-136060500D01*
X155621071Y-136031929D01*
X155563929Y-135517643D02*
X155563929Y-135631929D01*
X155592500Y-135689072D01*
X155621071Y-135717643D01*
X155706786Y-135774786D01*
X155821071Y-135803357D01*
X156049643Y-135803357D01*
X156106786Y-135774786D01*
X156135357Y-135746214D01*
X156163929Y-135689072D01*
X156163929Y-135574786D01*
X156135357Y-135517643D01*
X156106786Y-135489072D01*
X156049643Y-135460500D01*
X155906786Y-135460500D01*
X155849643Y-135489072D01*
X155821071Y-135517643D01*
X155792500Y-135574786D01*
X155792500Y-135689072D01*
X155821071Y-135746214D01*
X155849643Y-135774786D01*
X155906786Y-135803357D01*
X155563929Y-135089071D02*
X155563929Y-135031928D01*
X155592500Y-134974785D01*
X155621071Y-134946214D01*
X155678214Y-134917643D01*
X155792500Y-134889071D01*
X155935357Y-134889071D01*
X156049643Y-134917643D01*
X156106786Y-134946214D01*
X156135357Y-134974785D01*
X156163929Y-135031928D01*
X156163929Y-135089071D01*
X156135357Y-135146214D01*
X156106786Y-135174785D01*
X156049643Y-135203357D01*
X155935357Y-135231928D01*
X155792500Y-135231928D01*
X155678214Y-135203357D01*
X155621071Y-135174785D01*
X155592500Y-135146214D01*
X155563929Y-135089071D01*
X156163929Y-134603356D02*
X156163929Y-134489071D01*
X156135357Y-134431928D01*
X156106786Y-134403356D01*
X156021071Y-134346214D01*
X155906786Y-134317642D01*
X155678214Y-134317642D01*
X155621071Y-134346214D01*
X155592500Y-134374785D01*
X155563929Y-134431928D01*
X155563929Y-134546214D01*
X155592500Y-134603356D01*
X155621071Y-134631928D01*
X155678214Y-134660499D01*
X155821071Y-134660499D01*
X155878214Y-134631928D01*
X155906786Y-134603356D01*
X155935357Y-134546214D01*
X155935357Y-134431928D01*
X155906786Y-134374785D01*
X155878214Y-134346214D01*
X155821071Y-134317642D01*
X158416786Y-146836429D02*
X158445357Y-146865000D01*
X158473929Y-146950714D01*
X158473929Y-147007857D01*
X158445357Y-147093572D01*
X158388214Y-147150714D01*
X158331071Y-147179286D01*
X158216786Y-147207857D01*
X158131071Y-147207857D01*
X158016786Y-147179286D01*
X157959643Y-147150714D01*
X157902500Y-147093572D01*
X157873929Y-147007857D01*
X157873929Y-146950714D01*
X157902500Y-146865000D01*
X157931071Y-146836429D01*
X157873929Y-146636429D02*
X157873929Y-146236429D01*
X158473929Y-146493572D01*
X157873929Y-145893571D02*
X157873929Y-145836428D01*
X157902500Y-145779285D01*
X157931071Y-145750714D01*
X157988214Y-145722143D01*
X158102500Y-145693571D01*
X158245357Y-145693571D01*
X158359643Y-145722143D01*
X158416786Y-145750714D01*
X158445357Y-145779285D01*
X158473929Y-145836428D01*
X158473929Y-145893571D01*
X158445357Y-145950714D01*
X158416786Y-145979285D01*
X158359643Y-146007857D01*
X158245357Y-146036428D01*
X158102500Y-146036428D01*
X157988214Y-146007857D01*
X157931071Y-145979285D01*
X157902500Y-145950714D01*
X157873929Y-145893571D01*
X158473929Y-145122142D02*
X158473929Y-145464999D01*
X158473929Y-145293571D02*
X157873929Y-145293571D01*
X157959643Y-145350714D01*
X158016786Y-145407856D01*
X158045357Y-145464999D01*
X131214786Y-159294429D02*
X131243357Y-159323000D01*
X131271929Y-159408714D01*
X131271929Y-159465857D01*
X131243357Y-159551572D01*
X131186214Y-159608714D01*
X131129071Y-159637286D01*
X131014786Y-159665857D01*
X130929071Y-159665857D01*
X130814786Y-159637286D01*
X130757643Y-159608714D01*
X130700500Y-159551572D01*
X130671929Y-159465857D01*
X130671929Y-159408714D01*
X130700500Y-159323000D01*
X130729071Y-159294429D01*
X130671929Y-159094429D02*
X130671929Y-158694429D01*
X131271929Y-158951572D01*
X130671929Y-158351571D02*
X130671929Y-158294428D01*
X130700500Y-158237285D01*
X130729071Y-158208714D01*
X130786214Y-158180143D01*
X130900500Y-158151571D01*
X131043357Y-158151571D01*
X131157643Y-158180143D01*
X131214786Y-158208714D01*
X131243357Y-158237285D01*
X131271929Y-158294428D01*
X131271929Y-158351571D01*
X131243357Y-158408714D01*
X131214786Y-158437285D01*
X131157643Y-158465857D01*
X131043357Y-158494428D01*
X130900500Y-158494428D01*
X130786214Y-158465857D01*
X130729071Y-158437285D01*
X130700500Y-158408714D01*
X130671929Y-158351571D01*
X130729071Y-157922999D02*
X130700500Y-157894428D01*
X130671929Y-157837285D01*
X130671929Y-157694428D01*
X130700500Y-157637285D01*
X130729071Y-157608714D01*
X130786214Y-157580142D01*
X130843357Y-157580142D01*
X130929071Y-157608714D01*
X131271929Y-157951571D01*
X131271929Y-157580142D01*
X165314286Y-147991429D02*
X165342857Y-148020000D01*
X165371429Y-148105714D01*
X165371429Y-148162857D01*
X165342857Y-148248572D01*
X165285714Y-148305714D01*
X165228571Y-148334286D01*
X165114286Y-148362857D01*
X165028571Y-148362857D01*
X164914286Y-148334286D01*
X164857143Y-148305714D01*
X164800000Y-148248572D01*
X164771429Y-148162857D01*
X164771429Y-148105714D01*
X164800000Y-148020000D01*
X164828571Y-147991429D01*
X164771429Y-147791429D02*
X164771429Y-147391429D01*
X165371429Y-147648572D01*
X164771429Y-147048571D02*
X164771429Y-146991428D01*
X164800000Y-146934285D01*
X164828571Y-146905714D01*
X164885714Y-146877143D01*
X165000000Y-146848571D01*
X165142857Y-146848571D01*
X165257143Y-146877143D01*
X165314286Y-146905714D01*
X165342857Y-146934285D01*
X165371429Y-146991428D01*
X165371429Y-147048571D01*
X165342857Y-147105714D01*
X165314286Y-147134285D01*
X165257143Y-147162857D01*
X165142857Y-147191428D01*
X165000000Y-147191428D01*
X164885714Y-147162857D01*
X164828571Y-147134285D01*
X164800000Y-147105714D01*
X164771429Y-147048571D01*
X164771429Y-146648571D02*
X164771429Y-146277142D01*
X165000000Y-146477142D01*
X165000000Y-146391428D01*
X165028571Y-146334285D01*
X165057143Y-146305714D01*
X165114286Y-146277142D01*
X165257143Y-146277142D01*
X165314286Y-146305714D01*
X165342857Y-146334285D01*
X165371429Y-146391428D01*
X165371429Y-146562856D01*
X165342857Y-146619999D01*
X165314286Y-146648571D01*
X133643071Y-153844786D02*
X133614500Y-153873357D01*
X133528786Y-153901929D01*
X133471643Y-153901929D01*
X133385928Y-153873357D01*
X133328786Y-153816214D01*
X133300214Y-153759071D01*
X133271643Y-153644786D01*
X133271643Y-153559071D01*
X133300214Y-153444786D01*
X133328786Y-153387643D01*
X133385928Y-153330500D01*
X133471643Y-153301929D01*
X133528786Y-153301929D01*
X133614500Y-153330500D01*
X133643071Y-153359071D01*
X133843071Y-153301929D02*
X134243071Y-153301929D01*
X133985928Y-153901929D01*
X134585929Y-153301929D02*
X134643072Y-153301929D01*
X134700215Y-153330500D01*
X134728786Y-153359071D01*
X134757357Y-153416214D01*
X134785929Y-153530500D01*
X134785929Y-153673357D01*
X134757357Y-153787643D01*
X134728786Y-153844786D01*
X134700215Y-153873357D01*
X134643072Y-153901929D01*
X134585929Y-153901929D01*
X134528786Y-153873357D01*
X134500215Y-153844786D01*
X134471643Y-153787643D01*
X134443072Y-153673357D01*
X134443072Y-153530500D01*
X134471643Y-153416214D01*
X134500215Y-153359071D01*
X134528786Y-153330500D01*
X134585929Y-153301929D01*
X135300215Y-153501929D02*
X135300215Y-153901929D01*
X135157358Y-153273357D02*
X135014501Y-153701929D01*
X135385929Y-153701929D01*
X135659786Y-152182429D02*
X135688357Y-152211000D01*
X135716929Y-152296714D01*
X135716929Y-152353857D01*
X135688357Y-152439572D01*
X135631214Y-152496714D01*
X135574071Y-152525286D01*
X135459786Y-152553857D01*
X135374071Y-152553857D01*
X135259786Y-152525286D01*
X135202643Y-152496714D01*
X135145500Y-152439572D01*
X135116929Y-152353857D01*
X135116929Y-152296714D01*
X135145500Y-152211000D01*
X135174071Y-152182429D01*
X135116929Y-151982429D02*
X135116929Y-151582429D01*
X135716929Y-151839572D01*
X135116929Y-151239571D02*
X135116929Y-151182428D01*
X135145500Y-151125285D01*
X135174071Y-151096714D01*
X135231214Y-151068143D01*
X135345500Y-151039571D01*
X135488357Y-151039571D01*
X135602643Y-151068143D01*
X135659786Y-151096714D01*
X135688357Y-151125285D01*
X135716929Y-151182428D01*
X135716929Y-151239571D01*
X135688357Y-151296714D01*
X135659786Y-151325285D01*
X135602643Y-151353857D01*
X135488357Y-151382428D01*
X135345500Y-151382428D01*
X135231214Y-151353857D01*
X135174071Y-151325285D01*
X135145500Y-151296714D01*
X135116929Y-151239571D01*
X135116929Y-150496714D02*
X135116929Y-150782428D01*
X135402643Y-150810999D01*
X135374071Y-150782428D01*
X135345500Y-150725285D01*
X135345500Y-150582428D01*
X135374071Y-150525285D01*
X135402643Y-150496714D01*
X135459786Y-150468142D01*
X135602643Y-150468142D01*
X135659786Y-150496714D01*
X135688357Y-150525285D01*
X135716929Y-150582428D01*
X135716929Y-150725285D01*
X135688357Y-150782428D01*
X135659786Y-150810999D01*
X142775071Y-146454786D02*
X142746500Y-146483357D01*
X142660786Y-146511929D01*
X142603643Y-146511929D01*
X142517928Y-146483357D01*
X142460786Y-146426214D01*
X142432214Y-146369071D01*
X142403643Y-146254786D01*
X142403643Y-146169071D01*
X142432214Y-146054786D01*
X142460786Y-145997643D01*
X142517928Y-145940500D01*
X142603643Y-145911929D01*
X142660786Y-145911929D01*
X142746500Y-145940500D01*
X142775071Y-145969071D01*
X142975071Y-145911929D02*
X143375071Y-145911929D01*
X143117928Y-146511929D01*
X143717929Y-145911929D02*
X143775072Y-145911929D01*
X143832215Y-145940500D01*
X143860786Y-145969071D01*
X143889357Y-146026214D01*
X143917929Y-146140500D01*
X143917929Y-146283357D01*
X143889357Y-146397643D01*
X143860786Y-146454786D01*
X143832215Y-146483357D01*
X143775072Y-146511929D01*
X143717929Y-146511929D01*
X143660786Y-146483357D01*
X143632215Y-146454786D01*
X143603643Y-146397643D01*
X143575072Y-146283357D01*
X143575072Y-146140500D01*
X143603643Y-146026214D01*
X143632215Y-145969071D01*
X143660786Y-145940500D01*
X143717929Y-145911929D01*
X144432215Y-145911929D02*
X144317929Y-145911929D01*
X144260786Y-145940500D01*
X144232215Y-145969071D01*
X144175072Y-146054786D01*
X144146501Y-146169071D01*
X144146501Y-146397643D01*
X144175072Y-146454786D01*
X144203644Y-146483357D01*
X144260786Y-146511929D01*
X144375072Y-146511929D01*
X144432215Y-146483357D01*
X144460786Y-146454786D01*
X144489358Y-146397643D01*
X144489358Y-146254786D01*
X144460786Y-146197643D01*
X144432215Y-146169071D01*
X144375072Y-146140500D01*
X144260786Y-146140500D01*
X144203644Y-146169071D01*
X144175072Y-146197643D01*
X144146501Y-146254786D01*
X145375286Y-150848929D02*
X145403857Y-150877500D01*
X145432429Y-150963214D01*
X145432429Y-151020357D01*
X145403857Y-151106072D01*
X145346714Y-151163214D01*
X145289571Y-151191786D01*
X145175286Y-151220357D01*
X145089571Y-151220357D01*
X144975286Y-151191786D01*
X144918143Y-151163214D01*
X144861000Y-151106072D01*
X144832429Y-151020357D01*
X144832429Y-150963214D01*
X144861000Y-150877500D01*
X144889571Y-150848929D01*
X144832429Y-150648929D02*
X144832429Y-150248929D01*
X145432429Y-150506072D01*
X144832429Y-149906071D02*
X144832429Y-149848928D01*
X144861000Y-149791785D01*
X144889571Y-149763214D01*
X144946714Y-149734643D01*
X145061000Y-149706071D01*
X145203857Y-149706071D01*
X145318143Y-149734643D01*
X145375286Y-149763214D01*
X145403857Y-149791785D01*
X145432429Y-149848928D01*
X145432429Y-149906071D01*
X145403857Y-149963214D01*
X145375286Y-149991785D01*
X145318143Y-150020357D01*
X145203857Y-150048928D01*
X145061000Y-150048928D01*
X144946714Y-150020357D01*
X144889571Y-149991785D01*
X144861000Y-149963214D01*
X144832429Y-149906071D01*
X144832429Y-149506071D02*
X144832429Y-149106071D01*
X145432429Y-149363214D01*
X156214286Y-169003571D02*
X156242857Y-169032142D01*
X156271429Y-169117856D01*
X156271429Y-169174999D01*
X156242857Y-169260714D01*
X156185714Y-169317856D01*
X156128571Y-169346428D01*
X156014286Y-169374999D01*
X155928571Y-169374999D01*
X155814286Y-169346428D01*
X155757143Y-169317856D01*
X155700000Y-169260714D01*
X155671429Y-169174999D01*
X155671429Y-169117856D01*
X155700000Y-169032142D01*
X155728571Y-169003571D01*
X155671429Y-168632142D02*
X155671429Y-168517856D01*
X155700000Y-168460714D01*
X155757143Y-168403571D01*
X155871429Y-168374999D01*
X156071429Y-168374999D01*
X156185714Y-168403571D01*
X156242857Y-168460714D01*
X156271429Y-168517856D01*
X156271429Y-168632142D01*
X156242857Y-168689285D01*
X156185714Y-168746428D01*
X156071429Y-168774999D01*
X155871429Y-168774999D01*
X155757143Y-168746428D01*
X155700000Y-168689285D01*
X155671429Y-168632142D01*
X156271429Y-168117857D02*
X155671429Y-168117857D01*
X156271429Y-167775000D01*
X155671429Y-167775000D01*
X156271429Y-167175000D02*
X156271429Y-167517857D01*
X156271429Y-167346429D02*
X155671429Y-167346429D01*
X155757143Y-167403572D01*
X155814286Y-167460714D01*
X155842857Y-167517857D01*
X155873714Y-142691429D02*
X155873714Y-142091429D01*
X156016571Y-142091429D01*
X156102286Y-142120000D01*
X156159428Y-142177143D01*
X156188000Y-142234286D01*
X156216571Y-142348571D01*
X156216571Y-142434286D01*
X156188000Y-142548571D01*
X156159428Y-142605714D01*
X156102286Y-142662857D01*
X156016571Y-142691429D01*
X155873714Y-142691429D01*
X156788000Y-142691429D02*
X156445143Y-142691429D01*
X156616571Y-142691429D02*
X156616571Y-142091429D01*
X156559428Y-142177143D01*
X156502286Y-142234286D01*
X156445143Y-142262857D01*
X157159429Y-142091429D02*
X157216572Y-142091429D01*
X157273715Y-142120000D01*
X157302286Y-142148571D01*
X157330857Y-142205714D01*
X157359429Y-142320000D01*
X157359429Y-142462857D01*
X157330857Y-142577143D01*
X157302286Y-142634286D01*
X157273715Y-142662857D01*
X157216572Y-142691429D01*
X157159429Y-142691429D01*
X157102286Y-142662857D01*
X157073715Y-142634286D01*
X157045143Y-142577143D01*
X157016572Y-142462857D01*
X157016572Y-142320000D01*
X157045143Y-142205714D01*
X157073715Y-142148571D01*
X157102286Y-142120000D01*
X157159429Y-142091429D01*
X157559429Y-142091429D02*
X157930858Y-142091429D01*
X157730858Y-142320000D01*
X157816572Y-142320000D01*
X157873715Y-142348571D01*
X157902286Y-142377143D01*
X157930858Y-142434286D01*
X157930858Y-142577143D01*
X157902286Y-142634286D01*
X157873715Y-142662857D01*
X157816572Y-142691429D01*
X157645144Y-142691429D01*
X157588001Y-142662857D01*
X157559429Y-142634286D01*
X128985714Y-102271429D02*
X128985714Y-101671429D01*
X129128571Y-101671429D01*
X129214286Y-101700000D01*
X129271428Y-101757143D01*
X129300000Y-101814286D01*
X129328571Y-101928571D01*
X129328571Y-102014286D01*
X129300000Y-102128571D01*
X129271428Y-102185714D01*
X129214286Y-102242857D01*
X129128571Y-102271429D01*
X128985714Y-102271429D01*
X129842857Y-101871429D02*
X129842857Y-102271429D01*
X129700000Y-101642857D02*
X129557143Y-102071429D01*
X129928571Y-102071429D01*
X130271429Y-101671429D02*
X130328572Y-101671429D01*
X130385715Y-101700000D01*
X130414286Y-101728571D01*
X130442857Y-101785714D01*
X130471429Y-101900000D01*
X130471429Y-102042857D01*
X130442857Y-102157143D01*
X130414286Y-102214286D01*
X130385715Y-102242857D01*
X130328572Y-102271429D01*
X130271429Y-102271429D01*
X130214286Y-102242857D01*
X130185715Y-102214286D01*
X130157143Y-102157143D01*
X130128572Y-102042857D01*
X130128572Y-101900000D01*
X130157143Y-101785714D01*
X130185715Y-101728571D01*
X130214286Y-101700000D01*
X130271429Y-101671429D01*
X131042858Y-102271429D02*
X130700001Y-102271429D01*
X130871429Y-102271429D02*
X130871429Y-101671429D01*
X130814286Y-101757143D01*
X130757144Y-101814286D01*
X130700001Y-101842857D01*
X128985714Y-99071429D02*
X128985714Y-98471429D01*
X129128571Y-98471429D01*
X129214286Y-98500000D01*
X129271428Y-98557143D01*
X129300000Y-98614286D01*
X129328571Y-98728571D01*
X129328571Y-98814286D01*
X129300000Y-98928571D01*
X129271428Y-98985714D01*
X129214286Y-99042857D01*
X129128571Y-99071429D01*
X128985714Y-99071429D01*
X129842857Y-98671429D02*
X129842857Y-99071429D01*
X129700000Y-98442857D02*
X129557143Y-98871429D01*
X129928571Y-98871429D01*
X130271429Y-98471429D02*
X130328572Y-98471429D01*
X130385715Y-98500000D01*
X130414286Y-98528571D01*
X130442857Y-98585714D01*
X130471429Y-98700000D01*
X130471429Y-98842857D01*
X130442857Y-98957143D01*
X130414286Y-99014286D01*
X130385715Y-99042857D01*
X130328572Y-99071429D01*
X130271429Y-99071429D01*
X130214286Y-99042857D01*
X130185715Y-99014286D01*
X130157143Y-98957143D01*
X130128572Y-98842857D01*
X130128572Y-98700000D01*
X130157143Y-98585714D01*
X130185715Y-98528571D01*
X130214286Y-98500000D01*
X130271429Y-98471429D01*
X130700001Y-98528571D02*
X130728572Y-98500000D01*
X130785715Y-98471429D01*
X130928572Y-98471429D01*
X130985715Y-98500000D01*
X131014286Y-98528571D01*
X131042858Y-98585714D01*
X131042858Y-98642857D01*
X131014286Y-98728571D01*
X130671429Y-99071429D01*
X131042858Y-99071429D01*
X166385714Y-99071429D02*
X166385714Y-98471429D01*
X166528571Y-98471429D01*
X166614286Y-98500000D01*
X166671428Y-98557143D01*
X166700000Y-98614286D01*
X166728571Y-98728571D01*
X166728571Y-98814286D01*
X166700000Y-98928571D01*
X166671428Y-98985714D01*
X166614286Y-99042857D01*
X166528571Y-99071429D01*
X166385714Y-99071429D01*
X167242857Y-98671429D02*
X167242857Y-99071429D01*
X167100000Y-98442857D02*
X166957143Y-98871429D01*
X167328571Y-98871429D01*
X167671429Y-98471429D02*
X167728572Y-98471429D01*
X167785715Y-98500000D01*
X167814286Y-98528571D01*
X167842857Y-98585714D01*
X167871429Y-98700000D01*
X167871429Y-98842857D01*
X167842857Y-98957143D01*
X167814286Y-99014286D01*
X167785715Y-99042857D01*
X167728572Y-99071429D01*
X167671429Y-99071429D01*
X167614286Y-99042857D01*
X167585715Y-99014286D01*
X167557143Y-98957143D01*
X167528572Y-98842857D01*
X167528572Y-98700000D01*
X167557143Y-98585714D01*
X167585715Y-98528571D01*
X167614286Y-98500000D01*
X167671429Y-98471429D01*
X168071429Y-98471429D02*
X168442858Y-98471429D01*
X168242858Y-98700000D01*
X168328572Y-98700000D01*
X168385715Y-98728571D01*
X168414286Y-98757143D01*
X168442858Y-98814286D01*
X168442858Y-98957143D01*
X168414286Y-99014286D01*
X168385715Y-99042857D01*
X168328572Y-99071429D01*
X168157144Y-99071429D01*
X168100001Y-99042857D01*
X168071429Y-99014286D01*
X166385714Y-102071429D02*
X166385714Y-101471429D01*
X166528571Y-101471429D01*
X166614286Y-101500000D01*
X166671428Y-101557143D01*
X166700000Y-101614286D01*
X166728571Y-101728571D01*
X166728571Y-101814286D01*
X166700000Y-101928571D01*
X166671428Y-101985714D01*
X166614286Y-102042857D01*
X166528571Y-102071429D01*
X166385714Y-102071429D01*
X167242857Y-101671429D02*
X167242857Y-102071429D01*
X167100000Y-101442857D02*
X166957143Y-101871429D01*
X167328571Y-101871429D01*
X167671429Y-101471429D02*
X167728572Y-101471429D01*
X167785715Y-101500000D01*
X167814286Y-101528571D01*
X167842857Y-101585714D01*
X167871429Y-101700000D01*
X167871429Y-101842857D01*
X167842857Y-101957143D01*
X167814286Y-102014286D01*
X167785715Y-102042857D01*
X167728572Y-102071429D01*
X167671429Y-102071429D01*
X167614286Y-102042857D01*
X167585715Y-102014286D01*
X167557143Y-101957143D01*
X167528572Y-101842857D01*
X167528572Y-101700000D01*
X167557143Y-101585714D01*
X167585715Y-101528571D01*
X167614286Y-101500000D01*
X167671429Y-101471429D01*
X168385715Y-101671429D02*
X168385715Y-102071429D01*
X168242858Y-101442857D02*
X168100001Y-101871429D01*
X168471429Y-101871429D01*
X129485714Y-124771429D02*
X129485714Y-124171429D01*
X129628571Y-124171429D01*
X129714286Y-124200000D01*
X129771428Y-124257143D01*
X129800000Y-124314286D01*
X129828571Y-124428571D01*
X129828571Y-124514286D01*
X129800000Y-124628571D01*
X129771428Y-124685714D01*
X129714286Y-124742857D01*
X129628571Y-124771429D01*
X129485714Y-124771429D01*
X130028571Y-124171429D02*
X130428571Y-124171429D01*
X130171428Y-124771429D01*
X130771429Y-124171429D02*
X130828572Y-124171429D01*
X130885715Y-124200000D01*
X130914286Y-124228571D01*
X130942857Y-124285714D01*
X130971429Y-124400000D01*
X130971429Y-124542857D01*
X130942857Y-124657143D01*
X130914286Y-124714286D01*
X130885715Y-124742857D01*
X130828572Y-124771429D01*
X130771429Y-124771429D01*
X130714286Y-124742857D01*
X130685715Y-124714286D01*
X130657143Y-124657143D01*
X130628572Y-124542857D01*
X130628572Y-124400000D01*
X130657143Y-124285714D01*
X130685715Y-124228571D01*
X130714286Y-124200000D01*
X130771429Y-124171429D01*
X131542858Y-124771429D02*
X131200001Y-124771429D01*
X131371429Y-124771429D02*
X131371429Y-124171429D01*
X131314286Y-124257143D01*
X131257144Y-124314286D01*
X131200001Y-124342857D01*
X129485714Y-126521429D02*
X129485714Y-125921429D01*
X129628571Y-125921429D01*
X129714286Y-125950000D01*
X129771428Y-126007143D01*
X129800000Y-126064286D01*
X129828571Y-126178571D01*
X129828571Y-126264286D01*
X129800000Y-126378571D01*
X129771428Y-126435714D01*
X129714286Y-126492857D01*
X129628571Y-126521429D01*
X129485714Y-126521429D01*
X130028571Y-125921429D02*
X130428571Y-125921429D01*
X130171428Y-126521429D01*
X130771429Y-125921429D02*
X130828572Y-125921429D01*
X130885715Y-125950000D01*
X130914286Y-125978571D01*
X130942857Y-126035714D01*
X130971429Y-126150000D01*
X130971429Y-126292857D01*
X130942857Y-126407143D01*
X130914286Y-126464286D01*
X130885715Y-126492857D01*
X130828572Y-126521429D01*
X130771429Y-126521429D01*
X130714286Y-126492857D01*
X130685715Y-126464286D01*
X130657143Y-126407143D01*
X130628572Y-126292857D01*
X130628572Y-126150000D01*
X130657143Y-126035714D01*
X130685715Y-125978571D01*
X130714286Y-125950000D01*
X130771429Y-125921429D01*
X131200001Y-125978571D02*
X131228572Y-125950000D01*
X131285715Y-125921429D01*
X131428572Y-125921429D01*
X131485715Y-125950000D01*
X131514286Y-125978571D01*
X131542858Y-126035714D01*
X131542858Y-126092857D01*
X131514286Y-126178571D01*
X131171429Y-126521429D01*
X131542858Y-126521429D01*
X129485714Y-128521429D02*
X129485714Y-127921429D01*
X129628571Y-127921429D01*
X129714286Y-127950000D01*
X129771428Y-128007143D01*
X129800000Y-128064286D01*
X129828571Y-128178571D01*
X129828571Y-128264286D01*
X129800000Y-128378571D01*
X129771428Y-128435714D01*
X129714286Y-128492857D01*
X129628571Y-128521429D01*
X129485714Y-128521429D01*
X130028571Y-127921429D02*
X130428571Y-127921429D01*
X130171428Y-128521429D01*
X130771429Y-127921429D02*
X130828572Y-127921429D01*
X130885715Y-127950000D01*
X130914286Y-127978571D01*
X130942857Y-128035714D01*
X130971429Y-128150000D01*
X130971429Y-128292857D01*
X130942857Y-128407143D01*
X130914286Y-128464286D01*
X130885715Y-128492857D01*
X130828572Y-128521429D01*
X130771429Y-128521429D01*
X130714286Y-128492857D01*
X130685715Y-128464286D01*
X130657143Y-128407143D01*
X130628572Y-128292857D01*
X130628572Y-128150000D01*
X130657143Y-128035714D01*
X130685715Y-127978571D01*
X130714286Y-127950000D01*
X130771429Y-127921429D01*
X131171429Y-127921429D02*
X131542858Y-127921429D01*
X131342858Y-128150000D01*
X131428572Y-128150000D01*
X131485715Y-128178571D01*
X131514286Y-128207143D01*
X131542858Y-128264286D01*
X131542858Y-128407143D01*
X131514286Y-128464286D01*
X131485715Y-128492857D01*
X131428572Y-128521429D01*
X131257144Y-128521429D01*
X131200001Y-128492857D01*
X131171429Y-128464286D01*
X138574429Y-155870286D02*
X137974429Y-155870286D01*
X137974429Y-155727429D01*
X138003000Y-155641714D01*
X138060143Y-155584572D01*
X138117286Y-155556000D01*
X138231571Y-155527429D01*
X138317286Y-155527429D01*
X138431571Y-155556000D01*
X138488714Y-155584572D01*
X138545857Y-155641714D01*
X138574429Y-155727429D01*
X138574429Y-155870286D01*
X137974429Y-155327429D02*
X137974429Y-154927429D01*
X138574429Y-155184572D01*
X137974429Y-154584571D02*
X137974429Y-154527428D01*
X138003000Y-154470285D01*
X138031571Y-154441714D01*
X138088714Y-154413143D01*
X138203000Y-154384571D01*
X138345857Y-154384571D01*
X138460143Y-154413143D01*
X138517286Y-154441714D01*
X138545857Y-154470285D01*
X138574429Y-154527428D01*
X138574429Y-154584571D01*
X138545857Y-154641714D01*
X138517286Y-154670285D01*
X138460143Y-154698857D01*
X138345857Y-154727428D01*
X138203000Y-154727428D01*
X138088714Y-154698857D01*
X138031571Y-154670285D01*
X138003000Y-154641714D01*
X137974429Y-154584571D01*
X138174429Y-153870285D02*
X138574429Y-153870285D01*
X137945857Y-154013142D02*
X138374429Y-154155999D01*
X138374429Y-153784571D01*
X142770214Y-153877929D02*
X142770214Y-153277929D01*
X142913071Y-153277929D01*
X142998786Y-153306500D01*
X143055928Y-153363643D01*
X143084500Y-153420786D01*
X143113071Y-153535071D01*
X143113071Y-153620786D01*
X143084500Y-153735071D01*
X143055928Y-153792214D01*
X142998786Y-153849357D01*
X142913071Y-153877929D01*
X142770214Y-153877929D01*
X143313071Y-153277929D02*
X143713071Y-153277929D01*
X143455928Y-153877929D01*
X144055929Y-153277929D02*
X144113072Y-153277929D01*
X144170215Y-153306500D01*
X144198786Y-153335071D01*
X144227357Y-153392214D01*
X144255929Y-153506500D01*
X144255929Y-153649357D01*
X144227357Y-153763643D01*
X144198786Y-153820786D01*
X144170215Y-153849357D01*
X144113072Y-153877929D01*
X144055929Y-153877929D01*
X143998786Y-153849357D01*
X143970215Y-153820786D01*
X143941643Y-153763643D01*
X143913072Y-153649357D01*
X143913072Y-153506500D01*
X143941643Y-153392214D01*
X143970215Y-153335071D01*
X143998786Y-153306500D01*
X144055929Y-153277929D01*
X144798786Y-153277929D02*
X144513072Y-153277929D01*
X144484501Y-153563643D01*
X144513072Y-153535071D01*
X144570215Y-153506500D01*
X144713072Y-153506500D01*
X144770215Y-153535071D01*
X144798786Y-153563643D01*
X144827358Y-153620786D01*
X144827358Y-153763643D01*
X144798786Y-153820786D01*
X144770215Y-153849357D01*
X144713072Y-153877929D01*
X144570215Y-153877929D01*
X144513072Y-153849357D01*
X144484501Y-153820786D01*
X137628571Y-99671429D02*
X137628571Y-100100000D01*
X137599999Y-100185714D01*
X137542856Y-100242857D01*
X137457142Y-100271429D01*
X137399999Y-100271429D01*
X138228571Y-100271429D02*
X137885714Y-100271429D01*
X138057142Y-100271429D02*
X138057142Y-99671429D01*
X137999999Y-99757143D01*
X137942857Y-99814286D01*
X137885714Y-99842857D01*
X138600000Y-99671429D02*
X138657143Y-99671429D01*
X138714286Y-99700000D01*
X138742857Y-99728571D01*
X138771428Y-99785714D01*
X138800000Y-99900000D01*
X138800000Y-100042857D01*
X138771428Y-100157143D01*
X138742857Y-100214286D01*
X138714286Y-100242857D01*
X138657143Y-100271429D01*
X138600000Y-100271429D01*
X138542857Y-100242857D01*
X138514286Y-100214286D01*
X138485714Y-100157143D01*
X138457143Y-100042857D01*
X138457143Y-99900000D01*
X138485714Y-99785714D01*
X138514286Y-99728571D01*
X138542857Y-99700000D01*
X138600000Y-99671429D01*
X139371429Y-100271429D02*
X139028572Y-100271429D01*
X139200000Y-100271429D02*
X139200000Y-99671429D01*
X139142857Y-99757143D01*
X139085715Y-99814286D01*
X139028572Y-99842857D01*
X157828571Y-99871429D02*
X157828571Y-100300000D01*
X157799999Y-100385714D01*
X157742856Y-100442857D01*
X157657142Y-100471429D01*
X157599999Y-100471429D01*
X158428571Y-100471429D02*
X158085714Y-100471429D01*
X158257142Y-100471429D02*
X158257142Y-99871429D01*
X158199999Y-99957143D01*
X158142857Y-100014286D01*
X158085714Y-100042857D01*
X158800000Y-99871429D02*
X158857143Y-99871429D01*
X158914286Y-99900000D01*
X158942857Y-99928571D01*
X158971428Y-99985714D01*
X159000000Y-100100000D01*
X159000000Y-100242857D01*
X158971428Y-100357143D01*
X158942857Y-100414286D01*
X158914286Y-100442857D01*
X158857143Y-100471429D01*
X158800000Y-100471429D01*
X158742857Y-100442857D01*
X158714286Y-100414286D01*
X158685714Y-100357143D01*
X158657143Y-100242857D01*
X158657143Y-100100000D01*
X158685714Y-99985714D01*
X158714286Y-99928571D01*
X158742857Y-99900000D01*
X158800000Y-99871429D01*
X159228572Y-99928571D02*
X159257143Y-99900000D01*
X159314286Y-99871429D01*
X159457143Y-99871429D01*
X159514286Y-99900000D01*
X159542857Y-99928571D01*
X159571429Y-99985714D01*
X159571429Y-100042857D01*
X159542857Y-100128571D01*
X159200000Y-100471429D01*
X159571429Y-100471429D01*
X143181429Y-176475929D02*
X143610000Y-176475929D01*
X143695714Y-176504501D01*
X143752857Y-176561644D01*
X143781429Y-176647358D01*
X143781429Y-176704501D01*
X143781429Y-175875929D02*
X143781429Y-176218786D01*
X143781429Y-176047358D02*
X143181429Y-176047358D01*
X143267143Y-176104501D01*
X143324286Y-176161643D01*
X143352857Y-176218786D01*
X143181429Y-175504500D02*
X143181429Y-175447357D01*
X143210000Y-175390214D01*
X143238571Y-175361643D01*
X143295714Y-175333072D01*
X143410000Y-175304500D01*
X143552857Y-175304500D01*
X143667143Y-175333072D01*
X143724286Y-175361643D01*
X143752857Y-175390214D01*
X143781429Y-175447357D01*
X143781429Y-175504500D01*
X143752857Y-175561643D01*
X143724286Y-175590214D01*
X143667143Y-175618786D01*
X143552857Y-175647357D01*
X143410000Y-175647357D01*
X143295714Y-175618786D01*
X143238571Y-175590214D01*
X143210000Y-175561643D01*
X143181429Y-175504500D01*
X143181429Y-174761643D02*
X143181429Y-175047357D01*
X143467143Y-175075928D01*
X143438571Y-175047357D01*
X143410000Y-174990214D01*
X143410000Y-174847357D01*
X143438571Y-174790214D01*
X143467143Y-174761643D01*
X143524286Y-174733071D01*
X143667143Y-174733071D01*
X143724286Y-174761643D01*
X143752857Y-174790214D01*
X143781429Y-174847357D01*
X143781429Y-174990214D01*
X143752857Y-175047357D01*
X143724286Y-175075928D01*
X168171429Y-137771429D02*
X168600000Y-137771429D01*
X168685714Y-137800001D01*
X168742857Y-137857144D01*
X168771429Y-137942858D01*
X168771429Y-138000001D01*
X168171429Y-137200001D02*
X168171429Y-137485715D01*
X168457143Y-137514286D01*
X168428571Y-137485715D01*
X168400000Y-137428572D01*
X168400000Y-137285715D01*
X168428571Y-137228572D01*
X168457143Y-137200001D01*
X168514286Y-137171429D01*
X168657143Y-137171429D01*
X168714286Y-137200001D01*
X168742857Y-137228572D01*
X168771429Y-137285715D01*
X168771429Y-137428572D01*
X168742857Y-137485715D01*
X168714286Y-137514286D01*
X168171429Y-136800000D02*
X168171429Y-136742857D01*
X168200000Y-136685714D01*
X168228571Y-136657143D01*
X168285714Y-136628572D01*
X168400000Y-136600000D01*
X168542857Y-136600000D01*
X168657143Y-136628572D01*
X168714286Y-136657143D01*
X168742857Y-136685714D01*
X168771429Y-136742857D01*
X168771429Y-136800000D01*
X168742857Y-136857143D01*
X168714286Y-136885714D01*
X168657143Y-136914286D01*
X168542857Y-136942857D01*
X168400000Y-136942857D01*
X168285714Y-136914286D01*
X168228571Y-136885714D01*
X168200000Y-136857143D01*
X168171429Y-136800000D01*
X168171429Y-136057143D02*
X168171429Y-136342857D01*
X168457143Y-136371428D01*
X168428571Y-136342857D01*
X168400000Y-136285714D01*
X168400000Y-136142857D01*
X168428571Y-136085714D01*
X168457143Y-136057143D01*
X168514286Y-136028571D01*
X168657143Y-136028571D01*
X168714286Y-136057143D01*
X168742857Y-136085714D01*
X168771429Y-136142857D01*
X168771429Y-136285714D01*
X168742857Y-136342857D01*
X168714286Y-136371428D01*
X147828571Y-99071429D02*
X147828571Y-99500000D01*
X147799999Y-99585714D01*
X147742856Y-99642857D01*
X147657142Y-99671429D01*
X147599999Y-99671429D01*
X148399999Y-99071429D02*
X148114285Y-99071429D01*
X148085714Y-99357143D01*
X148114285Y-99328571D01*
X148171428Y-99300000D01*
X148314285Y-99300000D01*
X148371428Y-99328571D01*
X148399999Y-99357143D01*
X148428571Y-99414286D01*
X148428571Y-99557143D01*
X148399999Y-99614286D01*
X148371428Y-99642857D01*
X148314285Y-99671429D01*
X148171428Y-99671429D01*
X148114285Y-99642857D01*
X148085714Y-99614286D01*
X148800000Y-99071429D02*
X148857143Y-99071429D01*
X148914286Y-99100000D01*
X148942857Y-99128571D01*
X148971428Y-99185714D01*
X149000000Y-99300000D01*
X149000000Y-99442857D01*
X148971428Y-99557143D01*
X148942857Y-99614286D01*
X148914286Y-99642857D01*
X148857143Y-99671429D01*
X148800000Y-99671429D01*
X148742857Y-99642857D01*
X148714286Y-99614286D01*
X148685714Y-99557143D01*
X148657143Y-99442857D01*
X148657143Y-99300000D01*
X148685714Y-99185714D01*
X148714286Y-99128571D01*
X148742857Y-99100000D01*
X148800000Y-99071429D01*
X149514286Y-99071429D02*
X149400000Y-99071429D01*
X149342857Y-99100000D01*
X149314286Y-99128571D01*
X149257143Y-99214286D01*
X149228572Y-99328571D01*
X149228572Y-99557143D01*
X149257143Y-99614286D01*
X149285715Y-99642857D01*
X149342857Y-99671429D01*
X149457143Y-99671429D01*
X149514286Y-99642857D01*
X149542857Y-99614286D01*
X149571429Y-99557143D01*
X149571429Y-99414286D01*
X149542857Y-99357143D01*
X149514286Y-99328571D01*
X149457143Y-99300000D01*
X149342857Y-99300000D01*
X149285715Y-99328571D01*
X149257143Y-99357143D01*
X149228572Y-99414286D01*
X128171429Y-137771429D02*
X128600000Y-137771429D01*
X128685714Y-137800001D01*
X128742857Y-137857144D01*
X128771429Y-137942858D01*
X128771429Y-138000001D01*
X128171429Y-137200001D02*
X128171429Y-137485715D01*
X128457143Y-137514286D01*
X128428571Y-137485715D01*
X128400000Y-137428572D01*
X128400000Y-137285715D01*
X128428571Y-137228572D01*
X128457143Y-137200001D01*
X128514286Y-137171429D01*
X128657143Y-137171429D01*
X128714286Y-137200001D01*
X128742857Y-137228572D01*
X128771429Y-137285715D01*
X128771429Y-137428572D01*
X128742857Y-137485715D01*
X128714286Y-137514286D01*
X128171429Y-136800000D02*
X128171429Y-136742857D01*
X128200000Y-136685714D01*
X128228571Y-136657143D01*
X128285714Y-136628572D01*
X128400000Y-136600000D01*
X128542857Y-136600000D01*
X128657143Y-136628572D01*
X128714286Y-136657143D01*
X128742857Y-136685714D01*
X128771429Y-136742857D01*
X128771429Y-136800000D01*
X128742857Y-136857143D01*
X128714286Y-136885714D01*
X128657143Y-136914286D01*
X128542857Y-136942857D01*
X128400000Y-136942857D01*
X128285714Y-136914286D01*
X128228571Y-136885714D01*
X128200000Y-136857143D01*
X128171429Y-136800000D01*
X128171429Y-136400000D02*
X128171429Y-136000000D01*
X128771429Y-136257143D01*
X158259429Y-151865000D02*
X158259429Y-152150714D01*
X157659429Y-152150714D01*
X158259429Y-151350714D02*
X158259429Y-151693571D01*
X158259429Y-151522143D02*
X157659429Y-151522143D01*
X157745143Y-151579286D01*
X157802286Y-151636428D01*
X157830857Y-151693571D01*
X161075071Y-149750429D02*
X160789357Y-149750429D01*
X160789357Y-149150429D01*
X161217928Y-149150429D02*
X161617928Y-149150429D01*
X161360785Y-149750429D01*
X161960786Y-149150429D02*
X162017929Y-149150429D01*
X162075072Y-149179000D01*
X162103643Y-149207571D01*
X162132214Y-149264714D01*
X162160786Y-149379000D01*
X162160786Y-149521857D01*
X162132214Y-149636143D01*
X162103643Y-149693286D01*
X162075072Y-149721857D01*
X162017929Y-149750429D01*
X161960786Y-149750429D01*
X161903643Y-149721857D01*
X161875072Y-149693286D01*
X161846500Y-149636143D01*
X161817929Y-149521857D01*
X161817929Y-149379000D01*
X161846500Y-149264714D01*
X161875072Y-149207571D01*
X161903643Y-149179000D01*
X161960786Y-149150429D01*
X162732215Y-149750429D02*
X162389358Y-149750429D01*
X162560786Y-149750429D02*
X162560786Y-149150429D01*
X162503643Y-149236143D01*
X162446501Y-149293286D01*
X162389358Y-149321857D01*
X130827429Y-156436929D02*
X130827429Y-156722643D01*
X130227429Y-156722643D01*
X130227429Y-156294072D02*
X130227429Y-155894072D01*
X130827429Y-156151215D01*
X130227429Y-155551214D02*
X130227429Y-155494071D01*
X130256000Y-155436928D01*
X130284571Y-155408357D01*
X130341714Y-155379786D01*
X130456000Y-155351214D01*
X130598857Y-155351214D01*
X130713143Y-155379786D01*
X130770286Y-155408357D01*
X130798857Y-155436928D01*
X130827429Y-155494071D01*
X130827429Y-155551214D01*
X130798857Y-155608357D01*
X130770286Y-155636928D01*
X130713143Y-155665500D01*
X130598857Y-155694071D01*
X130456000Y-155694071D01*
X130341714Y-155665500D01*
X130284571Y-155636928D01*
X130256000Y-155608357D01*
X130227429Y-155551214D01*
X130284571Y-155122642D02*
X130256000Y-155094071D01*
X130227429Y-155036928D01*
X130227429Y-154894071D01*
X130256000Y-154836928D01*
X130284571Y-154808357D01*
X130341714Y-154779785D01*
X130398857Y-154779785D01*
X130484571Y-154808357D01*
X130827429Y-155151214D01*
X130827429Y-154779785D01*
X127689195Y-111805981D02*
X127689195Y-110805981D01*
X128022529Y-111520267D01*
X128355862Y-110805981D01*
X128355862Y-111805981D01*
X128736814Y-110805981D02*
X129355862Y-110805981D01*
X129022528Y-111186933D01*
X129165386Y-111186933D01*
X129260624Y-111234552D01*
X129308243Y-111282171D01*
X129355862Y-111377410D01*
X129355862Y-111615505D01*
X129308243Y-111710743D01*
X129260624Y-111758362D01*
X129165386Y-111805981D01*
X128879671Y-111805981D01*
X128784433Y-111758362D01*
X128736814Y-111710743D01*
X129974909Y-110805981D02*
X130070148Y-110805981D01*
X130165386Y-110853600D01*
X130213005Y-110901219D01*
X130260624Y-110996457D01*
X130308243Y-111186933D01*
X130308243Y-111425029D01*
X130260624Y-111615505D01*
X130213005Y-111710743D01*
X130165386Y-111758362D01*
X130070148Y-111805981D01*
X129974909Y-111805981D01*
X129879671Y-111758362D01*
X129832052Y-111710743D01*
X129784433Y-111615505D01*
X129736814Y-111425029D01*
X129736814Y-111186933D01*
X129784433Y-110996457D01*
X129832052Y-110901219D01*
X129879671Y-110853600D01*
X129974909Y-110805981D01*
X131260624Y-111805981D02*
X130689195Y-111805981D01*
X130974909Y-111805981D02*
X130974909Y-110805981D01*
X130879671Y-110948838D01*
X130784433Y-111044076D01*
X130689195Y-111091695D01*
X165789195Y-111805981D02*
X165789195Y-110805981D01*
X166122529Y-111520267D01*
X166455862Y-110805981D01*
X166455862Y-111805981D01*
X166836814Y-110805981D02*
X167455862Y-110805981D01*
X167122528Y-111186933D01*
X167265386Y-111186933D01*
X167360624Y-111234552D01*
X167408243Y-111282171D01*
X167455862Y-111377410D01*
X167455862Y-111615505D01*
X167408243Y-111710743D01*
X167360624Y-111758362D01*
X167265386Y-111805981D01*
X166979671Y-111805981D01*
X166884433Y-111758362D01*
X166836814Y-111710743D01*
X168074909Y-110805981D02*
X168170148Y-110805981D01*
X168265386Y-110853600D01*
X168313005Y-110901219D01*
X168360624Y-110996457D01*
X168408243Y-111186933D01*
X168408243Y-111425029D01*
X168360624Y-111615505D01*
X168313005Y-111710743D01*
X168265386Y-111758362D01*
X168170148Y-111805981D01*
X168074909Y-111805981D01*
X167979671Y-111758362D01*
X167932052Y-111710743D01*
X167884433Y-111615505D01*
X167836814Y-111425029D01*
X167836814Y-111186933D01*
X167884433Y-110996457D01*
X167932052Y-110901219D01*
X167979671Y-110853600D01*
X168074909Y-110805981D01*
X168789195Y-110901219D02*
X168836814Y-110853600D01*
X168932052Y-110805981D01*
X169170148Y-110805981D01*
X169265386Y-110853600D01*
X169313005Y-110901219D01*
X169360624Y-110996457D01*
X169360624Y-111091695D01*
X169313005Y-111234552D01*
X168741576Y-111805981D01*
X169360624Y-111805981D01*
X165789195Y-168955981D02*
X165789195Y-167955981D01*
X166122529Y-168670267D01*
X166455862Y-167955981D01*
X166455862Y-168955981D01*
X166836814Y-167955981D02*
X167455862Y-167955981D01*
X167122528Y-168336933D01*
X167265386Y-168336933D01*
X167360624Y-168384552D01*
X167408243Y-168432171D01*
X167455862Y-168527410D01*
X167455862Y-168765505D01*
X167408243Y-168860743D01*
X167360624Y-168908362D01*
X167265386Y-168955981D01*
X166979671Y-168955981D01*
X166884433Y-168908362D01*
X166836814Y-168860743D01*
X168074909Y-167955981D02*
X168170148Y-167955981D01*
X168265386Y-168003600D01*
X168313005Y-168051219D01*
X168360624Y-168146457D01*
X168408243Y-168336933D01*
X168408243Y-168575029D01*
X168360624Y-168765505D01*
X168313005Y-168860743D01*
X168265386Y-168908362D01*
X168170148Y-168955981D01*
X168074909Y-168955981D01*
X167979671Y-168908362D01*
X167932052Y-168860743D01*
X167884433Y-168765505D01*
X167836814Y-168575029D01*
X167836814Y-168336933D01*
X167884433Y-168146457D01*
X167932052Y-168051219D01*
X167979671Y-168003600D01*
X168074909Y-167955981D01*
X168741576Y-167955981D02*
X169360624Y-167955981D01*
X169027290Y-168336933D01*
X169170148Y-168336933D01*
X169265386Y-168384552D01*
X169313005Y-168432171D01*
X169360624Y-168527410D01*
X169360624Y-168765505D01*
X169313005Y-168860743D01*
X169265386Y-168908362D01*
X169170148Y-168955981D01*
X168884433Y-168955981D01*
X168789195Y-168908362D01*
X168741576Y-168860743D01*
X127689195Y-168955981D02*
X127689195Y-167955981D01*
X128022529Y-168670267D01*
X128355862Y-167955981D01*
X128355862Y-168955981D01*
X128736814Y-167955981D02*
X129355862Y-167955981D01*
X129022528Y-168336933D01*
X129165386Y-168336933D01*
X129260624Y-168384552D01*
X129308243Y-168432171D01*
X129355862Y-168527410D01*
X129355862Y-168765505D01*
X129308243Y-168860743D01*
X129260624Y-168908362D01*
X129165386Y-168955981D01*
X128879671Y-168955981D01*
X128784433Y-168908362D01*
X128736814Y-168860743D01*
X129974909Y-167955981D02*
X130070148Y-167955981D01*
X130165386Y-168003600D01*
X130213005Y-168051219D01*
X130260624Y-168146457D01*
X130308243Y-168336933D01*
X130308243Y-168575029D01*
X130260624Y-168765505D01*
X130213005Y-168860743D01*
X130165386Y-168908362D01*
X130070148Y-168955981D01*
X129974909Y-168955981D01*
X129879671Y-168908362D01*
X129832052Y-168860743D01*
X129784433Y-168765505D01*
X129736814Y-168575029D01*
X129736814Y-168336933D01*
X129784433Y-168146457D01*
X129832052Y-168051219D01*
X129879671Y-168003600D01*
X129974909Y-167955981D01*
X131165386Y-168289314D02*
X131165386Y-168955981D01*
X130927290Y-167908362D02*
X130689195Y-168622648D01*
X131308243Y-168622648D01*
X146484571Y-120278572D02*
X146456000Y-120335715D01*
X146398857Y-120392858D01*
X146313143Y-120478572D01*
X146284571Y-120535715D01*
X146284571Y-120592858D01*
X146427429Y-120564286D02*
X146398857Y-120621429D01*
X146341714Y-120678572D01*
X146227429Y-120707143D01*
X146027429Y-120707143D01*
X145913143Y-120678572D01*
X145856000Y-120621429D01*
X145827429Y-120564286D01*
X145827429Y-120450000D01*
X145856000Y-120392858D01*
X145913143Y-120335715D01*
X146027429Y-120307143D01*
X146227429Y-120307143D01*
X146341714Y-120335715D01*
X146398857Y-120392858D01*
X146427429Y-120450000D01*
X146427429Y-120564286D01*
X145827429Y-119764287D02*
X145827429Y-120050001D01*
X146113143Y-120078572D01*
X146084571Y-120050001D01*
X146056000Y-119992858D01*
X146056000Y-119850001D01*
X146084571Y-119792858D01*
X146113143Y-119764287D01*
X146170286Y-119735715D01*
X146313143Y-119735715D01*
X146370286Y-119764287D01*
X146398857Y-119792858D01*
X146427429Y-119850001D01*
X146427429Y-119992858D01*
X146398857Y-120050001D01*
X146370286Y-120078572D01*
X145827429Y-119364286D02*
X145827429Y-119307143D01*
X145856000Y-119250000D01*
X145884571Y-119221429D01*
X145941714Y-119192858D01*
X146056000Y-119164286D01*
X146198857Y-119164286D01*
X146313143Y-119192858D01*
X146370286Y-119221429D01*
X146398857Y-119250000D01*
X146427429Y-119307143D01*
X146427429Y-119364286D01*
X146398857Y-119421429D01*
X146370286Y-119450000D01*
X146313143Y-119478572D01*
X146198857Y-119507143D01*
X146056000Y-119507143D01*
X145941714Y-119478572D01*
X145884571Y-119450000D01*
X145856000Y-119421429D01*
X145827429Y-119364286D01*
X146427429Y-118592857D02*
X146427429Y-118935714D01*
X146427429Y-118764286D02*
X145827429Y-118764286D01*
X145913143Y-118821429D01*
X145970286Y-118878571D01*
X145998857Y-118935714D01*
X149696500Y-152671429D02*
X149496500Y-152385714D01*
X149353643Y-152671429D02*
X149353643Y-152071429D01*
X149582215Y-152071429D01*
X149639357Y-152100000D01*
X149667929Y-152128571D01*
X149696500Y-152185714D01*
X149696500Y-152271429D01*
X149667929Y-152328571D01*
X149639357Y-152357143D01*
X149582215Y-152385714D01*
X149353643Y-152385714D01*
X150267929Y-152671429D02*
X149925072Y-152671429D01*
X150096500Y-152671429D02*
X150096500Y-152071429D01*
X150039357Y-152157143D01*
X149982215Y-152214286D01*
X149925072Y-152242857D01*
X150141000Y-148670929D02*
X149941000Y-148385214D01*
X149798143Y-148670929D02*
X149798143Y-148070929D01*
X150026715Y-148070929D01*
X150083857Y-148099500D01*
X150112429Y-148128071D01*
X150141000Y-148185214D01*
X150141000Y-148270929D01*
X150112429Y-148328071D01*
X150083857Y-148356643D01*
X150026715Y-148385214D01*
X149798143Y-148385214D01*
X150369572Y-148128071D02*
X150398143Y-148099500D01*
X150455286Y-148070929D01*
X150598143Y-148070929D01*
X150655286Y-148099500D01*
X150683857Y-148128071D01*
X150712429Y-148185214D01*
X150712429Y-148242357D01*
X150683857Y-148328071D01*
X150341000Y-148670929D01*
X150712429Y-148670929D01*
X159152571Y-142591429D02*
X158952571Y-142305714D01*
X158809714Y-142591429D02*
X158809714Y-141991429D01*
X159038286Y-141991429D01*
X159095428Y-142020000D01*
X159124000Y-142048571D01*
X159152571Y-142105714D01*
X159152571Y-142191429D01*
X159124000Y-142248571D01*
X159095428Y-142277143D01*
X159038286Y-142305714D01*
X158809714Y-142305714D01*
X159724000Y-142591429D02*
X159381143Y-142591429D01*
X159552571Y-142591429D02*
X159552571Y-141991429D01*
X159495428Y-142077143D01*
X159438286Y-142134286D01*
X159381143Y-142162857D01*
X160095429Y-141991429D02*
X160152572Y-141991429D01*
X160209715Y-142020000D01*
X160238286Y-142048571D01*
X160266857Y-142105714D01*
X160295429Y-142220000D01*
X160295429Y-142362857D01*
X160266857Y-142477143D01*
X160238286Y-142534286D01*
X160209715Y-142562857D01*
X160152572Y-142591429D01*
X160095429Y-142591429D01*
X160038286Y-142562857D01*
X160009715Y-142534286D01*
X159981143Y-142477143D01*
X159952572Y-142362857D01*
X159952572Y-142220000D01*
X159981143Y-142105714D01*
X160009715Y-142048571D01*
X160038286Y-142020000D01*
X160095429Y-141991429D01*
X160495429Y-141991429D02*
X160866858Y-141991429D01*
X160666858Y-142220000D01*
X160752572Y-142220000D01*
X160809715Y-142248571D01*
X160838286Y-142277143D01*
X160866858Y-142334286D01*
X160866858Y-142477143D01*
X160838286Y-142534286D01*
X160809715Y-142562857D01*
X160752572Y-142591429D01*
X160581144Y-142591429D01*
X160524001Y-142562857D01*
X160495429Y-142534286D01*
X150458571Y-172292929D02*
X150258571Y-172007214D01*
X150115714Y-172292929D02*
X150115714Y-171692929D01*
X150344286Y-171692929D01*
X150401428Y-171721500D01*
X150430000Y-171750071D01*
X150458571Y-171807214D01*
X150458571Y-171892929D01*
X150430000Y-171950071D01*
X150401428Y-171978643D01*
X150344286Y-172007214D01*
X150115714Y-172007214D01*
X151030000Y-172292929D02*
X150687143Y-172292929D01*
X150858571Y-172292929D02*
X150858571Y-171692929D01*
X150801428Y-171778643D01*
X150744286Y-171835786D01*
X150687143Y-171864357D01*
X151401429Y-171692929D02*
X151458572Y-171692929D01*
X151515715Y-171721500D01*
X151544286Y-171750071D01*
X151572857Y-171807214D01*
X151601429Y-171921500D01*
X151601429Y-172064357D01*
X151572857Y-172178643D01*
X151544286Y-172235786D01*
X151515715Y-172264357D01*
X151458572Y-172292929D01*
X151401429Y-172292929D01*
X151344286Y-172264357D01*
X151315715Y-172235786D01*
X151287143Y-172178643D01*
X151258572Y-172064357D01*
X151258572Y-171921500D01*
X151287143Y-171807214D01*
X151315715Y-171750071D01*
X151344286Y-171721500D01*
X151401429Y-171692929D01*
X152115715Y-171892929D02*
X152115715Y-172292929D01*
X151972858Y-171664357D02*
X151830001Y-172092929D01*
X152201429Y-172092929D01*
X144299071Y-172292929D02*
X144099071Y-172007214D01*
X143956214Y-172292929D02*
X143956214Y-171692929D01*
X144184786Y-171692929D01*
X144241928Y-171721500D01*
X144270500Y-171750071D01*
X144299071Y-171807214D01*
X144299071Y-171892929D01*
X144270500Y-171950071D01*
X144241928Y-171978643D01*
X144184786Y-172007214D01*
X143956214Y-172007214D01*
X144870500Y-172292929D02*
X144527643Y-172292929D01*
X144699071Y-172292929D02*
X144699071Y-171692929D01*
X144641928Y-171778643D01*
X144584786Y-171835786D01*
X144527643Y-171864357D01*
X145241929Y-171692929D02*
X145299072Y-171692929D01*
X145356215Y-171721500D01*
X145384786Y-171750071D01*
X145413357Y-171807214D01*
X145441929Y-171921500D01*
X145441929Y-172064357D01*
X145413357Y-172178643D01*
X145384786Y-172235786D01*
X145356215Y-172264357D01*
X145299072Y-172292929D01*
X145241929Y-172292929D01*
X145184786Y-172264357D01*
X145156215Y-172235786D01*
X145127643Y-172178643D01*
X145099072Y-172064357D01*
X145099072Y-171921500D01*
X145127643Y-171807214D01*
X145156215Y-171750071D01*
X145184786Y-171721500D01*
X145241929Y-171692929D01*
X145984786Y-171692929D02*
X145699072Y-171692929D01*
X145670501Y-171978643D01*
X145699072Y-171950071D01*
X145756215Y-171921500D01*
X145899072Y-171921500D01*
X145956215Y-171950071D01*
X145984786Y-171978643D01*
X146013358Y-172035786D01*
X146013358Y-172178643D01*
X145984786Y-172235786D01*
X145956215Y-172264357D01*
X145899072Y-172292929D01*
X145756215Y-172292929D01*
X145699072Y-172264357D01*
X145670501Y-172235786D01*
X152771429Y-125073429D02*
X152485714Y-125273429D01*
X152771429Y-125416286D02*
X152171429Y-125416286D01*
X152171429Y-125187714D01*
X152200000Y-125130572D01*
X152228571Y-125102000D01*
X152285714Y-125073429D01*
X152371429Y-125073429D01*
X152428571Y-125102000D01*
X152457143Y-125130572D01*
X152485714Y-125187714D01*
X152485714Y-125416286D01*
X152228571Y-124844857D02*
X152200000Y-124816286D01*
X152171429Y-124759143D01*
X152171429Y-124616286D01*
X152200000Y-124559143D01*
X152228571Y-124530572D01*
X152285714Y-124502000D01*
X152342857Y-124502000D01*
X152428571Y-124530572D01*
X152771429Y-124873429D01*
X152771429Y-124502000D01*
X152171429Y-124130571D02*
X152171429Y-124073428D01*
X152200000Y-124016285D01*
X152228571Y-123987714D01*
X152285714Y-123959143D01*
X152400000Y-123930571D01*
X152542857Y-123930571D01*
X152657143Y-123959143D01*
X152714286Y-123987714D01*
X152742857Y-124016285D01*
X152771429Y-124073428D01*
X152771429Y-124130571D01*
X152742857Y-124187714D01*
X152714286Y-124216285D01*
X152657143Y-124244857D01*
X152542857Y-124273428D01*
X152400000Y-124273428D01*
X152285714Y-124244857D01*
X152228571Y-124216285D01*
X152200000Y-124187714D01*
X152171429Y-124130571D01*
X152771429Y-123359142D02*
X152771429Y-123701999D01*
X152771429Y-123530571D02*
X152171429Y-123530571D01*
X152257143Y-123587714D01*
X152314286Y-123644856D01*
X152342857Y-123701999D01*
X158085429Y-127359429D02*
X157799714Y-127559429D01*
X158085429Y-127702286D02*
X157485429Y-127702286D01*
X157485429Y-127473714D01*
X157514000Y-127416572D01*
X157542571Y-127388000D01*
X157599714Y-127359429D01*
X157685429Y-127359429D01*
X157742571Y-127388000D01*
X157771143Y-127416572D01*
X157799714Y-127473714D01*
X157799714Y-127702286D01*
X157542571Y-127130857D02*
X157514000Y-127102286D01*
X157485429Y-127045143D01*
X157485429Y-126902286D01*
X157514000Y-126845143D01*
X157542571Y-126816572D01*
X157599714Y-126788000D01*
X157656857Y-126788000D01*
X157742571Y-126816572D01*
X158085429Y-127159429D01*
X158085429Y-126788000D01*
X157485429Y-126416571D02*
X157485429Y-126359428D01*
X157514000Y-126302285D01*
X157542571Y-126273714D01*
X157599714Y-126245143D01*
X157714000Y-126216571D01*
X157856857Y-126216571D01*
X157971143Y-126245143D01*
X158028286Y-126273714D01*
X158056857Y-126302285D01*
X158085429Y-126359428D01*
X158085429Y-126416571D01*
X158056857Y-126473714D01*
X158028286Y-126502285D01*
X157971143Y-126530857D01*
X157856857Y-126559428D01*
X157714000Y-126559428D01*
X157599714Y-126530857D01*
X157542571Y-126502285D01*
X157514000Y-126473714D01*
X157485429Y-126416571D01*
X157542571Y-125987999D02*
X157514000Y-125959428D01*
X157485429Y-125902285D01*
X157485429Y-125759428D01*
X157514000Y-125702285D01*
X157542571Y-125673714D01*
X157599714Y-125645142D01*
X157656857Y-125645142D01*
X157742571Y-125673714D01*
X158085429Y-126016571D01*
X158085429Y-125645142D01*
X154271429Y-127359429D02*
X153985714Y-127559429D01*
X154271429Y-127702286D02*
X153671429Y-127702286D01*
X153671429Y-127473714D01*
X153700000Y-127416572D01*
X153728571Y-127388000D01*
X153785714Y-127359429D01*
X153871429Y-127359429D01*
X153928571Y-127388000D01*
X153957143Y-127416572D01*
X153985714Y-127473714D01*
X153985714Y-127702286D01*
X153728571Y-127130857D02*
X153700000Y-127102286D01*
X153671429Y-127045143D01*
X153671429Y-126902286D01*
X153700000Y-126845143D01*
X153728571Y-126816572D01*
X153785714Y-126788000D01*
X153842857Y-126788000D01*
X153928571Y-126816572D01*
X154271429Y-127159429D01*
X154271429Y-126788000D01*
X153671429Y-126416571D02*
X153671429Y-126359428D01*
X153700000Y-126302285D01*
X153728571Y-126273714D01*
X153785714Y-126245143D01*
X153900000Y-126216571D01*
X154042857Y-126216571D01*
X154157143Y-126245143D01*
X154214286Y-126273714D01*
X154242857Y-126302285D01*
X154271429Y-126359428D01*
X154271429Y-126416571D01*
X154242857Y-126473714D01*
X154214286Y-126502285D01*
X154157143Y-126530857D01*
X154042857Y-126559428D01*
X153900000Y-126559428D01*
X153785714Y-126530857D01*
X153728571Y-126502285D01*
X153700000Y-126473714D01*
X153671429Y-126416571D01*
X153671429Y-126016571D02*
X153671429Y-125645142D01*
X153900000Y-125845142D01*
X153900000Y-125759428D01*
X153928571Y-125702285D01*
X153957143Y-125673714D01*
X154014286Y-125645142D01*
X154157143Y-125645142D01*
X154214286Y-125673714D01*
X154242857Y-125702285D01*
X154271429Y-125759428D01*
X154271429Y-125930856D01*
X154242857Y-125987999D01*
X154214286Y-126016571D01*
X160271429Y-124171429D02*
X159985714Y-124371429D01*
X160271429Y-124514286D02*
X159671429Y-124514286D01*
X159671429Y-124285714D01*
X159700000Y-124228572D01*
X159728571Y-124200000D01*
X159785714Y-124171429D01*
X159871429Y-124171429D01*
X159928571Y-124200000D01*
X159957143Y-124228572D01*
X159985714Y-124285714D01*
X159985714Y-124514286D01*
X159728571Y-123942857D02*
X159700000Y-123914286D01*
X159671429Y-123857143D01*
X159671429Y-123714286D01*
X159700000Y-123657143D01*
X159728571Y-123628572D01*
X159785714Y-123600000D01*
X159842857Y-123600000D01*
X159928571Y-123628572D01*
X160271429Y-123971429D01*
X160271429Y-123600000D01*
X159671429Y-123228571D02*
X159671429Y-123171428D01*
X159700000Y-123114285D01*
X159728571Y-123085714D01*
X159785714Y-123057143D01*
X159900000Y-123028571D01*
X160042857Y-123028571D01*
X160157143Y-123057143D01*
X160214286Y-123085714D01*
X160242857Y-123114285D01*
X160271429Y-123171428D01*
X160271429Y-123228571D01*
X160242857Y-123285714D01*
X160214286Y-123314285D01*
X160157143Y-123342857D01*
X160042857Y-123371428D01*
X159900000Y-123371428D01*
X159785714Y-123342857D01*
X159728571Y-123314285D01*
X159700000Y-123285714D01*
X159671429Y-123228571D01*
X159871429Y-122514285D02*
X160271429Y-122514285D01*
X159642857Y-122657142D02*
X160071429Y-122799999D01*
X160071429Y-122428571D01*
X157328571Y-121271429D02*
X157128571Y-120985714D01*
X156985714Y-121271429D02*
X156985714Y-120671429D01*
X157214286Y-120671429D01*
X157271428Y-120700000D01*
X157300000Y-120728571D01*
X157328571Y-120785714D01*
X157328571Y-120871429D01*
X157300000Y-120928571D01*
X157271428Y-120957143D01*
X157214286Y-120985714D01*
X156985714Y-120985714D01*
X157557143Y-120728571D02*
X157585714Y-120700000D01*
X157642857Y-120671429D01*
X157785714Y-120671429D01*
X157842857Y-120700000D01*
X157871428Y-120728571D01*
X157900000Y-120785714D01*
X157900000Y-120842857D01*
X157871428Y-120928571D01*
X157528571Y-121271429D01*
X157900000Y-121271429D01*
X158271429Y-120671429D02*
X158328572Y-120671429D01*
X158385715Y-120700000D01*
X158414286Y-120728571D01*
X158442857Y-120785714D01*
X158471429Y-120900000D01*
X158471429Y-121042857D01*
X158442857Y-121157143D01*
X158414286Y-121214286D01*
X158385715Y-121242857D01*
X158328572Y-121271429D01*
X158271429Y-121271429D01*
X158214286Y-121242857D01*
X158185715Y-121214286D01*
X158157143Y-121157143D01*
X158128572Y-121042857D01*
X158128572Y-120900000D01*
X158157143Y-120785714D01*
X158185715Y-120728571D01*
X158214286Y-120700000D01*
X158271429Y-120671429D01*
X159014286Y-120671429D02*
X158728572Y-120671429D01*
X158700001Y-120957143D01*
X158728572Y-120928571D01*
X158785715Y-120900000D01*
X158928572Y-120900000D01*
X158985715Y-120928571D01*
X159014286Y-120957143D01*
X159042858Y-121014286D01*
X159042858Y-121157143D01*
X159014286Y-121214286D01*
X158985715Y-121242857D01*
X158928572Y-121271429D01*
X158785715Y-121271429D01*
X158728572Y-121242857D01*
X158700001Y-121214286D01*
X155328571Y-120271429D02*
X155128571Y-119985714D01*
X154985714Y-120271429D02*
X154985714Y-119671429D01*
X155214286Y-119671429D01*
X155271428Y-119700000D01*
X155300000Y-119728571D01*
X155328571Y-119785714D01*
X155328571Y-119871429D01*
X155300000Y-119928571D01*
X155271428Y-119957143D01*
X155214286Y-119985714D01*
X154985714Y-119985714D01*
X155557143Y-119728571D02*
X155585714Y-119700000D01*
X155642857Y-119671429D01*
X155785714Y-119671429D01*
X155842857Y-119700000D01*
X155871428Y-119728571D01*
X155900000Y-119785714D01*
X155900000Y-119842857D01*
X155871428Y-119928571D01*
X155528571Y-120271429D01*
X155900000Y-120271429D01*
X156271429Y-119671429D02*
X156328572Y-119671429D01*
X156385715Y-119700000D01*
X156414286Y-119728571D01*
X156442857Y-119785714D01*
X156471429Y-119900000D01*
X156471429Y-120042857D01*
X156442857Y-120157143D01*
X156414286Y-120214286D01*
X156385715Y-120242857D01*
X156328572Y-120271429D01*
X156271429Y-120271429D01*
X156214286Y-120242857D01*
X156185715Y-120214286D01*
X156157143Y-120157143D01*
X156128572Y-120042857D01*
X156128572Y-119900000D01*
X156157143Y-119785714D01*
X156185715Y-119728571D01*
X156214286Y-119700000D01*
X156271429Y-119671429D01*
X156985715Y-119671429D02*
X156871429Y-119671429D01*
X156814286Y-119700000D01*
X156785715Y-119728571D01*
X156728572Y-119814286D01*
X156700001Y-119928571D01*
X156700001Y-120157143D01*
X156728572Y-120214286D01*
X156757144Y-120242857D01*
X156814286Y-120271429D01*
X156928572Y-120271429D01*
X156985715Y-120242857D01*
X157014286Y-120214286D01*
X157042858Y-120157143D01*
X157042858Y-120014286D01*
X157014286Y-119957143D01*
X156985715Y-119928571D01*
X156928572Y-119900000D01*
X156814286Y-119900000D01*
X156757144Y-119928571D01*
X156728572Y-119957143D01*
X156700001Y-120014286D01*
X153521429Y-122221429D02*
X153235714Y-122421429D01*
X153521429Y-122564286D02*
X152921429Y-122564286D01*
X152921429Y-122335714D01*
X152950000Y-122278572D01*
X152978571Y-122250000D01*
X153035714Y-122221429D01*
X153121429Y-122221429D01*
X153178571Y-122250000D01*
X153207143Y-122278572D01*
X153235714Y-122335714D01*
X153235714Y-122564286D01*
X152978571Y-121992857D02*
X152950000Y-121964286D01*
X152921429Y-121907143D01*
X152921429Y-121764286D01*
X152950000Y-121707143D01*
X152978571Y-121678572D01*
X153035714Y-121650000D01*
X153092857Y-121650000D01*
X153178571Y-121678572D01*
X153521429Y-122021429D01*
X153521429Y-121650000D01*
X152921429Y-121278571D02*
X152921429Y-121221428D01*
X152950000Y-121164285D01*
X152978571Y-121135714D01*
X153035714Y-121107143D01*
X153150000Y-121078571D01*
X153292857Y-121078571D01*
X153407143Y-121107143D01*
X153464286Y-121135714D01*
X153492857Y-121164285D01*
X153521429Y-121221428D01*
X153521429Y-121278571D01*
X153492857Y-121335714D01*
X153464286Y-121364285D01*
X153407143Y-121392857D01*
X153292857Y-121421428D01*
X153150000Y-121421428D01*
X153035714Y-121392857D01*
X152978571Y-121364285D01*
X152950000Y-121335714D01*
X152921429Y-121278571D01*
X152921429Y-120878571D02*
X152921429Y-120478571D01*
X153521429Y-120735714D01*
X144328571Y-117021429D02*
X144128571Y-116735714D01*
X143985714Y-117021429D02*
X143985714Y-116421429D01*
X144214286Y-116421429D01*
X144271428Y-116450000D01*
X144300000Y-116478571D01*
X144328571Y-116535714D01*
X144328571Y-116621429D01*
X144300000Y-116678571D01*
X144271428Y-116707143D01*
X144214286Y-116735714D01*
X143985714Y-116735714D01*
X144528571Y-116421429D02*
X144900000Y-116421429D01*
X144700000Y-116650000D01*
X144785714Y-116650000D01*
X144842857Y-116678571D01*
X144871428Y-116707143D01*
X144900000Y-116764286D01*
X144900000Y-116907143D01*
X144871428Y-116964286D01*
X144842857Y-116992857D01*
X144785714Y-117021429D01*
X144614286Y-117021429D01*
X144557143Y-116992857D01*
X144528571Y-116964286D01*
X145271429Y-116421429D02*
X145328572Y-116421429D01*
X145385715Y-116450000D01*
X145414286Y-116478571D01*
X145442857Y-116535714D01*
X145471429Y-116650000D01*
X145471429Y-116792857D01*
X145442857Y-116907143D01*
X145414286Y-116964286D01*
X145385715Y-116992857D01*
X145328572Y-117021429D01*
X145271429Y-117021429D01*
X145214286Y-116992857D01*
X145185715Y-116964286D01*
X145157143Y-116907143D01*
X145128572Y-116792857D01*
X145128572Y-116650000D01*
X145157143Y-116535714D01*
X145185715Y-116478571D01*
X145214286Y-116450000D01*
X145271429Y-116421429D01*
X146042858Y-117021429D02*
X145700001Y-117021429D01*
X145871429Y-117021429D02*
X145871429Y-116421429D01*
X145814286Y-116507143D01*
X145757144Y-116564286D01*
X145700001Y-116592857D01*
X150262571Y-116429429D02*
X150062571Y-116143714D01*
X149919714Y-116429429D02*
X149919714Y-115829429D01*
X150148286Y-115829429D01*
X150205428Y-115858000D01*
X150234000Y-115886571D01*
X150262571Y-115943714D01*
X150262571Y-116029429D01*
X150234000Y-116086571D01*
X150205428Y-116115143D01*
X150148286Y-116143714D01*
X149919714Y-116143714D01*
X150462571Y-115829429D02*
X150834000Y-115829429D01*
X150634000Y-116058000D01*
X150719714Y-116058000D01*
X150776857Y-116086571D01*
X150805428Y-116115143D01*
X150834000Y-116172286D01*
X150834000Y-116315143D01*
X150805428Y-116372286D01*
X150776857Y-116400857D01*
X150719714Y-116429429D01*
X150548286Y-116429429D01*
X150491143Y-116400857D01*
X150462571Y-116372286D01*
X151205429Y-115829429D02*
X151262572Y-115829429D01*
X151319715Y-115858000D01*
X151348286Y-115886571D01*
X151376857Y-115943714D01*
X151405429Y-116058000D01*
X151405429Y-116200857D01*
X151376857Y-116315143D01*
X151348286Y-116372286D01*
X151319715Y-116400857D01*
X151262572Y-116429429D01*
X151205429Y-116429429D01*
X151148286Y-116400857D01*
X151119715Y-116372286D01*
X151091143Y-116315143D01*
X151062572Y-116200857D01*
X151062572Y-116058000D01*
X151091143Y-115943714D01*
X151119715Y-115886571D01*
X151148286Y-115858000D01*
X151205429Y-115829429D01*
X151634001Y-115886571D02*
X151662572Y-115858000D01*
X151719715Y-115829429D01*
X151862572Y-115829429D01*
X151919715Y-115858000D01*
X151948286Y-115886571D01*
X151976858Y-115943714D01*
X151976858Y-116000857D01*
X151948286Y-116086571D01*
X151605429Y-116429429D01*
X151976858Y-116429429D01*
X152751429Y-112489429D02*
X152465714Y-112689429D01*
X152751429Y-112832286D02*
X152151429Y-112832286D01*
X152151429Y-112603714D01*
X152180000Y-112546572D01*
X152208571Y-112518000D01*
X152265714Y-112489429D01*
X152351429Y-112489429D01*
X152408571Y-112518000D01*
X152437143Y-112546572D01*
X152465714Y-112603714D01*
X152465714Y-112832286D01*
X152151429Y-112289429D02*
X152151429Y-111918000D01*
X152380000Y-112118000D01*
X152380000Y-112032286D01*
X152408571Y-111975143D01*
X152437143Y-111946572D01*
X152494286Y-111918000D01*
X152637143Y-111918000D01*
X152694286Y-111946572D01*
X152722857Y-111975143D01*
X152751429Y-112032286D01*
X152751429Y-112203714D01*
X152722857Y-112260857D01*
X152694286Y-112289429D01*
X152151429Y-111546571D02*
X152151429Y-111489428D01*
X152180000Y-111432285D01*
X152208571Y-111403714D01*
X152265714Y-111375143D01*
X152380000Y-111346571D01*
X152522857Y-111346571D01*
X152637143Y-111375143D01*
X152694286Y-111403714D01*
X152722857Y-111432285D01*
X152751429Y-111489428D01*
X152751429Y-111546571D01*
X152722857Y-111603714D01*
X152694286Y-111632285D01*
X152637143Y-111660857D01*
X152522857Y-111689428D01*
X152380000Y-111689428D01*
X152265714Y-111660857D01*
X152208571Y-111632285D01*
X152180000Y-111603714D01*
X152151429Y-111546571D01*
X152151429Y-111146571D02*
X152151429Y-110775142D01*
X152380000Y-110975142D01*
X152380000Y-110889428D01*
X152408571Y-110832285D01*
X152437143Y-110803714D01*
X152494286Y-110775142D01*
X152637143Y-110775142D01*
X152694286Y-110803714D01*
X152722857Y-110832285D01*
X152751429Y-110889428D01*
X152751429Y-111060856D01*
X152722857Y-111117999D01*
X152694286Y-111146571D01*
X144352929Y-162850429D02*
X144067214Y-163050429D01*
X144352929Y-163193286D02*
X143752929Y-163193286D01*
X143752929Y-162964714D01*
X143781500Y-162907572D01*
X143810071Y-162879000D01*
X143867214Y-162850429D01*
X143952929Y-162850429D01*
X144010071Y-162879000D01*
X144038643Y-162907572D01*
X144067214Y-162964714D01*
X144067214Y-163193286D01*
X143752929Y-162650429D02*
X143752929Y-162279000D01*
X143981500Y-162479000D01*
X143981500Y-162393286D01*
X144010071Y-162336143D01*
X144038643Y-162307572D01*
X144095786Y-162279000D01*
X144238643Y-162279000D01*
X144295786Y-162307572D01*
X144324357Y-162336143D01*
X144352929Y-162393286D01*
X144352929Y-162564714D01*
X144324357Y-162621857D01*
X144295786Y-162650429D01*
X143752929Y-161907571D02*
X143752929Y-161850428D01*
X143781500Y-161793285D01*
X143810071Y-161764714D01*
X143867214Y-161736143D01*
X143981500Y-161707571D01*
X144124357Y-161707571D01*
X144238643Y-161736143D01*
X144295786Y-161764714D01*
X144324357Y-161793285D01*
X144352929Y-161850428D01*
X144352929Y-161907571D01*
X144324357Y-161964714D01*
X144295786Y-161993285D01*
X144238643Y-162021857D01*
X144124357Y-162050428D01*
X143981500Y-162050428D01*
X143867214Y-162021857D01*
X143810071Y-161993285D01*
X143781500Y-161964714D01*
X143752929Y-161907571D01*
X143952929Y-161193285D02*
X144352929Y-161193285D01*
X143724357Y-161336142D02*
X144152929Y-161478999D01*
X144152929Y-161107571D01*
X150585571Y-162767929D02*
X150385571Y-162482214D01*
X150242714Y-162767929D02*
X150242714Y-162167929D01*
X150471286Y-162167929D01*
X150528428Y-162196500D01*
X150557000Y-162225071D01*
X150585571Y-162282214D01*
X150585571Y-162367929D01*
X150557000Y-162425071D01*
X150528428Y-162453643D01*
X150471286Y-162482214D01*
X150242714Y-162482214D01*
X150785571Y-162167929D02*
X151157000Y-162167929D01*
X150957000Y-162396500D01*
X151042714Y-162396500D01*
X151099857Y-162425071D01*
X151128428Y-162453643D01*
X151157000Y-162510786D01*
X151157000Y-162653643D01*
X151128428Y-162710786D01*
X151099857Y-162739357D01*
X151042714Y-162767929D01*
X150871286Y-162767929D01*
X150814143Y-162739357D01*
X150785571Y-162710786D01*
X151528429Y-162167929D02*
X151585572Y-162167929D01*
X151642715Y-162196500D01*
X151671286Y-162225071D01*
X151699857Y-162282214D01*
X151728429Y-162396500D01*
X151728429Y-162539357D01*
X151699857Y-162653643D01*
X151671286Y-162710786D01*
X151642715Y-162739357D01*
X151585572Y-162767929D01*
X151528429Y-162767929D01*
X151471286Y-162739357D01*
X151442715Y-162710786D01*
X151414143Y-162653643D01*
X151385572Y-162539357D01*
X151385572Y-162396500D01*
X151414143Y-162282214D01*
X151442715Y-162225071D01*
X151471286Y-162196500D01*
X151528429Y-162167929D01*
X152271286Y-162167929D02*
X151985572Y-162167929D01*
X151957001Y-162453643D01*
X151985572Y-162425071D01*
X152042715Y-162396500D01*
X152185572Y-162396500D01*
X152242715Y-162425071D01*
X152271286Y-162453643D01*
X152299858Y-162510786D01*
X152299858Y-162653643D01*
X152271286Y-162710786D01*
X152242715Y-162739357D01*
X152185572Y-162767929D01*
X152042715Y-162767929D01*
X151985572Y-162739357D01*
X151957001Y-162710786D01*
X152497429Y-159040429D02*
X152211714Y-159240429D01*
X152497429Y-159383286D02*
X151897429Y-159383286D01*
X151897429Y-159154714D01*
X151926000Y-159097572D01*
X151954571Y-159069000D01*
X152011714Y-159040429D01*
X152097429Y-159040429D01*
X152154571Y-159069000D01*
X152183143Y-159097572D01*
X152211714Y-159154714D01*
X152211714Y-159383286D01*
X151897429Y-158840429D02*
X151897429Y-158469000D01*
X152126000Y-158669000D01*
X152126000Y-158583286D01*
X152154571Y-158526143D01*
X152183143Y-158497572D01*
X152240286Y-158469000D01*
X152383143Y-158469000D01*
X152440286Y-158497572D01*
X152468857Y-158526143D01*
X152497429Y-158583286D01*
X152497429Y-158754714D01*
X152468857Y-158811857D01*
X152440286Y-158840429D01*
X151897429Y-158097571D02*
X151897429Y-158040428D01*
X151926000Y-157983285D01*
X151954571Y-157954714D01*
X152011714Y-157926143D01*
X152126000Y-157897571D01*
X152268857Y-157897571D01*
X152383143Y-157926143D01*
X152440286Y-157954714D01*
X152468857Y-157983285D01*
X152497429Y-158040428D01*
X152497429Y-158097571D01*
X152468857Y-158154714D01*
X152440286Y-158183285D01*
X152383143Y-158211857D01*
X152268857Y-158240428D01*
X152126000Y-158240428D01*
X152011714Y-158211857D01*
X151954571Y-158183285D01*
X151926000Y-158154714D01*
X151897429Y-158097571D01*
X151897429Y-157383285D02*
X151897429Y-157497571D01*
X151926000Y-157554714D01*
X151954571Y-157583285D01*
X152040286Y-157640428D01*
X152154571Y-157668999D01*
X152383143Y-157668999D01*
X152440286Y-157640428D01*
X152468857Y-157611856D01*
X152497429Y-157554714D01*
X152497429Y-157440428D01*
X152468857Y-157383285D01*
X152440286Y-157354714D01*
X152383143Y-157326142D01*
X152240286Y-157326142D01*
X152183143Y-157354714D01*
X152154571Y-157383285D01*
X152126000Y-157440428D01*
X152126000Y-157554714D01*
X152154571Y-157611856D01*
X152183143Y-157640428D01*
X152240286Y-157668999D01*
X128328571Y-103671429D02*
X128128571Y-103385714D01*
X127985714Y-103671429D02*
X127985714Y-103071429D01*
X128214286Y-103071429D01*
X128271428Y-103100000D01*
X128300000Y-103128571D01*
X128328571Y-103185714D01*
X128328571Y-103271429D01*
X128300000Y-103328571D01*
X128271428Y-103357143D01*
X128214286Y-103385714D01*
X127985714Y-103385714D01*
X128842857Y-103271429D02*
X128842857Y-103671429D01*
X128700000Y-103042857D02*
X128557143Y-103471429D01*
X128928571Y-103471429D01*
X129271429Y-103071429D02*
X129328572Y-103071429D01*
X129385715Y-103100000D01*
X129414286Y-103128571D01*
X129442857Y-103185714D01*
X129471429Y-103300000D01*
X129471429Y-103442857D01*
X129442857Y-103557143D01*
X129414286Y-103614286D01*
X129385715Y-103642857D01*
X129328572Y-103671429D01*
X129271429Y-103671429D01*
X129214286Y-103642857D01*
X129185715Y-103614286D01*
X129157143Y-103557143D01*
X129128572Y-103442857D01*
X129128572Y-103300000D01*
X129157143Y-103185714D01*
X129185715Y-103128571D01*
X129214286Y-103100000D01*
X129271429Y-103071429D01*
X130042858Y-103671429D02*
X129700001Y-103671429D01*
X129871429Y-103671429D02*
X129871429Y-103071429D01*
X129814286Y-103157143D01*
X129757144Y-103214286D01*
X129700001Y-103242857D01*
X128128571Y-100671429D02*
X127928571Y-100385714D01*
X127785714Y-100671429D02*
X127785714Y-100071429D01*
X128014286Y-100071429D01*
X128071428Y-100100000D01*
X128100000Y-100128571D01*
X128128571Y-100185714D01*
X128128571Y-100271429D01*
X128100000Y-100328571D01*
X128071428Y-100357143D01*
X128014286Y-100385714D01*
X127785714Y-100385714D01*
X128642857Y-100271429D02*
X128642857Y-100671429D01*
X128500000Y-100042857D02*
X128357143Y-100471429D01*
X128728571Y-100471429D01*
X129071429Y-100071429D02*
X129128572Y-100071429D01*
X129185715Y-100100000D01*
X129214286Y-100128571D01*
X129242857Y-100185714D01*
X129271429Y-100300000D01*
X129271429Y-100442857D01*
X129242857Y-100557143D01*
X129214286Y-100614286D01*
X129185715Y-100642857D01*
X129128572Y-100671429D01*
X129071429Y-100671429D01*
X129014286Y-100642857D01*
X128985715Y-100614286D01*
X128957143Y-100557143D01*
X128928572Y-100442857D01*
X128928572Y-100300000D01*
X128957143Y-100185714D01*
X128985715Y-100128571D01*
X129014286Y-100100000D01*
X129071429Y-100071429D01*
X129500001Y-100128571D02*
X129528572Y-100100000D01*
X129585715Y-100071429D01*
X129728572Y-100071429D01*
X129785715Y-100100000D01*
X129814286Y-100128571D01*
X129842858Y-100185714D01*
X129842858Y-100242857D01*
X129814286Y-100328571D01*
X129471429Y-100671429D01*
X129842858Y-100671429D01*
X167828571Y-100521429D02*
X167628571Y-100235714D01*
X167485714Y-100521429D02*
X167485714Y-99921429D01*
X167714286Y-99921429D01*
X167771428Y-99950000D01*
X167800000Y-99978571D01*
X167828571Y-100035714D01*
X167828571Y-100121429D01*
X167800000Y-100178571D01*
X167771428Y-100207143D01*
X167714286Y-100235714D01*
X167485714Y-100235714D01*
X168342857Y-100121429D02*
X168342857Y-100521429D01*
X168200000Y-99892857D02*
X168057143Y-100321429D01*
X168428571Y-100321429D01*
X168771429Y-99921429D02*
X168828572Y-99921429D01*
X168885715Y-99950000D01*
X168914286Y-99978571D01*
X168942857Y-100035714D01*
X168971429Y-100150000D01*
X168971429Y-100292857D01*
X168942857Y-100407143D01*
X168914286Y-100464286D01*
X168885715Y-100492857D01*
X168828572Y-100521429D01*
X168771429Y-100521429D01*
X168714286Y-100492857D01*
X168685715Y-100464286D01*
X168657143Y-100407143D01*
X168628572Y-100292857D01*
X168628572Y-100150000D01*
X168657143Y-100035714D01*
X168685715Y-99978571D01*
X168714286Y-99950000D01*
X168771429Y-99921429D01*
X169171429Y-99921429D02*
X169542858Y-99921429D01*
X169342858Y-100150000D01*
X169428572Y-100150000D01*
X169485715Y-100178571D01*
X169514286Y-100207143D01*
X169542858Y-100264286D01*
X169542858Y-100407143D01*
X169514286Y-100464286D01*
X169485715Y-100492857D01*
X169428572Y-100521429D01*
X169257144Y-100521429D01*
X169200001Y-100492857D01*
X169171429Y-100464286D01*
X167928571Y-103671429D02*
X167728571Y-103385714D01*
X167585714Y-103671429D02*
X167585714Y-103071429D01*
X167814286Y-103071429D01*
X167871428Y-103100000D01*
X167900000Y-103128571D01*
X167928571Y-103185714D01*
X167928571Y-103271429D01*
X167900000Y-103328571D01*
X167871428Y-103357143D01*
X167814286Y-103385714D01*
X167585714Y-103385714D01*
X168442857Y-103271429D02*
X168442857Y-103671429D01*
X168300000Y-103042857D02*
X168157143Y-103471429D01*
X168528571Y-103471429D01*
X168871429Y-103071429D02*
X168928572Y-103071429D01*
X168985715Y-103100000D01*
X169014286Y-103128571D01*
X169042857Y-103185714D01*
X169071429Y-103300000D01*
X169071429Y-103442857D01*
X169042857Y-103557143D01*
X169014286Y-103614286D01*
X168985715Y-103642857D01*
X168928572Y-103671429D01*
X168871429Y-103671429D01*
X168814286Y-103642857D01*
X168785715Y-103614286D01*
X168757143Y-103557143D01*
X168728572Y-103442857D01*
X168728572Y-103300000D01*
X168757143Y-103185714D01*
X168785715Y-103128571D01*
X168814286Y-103100000D01*
X168871429Y-103071429D01*
X169585715Y-103271429D02*
X169585715Y-103671429D01*
X169442858Y-103042857D02*
X169300001Y-103471429D01*
X169671429Y-103471429D01*
X151021429Y-104171429D02*
X150735714Y-104371429D01*
X151021429Y-104514286D02*
X150421429Y-104514286D01*
X150421429Y-104285714D01*
X150450000Y-104228572D01*
X150478571Y-104200000D01*
X150535714Y-104171429D01*
X150621429Y-104171429D01*
X150678571Y-104200000D01*
X150707143Y-104228572D01*
X150735714Y-104285714D01*
X150735714Y-104514286D01*
X150421429Y-103628572D02*
X150421429Y-103914286D01*
X150707143Y-103942857D01*
X150678571Y-103914286D01*
X150650000Y-103857143D01*
X150650000Y-103714286D01*
X150678571Y-103657143D01*
X150707143Y-103628572D01*
X150764286Y-103600000D01*
X150907143Y-103600000D01*
X150964286Y-103628572D01*
X150992857Y-103657143D01*
X151021429Y-103714286D01*
X151021429Y-103857143D01*
X150992857Y-103914286D01*
X150964286Y-103942857D01*
X150421429Y-103228571D02*
X150421429Y-103171428D01*
X150450000Y-103114285D01*
X150478571Y-103085714D01*
X150535714Y-103057143D01*
X150650000Y-103028571D01*
X150792857Y-103028571D01*
X150907143Y-103057143D01*
X150964286Y-103085714D01*
X150992857Y-103114285D01*
X151021429Y-103171428D01*
X151021429Y-103228571D01*
X150992857Y-103285714D01*
X150964286Y-103314285D01*
X150907143Y-103342857D01*
X150792857Y-103371428D01*
X150650000Y-103371428D01*
X150535714Y-103342857D01*
X150478571Y-103314285D01*
X150450000Y-103285714D01*
X150421429Y-103228571D01*
X150421429Y-102828571D02*
X150421429Y-102428571D01*
X151021429Y-102685714D01*
X146648571Y-101791429D02*
X146448571Y-101505714D01*
X146305714Y-101791429D02*
X146305714Y-101191429D01*
X146534286Y-101191429D01*
X146591428Y-101220000D01*
X146620000Y-101248571D01*
X146648571Y-101305714D01*
X146648571Y-101391429D01*
X146620000Y-101448571D01*
X146591428Y-101477143D01*
X146534286Y-101505714D01*
X146305714Y-101505714D01*
X147191428Y-101191429D02*
X146905714Y-101191429D01*
X146877143Y-101477143D01*
X146905714Y-101448571D01*
X146962857Y-101420000D01*
X147105714Y-101420000D01*
X147162857Y-101448571D01*
X147191428Y-101477143D01*
X147220000Y-101534286D01*
X147220000Y-101677143D01*
X147191428Y-101734286D01*
X147162857Y-101762857D01*
X147105714Y-101791429D01*
X146962857Y-101791429D01*
X146905714Y-101762857D01*
X146877143Y-101734286D01*
X147591429Y-101191429D02*
X147648572Y-101191429D01*
X147705715Y-101220000D01*
X147734286Y-101248571D01*
X147762857Y-101305714D01*
X147791429Y-101420000D01*
X147791429Y-101562857D01*
X147762857Y-101677143D01*
X147734286Y-101734286D01*
X147705715Y-101762857D01*
X147648572Y-101791429D01*
X147591429Y-101791429D01*
X147534286Y-101762857D01*
X147505715Y-101734286D01*
X147477143Y-101677143D01*
X147448572Y-101562857D01*
X147448572Y-101420000D01*
X147477143Y-101305714D01*
X147505715Y-101248571D01*
X147534286Y-101220000D01*
X147591429Y-101191429D01*
X148134286Y-101448571D02*
X148077144Y-101420000D01*
X148048572Y-101391429D01*
X148020001Y-101334286D01*
X148020001Y-101305714D01*
X148048572Y-101248571D01*
X148077144Y-101220000D01*
X148134286Y-101191429D01*
X148248572Y-101191429D01*
X148305715Y-101220000D01*
X148334286Y-101248571D01*
X148362858Y-101305714D01*
X148362858Y-101334286D01*
X148334286Y-101391429D01*
X148305715Y-101420000D01*
X148248572Y-101448571D01*
X148134286Y-101448571D01*
X148077144Y-101477143D01*
X148048572Y-101505714D01*
X148020001Y-101562857D01*
X148020001Y-101677143D01*
X148048572Y-101734286D01*
X148077144Y-101762857D01*
X148134286Y-101791429D01*
X148248572Y-101791429D01*
X148305715Y-101762857D01*
X148334286Y-101734286D01*
X148362858Y-101677143D01*
X148362858Y-101562857D01*
X148334286Y-101505714D01*
X148305715Y-101477143D01*
X148248572Y-101448571D01*
X143019429Y-133386429D02*
X142733714Y-133586429D01*
X143019429Y-133729286D02*
X142419429Y-133729286D01*
X142419429Y-133500714D01*
X142448000Y-133443572D01*
X142476571Y-133415000D01*
X142533714Y-133386429D01*
X142619429Y-133386429D01*
X142676571Y-133415000D01*
X142705143Y-133443572D01*
X142733714Y-133500714D01*
X142733714Y-133729286D01*
X142419429Y-132872143D02*
X142419429Y-132986429D01*
X142448000Y-133043572D01*
X142476571Y-133072143D01*
X142562286Y-133129286D01*
X142676571Y-133157857D01*
X142905143Y-133157857D01*
X142962286Y-133129286D01*
X142990857Y-133100714D01*
X143019429Y-133043572D01*
X143019429Y-132929286D01*
X142990857Y-132872143D01*
X142962286Y-132843572D01*
X142905143Y-132815000D01*
X142762286Y-132815000D01*
X142705143Y-132843572D01*
X142676571Y-132872143D01*
X142648000Y-132929286D01*
X142648000Y-133043572D01*
X142676571Y-133100714D01*
X142705143Y-133129286D01*
X142762286Y-133157857D01*
X142419429Y-132443571D02*
X142419429Y-132386428D01*
X142448000Y-132329285D01*
X142476571Y-132300714D01*
X142533714Y-132272143D01*
X142648000Y-132243571D01*
X142790857Y-132243571D01*
X142905143Y-132272143D01*
X142962286Y-132300714D01*
X142990857Y-132329285D01*
X143019429Y-132386428D01*
X143019429Y-132443571D01*
X142990857Y-132500714D01*
X142962286Y-132529285D01*
X142905143Y-132557857D01*
X142790857Y-132586428D01*
X142648000Y-132586428D01*
X142533714Y-132557857D01*
X142476571Y-132529285D01*
X142448000Y-132500714D01*
X142419429Y-132443571D01*
X143019429Y-131672142D02*
X143019429Y-132014999D01*
X143019429Y-131843571D02*
X142419429Y-131843571D01*
X142505143Y-131900714D01*
X142562286Y-131957856D01*
X142590857Y-132014999D01*
X143019429Y-135735929D02*
X142733714Y-135935929D01*
X143019429Y-136078786D02*
X142419429Y-136078786D01*
X142419429Y-135850214D01*
X142448000Y-135793072D01*
X142476571Y-135764500D01*
X142533714Y-135735929D01*
X142619429Y-135735929D01*
X142676571Y-135764500D01*
X142705143Y-135793072D01*
X142733714Y-135850214D01*
X142733714Y-136078786D01*
X142419429Y-135221643D02*
X142419429Y-135335929D01*
X142448000Y-135393072D01*
X142476571Y-135421643D01*
X142562286Y-135478786D01*
X142676571Y-135507357D01*
X142905143Y-135507357D01*
X142962286Y-135478786D01*
X142990857Y-135450214D01*
X143019429Y-135393072D01*
X143019429Y-135278786D01*
X142990857Y-135221643D01*
X142962286Y-135193072D01*
X142905143Y-135164500D01*
X142762286Y-135164500D01*
X142705143Y-135193072D01*
X142676571Y-135221643D01*
X142648000Y-135278786D01*
X142648000Y-135393072D01*
X142676571Y-135450214D01*
X142705143Y-135478786D01*
X142762286Y-135507357D01*
X142419429Y-134793071D02*
X142419429Y-134735928D01*
X142448000Y-134678785D01*
X142476571Y-134650214D01*
X142533714Y-134621643D01*
X142648000Y-134593071D01*
X142790857Y-134593071D01*
X142905143Y-134621643D01*
X142962286Y-134650214D01*
X142990857Y-134678785D01*
X143019429Y-134735928D01*
X143019429Y-134793071D01*
X142990857Y-134850214D01*
X142962286Y-134878785D01*
X142905143Y-134907357D01*
X142790857Y-134935928D01*
X142648000Y-134935928D01*
X142533714Y-134907357D01*
X142476571Y-134878785D01*
X142448000Y-134850214D01*
X142419429Y-134793071D01*
X142476571Y-134364499D02*
X142448000Y-134335928D01*
X142419429Y-134278785D01*
X142419429Y-134135928D01*
X142448000Y-134078785D01*
X142476571Y-134050214D01*
X142533714Y-134021642D01*
X142590857Y-134021642D01*
X142676571Y-134050214D01*
X143019429Y-134393071D01*
X143019429Y-134021642D01*
X149458329Y-132472029D02*
X149172614Y-132672029D01*
X149458329Y-132814886D02*
X148858329Y-132814886D01*
X148858329Y-132586314D01*
X148886900Y-132529172D01*
X148915471Y-132500600D01*
X148972614Y-132472029D01*
X149058329Y-132472029D01*
X149115471Y-132500600D01*
X149144043Y-132529172D01*
X149172614Y-132586314D01*
X149172614Y-132814886D01*
X148858329Y-131957743D02*
X148858329Y-132072029D01*
X148886900Y-132129172D01*
X148915471Y-132157743D01*
X149001186Y-132214886D01*
X149115471Y-132243457D01*
X149344043Y-132243457D01*
X149401186Y-132214886D01*
X149429757Y-132186314D01*
X149458329Y-132129172D01*
X149458329Y-132014886D01*
X149429757Y-131957743D01*
X149401186Y-131929172D01*
X149344043Y-131900600D01*
X149201186Y-131900600D01*
X149144043Y-131929172D01*
X149115471Y-131957743D01*
X149086900Y-132014886D01*
X149086900Y-132129172D01*
X149115471Y-132186314D01*
X149144043Y-132214886D01*
X149201186Y-132243457D01*
X148858329Y-131529171D02*
X148858329Y-131472028D01*
X148886900Y-131414885D01*
X148915471Y-131386314D01*
X148972614Y-131357743D01*
X149086900Y-131329171D01*
X149229757Y-131329171D01*
X149344043Y-131357743D01*
X149401186Y-131386314D01*
X149429757Y-131414885D01*
X149458329Y-131472028D01*
X149458329Y-131529171D01*
X149429757Y-131586314D01*
X149401186Y-131614885D01*
X149344043Y-131643457D01*
X149229757Y-131672028D01*
X149086900Y-131672028D01*
X148972614Y-131643457D01*
X148915471Y-131614885D01*
X148886900Y-131586314D01*
X148858329Y-131529171D01*
X148858329Y-131129171D02*
X148858329Y-130757742D01*
X149086900Y-130957742D01*
X149086900Y-130872028D01*
X149115471Y-130814885D01*
X149144043Y-130786314D01*
X149201186Y-130757742D01*
X149344043Y-130757742D01*
X149401186Y-130786314D01*
X149429757Y-130814885D01*
X149458329Y-130872028D01*
X149458329Y-131043456D01*
X149429757Y-131100599D01*
X149401186Y-131129171D01*
X138771429Y-124671429D02*
X138485714Y-124871429D01*
X138771429Y-125014286D02*
X138171429Y-125014286D01*
X138171429Y-124785714D01*
X138200000Y-124728572D01*
X138228571Y-124700000D01*
X138285714Y-124671429D01*
X138371429Y-124671429D01*
X138428571Y-124700000D01*
X138457143Y-124728572D01*
X138485714Y-124785714D01*
X138485714Y-125014286D01*
X138171429Y-124471429D02*
X138171429Y-124071429D01*
X138771429Y-124328572D01*
X138171429Y-123728571D02*
X138171429Y-123671428D01*
X138200000Y-123614285D01*
X138228571Y-123585714D01*
X138285714Y-123557143D01*
X138400000Y-123528571D01*
X138542857Y-123528571D01*
X138657143Y-123557143D01*
X138714286Y-123585714D01*
X138742857Y-123614285D01*
X138771429Y-123671428D01*
X138771429Y-123728571D01*
X138742857Y-123785714D01*
X138714286Y-123814285D01*
X138657143Y-123842857D01*
X138542857Y-123871428D01*
X138400000Y-123871428D01*
X138285714Y-123842857D01*
X138228571Y-123814285D01*
X138200000Y-123785714D01*
X138171429Y-123728571D01*
X138771429Y-122957142D02*
X138771429Y-123299999D01*
X138771429Y-123128571D02*
X138171429Y-123128571D01*
X138257143Y-123185714D01*
X138314286Y-123242856D01*
X138342857Y-123299999D01*
X138771429Y-126921429D02*
X138485714Y-127121429D01*
X138771429Y-127264286D02*
X138171429Y-127264286D01*
X138171429Y-127035714D01*
X138200000Y-126978572D01*
X138228571Y-126950000D01*
X138285714Y-126921429D01*
X138371429Y-126921429D01*
X138428571Y-126950000D01*
X138457143Y-126978572D01*
X138485714Y-127035714D01*
X138485714Y-127264286D01*
X138171429Y-126721429D02*
X138171429Y-126321429D01*
X138771429Y-126578572D01*
X138171429Y-125978571D02*
X138171429Y-125921428D01*
X138200000Y-125864285D01*
X138228571Y-125835714D01*
X138285714Y-125807143D01*
X138400000Y-125778571D01*
X138542857Y-125778571D01*
X138657143Y-125807143D01*
X138714286Y-125835714D01*
X138742857Y-125864285D01*
X138771429Y-125921428D01*
X138771429Y-125978571D01*
X138742857Y-126035714D01*
X138714286Y-126064285D01*
X138657143Y-126092857D01*
X138542857Y-126121428D01*
X138400000Y-126121428D01*
X138285714Y-126092857D01*
X138228571Y-126064285D01*
X138200000Y-126035714D01*
X138171429Y-125978571D01*
X138228571Y-125549999D02*
X138200000Y-125521428D01*
X138171429Y-125464285D01*
X138171429Y-125321428D01*
X138200000Y-125264285D01*
X138228571Y-125235714D01*
X138285714Y-125207142D01*
X138342857Y-125207142D01*
X138428571Y-125235714D01*
X138771429Y-125578571D01*
X138771429Y-125207142D01*
X138771429Y-129171429D02*
X138485714Y-129371429D01*
X138771429Y-129514286D02*
X138171429Y-129514286D01*
X138171429Y-129285714D01*
X138200000Y-129228572D01*
X138228571Y-129200000D01*
X138285714Y-129171429D01*
X138371429Y-129171429D01*
X138428571Y-129200000D01*
X138457143Y-129228572D01*
X138485714Y-129285714D01*
X138485714Y-129514286D01*
X138171429Y-128971429D02*
X138171429Y-128571429D01*
X138771429Y-128828572D01*
X138171429Y-128228571D02*
X138171429Y-128171428D01*
X138200000Y-128114285D01*
X138228571Y-128085714D01*
X138285714Y-128057143D01*
X138400000Y-128028571D01*
X138542857Y-128028571D01*
X138657143Y-128057143D01*
X138714286Y-128085714D01*
X138742857Y-128114285D01*
X138771429Y-128171428D01*
X138771429Y-128228571D01*
X138742857Y-128285714D01*
X138714286Y-128314285D01*
X138657143Y-128342857D01*
X138542857Y-128371428D01*
X138400000Y-128371428D01*
X138285714Y-128342857D01*
X138228571Y-128314285D01*
X138200000Y-128285714D01*
X138171429Y-128228571D01*
X138171429Y-127828571D02*
X138171429Y-127457142D01*
X138400000Y-127657142D01*
X138400000Y-127571428D01*
X138428571Y-127514285D01*
X138457143Y-127485714D01*
X138514286Y-127457142D01*
X138657143Y-127457142D01*
X138714286Y-127485714D01*
X138742857Y-127514285D01*
X138771429Y-127571428D01*
X138771429Y-127742856D01*
X138742857Y-127799999D01*
X138714286Y-127828571D01*
X135272429Y-149642429D02*
X134986714Y-149842429D01*
X135272429Y-149985286D02*
X134672429Y-149985286D01*
X134672429Y-149756714D01*
X134701000Y-149699572D01*
X134729571Y-149671000D01*
X134786714Y-149642429D01*
X134872429Y-149642429D01*
X134929571Y-149671000D01*
X134958143Y-149699572D01*
X134986714Y-149756714D01*
X134986714Y-149985286D01*
X134672429Y-149442429D02*
X134672429Y-149042429D01*
X135272429Y-149299572D01*
X134672429Y-148699571D02*
X134672429Y-148642428D01*
X134701000Y-148585285D01*
X134729571Y-148556714D01*
X134786714Y-148528143D01*
X134901000Y-148499571D01*
X135043857Y-148499571D01*
X135158143Y-148528143D01*
X135215286Y-148556714D01*
X135243857Y-148585285D01*
X135272429Y-148642428D01*
X135272429Y-148699571D01*
X135243857Y-148756714D01*
X135215286Y-148785285D01*
X135158143Y-148813857D01*
X135043857Y-148842428D01*
X134901000Y-148842428D01*
X134786714Y-148813857D01*
X134729571Y-148785285D01*
X134701000Y-148756714D01*
X134672429Y-148699571D01*
X134872429Y-147985285D02*
X135272429Y-147985285D01*
X134643857Y-148128142D02*
X135072429Y-148270999D01*
X135072429Y-147899571D01*
X137758571Y-145940429D02*
X137558571Y-145654714D01*
X137415714Y-145940429D02*
X137415714Y-145340429D01*
X137644286Y-145340429D01*
X137701428Y-145369000D01*
X137730000Y-145397571D01*
X137758571Y-145454714D01*
X137758571Y-145540429D01*
X137730000Y-145597571D01*
X137701428Y-145626143D01*
X137644286Y-145654714D01*
X137415714Y-145654714D01*
X137958571Y-145340429D02*
X138358571Y-145340429D01*
X138101428Y-145940429D01*
X138701429Y-145340429D02*
X138758572Y-145340429D01*
X138815715Y-145369000D01*
X138844286Y-145397571D01*
X138872857Y-145454714D01*
X138901429Y-145569000D01*
X138901429Y-145711857D01*
X138872857Y-145826143D01*
X138844286Y-145883286D01*
X138815715Y-145911857D01*
X138758572Y-145940429D01*
X138701429Y-145940429D01*
X138644286Y-145911857D01*
X138615715Y-145883286D01*
X138587143Y-145826143D01*
X138558572Y-145711857D01*
X138558572Y-145569000D01*
X138587143Y-145454714D01*
X138615715Y-145397571D01*
X138644286Y-145369000D01*
X138701429Y-145340429D01*
X139444286Y-145340429D02*
X139158572Y-145340429D01*
X139130001Y-145626143D01*
X139158572Y-145597571D01*
X139215715Y-145569000D01*
X139358572Y-145569000D01*
X139415715Y-145597571D01*
X139444286Y-145626143D01*
X139472858Y-145683286D01*
X139472858Y-145826143D01*
X139444286Y-145883286D01*
X139415715Y-145911857D01*
X139358572Y-145940429D01*
X139215715Y-145940429D01*
X139158572Y-145911857D01*
X139130001Y-145883286D01*
X142972429Y-156188429D02*
X142686714Y-156388429D01*
X142972429Y-156531286D02*
X142372429Y-156531286D01*
X142372429Y-156302714D01*
X142401000Y-156245572D01*
X142429571Y-156217000D01*
X142486714Y-156188429D01*
X142572429Y-156188429D01*
X142629571Y-156217000D01*
X142658143Y-156245572D01*
X142686714Y-156302714D01*
X142686714Y-156531286D01*
X142372429Y-155988429D02*
X142372429Y-155588429D01*
X142972429Y-155845572D01*
X142372429Y-155245571D02*
X142372429Y-155188428D01*
X142401000Y-155131285D01*
X142429571Y-155102714D01*
X142486714Y-155074143D01*
X142601000Y-155045571D01*
X142743857Y-155045571D01*
X142858143Y-155074143D01*
X142915286Y-155102714D01*
X142943857Y-155131285D01*
X142972429Y-155188428D01*
X142972429Y-155245571D01*
X142943857Y-155302714D01*
X142915286Y-155331285D01*
X142858143Y-155359857D01*
X142743857Y-155388428D01*
X142601000Y-155388428D01*
X142486714Y-155359857D01*
X142429571Y-155331285D01*
X142401000Y-155302714D01*
X142372429Y-155245571D01*
X142372429Y-154531285D02*
X142372429Y-154645571D01*
X142401000Y-154702714D01*
X142429571Y-154731285D01*
X142515286Y-154788428D01*
X142629571Y-154816999D01*
X142858143Y-154816999D01*
X142915286Y-154788428D01*
X142943857Y-154759856D01*
X142972429Y-154702714D01*
X142972429Y-154588428D01*
X142943857Y-154531285D01*
X142915286Y-154502714D01*
X142858143Y-154474142D01*
X142715286Y-154474142D01*
X142658143Y-154502714D01*
X142629571Y-154531285D01*
X142601000Y-154588428D01*
X142601000Y-154702714D01*
X142629571Y-154759856D01*
X142658143Y-154788428D01*
X142715286Y-154816999D01*
X142013071Y-148797929D02*
X141813071Y-148512214D01*
X141670214Y-148797929D02*
X141670214Y-148197929D01*
X141898786Y-148197929D01*
X141955928Y-148226500D01*
X141984500Y-148255071D01*
X142013071Y-148312214D01*
X142013071Y-148397929D01*
X141984500Y-148455071D01*
X141955928Y-148483643D01*
X141898786Y-148512214D01*
X141670214Y-148512214D01*
X142213071Y-148197929D02*
X142613071Y-148197929D01*
X142355928Y-148797929D01*
X142955929Y-148197929D02*
X143013072Y-148197929D01*
X143070215Y-148226500D01*
X143098786Y-148255071D01*
X143127357Y-148312214D01*
X143155929Y-148426500D01*
X143155929Y-148569357D01*
X143127357Y-148683643D01*
X143098786Y-148740786D01*
X143070215Y-148769357D01*
X143013072Y-148797929D01*
X142955929Y-148797929D01*
X142898786Y-148769357D01*
X142870215Y-148740786D01*
X142841643Y-148683643D01*
X142813072Y-148569357D01*
X142813072Y-148426500D01*
X142841643Y-148312214D01*
X142870215Y-148255071D01*
X142898786Y-148226500D01*
X142955929Y-148197929D01*
X143355929Y-148197929D02*
X143755929Y-148197929D01*
X143498786Y-148797929D01*
X147718429Y-152499929D02*
X147432714Y-152699929D01*
X147718429Y-152842786D02*
X147118429Y-152842786D01*
X147118429Y-152614214D01*
X147147000Y-152557072D01*
X147175571Y-152528500D01*
X147232714Y-152499929D01*
X147318429Y-152499929D01*
X147375571Y-152528500D01*
X147404143Y-152557072D01*
X147432714Y-152614214D01*
X147432714Y-152842786D01*
X147118429Y-152299929D02*
X147118429Y-151899929D01*
X147718429Y-152157072D01*
X147118429Y-151557071D02*
X147118429Y-151499928D01*
X147147000Y-151442785D01*
X147175571Y-151414214D01*
X147232714Y-151385643D01*
X147347000Y-151357071D01*
X147489857Y-151357071D01*
X147604143Y-151385643D01*
X147661286Y-151414214D01*
X147689857Y-151442785D01*
X147718429Y-151499928D01*
X147718429Y-151557071D01*
X147689857Y-151614214D01*
X147661286Y-151642785D01*
X147604143Y-151671357D01*
X147489857Y-151699928D01*
X147347000Y-151699928D01*
X147232714Y-151671357D01*
X147175571Y-151642785D01*
X147147000Y-151614214D01*
X147118429Y-151557071D01*
X147375571Y-151014214D02*
X147347000Y-151071356D01*
X147318429Y-151099928D01*
X147261286Y-151128499D01*
X147232714Y-151128499D01*
X147175571Y-151099928D01*
X147147000Y-151071356D01*
X147118429Y-151014214D01*
X147118429Y-150899928D01*
X147147000Y-150842785D01*
X147175571Y-150814214D01*
X147232714Y-150785642D01*
X147261286Y-150785642D01*
X147318429Y-150814214D01*
X147347000Y-150842785D01*
X147375571Y-150899928D01*
X147375571Y-151014214D01*
X147404143Y-151071356D01*
X147432714Y-151099928D01*
X147489857Y-151128499D01*
X147604143Y-151128499D01*
X147661286Y-151099928D01*
X147689857Y-151071356D01*
X147718429Y-151014214D01*
X147718429Y-150899928D01*
X147689857Y-150842785D01*
X147661286Y-150814214D01*
X147604143Y-150785642D01*
X147489857Y-150785642D01*
X147432714Y-150814214D01*
X147404143Y-150842785D01*
X147375571Y-150899928D01*
X136806071Y-146892929D02*
X136606071Y-146607214D01*
X136463214Y-146892929D02*
X136463214Y-146292929D01*
X136691786Y-146292929D01*
X136748928Y-146321500D01*
X136777500Y-146350071D01*
X136806071Y-146407214D01*
X136806071Y-146492929D01*
X136777500Y-146550071D01*
X136748928Y-146578643D01*
X136691786Y-146607214D01*
X136463214Y-146607214D01*
X137006071Y-146292929D02*
X137406071Y-146292929D01*
X137148928Y-146892929D01*
X137748929Y-146292929D02*
X137806072Y-146292929D01*
X137863215Y-146321500D01*
X137891786Y-146350071D01*
X137920357Y-146407214D01*
X137948929Y-146521500D01*
X137948929Y-146664357D01*
X137920357Y-146778643D01*
X137891786Y-146835786D01*
X137863215Y-146864357D01*
X137806072Y-146892929D01*
X137748929Y-146892929D01*
X137691786Y-146864357D01*
X137663215Y-146835786D01*
X137634643Y-146778643D01*
X137606072Y-146664357D01*
X137606072Y-146521500D01*
X137634643Y-146407214D01*
X137663215Y-146350071D01*
X137691786Y-146321500D01*
X137748929Y-146292929D01*
X138234644Y-146892929D02*
X138348929Y-146892929D01*
X138406072Y-146864357D01*
X138434644Y-146835786D01*
X138491786Y-146750071D01*
X138520358Y-146635786D01*
X138520358Y-146407214D01*
X138491786Y-146350071D01*
X138463215Y-146321500D01*
X138406072Y-146292929D01*
X138291786Y-146292929D01*
X138234644Y-146321500D01*
X138206072Y-146350071D01*
X138177501Y-146407214D01*
X138177501Y-146550071D01*
X138206072Y-146607214D01*
X138234644Y-146635786D01*
X138291786Y-146664357D01*
X138406072Y-146664357D01*
X138463215Y-146635786D01*
X138491786Y-146607214D01*
X138520358Y-146550071D01*
X140362071Y-145876929D02*
X140162071Y-145591214D01*
X140019214Y-145876929D02*
X140019214Y-145276929D01*
X140247786Y-145276929D01*
X140304928Y-145305500D01*
X140333500Y-145334071D01*
X140362071Y-145391214D01*
X140362071Y-145476929D01*
X140333500Y-145534071D01*
X140304928Y-145562643D01*
X140247786Y-145591214D01*
X140019214Y-145591214D01*
X140562071Y-145276929D02*
X140962071Y-145276929D01*
X140704928Y-145876929D01*
X141504929Y-145876929D02*
X141162072Y-145876929D01*
X141333500Y-145876929D02*
X141333500Y-145276929D01*
X141276357Y-145362643D01*
X141219215Y-145419786D01*
X141162072Y-145448357D01*
X141876358Y-145276929D02*
X141933501Y-145276929D01*
X141990644Y-145305500D01*
X142019215Y-145334071D01*
X142047786Y-145391214D01*
X142076358Y-145505500D01*
X142076358Y-145648357D01*
X142047786Y-145762643D01*
X142019215Y-145819786D01*
X141990644Y-145848357D01*
X141933501Y-145876929D01*
X141876358Y-145876929D01*
X141819215Y-145848357D01*
X141790644Y-145819786D01*
X141762072Y-145762643D01*
X141733501Y-145648357D01*
X141733501Y-145505500D01*
X141762072Y-145391214D01*
X141790644Y-145334071D01*
X141819215Y-145305500D01*
X141876358Y-145276929D01*
X167527857Y-152090000D02*
X167556429Y-152004286D01*
X167556429Y-151861429D01*
X167527857Y-151804286D01*
X167499286Y-151775715D01*
X167442143Y-151747143D01*
X167385000Y-151747143D01*
X167327857Y-151775715D01*
X167299286Y-151804286D01*
X167270714Y-151861429D01*
X167242143Y-151975715D01*
X167213571Y-152032857D01*
X167185000Y-152061429D01*
X167127857Y-152090000D01*
X167070714Y-152090000D01*
X167013571Y-152061429D01*
X166985000Y-152032857D01*
X166956429Y-151975715D01*
X166956429Y-151832857D01*
X166985000Y-151747143D01*
X166956429Y-151547143D02*
X167556429Y-151404286D01*
X167127857Y-151290000D01*
X167556429Y-151175714D01*
X166956429Y-151032857D01*
X167556429Y-150490000D02*
X167556429Y-150832857D01*
X167556429Y-150661429D02*
X166956429Y-150661429D01*
X167042143Y-150718572D01*
X167099286Y-150775714D01*
X167127857Y-150832857D01*
X139608526Y-105451979D02*
X139648932Y-105532791D01*
X139749947Y-105633807D01*
X139810557Y-105654009D01*
X139850962Y-105654009D01*
X139911572Y-105633807D01*
X139951978Y-105593400D01*
X139972181Y-105532791D01*
X139972181Y-105492385D01*
X139951978Y-105431776D01*
X139891368Y-105330760D01*
X139871166Y-105270152D01*
X139871166Y-105229745D01*
X139891369Y-105169136D01*
X139931775Y-105128730D01*
X139992384Y-105108527D01*
X140032790Y-105108527D01*
X140093399Y-105128730D01*
X140194415Y-105229746D01*
X140234821Y-105310558D01*
X140396445Y-105431776D02*
X140073196Y-105957056D01*
X140457055Y-105734822D01*
X140234821Y-106118680D01*
X140760100Y-105795431D01*
X140962130Y-106280304D02*
X140679288Y-106563147D01*
X141022740Y-106017665D02*
X140618679Y-106219696D01*
X140881318Y-106482335D01*
X141406598Y-106441929D02*
X141447004Y-106482335D01*
X141467208Y-106542944D01*
X141467208Y-106583350D01*
X141447004Y-106643959D01*
X141386395Y-106744975D01*
X141285380Y-106845990D01*
X141184364Y-106906599D01*
X141123755Y-106926802D01*
X141083350Y-106926802D01*
X141022740Y-106906600D01*
X140982334Y-106866193D01*
X140962131Y-106805584D01*
X140962131Y-106765178D01*
X140982334Y-106704569D01*
X141042943Y-106603553D01*
X141143959Y-106502538D01*
X141244974Y-106441929D01*
X141305583Y-106421726D01*
X141345989Y-106421726D01*
X141406598Y-106441929D01*
X141527816Y-107411676D02*
X141285380Y-107169240D01*
X141406598Y-107290457D02*
X141830862Y-106866193D01*
X141729847Y-106886396D01*
X141649035Y-106886397D01*
X141588426Y-106866193D01*
X155451979Y-107641473D02*
X155532791Y-107601067D01*
X155633807Y-107500052D01*
X155654009Y-107439442D01*
X155654009Y-107399037D01*
X155633807Y-107338427D01*
X155593400Y-107298021D01*
X155532791Y-107277818D01*
X155492385Y-107277818D01*
X155431776Y-107298021D01*
X155330760Y-107358631D01*
X155270152Y-107378833D01*
X155229745Y-107378833D01*
X155169136Y-107358630D01*
X155128730Y-107318224D01*
X155108527Y-107257615D01*
X155108527Y-107217209D01*
X155128730Y-107156600D01*
X155229746Y-107055584D01*
X155310558Y-107015178D01*
X155431776Y-106853554D02*
X155957056Y-107176803D01*
X155734822Y-106792944D01*
X156118680Y-107015178D01*
X155795431Y-106489899D01*
X156280304Y-106287869D02*
X156563147Y-106570711D01*
X156017665Y-106227259D02*
X156219696Y-106631320D01*
X156482335Y-106368681D01*
X156441929Y-105843401D02*
X156482335Y-105802995D01*
X156542944Y-105782791D01*
X156583350Y-105782791D01*
X156643959Y-105802995D01*
X156744975Y-105863604D01*
X156845990Y-105964619D01*
X156906599Y-106065635D01*
X156926802Y-106126244D01*
X156926802Y-106166649D01*
X156906600Y-106227259D01*
X156866193Y-106267665D01*
X156805584Y-106287868D01*
X156765178Y-106287868D01*
X156704569Y-106267665D01*
X156603553Y-106207056D01*
X156502538Y-106106040D01*
X156441929Y-106005025D01*
X156421726Y-105944416D01*
X156421726Y-105904010D01*
X156441929Y-105843401D01*
X156785381Y-105580760D02*
X156785381Y-105540355D01*
X156805584Y-105479746D01*
X156906600Y-105378731D01*
X156967209Y-105358527D01*
X157007614Y-105358527D01*
X157068224Y-105378730D01*
X157108630Y-105419136D01*
X157149035Y-105499949D01*
X157149036Y-105984823D01*
X157411676Y-105722183D01*
D16*
X133374787Y-139400429D02*
X133417644Y-139414714D01*
X133489073Y-139414714D01*
X133517644Y-139400429D01*
X133531930Y-139386143D01*
X133546215Y-139357571D01*
X133546215Y-139329000D01*
X133531930Y-139300429D01*
X133517644Y-139286143D01*
X133489073Y-139271857D01*
X133431930Y-139257571D01*
X133403358Y-139243286D01*
X133389073Y-139229000D01*
X133374787Y-139200429D01*
X133374787Y-139171857D01*
X133389073Y-139143286D01*
X133403358Y-139129000D01*
X133431930Y-139114714D01*
X133503358Y-139114714D01*
X133546215Y-139129000D01*
X133646215Y-139114714D02*
X133717644Y-139414714D01*
X133774787Y-139200429D01*
X133831929Y-139414714D01*
X133903358Y-139114714D01*
X134146215Y-139114714D02*
X134089072Y-139114714D01*
X134060501Y-139129000D01*
X134046215Y-139143286D01*
X134017644Y-139186143D01*
X134003358Y-139243286D01*
X134003358Y-139357571D01*
X134017644Y-139386143D01*
X134031929Y-139400429D01*
X134060501Y-139414714D01*
X134117644Y-139414714D01*
X134146215Y-139400429D01*
X134160501Y-139386143D01*
X134174786Y-139357571D01*
X134174786Y-139286143D01*
X134160501Y-139257571D01*
X134146215Y-139243286D01*
X134117644Y-139229000D01*
X134060501Y-139229000D01*
X134031929Y-139243286D01*
X134017644Y-139257571D01*
X134003358Y-139286143D01*
X134360500Y-139114714D02*
X134389072Y-139114714D01*
X134417643Y-139129000D01*
X134431929Y-139143286D01*
X134446215Y-139171857D01*
X134460500Y-139229000D01*
X134460500Y-139300429D01*
X134446215Y-139357571D01*
X134431929Y-139386143D01*
X134417643Y-139400429D01*
X134389072Y-139414714D01*
X134360500Y-139414714D01*
X134331929Y-139400429D01*
X134317643Y-139386143D01*
X134303358Y-139357571D01*
X134289072Y-139300429D01*
X134289072Y-139229000D01*
X134303358Y-139171857D01*
X134317643Y-139143286D01*
X134331929Y-139129000D01*
X134360500Y-139114714D01*
X134746214Y-139414714D02*
X134574786Y-139414714D01*
X134660500Y-139414714D02*
X134660500Y-139114714D01*
X134631929Y-139157571D01*
X134603357Y-139186143D01*
X134574786Y-139200429D01*
D12*
X152704857Y-154293929D02*
X152704857Y-154779643D01*
X152733429Y-154836786D01*
X152762000Y-154865357D01*
X152819143Y-154893929D01*
X152933429Y-154893929D01*
X152990571Y-154865357D01*
X153019143Y-154836786D01*
X153047714Y-154779643D01*
X153047714Y-154293929D01*
X153647714Y-154893929D02*
X153304857Y-154893929D01*
X153476285Y-154893929D02*
X153476285Y-154293929D01*
X153419142Y-154379643D01*
X153362000Y-154436786D01*
X153304857Y-154465357D01*
X147471428Y-121671429D02*
X147471428Y-122157143D01*
X147500000Y-122214286D01*
X147528571Y-122242857D01*
X147585714Y-122271429D01*
X147700000Y-122271429D01*
X147757142Y-122242857D01*
X147785714Y-122214286D01*
X147814285Y-122157143D01*
X147814285Y-121671429D01*
X148071428Y-121728571D02*
X148099999Y-121700000D01*
X148157142Y-121671429D01*
X148299999Y-121671429D01*
X148357142Y-121700000D01*
X148385713Y-121728571D01*
X148414285Y-121785714D01*
X148414285Y-121842857D01*
X148385713Y-121928571D01*
X148042856Y-122271429D01*
X148414285Y-122271429D01*
X148785714Y-121671429D02*
X148842857Y-121671429D01*
X148900000Y-121700000D01*
X148928571Y-121728571D01*
X148957142Y-121785714D01*
X148985714Y-121900000D01*
X148985714Y-122042857D01*
X148957142Y-122157143D01*
X148928571Y-122214286D01*
X148900000Y-122242857D01*
X148842857Y-122271429D01*
X148785714Y-122271429D01*
X148728571Y-122242857D01*
X148700000Y-122214286D01*
X148671428Y-122157143D01*
X148642857Y-122042857D01*
X148642857Y-121900000D01*
X148671428Y-121785714D01*
X148700000Y-121728571D01*
X148728571Y-121700000D01*
X148785714Y-121671429D01*
X149557143Y-122271429D02*
X149214286Y-122271429D01*
X149385714Y-122271429D02*
X149385714Y-121671429D01*
X149328571Y-121757143D01*
X149271429Y-121814286D01*
X149214286Y-121842857D01*
X153671429Y-125278572D02*
X154157143Y-125278572D01*
X154214286Y-125250000D01*
X154242857Y-125221429D01*
X154271429Y-125164286D01*
X154271429Y-125050000D01*
X154242857Y-124992858D01*
X154214286Y-124964286D01*
X154157143Y-124935715D01*
X153671429Y-124935715D01*
X153728571Y-124678572D02*
X153700000Y-124650001D01*
X153671429Y-124592858D01*
X153671429Y-124450001D01*
X153700000Y-124392858D01*
X153728571Y-124364287D01*
X153785714Y-124335715D01*
X153842857Y-124335715D01*
X153928571Y-124364287D01*
X154271429Y-124707144D01*
X154271429Y-124335715D01*
X153671429Y-123964286D02*
X153671429Y-123907143D01*
X153700000Y-123850000D01*
X153728571Y-123821429D01*
X153785714Y-123792858D01*
X153900000Y-123764286D01*
X154042857Y-123764286D01*
X154157143Y-123792858D01*
X154214286Y-123821429D01*
X154242857Y-123850000D01*
X154271429Y-123907143D01*
X154271429Y-123964286D01*
X154242857Y-124021429D01*
X154214286Y-124050000D01*
X154157143Y-124078572D01*
X154042857Y-124107143D01*
X153900000Y-124107143D01*
X153785714Y-124078572D01*
X153728571Y-124050000D01*
X153700000Y-124021429D01*
X153671429Y-123964286D01*
X153728571Y-123535714D02*
X153700000Y-123507143D01*
X153671429Y-123450000D01*
X153671429Y-123307143D01*
X153700000Y-123250000D01*
X153728571Y-123221429D01*
X153785714Y-123192857D01*
X153842857Y-123192857D01*
X153928571Y-123221429D01*
X154271429Y-123564286D01*
X154271429Y-123192857D01*
X147004428Y-157595929D02*
X147004428Y-158081643D01*
X147033000Y-158138786D01*
X147061571Y-158167357D01*
X147118714Y-158195929D01*
X147233000Y-158195929D01*
X147290142Y-158167357D01*
X147318714Y-158138786D01*
X147347285Y-158081643D01*
X147347285Y-157595929D01*
X147575856Y-157595929D02*
X147947285Y-157595929D01*
X147747285Y-157824500D01*
X147832999Y-157824500D01*
X147890142Y-157853071D01*
X147918713Y-157881643D01*
X147947285Y-157938786D01*
X147947285Y-158081643D01*
X147918713Y-158138786D01*
X147890142Y-158167357D01*
X147832999Y-158195929D01*
X147661571Y-158195929D01*
X147604428Y-158167357D01*
X147575856Y-158138786D01*
X148318714Y-157595929D02*
X148375857Y-157595929D01*
X148433000Y-157624500D01*
X148461571Y-157653071D01*
X148490142Y-157710214D01*
X148518714Y-157824500D01*
X148518714Y-157967357D01*
X148490142Y-158081643D01*
X148461571Y-158138786D01*
X148433000Y-158167357D01*
X148375857Y-158195929D01*
X148318714Y-158195929D01*
X148261571Y-158167357D01*
X148233000Y-158138786D01*
X148204428Y-158081643D01*
X148175857Y-157967357D01*
X148175857Y-157824500D01*
X148204428Y-157710214D01*
X148233000Y-157653071D01*
X148261571Y-157624500D01*
X148318714Y-157595929D01*
X148747286Y-157653071D02*
X148775857Y-157624500D01*
X148833000Y-157595929D01*
X148975857Y-157595929D01*
X149033000Y-157624500D01*
X149061571Y-157653071D01*
X149090143Y-157710214D01*
X149090143Y-157767357D01*
X149061571Y-157853071D01*
X148718714Y-158195929D01*
X149090143Y-158195929D01*
X147811428Y-137872829D02*
X147811428Y-138358543D01*
X147840000Y-138415686D01*
X147868571Y-138444257D01*
X147925714Y-138472829D01*
X148040000Y-138472829D01*
X148097142Y-138444257D01*
X148125714Y-138415686D01*
X148154285Y-138358543D01*
X148154285Y-137872829D01*
X148697142Y-137872829D02*
X148582856Y-137872829D01*
X148525713Y-137901400D01*
X148497142Y-137929971D01*
X148439999Y-138015686D01*
X148411428Y-138129971D01*
X148411428Y-138358543D01*
X148439999Y-138415686D01*
X148468571Y-138444257D01*
X148525713Y-138472829D01*
X148639999Y-138472829D01*
X148697142Y-138444257D01*
X148725713Y-138415686D01*
X148754285Y-138358543D01*
X148754285Y-138215686D01*
X148725713Y-138158543D01*
X148697142Y-138129971D01*
X148639999Y-138101400D01*
X148525713Y-138101400D01*
X148468571Y-138129971D01*
X148439999Y-138158543D01*
X148411428Y-138215686D01*
X149125714Y-137872829D02*
X149182857Y-137872829D01*
X149240000Y-137901400D01*
X149268571Y-137929971D01*
X149297142Y-137987114D01*
X149325714Y-138101400D01*
X149325714Y-138244257D01*
X149297142Y-138358543D01*
X149268571Y-138415686D01*
X149240000Y-138444257D01*
X149182857Y-138472829D01*
X149125714Y-138472829D01*
X149068571Y-138444257D01*
X149040000Y-138415686D01*
X149011428Y-138358543D01*
X148982857Y-138244257D01*
X148982857Y-138101400D01*
X149011428Y-137987114D01*
X149040000Y-137929971D01*
X149068571Y-137901400D01*
X149125714Y-137872829D01*
X149897143Y-138472829D02*
X149554286Y-138472829D01*
X149725714Y-138472829D02*
X149725714Y-137872829D01*
X149668571Y-137958543D01*
X149611429Y-138015686D01*
X149554286Y-138044257D01*
X143332642Y-144387857D02*
X143418356Y-144416429D01*
X143561213Y-144416429D01*
X143618356Y-144387857D01*
X143646927Y-144359286D01*
X143675499Y-144302143D01*
X143675499Y-144245000D01*
X143646927Y-144187857D01*
X143618356Y-144159286D01*
X143561213Y-144130714D01*
X143446927Y-144102143D01*
X143389785Y-144073571D01*
X143361213Y-144045000D01*
X143332642Y-143987857D01*
X143332642Y-143930714D01*
X143361213Y-143873571D01*
X143389785Y-143845000D01*
X143446927Y-143816429D01*
X143589785Y-143816429D01*
X143675499Y-143845000D01*
X143846928Y-143816429D02*
X144189785Y-143816429D01*
X144018356Y-144416429D02*
X144018356Y-143816429D01*
X144389785Y-144416429D02*
X144389785Y-143816429D01*
X144589785Y-144245000D01*
X144789785Y-143816429D01*
X144789785Y-144416429D01*
X145018356Y-143816429D02*
X145389785Y-143816429D01*
X145189785Y-144045000D01*
X145275499Y-144045000D01*
X145332642Y-144073571D01*
X145361213Y-144102143D01*
X145389785Y-144159286D01*
X145389785Y-144302143D01*
X145361213Y-144359286D01*
X145332642Y-144387857D01*
X145275499Y-144416429D01*
X145104071Y-144416429D01*
X145046928Y-144387857D01*
X145018356Y-144359286D01*
X145618357Y-143873571D02*
X145646928Y-143845000D01*
X145704071Y-143816429D01*
X145846928Y-143816429D01*
X145904071Y-143845000D01*
X145932642Y-143873571D01*
X145961214Y-143930714D01*
X145961214Y-143987857D01*
X145932642Y-144073571D01*
X145589785Y-144416429D01*
X145961214Y-144416429D01*
X146418357Y-144102143D02*
X146218357Y-144102143D01*
X146218357Y-144416429D02*
X146218357Y-143816429D01*
X146504071Y-143816429D01*
X146675500Y-143816429D02*
X147046929Y-143816429D01*
X146846929Y-144045000D01*
X146932643Y-144045000D01*
X146989786Y-144073571D01*
X147018357Y-144102143D01*
X147046929Y-144159286D01*
X147046929Y-144302143D01*
X147018357Y-144359286D01*
X146989786Y-144387857D01*
X146932643Y-144416429D01*
X146761215Y-144416429D01*
X146704072Y-144387857D01*
X146675500Y-144359286D01*
X147418358Y-143816429D02*
X147475501Y-143816429D01*
X147532644Y-143845000D01*
X147561215Y-143873571D01*
X147589786Y-143930714D01*
X147618358Y-144045000D01*
X147618358Y-144187857D01*
X147589786Y-144302143D01*
X147561215Y-144359286D01*
X147532644Y-144387857D01*
X147475501Y-144416429D01*
X147418358Y-144416429D01*
X147361215Y-144387857D01*
X147332644Y-144359286D01*
X147304072Y-144302143D01*
X147275501Y-144187857D01*
X147275501Y-144045000D01*
X147304072Y-143930714D01*
X147332644Y-143873571D01*
X147361215Y-143845000D01*
X147418358Y-143816429D01*
X147818358Y-143816429D02*
X148189787Y-143816429D01*
X147989787Y-144045000D01*
X148075501Y-144045000D01*
X148132644Y-144073571D01*
X148161215Y-144102143D01*
X148189787Y-144159286D01*
X148189787Y-144302143D01*
X148161215Y-144359286D01*
X148132644Y-144387857D01*
X148075501Y-144416429D01*
X147904073Y-144416429D01*
X147846930Y-144387857D01*
X147818358Y-144359286D01*
X148789787Y-144359286D02*
X148761216Y-144387857D01*
X148675502Y-144416429D01*
X148618359Y-144416429D01*
X148532644Y-144387857D01*
X148475502Y-144330714D01*
X148446930Y-144273571D01*
X148418359Y-144159286D01*
X148418359Y-144073571D01*
X148446930Y-143959286D01*
X148475502Y-143902143D01*
X148532644Y-143845000D01*
X148618359Y-143816429D01*
X148675502Y-143816429D01*
X148761216Y-143845000D01*
X148789787Y-143873571D01*
X149389787Y-144359286D02*
X149361216Y-144387857D01*
X149275502Y-144416429D01*
X149218359Y-144416429D01*
X149132644Y-144387857D01*
X149075502Y-144330714D01*
X149046930Y-144273571D01*
X149018359Y-144159286D01*
X149018359Y-144073571D01*
X149046930Y-143959286D01*
X149075502Y-143902143D01*
X149132644Y-143845000D01*
X149218359Y-143816429D01*
X149275502Y-143816429D01*
X149361216Y-143845000D01*
X149389787Y-143873571D01*
X149561216Y-143816429D02*
X149904073Y-143816429D01*
X149732644Y-144416429D02*
X149732644Y-143816429D01*
X150361216Y-143816429D02*
X150246930Y-143816429D01*
X150189787Y-143845000D01*
X150161216Y-143873571D01*
X150104073Y-143959286D01*
X150075502Y-144073571D01*
X150075502Y-144302143D01*
X150104073Y-144359286D01*
X150132645Y-144387857D01*
X150189787Y-144416429D01*
X150304073Y-144416429D01*
X150361216Y-144387857D01*
X150389787Y-144359286D01*
X150418359Y-144302143D01*
X150418359Y-144159286D01*
X150389787Y-144102143D01*
X150361216Y-144073571D01*
X150304073Y-144045000D01*
X150189787Y-144045000D01*
X150132645Y-144073571D01*
X150104073Y-144102143D01*
X150075502Y-144159286D01*
X160451928Y-143244929D02*
X160451928Y-143730643D01*
X160480500Y-143787786D01*
X160509071Y-143816357D01*
X160566214Y-143844929D01*
X160680500Y-143844929D01*
X160737642Y-143816357D01*
X160766214Y-143787786D01*
X160794785Y-143730643D01*
X160794785Y-143244929D01*
X161023356Y-143244929D02*
X161423356Y-143244929D01*
X161166213Y-143844929D01*
X161766214Y-143244929D02*
X161823357Y-143244929D01*
X161880500Y-143273500D01*
X161909071Y-143302071D01*
X161937642Y-143359214D01*
X161966214Y-143473500D01*
X161966214Y-143616357D01*
X161937642Y-143730643D01*
X161909071Y-143787786D01*
X161880500Y-143816357D01*
X161823357Y-143844929D01*
X161766214Y-143844929D01*
X161709071Y-143816357D01*
X161680500Y-143787786D01*
X161651928Y-143730643D01*
X161623357Y-143616357D01*
X161623357Y-143473500D01*
X161651928Y-143359214D01*
X161680500Y-143302071D01*
X161709071Y-143273500D01*
X161766214Y-143244929D01*
X162537643Y-143844929D02*
X162194786Y-143844929D01*
X162366214Y-143844929D02*
X162366214Y-143244929D01*
X162309071Y-143330643D01*
X162251929Y-143387786D01*
X162194786Y-143416357D01*
X160437785Y-144070429D02*
X160780642Y-144070429D01*
X160609213Y-144670429D02*
X160609213Y-144070429D01*
X160980642Y-144670429D02*
X160980642Y-144070429D01*
X161209214Y-144070429D01*
X161266356Y-144099000D01*
X161294928Y-144127571D01*
X161323499Y-144184714D01*
X161323499Y-144270429D01*
X161294928Y-144327571D01*
X161266356Y-144356143D01*
X161209214Y-144384714D01*
X160980642Y-144384714D01*
X161552071Y-144641857D02*
X161637785Y-144670429D01*
X161780642Y-144670429D01*
X161837785Y-144641857D01*
X161866356Y-144613286D01*
X161894928Y-144556143D01*
X161894928Y-144499000D01*
X161866356Y-144441857D01*
X161837785Y-144413286D01*
X161780642Y-144384714D01*
X161666356Y-144356143D01*
X161609214Y-144327571D01*
X161580642Y-144299000D01*
X161552071Y-144241857D01*
X161552071Y-144184714D01*
X161580642Y-144127571D01*
X161609214Y-144099000D01*
X161666356Y-144070429D01*
X161809214Y-144070429D01*
X161894928Y-144099000D01*
X162409214Y-144070429D02*
X162294928Y-144070429D01*
X162237785Y-144099000D01*
X162209214Y-144127571D01*
X162152071Y-144213286D01*
X162123500Y-144327571D01*
X162123500Y-144556143D01*
X162152071Y-144613286D01*
X162180643Y-144641857D01*
X162237785Y-144670429D01*
X162352071Y-144670429D01*
X162409214Y-144641857D01*
X162437785Y-144613286D01*
X162466357Y-144556143D01*
X162466357Y-144413286D01*
X162437785Y-144356143D01*
X162409214Y-144327571D01*
X162352071Y-144299000D01*
X162237785Y-144299000D01*
X162180643Y-144327571D01*
X162152071Y-144356143D01*
X162123500Y-144413286D01*
X162694929Y-144127571D02*
X162723500Y-144099000D01*
X162780643Y-144070429D01*
X162923500Y-144070429D01*
X162980643Y-144099000D01*
X163009214Y-144127571D01*
X163037786Y-144184714D01*
X163037786Y-144241857D01*
X163009214Y-144327571D01*
X162666357Y-144670429D01*
X163037786Y-144670429D01*
X163266358Y-144127571D02*
X163294929Y-144099000D01*
X163352072Y-144070429D01*
X163494929Y-144070429D01*
X163552072Y-144099000D01*
X163580643Y-144127571D01*
X163609215Y-144184714D01*
X163609215Y-144241857D01*
X163580643Y-144327571D01*
X163237786Y-144670429D01*
X163609215Y-144670429D01*
X163809215Y-144070429D02*
X164180644Y-144070429D01*
X163980644Y-144299000D01*
X164066358Y-144299000D01*
X164123501Y-144327571D01*
X164152072Y-144356143D01*
X164180644Y-144413286D01*
X164180644Y-144556143D01*
X164152072Y-144613286D01*
X164123501Y-144641857D01*
X164066358Y-144670429D01*
X163894930Y-144670429D01*
X163837787Y-144641857D01*
X163809215Y-144613286D01*
X164380644Y-144070429D02*
X164780644Y-144070429D01*
X164523501Y-144670429D01*
D10*
X133083428Y-158230929D02*
X133083428Y-158716643D01*
X133112000Y-158773786D01*
X133140571Y-158802357D01*
X133197714Y-158830929D01*
X133312000Y-158830929D01*
X133369142Y-158802357D01*
X133397714Y-158773786D01*
X133426285Y-158716643D01*
X133426285Y-158230929D01*
X133654856Y-158230929D02*
X134054856Y-158230929D01*
X133797713Y-158830929D01*
X134397714Y-158230929D02*
X134454857Y-158230929D01*
X134512000Y-158259500D01*
X134540571Y-158288071D01*
X134569142Y-158345214D01*
X134597714Y-158459500D01*
X134597714Y-158602357D01*
X134569142Y-158716643D01*
X134540571Y-158773786D01*
X134512000Y-158802357D01*
X134454857Y-158830929D01*
X134397714Y-158830929D01*
X134340571Y-158802357D01*
X134312000Y-158773786D01*
X134283428Y-158716643D01*
X134254857Y-158602357D01*
X134254857Y-158459500D01*
X134283428Y-158345214D01*
X134312000Y-158288071D01*
X134340571Y-158259500D01*
X134397714Y-158230929D01*
X134826286Y-158288071D02*
X134854857Y-158259500D01*
X134912000Y-158230929D01*
X135054857Y-158230929D01*
X135112000Y-158259500D01*
X135140571Y-158288071D01*
X135169143Y-158345214D01*
X135169143Y-158402357D01*
X135140571Y-158488071D01*
X134797714Y-158830929D01*
X135169143Y-158830929D01*
X132878785Y-159056429D02*
X133221642Y-159056429D01*
X133050213Y-159656429D02*
X133050213Y-159056429D01*
X133421642Y-159656429D02*
X133421642Y-159056429D01*
X133650214Y-159056429D01*
X133707356Y-159085000D01*
X133735928Y-159113571D01*
X133764499Y-159170714D01*
X133764499Y-159256429D01*
X133735928Y-159313571D01*
X133707356Y-159342143D01*
X133650214Y-159370714D01*
X133421642Y-159370714D01*
X133993071Y-159627857D02*
X134078785Y-159656429D01*
X134221642Y-159656429D01*
X134278785Y-159627857D01*
X134307356Y-159599286D01*
X134335928Y-159542143D01*
X134335928Y-159485000D01*
X134307356Y-159427857D01*
X134278785Y-159399286D01*
X134221642Y-159370714D01*
X134107356Y-159342143D01*
X134050214Y-159313571D01*
X134021642Y-159285000D01*
X133993071Y-159227857D01*
X133993071Y-159170714D01*
X134021642Y-159113571D01*
X134050214Y-159085000D01*
X134107356Y-159056429D01*
X134250214Y-159056429D01*
X134335928Y-159085000D01*
X134850214Y-159056429D02*
X134735928Y-159056429D01*
X134678785Y-159085000D01*
X134650214Y-159113571D01*
X134593071Y-159199286D01*
X134564500Y-159313571D01*
X134564500Y-159542143D01*
X134593071Y-159599286D01*
X134621643Y-159627857D01*
X134678785Y-159656429D01*
X134793071Y-159656429D01*
X134850214Y-159627857D01*
X134878785Y-159599286D01*
X134907357Y-159542143D01*
X134907357Y-159399286D01*
X134878785Y-159342143D01*
X134850214Y-159313571D01*
X134793071Y-159285000D01*
X134678785Y-159285000D01*
X134621643Y-159313571D01*
X134593071Y-159342143D01*
X134564500Y-159399286D01*
X135135929Y-159113571D02*
X135164500Y-159085000D01*
X135221643Y-159056429D01*
X135364500Y-159056429D01*
X135421643Y-159085000D01*
X135450214Y-159113571D01*
X135478786Y-159170714D01*
X135478786Y-159227857D01*
X135450214Y-159313571D01*
X135107357Y-159656429D01*
X135478786Y-159656429D01*
X135707358Y-159113571D02*
X135735929Y-159085000D01*
X135793072Y-159056429D01*
X135935929Y-159056429D01*
X135993072Y-159085000D01*
X136021643Y-159113571D01*
X136050215Y-159170714D01*
X136050215Y-159227857D01*
X136021643Y-159313571D01*
X135678786Y-159656429D01*
X136050215Y-159656429D01*
X136250215Y-159056429D02*
X136621644Y-159056429D01*
X136421644Y-159285000D01*
X136507358Y-159285000D01*
X136564501Y-159313571D01*
X136593072Y-159342143D01*
X136621644Y-159399286D01*
X136621644Y-159542143D01*
X136593072Y-159599286D01*
X136564501Y-159627857D01*
X136507358Y-159656429D01*
X136335930Y-159656429D01*
X136278787Y-159627857D01*
X136250215Y-159599286D01*
X137193073Y-159656429D02*
X136850216Y-159656429D01*
X137021644Y-159656429D02*
X137021644Y-159056429D01*
X136964501Y-159142143D01*
X136907359Y-159199286D01*
X136850216Y-159227857D01*
D12*
X137858714Y-146843381D02*
X137858714Y-147652905D01*
X137906333Y-147748143D01*
X137953952Y-147795762D01*
X138049190Y-147843381D01*
X138239667Y-147843381D01*
X138334905Y-147795762D01*
X138382524Y-147748143D01*
X138430143Y-147652905D01*
X138430143Y-146843381D01*
X138811095Y-146843381D02*
X139477762Y-146843381D01*
X139049190Y-147843381D01*
X140049190Y-146843381D02*
X140144429Y-146843381D01*
X140239667Y-146891000D01*
X140287286Y-146938619D01*
X140334905Y-147033857D01*
X140382524Y-147224333D01*
X140382524Y-147462429D01*
X140334905Y-147652905D01*
X140287286Y-147748143D01*
X140239667Y-147795762D01*
X140144429Y-147843381D01*
X140049190Y-147843381D01*
X139953952Y-147795762D01*
X139906333Y-147748143D01*
X139858714Y-147652905D01*
X139811095Y-147462429D01*
X139811095Y-147224333D01*
X139858714Y-147033857D01*
X139906333Y-146938619D01*
X139953952Y-146891000D01*
X140049190Y-146843381D01*
X140715857Y-146843381D02*
X141334905Y-146843381D01*
X141001571Y-147224333D01*
X141144429Y-147224333D01*
X141239667Y-147271952D01*
X141287286Y-147319571D01*
X141334905Y-147414810D01*
X141334905Y-147652905D01*
X141287286Y-147748143D01*
X141239667Y-147795762D01*
X141144429Y-147843381D01*
X140858714Y-147843381D01*
X140763476Y-147795762D01*
X140715857Y-147748143D01*
X139731857Y-132827714D02*
X139731857Y-133113429D01*
X139531857Y-132513429D02*
X139731857Y-132827714D01*
X139931857Y-132513429D01*
X140389000Y-132513429D02*
X140274714Y-132513429D01*
X140217571Y-132542000D01*
X140189000Y-132570571D01*
X140131857Y-132656286D01*
X140103286Y-132770571D01*
X140103286Y-132999143D01*
X140131857Y-133056286D01*
X140160429Y-133084857D01*
X140217571Y-133113429D01*
X140331857Y-133113429D01*
X140389000Y-133084857D01*
X140417571Y-133056286D01*
X140446143Y-132999143D01*
X140446143Y-132856286D01*
X140417571Y-132799143D01*
X140389000Y-132770571D01*
X140331857Y-132742000D01*
X140217571Y-132742000D01*
X140160429Y-132770571D01*
X140131857Y-132799143D01*
X140103286Y-132856286D01*
X140817572Y-132513429D02*
X140874715Y-132513429D01*
X140931858Y-132542000D01*
X140960429Y-132570571D01*
X140989000Y-132627714D01*
X141017572Y-132742000D01*
X141017572Y-132884857D01*
X140989000Y-132999143D01*
X140960429Y-133056286D01*
X140931858Y-133084857D01*
X140874715Y-133113429D01*
X140817572Y-133113429D01*
X140760429Y-133084857D01*
X140731858Y-133056286D01*
X140703286Y-132999143D01*
X140674715Y-132884857D01*
X140674715Y-132742000D01*
X140703286Y-132627714D01*
X140731858Y-132570571D01*
X140760429Y-132542000D01*
X140817572Y-132513429D01*
X141589001Y-133113429D02*
X141246144Y-133113429D01*
X141417572Y-133113429D02*
X141417572Y-132513429D01*
X141360429Y-132599143D01*
X141303287Y-132656286D01*
X141246144Y-132684857D01*
X139541357Y-144448214D02*
X139541357Y-144733929D01*
X139341357Y-144133929D02*
X139541357Y-144448214D01*
X139741357Y-144133929D01*
X140198500Y-144133929D02*
X140084214Y-144133929D01*
X140027071Y-144162500D01*
X139998500Y-144191071D01*
X139941357Y-144276786D01*
X139912786Y-144391071D01*
X139912786Y-144619643D01*
X139941357Y-144676786D01*
X139969929Y-144705357D01*
X140027071Y-144733929D01*
X140141357Y-144733929D01*
X140198500Y-144705357D01*
X140227071Y-144676786D01*
X140255643Y-144619643D01*
X140255643Y-144476786D01*
X140227071Y-144419643D01*
X140198500Y-144391071D01*
X140141357Y-144362500D01*
X140027071Y-144362500D01*
X139969929Y-144391071D01*
X139941357Y-144419643D01*
X139912786Y-144476786D01*
X140627072Y-144133929D02*
X140684215Y-144133929D01*
X140741358Y-144162500D01*
X140769929Y-144191071D01*
X140798500Y-144248214D01*
X140827072Y-144362500D01*
X140827072Y-144505357D01*
X140798500Y-144619643D01*
X140769929Y-144676786D01*
X140741358Y-144705357D01*
X140684215Y-144733929D01*
X140627072Y-144733929D01*
X140569929Y-144705357D01*
X140541358Y-144676786D01*
X140512786Y-144619643D01*
X140484215Y-144505357D01*
X140484215Y-144362500D01*
X140512786Y-144248214D01*
X140541358Y-144191071D01*
X140569929Y-144162500D01*
X140627072Y-144133929D01*
X141055644Y-144191071D02*
X141084215Y-144162500D01*
X141141358Y-144133929D01*
X141284215Y-144133929D01*
X141341358Y-144162500D01*
X141369929Y-144191071D01*
X141398501Y-144248214D01*
X141398501Y-144305357D01*
X141369929Y-144391071D01*
X141027072Y-144733929D01*
X141398501Y-144733929D01*
X131057143Y-123021429D02*
X131057143Y-122421429D01*
X131200000Y-122421429D01*
X131285715Y-122450000D01*
X131342857Y-122507143D01*
X131371429Y-122564286D01*
X131400000Y-122678571D01*
X131400000Y-122764286D01*
X131371429Y-122878571D01*
X131342857Y-122935714D01*
X131285715Y-122992857D01*
X131200000Y-123021429D01*
X131057143Y-123021429D01*
X131971429Y-123021429D02*
X131628572Y-123021429D01*
X131800000Y-123021429D02*
X131800000Y-122421429D01*
X131742857Y-122507143D01*
X131685715Y-122564286D01*
X131628572Y-122592857D01*
X138821429Y-122100000D02*
X138535714Y-122300000D01*
X138821429Y-122442857D02*
X138221429Y-122442857D01*
X138221429Y-122214285D01*
X138250000Y-122157143D01*
X138278571Y-122128571D01*
X138335714Y-122100000D01*
X138421429Y-122100000D01*
X138478571Y-122128571D01*
X138507143Y-122157143D01*
X138535714Y-122214285D01*
X138535714Y-122442857D01*
X138221429Y-121900000D02*
X138221429Y-121528571D01*
X138450000Y-121728571D01*
X138450000Y-121642857D01*
X138478571Y-121585714D01*
X138507143Y-121557143D01*
X138564286Y-121528571D01*
X138707143Y-121528571D01*
X138764286Y-121557143D01*
X138792857Y-121585714D01*
X138821429Y-121642857D01*
X138821429Y-121814285D01*
X138792857Y-121871428D01*
X138764286Y-121900000D01*
M02*
