G04 #@! TF.FileFunction,Soldermask,Top*
%FSLAX46Y46*%
G04 Gerber Fmt 4.6, Leading zero omitted, Abs format (unit mm)*
G04 Created by KiCad (PCBNEW 4.0.7-e2-6376~58~ubuntu16.04.1) date Mon Apr 30 10:34:26 2018*
%MOMM*%
%LPD*%
G01*
G04 APERTURE LIST*
%ADD10C,0.100000*%
%ADD11R,1.200000X1.150000*%
%ADD12R,1.000000X0.900000*%
%ADD13R,0.900000X1.000000*%
%ADD14R,1.150000X1.200000*%
%ADD15R,2.100000X2.100000*%
%ADD16O,2.100000X2.100000*%
%ADD17R,1.600000X1.600000*%
%ADD18R,1.400000X1.400000*%
%ADD19O,1.400000X1.400000*%
%ADD20R,0.800000X1.750000*%
%ADD21O,1.650000X1.350000*%
%ADD22O,1.400000X1.950000*%
%ADD23O,2.398980X2.398980*%
%ADD24R,2.398980X2.398980*%
%ADD25C,1.500000*%
%ADD26R,1.300000X0.900000*%
%ADD27R,0.900000X1.300000*%
%ADD28C,2.650000*%
%ADD29C,1.924000*%
%ADD30R,1.200000X1.300000*%
%ADD31R,1.000000X0.800000*%
%ADD32R,0.800000X1.000000*%
%ADD33C,1.300000*%
%ADD34R,1.900000X1.100000*%
%ADD35R,1.200000X1.400000*%
%ADD36R,1.050000X1.100000*%
%ADD37R,1.150000X0.750000*%
%ADD38R,1.650000X1.300000*%
%ADD39R,0.650000X1.075000*%
%ADD40R,1.075000X0.650000*%
%ADD41R,0.600000X1.000000*%
%ADD42R,1.000000X0.600000*%
%ADD43R,0.600000X0.550000*%
%ADD44R,1.873200X0.679400*%
%ADD45R,0.679400X1.873200*%
%ADD46R,0.950000X0.700000*%
%ADD47R,0.920000X0.700000*%
%ADD48O,1.150000X0.700000*%
%ADD49O,0.700000X1.150000*%
%ADD50R,1.300000X1.300000*%
%ADD51R,2.300000X1.500000*%
%ADD52R,2.800000X2.300000*%
G04 APERTURE END LIST*
D10*
D11*
X153630500Y-148844000D03*
X155130500Y-148844000D03*
D12*
X148082000Y-126238000D03*
X149182000Y-126238000D03*
X147108000Y-110744000D03*
X146008000Y-110744000D03*
D13*
X147828000Y-157522000D03*
X147828000Y-156422000D03*
X131318000Y-138049000D03*
X131318000Y-136949000D03*
X138938000Y-133604000D03*
X138938000Y-134704000D03*
X138938000Y-136842500D03*
X138938000Y-135742500D03*
X138176000Y-138049000D03*
X138176000Y-139149000D03*
X138176000Y-143192500D03*
X138176000Y-142092500D03*
D12*
X151257000Y-143954500D03*
X152357000Y-143954500D03*
D13*
X142748000Y-139658000D03*
X142748000Y-140758000D03*
D12*
X145267500Y-132461000D03*
X146367500Y-132461000D03*
D13*
X154622500Y-134810500D03*
X154622500Y-135910500D03*
D14*
X159702500Y-145415000D03*
X159702500Y-146915000D03*
X132207000Y-159297500D03*
X132207000Y-157797500D03*
X163830000Y-146582000D03*
X163830000Y-148082000D03*
D11*
X135064500Y-155130500D03*
X133564500Y-155130500D03*
D14*
X136715500Y-152312500D03*
X136715500Y-150812500D03*
D11*
X143105000Y-147320000D03*
X141605000Y-147320000D03*
X142494000Y-150685500D03*
X143994000Y-150685500D03*
D15*
X153670000Y-167005000D03*
D16*
X153670000Y-169545000D03*
X151130000Y-167005000D03*
X151130000Y-169545000D03*
X148590000Y-167005000D03*
X148590000Y-169545000D03*
X146050000Y-167005000D03*
X146050000Y-169545000D03*
X143510000Y-167005000D03*
X143510000Y-169545000D03*
D17*
X155788000Y-140970000D03*
X157988000Y-140970000D03*
X125562000Y-101854000D03*
X127762000Y-101854000D03*
X125562000Y-98806000D03*
X127762000Y-98806000D03*
X171788000Y-98806000D03*
X169588000Y-98806000D03*
X171788000Y-101854000D03*
X169588000Y-101854000D03*
X135232500Y-124460000D03*
X133032500Y-124460000D03*
X135232500Y-126301500D03*
X133032500Y-126301500D03*
X135232500Y-128143000D03*
X133032500Y-128143000D03*
X139827000Y-155956000D03*
X139827000Y-153756000D03*
X144884500Y-152273000D03*
X142684500Y-152273000D03*
D18*
X137160000Y-98425000D03*
D19*
X138430000Y-98425000D03*
X139700000Y-98425000D03*
D18*
X157480000Y-98425000D03*
D19*
X158750000Y-98425000D03*
X160020000Y-98425000D03*
D20*
X147290000Y-173910000D03*
X147940000Y-173910000D03*
X148590000Y-173910000D03*
X149240000Y-173910000D03*
X149890000Y-173910000D03*
D21*
X146090000Y-173910000D03*
X151090000Y-173910000D03*
D22*
X145090000Y-176610000D03*
X152090000Y-176610000D03*
D18*
X170180000Y-135890000D03*
D19*
X170180000Y-137160000D03*
X170180000Y-138430000D03*
D18*
X147320000Y-97790000D03*
D19*
X148590000Y-97790000D03*
X149860000Y-97790000D03*
D18*
X127000000Y-138430000D03*
D19*
X127000000Y-137160000D03*
X127000000Y-135890000D03*
D23*
X127000000Y-151130000D03*
D24*
X127000000Y-148590000D03*
D25*
X129540000Y-148590000D03*
X129540000Y-151130000D03*
D26*
X156654500Y-152527000D03*
X156654500Y-151027000D03*
D27*
X162496500Y-148082000D03*
X160996500Y-148082000D03*
D26*
X132016500Y-155015500D03*
X132016500Y-156515500D03*
D28*
X132451100Y-117353600D03*
X126451100Y-117353600D03*
D29*
X137451100Y-107353600D03*
X137451100Y-115353600D03*
D28*
X126451100Y-105353600D03*
X132451100Y-105353600D03*
X164551100Y-105353600D03*
X170551100Y-105353600D03*
D29*
X159551100Y-115353600D03*
X159551100Y-107353600D03*
D28*
X170551100Y-117353600D03*
X164551100Y-117353600D03*
X164551100Y-162503600D03*
X170551100Y-162503600D03*
D29*
X159551100Y-172503600D03*
X159551100Y-164503600D03*
D28*
X170551100Y-174503600D03*
X164551100Y-174503600D03*
X132451100Y-174503600D03*
X126451100Y-174503600D03*
D29*
X137451100Y-164503600D03*
X137451100Y-172503600D03*
D28*
X126451100Y-162503600D03*
X132451100Y-162503600D03*
D30*
X147706000Y-120650000D03*
X149606000Y-120650000D03*
X148656000Y-118650000D03*
D31*
X149796500Y-151511000D03*
X149796500Y-150611000D03*
D32*
X149796500Y-149479000D03*
X150696500Y-149479000D03*
X160274000Y-140970000D03*
X159374000Y-140970000D03*
X149352000Y-172085000D03*
X148452000Y-172085000D03*
X146685000Y-172085000D03*
X147585000Y-172085000D03*
D31*
X151384000Y-123952000D03*
X151384000Y-124852000D03*
X156464000Y-126238000D03*
X156464000Y-127138000D03*
X155194000Y-126238000D03*
X155194000Y-127138000D03*
D32*
X157988000Y-123444000D03*
X158888000Y-123444000D03*
X156972000Y-122187999D03*
X157872000Y-122187999D03*
D31*
X155956000Y-121920000D03*
X155956000Y-121020000D03*
X154600000Y-122000000D03*
X154600000Y-121100000D03*
D32*
X148278000Y-116332000D03*
X147378000Y-116332000D03*
X151384000Y-114808000D03*
X150484000Y-114808000D03*
D31*
X151130000Y-111368000D03*
X151130000Y-112268000D03*
D32*
X146246000Y-162560000D03*
X145346000Y-162560000D03*
X151638000Y-161417000D03*
X150738000Y-161417000D03*
D31*
X150876000Y-157919000D03*
X150876000Y-158819000D03*
D32*
X126238000Y-103378000D03*
X127138000Y-103378000D03*
X127000000Y-100330000D03*
X126100000Y-100330000D03*
X171196000Y-100330000D03*
X170296000Y-100330000D03*
X170296000Y-103378000D03*
X171196000Y-103378000D03*
D31*
X149225000Y-103955000D03*
X149225000Y-103055000D03*
D32*
X146870000Y-102870000D03*
X147770000Y-102870000D03*
X143203500Y-136906000D03*
X142303500Y-136906000D03*
X143198000Y-138366500D03*
X142298000Y-138366500D03*
D31*
X148082000Y-131688000D03*
X148082000Y-132588000D03*
D32*
X137483000Y-124460000D03*
X136583000Y-124460000D03*
X137477500Y-126301500D03*
X136577500Y-126301500D03*
X137477500Y-128143000D03*
X136577500Y-128143000D03*
X136080500Y-149479000D03*
X136980500Y-149479000D03*
D31*
X139319000Y-147516000D03*
X139319000Y-146616000D03*
X141351000Y-155067000D03*
X141351000Y-155967000D03*
D32*
X142240000Y-149479000D03*
X143140000Y-149479000D03*
D31*
X146367500Y-151384000D03*
X146367500Y-152284000D03*
D32*
X138372000Y-147574000D03*
X137472000Y-147574000D03*
D31*
X140398500Y-147521500D03*
X140398500Y-146621500D03*
D33*
X170815000Y-152790000D03*
X170815000Y-149790000D03*
D34*
X169055000Y-153540000D03*
X169055000Y-150540000D03*
X169055000Y-149040000D03*
D35*
X171915000Y-154940000D03*
X171915000Y-147640000D03*
X169705000Y-147640000D03*
X169705000Y-154940000D03*
D29*
X142969444Y-108477545D03*
X138726804Y-104234905D03*
X132080000Y-99568000D03*
X134059899Y-97588101D03*
X154088680Y-108477545D03*
X158331320Y-104234905D03*
X162998225Y-97588101D03*
X164978124Y-99568000D03*
D36*
X132495500Y-136149000D03*
X135445500Y-136149000D03*
X132495500Y-138049000D03*
X135445500Y-138049000D03*
D37*
X155130000Y-153035000D03*
X155130000Y-152235000D03*
X155130000Y-151435000D03*
X155130000Y-150635000D03*
X151130000Y-150635000D03*
X151130000Y-151435000D03*
X151130000Y-152235000D03*
X151130000Y-153035000D03*
D38*
X152505000Y-150485000D03*
X152505000Y-151385000D03*
X152505000Y-152285000D03*
X152505000Y-153185000D03*
X153755000Y-150485000D03*
X153755000Y-151385000D03*
X153755000Y-152285000D03*
X153755000Y-153185000D03*
D39*
X148582500Y-122943500D03*
X148082500Y-122943500D03*
X149082500Y-122943500D03*
X148082500Y-124968500D03*
X148582500Y-124968500D03*
X149082500Y-124968500D03*
D40*
X147320000Y-123206000D03*
X147320000Y-123706000D03*
X147320000Y-124206000D03*
X147320000Y-124706000D03*
X149845000Y-124706000D03*
X149845000Y-124206000D03*
X149845000Y-123706000D03*
X149845000Y-123206000D03*
D41*
X155280716Y-124832999D03*
X155680716Y-124832999D03*
X156080716Y-124832999D03*
X156480716Y-124832999D03*
X156880716Y-124832999D03*
D42*
X156880716Y-124182999D03*
D41*
X156880716Y-123532999D03*
X156480716Y-123532999D03*
X156080716Y-123532999D03*
X155680716Y-123532999D03*
X155280716Y-123532999D03*
D42*
X155280716Y-124182999D03*
D43*
X155080716Y-124607999D03*
D44*
X144623600Y-135451400D03*
X144623600Y-135951399D03*
X144623600Y-136451401D03*
X144623600Y-136951400D03*
X144623600Y-137451399D03*
X144623600Y-137951400D03*
X144623600Y-138451400D03*
X144623600Y-138951401D03*
X144623600Y-139451400D03*
X144623600Y-139951399D03*
X144623600Y-140451401D03*
X144623600Y-140951400D03*
D45*
X146090000Y-142417800D03*
X146589999Y-142417800D03*
X147090001Y-142417800D03*
X147590000Y-142417800D03*
X148089999Y-142417800D03*
X148590000Y-142417800D03*
X149090000Y-142417800D03*
X149590001Y-142417800D03*
X150090000Y-142417800D03*
X150589999Y-142417800D03*
X151090001Y-142417800D03*
X151590000Y-142417800D03*
D44*
X153056400Y-140951400D03*
X153056400Y-140451401D03*
X153056400Y-139951399D03*
X153056400Y-139451400D03*
X153056400Y-138951401D03*
X153056400Y-138451400D03*
X153056400Y-137951400D03*
X153056400Y-137451399D03*
X153056400Y-136951400D03*
X153056400Y-136451401D03*
X153056400Y-135951399D03*
X153056400Y-135451400D03*
D45*
X151590000Y-133985000D03*
X151090001Y-133985000D03*
X150589999Y-133985000D03*
X150090000Y-133985000D03*
X149590001Y-133985000D03*
X149090000Y-133985000D03*
X148590000Y-133985000D03*
X148089999Y-133985000D03*
X147590000Y-133985000D03*
X147090001Y-133985000D03*
X146589999Y-133985000D03*
X146090000Y-133985000D03*
D46*
X161050986Y-145558002D03*
D47*
X161036000Y-146058001D03*
X161036000Y-146558000D03*
X161775998Y-146558000D03*
X161775998Y-146058001D03*
X161775998Y-145558002D03*
D46*
X133428486Y-156416502D03*
D47*
X133413500Y-156916501D03*
X133413500Y-157416500D03*
X134153498Y-157416500D03*
X134153498Y-156916501D03*
X134153498Y-156416502D03*
D48*
X138098000Y-149491000D03*
X138098000Y-149991000D03*
X138098000Y-150491000D03*
X138098000Y-150991000D03*
D49*
X138823000Y-151716000D03*
X139323000Y-151716000D03*
X139823000Y-151716000D03*
X140323000Y-151716000D03*
D48*
X141048000Y-150991000D03*
X141048000Y-150491000D03*
X141048000Y-149991000D03*
X141048000Y-149491000D03*
D49*
X140323000Y-148766000D03*
X139823000Y-148766000D03*
X139323000Y-148766000D03*
X138823000Y-148766000D03*
D50*
X140023000Y-150691000D03*
X140023000Y-149791000D03*
X139123000Y-150691000D03*
X139123000Y-149791000D03*
D51*
X140589000Y-134152000D03*
X140589000Y-136652000D03*
D52*
X140398500Y-138584500D03*
X140398500Y-142684500D03*
D17*
X135250000Y-122750000D03*
X133050000Y-122750000D03*
D32*
X137450000Y-122750000D03*
X136550000Y-122750000D03*
D48*
X146304000Y-112750000D03*
X146304000Y-113250000D03*
X146304000Y-113750000D03*
X146304000Y-114250000D03*
D49*
X147029000Y-114975000D03*
X147529000Y-114975000D03*
X148029000Y-114975000D03*
X148529000Y-114975000D03*
D48*
X149254000Y-114250000D03*
X149254000Y-113750000D03*
X149254000Y-113250000D03*
X149254000Y-112750000D03*
D49*
X148529000Y-112025000D03*
X148029000Y-112025000D03*
X147529000Y-112025000D03*
X147029000Y-112025000D03*
D50*
X148229000Y-113950000D03*
X148229000Y-113050000D03*
X147329000Y-113950000D03*
X147329000Y-113050000D03*
D48*
X146558000Y-159486000D03*
X146558000Y-159986000D03*
X146558000Y-160486000D03*
X146558000Y-160986000D03*
D49*
X147283000Y-161711000D03*
X147783000Y-161711000D03*
X148283000Y-161711000D03*
X148783000Y-161711000D03*
D48*
X149508000Y-160986000D03*
X149508000Y-160486000D03*
X149508000Y-159986000D03*
X149508000Y-159486000D03*
D49*
X148783000Y-158761000D03*
X148283000Y-158761000D03*
X147783000Y-158761000D03*
X147283000Y-158761000D03*
D50*
X148483000Y-160686000D03*
X148483000Y-159786000D03*
X147583000Y-160686000D03*
X147583000Y-159786000D03*
M02*
