G04 #@! TF.FileFunction,Legend,Bot*
%FSLAX46Y46*%
G04 Gerber Fmt 4.6, Leading zero omitted, Abs format (unit mm)*
G04 Created by KiCad (PCBNEW 4.0.7-e2-6376~58~ubuntu16.04.1) date Mon Apr 30 10:34:26 2018*
%MOMM*%
%LPD*%
G01*
G04 APERTURE LIST*
%ADD10C,0.100000*%
%ADD11C,0.150000*%
G04 APERTURE END LIST*
D10*
D11*
X129600960Y-152659080D02*
X129600960Y-147060920D01*
X130098800Y-147259040D02*
X129600960Y-147259040D01*
X129600960Y-152460960D02*
X130098800Y-152460960D01*
X130098800Y-149860000D02*
X129600960Y-149860000D01*
X124299980Y-147060920D02*
X124299980Y-152659080D01*
X130098800Y-147060920D02*
X130098800Y-152659080D01*
X130098800Y-152659080D02*
X123901200Y-152659080D01*
X123901200Y-152659080D02*
X123901200Y-147060920D01*
X123901200Y-147060920D02*
X130098800Y-147060920D01*
X145590000Y-98870000D02*
X151590000Y-98870000D01*
X144590000Y-105870000D02*
X144590000Y-99870000D01*
X144590000Y-99870000D02*
G75*
G02X145590000Y-98870000I1000000J0D01*
G01*
X152590000Y-105870000D02*
X152590000Y-99870000D01*
X145590000Y-106870000D02*
X151590000Y-106870000D01*
X151590000Y-98870000D02*
G75*
G02X152590000Y-99870000I0J-1000000D01*
G01*
X152590000Y-105870000D02*
G75*
G02X151590000Y-106870000I-1000000J0D01*
G01*
X145590000Y-106870000D02*
G75*
G02X144590000Y-105870000I0J1000000D01*
G01*
X145813607Y-99870000D02*
G75*
G03X145813607Y-99870000I-223607J0D01*
G01*
X121951501Y-148574286D02*
X122665787Y-148574286D01*
X122808644Y-148526666D01*
X122903882Y-148431428D01*
X122951501Y-148288571D01*
X122951501Y-148193333D01*
X121951501Y-148955238D02*
X121951501Y-149621905D01*
X122951501Y-149193333D01*
X121951501Y-150193333D02*
X121951501Y-150288572D01*
X121999120Y-150383810D01*
X122046739Y-150431429D01*
X122141977Y-150479048D01*
X122332453Y-150526667D01*
X122570549Y-150526667D01*
X122761025Y-150479048D01*
X122856263Y-150431429D01*
X122903882Y-150383810D01*
X122951501Y-150288572D01*
X122951501Y-150193333D01*
X122903882Y-150098095D01*
X122856263Y-150050476D01*
X122761025Y-150002857D01*
X122570549Y-149955238D01*
X122332453Y-149955238D01*
X122141977Y-150002857D01*
X122046739Y-150050476D01*
X121999120Y-150098095D01*
X121951501Y-150193333D01*
X122951501Y-151479048D02*
X122951501Y-150907619D01*
X122951501Y-151193333D02*
X121951501Y-151193333D01*
X122094358Y-151098095D01*
X122189596Y-151002857D01*
X122237215Y-150907619D01*
X150304286Y-96802381D02*
X150304286Y-97611905D01*
X150256667Y-97707143D01*
X150209048Y-97754762D01*
X150113810Y-97802381D01*
X149923333Y-97802381D01*
X149828095Y-97754762D01*
X149780476Y-97707143D01*
X149732857Y-97611905D01*
X149732857Y-96802381D01*
X148780476Y-96802381D02*
X149256667Y-96802381D01*
X149304286Y-97278571D01*
X149256667Y-97230952D01*
X149161429Y-97183333D01*
X148923333Y-97183333D01*
X148828095Y-97230952D01*
X148780476Y-97278571D01*
X148732857Y-97373810D01*
X148732857Y-97611905D01*
X148780476Y-97707143D01*
X148828095Y-97754762D01*
X148923333Y-97802381D01*
X149161429Y-97802381D01*
X149256667Y-97754762D01*
X149304286Y-97707143D01*
X148113810Y-96802381D02*
X148018571Y-96802381D01*
X147923333Y-96850000D01*
X147875714Y-96897619D01*
X147828095Y-96992857D01*
X147780476Y-97183333D01*
X147780476Y-97421429D01*
X147828095Y-97611905D01*
X147875714Y-97707143D01*
X147923333Y-97754762D01*
X148018571Y-97802381D01*
X148113810Y-97802381D01*
X148209048Y-97754762D01*
X148256667Y-97707143D01*
X148304286Y-97611905D01*
X148351905Y-97421429D01*
X148351905Y-97183333D01*
X148304286Y-96992857D01*
X148256667Y-96897619D01*
X148209048Y-96850000D01*
X148113810Y-96802381D01*
X146923333Y-97135714D02*
X146923333Y-97802381D01*
X147161429Y-96754762D02*
X147399524Y-97469048D01*
X146780476Y-97469048D01*
M02*
