G04 #@! TF.FileFunction,Other,User*
%FSLAX46Y46*%
G04 Gerber Fmt 4.6, Leading zero omitted, Abs format (unit mm)*
G04 Created by KiCad (PCBNEW 4.0.7-e2-6376~58~ubuntu16.04.1) date Mon Apr 30 10:34:26 2018*
%MOMM*%
%LPD*%
G01*
G04 APERTURE LIST*
%ADD10C,0.100000*%
%ADD11C,0.050000*%
G04 APERTURE END LIST*
D10*
D11*
X152980500Y-148194000D02*
X155780500Y-148194000D01*
X152980500Y-148194000D02*
X152980500Y-149494000D01*
X155780500Y-149494000D02*
X155780500Y-148194000D01*
X155780500Y-149494000D02*
X152980500Y-149494000D01*
X147632000Y-125838000D02*
X149632000Y-125838000D01*
X147632000Y-125838000D02*
X147632000Y-126638000D01*
X149632000Y-126638000D02*
X149632000Y-125838000D01*
X149632000Y-126638000D02*
X147632000Y-126638000D01*
X147558000Y-111144000D02*
X145558000Y-111144000D01*
X147558000Y-111144000D02*
X147558000Y-110344000D01*
X145558000Y-110344000D02*
X145558000Y-111144000D01*
X145558000Y-110344000D02*
X147558000Y-110344000D01*
X147428000Y-157972000D02*
X147428000Y-155972000D01*
X147428000Y-157972000D02*
X148228000Y-157972000D01*
X148228000Y-155972000D02*
X147428000Y-155972000D01*
X148228000Y-155972000D02*
X148228000Y-157972000D01*
X130918000Y-138499000D02*
X130918000Y-136499000D01*
X130918000Y-138499000D02*
X131718000Y-138499000D01*
X131718000Y-136499000D02*
X130918000Y-136499000D01*
X131718000Y-136499000D02*
X131718000Y-138499000D01*
X139338000Y-133154000D02*
X139338000Y-135154000D01*
X139338000Y-133154000D02*
X138538000Y-133154000D01*
X138538000Y-135154000D02*
X139338000Y-135154000D01*
X138538000Y-135154000D02*
X138538000Y-133154000D01*
X138538000Y-137292500D02*
X138538000Y-135292500D01*
X138538000Y-137292500D02*
X139338000Y-137292500D01*
X139338000Y-135292500D02*
X138538000Y-135292500D01*
X139338000Y-135292500D02*
X139338000Y-137292500D01*
X138576000Y-137599000D02*
X138576000Y-139599000D01*
X138576000Y-137599000D02*
X137776000Y-137599000D01*
X137776000Y-139599000D02*
X138576000Y-139599000D01*
X137776000Y-139599000D02*
X137776000Y-137599000D01*
X137776000Y-143642500D02*
X137776000Y-141642500D01*
X137776000Y-143642500D02*
X138576000Y-143642500D01*
X138576000Y-141642500D02*
X137776000Y-141642500D01*
X138576000Y-141642500D02*
X138576000Y-143642500D01*
X150807000Y-143554500D02*
X152807000Y-143554500D01*
X150807000Y-143554500D02*
X150807000Y-144354500D01*
X152807000Y-144354500D02*
X152807000Y-143554500D01*
X152807000Y-144354500D02*
X150807000Y-144354500D01*
X143148000Y-139208000D02*
X143148000Y-141208000D01*
X143148000Y-139208000D02*
X142348000Y-139208000D01*
X142348000Y-141208000D02*
X143148000Y-141208000D01*
X142348000Y-141208000D02*
X142348000Y-139208000D01*
X144817500Y-132061000D02*
X146817500Y-132061000D01*
X144817500Y-132061000D02*
X144817500Y-132861000D01*
X146817500Y-132861000D02*
X146817500Y-132061000D01*
X146817500Y-132861000D02*
X144817500Y-132861000D01*
X155022500Y-134360500D02*
X155022500Y-136360500D01*
X155022500Y-134360500D02*
X154222500Y-134360500D01*
X154222500Y-136360500D02*
X155022500Y-136360500D01*
X154222500Y-136360500D02*
X154222500Y-134360500D01*
X160352500Y-144765000D02*
X160352500Y-147565000D01*
X160352500Y-144765000D02*
X159052500Y-144765000D01*
X159052500Y-147565000D02*
X160352500Y-147565000D01*
X159052500Y-147565000D02*
X159052500Y-144765000D01*
X131557000Y-159947500D02*
X131557000Y-157147500D01*
X131557000Y-159947500D02*
X132857000Y-159947500D01*
X132857000Y-157147500D02*
X131557000Y-157147500D01*
X132857000Y-157147500D02*
X132857000Y-159947500D01*
X164480000Y-145932000D02*
X164480000Y-148732000D01*
X164480000Y-145932000D02*
X163180000Y-145932000D01*
X163180000Y-148732000D02*
X164480000Y-148732000D01*
X163180000Y-148732000D02*
X163180000Y-145932000D01*
X135714500Y-155780500D02*
X132914500Y-155780500D01*
X135714500Y-155780500D02*
X135714500Y-154480500D01*
X132914500Y-154480500D02*
X132914500Y-155780500D01*
X132914500Y-154480500D02*
X135714500Y-154480500D01*
X136065500Y-152962500D02*
X136065500Y-150162500D01*
X136065500Y-152962500D02*
X137365500Y-152962500D01*
X137365500Y-150162500D02*
X136065500Y-150162500D01*
X137365500Y-150162500D02*
X137365500Y-152962500D01*
X143755000Y-147970000D02*
X140955000Y-147970000D01*
X143755000Y-147970000D02*
X143755000Y-146670000D01*
X140955000Y-146670000D02*
X140955000Y-147970000D01*
X140955000Y-146670000D02*
X143755000Y-146670000D01*
X141844000Y-150035500D02*
X144644000Y-150035500D01*
X141844000Y-150035500D02*
X141844000Y-151335500D01*
X144644000Y-151335500D02*
X144644000Y-150035500D01*
X144644000Y-151335500D02*
X141844000Y-151335500D01*
X155470000Y-165205000D02*
X141720000Y-165205000D01*
X141720000Y-165205000D02*
X141720000Y-171355000D01*
X141720000Y-171355000D02*
X155470000Y-171355000D01*
X155470000Y-171355000D02*
X155470000Y-165205000D01*
X154938000Y-141820000D02*
X154938000Y-140120000D01*
X154938000Y-140120000D02*
X158838000Y-140120000D01*
X158838000Y-140120000D02*
X158838000Y-141820000D01*
X158838000Y-141820000D02*
X154938000Y-141820000D01*
X124712000Y-102704000D02*
X124712000Y-101004000D01*
X124712000Y-101004000D02*
X128612000Y-101004000D01*
X128612000Y-101004000D02*
X128612000Y-102704000D01*
X128612000Y-102704000D02*
X124712000Y-102704000D01*
X124712000Y-99656000D02*
X124712000Y-97956000D01*
X124712000Y-97956000D02*
X128612000Y-97956000D01*
X128612000Y-97956000D02*
X128612000Y-99656000D01*
X128612000Y-99656000D02*
X124712000Y-99656000D01*
X172638000Y-97956000D02*
X172638000Y-99656000D01*
X172638000Y-99656000D02*
X168738000Y-99656000D01*
X168738000Y-99656000D02*
X168738000Y-97956000D01*
X168738000Y-97956000D02*
X172638000Y-97956000D01*
X172638000Y-101004000D02*
X172638000Y-102704000D01*
X172638000Y-102704000D02*
X168738000Y-102704000D01*
X168738000Y-102704000D02*
X168738000Y-101004000D01*
X168738000Y-101004000D02*
X172638000Y-101004000D01*
X136082500Y-123610000D02*
X136082500Y-125310000D01*
X136082500Y-125310000D02*
X132182500Y-125310000D01*
X132182500Y-125310000D02*
X132182500Y-123610000D01*
X132182500Y-123610000D02*
X136082500Y-123610000D01*
X136082500Y-125451500D02*
X136082500Y-127151500D01*
X136082500Y-127151500D02*
X132182500Y-127151500D01*
X132182500Y-127151500D02*
X132182500Y-125451500D01*
X132182500Y-125451500D02*
X136082500Y-125451500D01*
X136082500Y-127293000D02*
X136082500Y-128993000D01*
X136082500Y-128993000D02*
X132182500Y-128993000D01*
X132182500Y-128993000D02*
X132182500Y-127293000D01*
X132182500Y-127293000D02*
X136082500Y-127293000D01*
X140677000Y-156806000D02*
X138977000Y-156806000D01*
X138977000Y-156806000D02*
X138977000Y-152906000D01*
X138977000Y-152906000D02*
X140677000Y-152906000D01*
X140677000Y-152906000D02*
X140677000Y-156806000D01*
X145734500Y-151423000D02*
X145734500Y-153123000D01*
X145734500Y-153123000D02*
X141834500Y-153123000D01*
X141834500Y-153123000D02*
X141834500Y-151423000D01*
X141834500Y-151423000D02*
X145734500Y-151423000D01*
X136010000Y-99575000D02*
X140860000Y-99575000D01*
X140860000Y-99575000D02*
X140860000Y-92425000D01*
X140860000Y-92425000D02*
X136010000Y-92425000D01*
X136010000Y-92425000D02*
X136010000Y-99575000D01*
X156330000Y-99575000D02*
X161180000Y-99575000D01*
X161180000Y-99575000D02*
X161180000Y-92425000D01*
X161180000Y-92425000D02*
X156330000Y-92425000D01*
X156330000Y-92425000D02*
X156330000Y-99575000D01*
X143990000Y-172670000D02*
X153190000Y-172670000D01*
X153190000Y-172670000D02*
X153190000Y-179520000D01*
X153190000Y-179520000D02*
X143990000Y-179520000D01*
X143990000Y-179520000D02*
X143990000Y-172670000D01*
X169030000Y-134740000D02*
X169030000Y-139590000D01*
X169030000Y-139590000D02*
X176180000Y-139590000D01*
X176180000Y-139590000D02*
X176180000Y-134740000D01*
X176180000Y-134740000D02*
X169030000Y-134740000D01*
X146170000Y-98940000D02*
X151020000Y-98940000D01*
X151020000Y-98940000D02*
X151020000Y-91790000D01*
X151020000Y-91790000D02*
X146170000Y-91790000D01*
X146170000Y-91790000D02*
X146170000Y-98940000D01*
X128150000Y-139580000D02*
X128150000Y-134730000D01*
X128150000Y-134730000D02*
X121000000Y-134730000D01*
X121000000Y-134730000D02*
X121000000Y-139580000D01*
X121000000Y-139580000D02*
X128150000Y-139580000D01*
X155854500Y-153077000D02*
X155854500Y-150477000D01*
X157454500Y-153077000D02*
X157454500Y-150477000D01*
X155854500Y-153077000D02*
X157454500Y-153077000D01*
X155854500Y-150477000D02*
X157454500Y-150477000D01*
X163046500Y-148882000D02*
X160446500Y-148882000D01*
X163046500Y-147282000D02*
X160446500Y-147282000D01*
X163046500Y-148882000D02*
X163046500Y-147282000D01*
X160446500Y-148882000D02*
X160446500Y-147282000D01*
X132816500Y-154465500D02*
X132816500Y-157065500D01*
X131216500Y-154465500D02*
X131216500Y-157065500D01*
X132816500Y-154465500D02*
X131216500Y-154465500D01*
X132816500Y-157065500D02*
X131216500Y-157065500D01*
X146906000Y-121350000D02*
X146906000Y-117950000D01*
X146906000Y-117950000D02*
X150406000Y-117950000D01*
X150406000Y-117950000D02*
X150406000Y-121350000D01*
X150406000Y-121350000D02*
X146906000Y-121350000D01*
X149346500Y-151861000D02*
X149346500Y-150261000D01*
X149346500Y-151861000D02*
X150246500Y-151861000D01*
X150246500Y-150261000D02*
X149346500Y-150261000D01*
X150246500Y-150261000D02*
X150246500Y-151861000D01*
X149446500Y-149029000D02*
X151046500Y-149029000D01*
X149446500Y-149029000D02*
X149446500Y-149929000D01*
X151046500Y-149929000D02*
X151046500Y-149029000D01*
X151046500Y-149929000D02*
X149446500Y-149929000D01*
X160624000Y-141420000D02*
X159024000Y-141420000D01*
X160624000Y-141420000D02*
X160624000Y-140520000D01*
X159024000Y-140520000D02*
X159024000Y-141420000D01*
X159024000Y-140520000D02*
X160624000Y-140520000D01*
X149702000Y-172535000D02*
X148102000Y-172535000D01*
X149702000Y-172535000D02*
X149702000Y-171635000D01*
X148102000Y-171635000D02*
X148102000Y-172535000D01*
X148102000Y-171635000D02*
X149702000Y-171635000D01*
X146335000Y-171635000D02*
X147935000Y-171635000D01*
X146335000Y-171635000D02*
X146335000Y-172535000D01*
X147935000Y-172535000D02*
X147935000Y-171635000D01*
X147935000Y-172535000D02*
X146335000Y-172535000D01*
X151834000Y-123602000D02*
X151834000Y-125202000D01*
X151834000Y-123602000D02*
X150934000Y-123602000D01*
X150934000Y-125202000D02*
X151834000Y-125202000D01*
X150934000Y-125202000D02*
X150934000Y-123602000D01*
X156914000Y-125888000D02*
X156914000Y-127488000D01*
X156914000Y-125888000D02*
X156014000Y-125888000D01*
X156014000Y-127488000D02*
X156914000Y-127488000D01*
X156014000Y-127488000D02*
X156014000Y-125888000D01*
X155644000Y-125888000D02*
X155644000Y-127488000D01*
X155644000Y-125888000D02*
X154744000Y-125888000D01*
X154744000Y-127488000D02*
X155644000Y-127488000D01*
X154744000Y-127488000D02*
X154744000Y-125888000D01*
X157638000Y-122994000D02*
X159238000Y-122994000D01*
X157638000Y-122994000D02*
X157638000Y-123894000D01*
X159238000Y-123894000D02*
X159238000Y-122994000D01*
X159238000Y-123894000D02*
X157638000Y-123894000D01*
X156622000Y-121737999D02*
X158222000Y-121737999D01*
X156622000Y-121737999D02*
X156622000Y-122637999D01*
X158222000Y-122637999D02*
X158222000Y-121737999D01*
X158222000Y-122637999D02*
X156622000Y-122637999D01*
X155506000Y-122270000D02*
X155506000Y-120670000D01*
X155506000Y-122270000D02*
X156406000Y-122270000D01*
X156406000Y-120670000D02*
X155506000Y-120670000D01*
X156406000Y-120670000D02*
X156406000Y-122270000D01*
X154150000Y-122350000D02*
X154150000Y-120750000D01*
X154150000Y-122350000D02*
X155050000Y-122350000D01*
X155050000Y-120750000D02*
X154150000Y-120750000D01*
X155050000Y-120750000D02*
X155050000Y-122350000D01*
X148628000Y-116782000D02*
X147028000Y-116782000D01*
X148628000Y-116782000D02*
X148628000Y-115882000D01*
X147028000Y-115882000D02*
X147028000Y-116782000D01*
X147028000Y-115882000D02*
X148628000Y-115882000D01*
X151734000Y-115258000D02*
X150134000Y-115258000D01*
X151734000Y-115258000D02*
X151734000Y-114358000D01*
X150134000Y-114358000D02*
X150134000Y-115258000D01*
X150134000Y-114358000D02*
X151734000Y-114358000D01*
X151580000Y-111018000D02*
X151580000Y-112618000D01*
X151580000Y-111018000D02*
X150680000Y-111018000D01*
X150680000Y-112618000D02*
X151580000Y-112618000D01*
X150680000Y-112618000D02*
X150680000Y-111018000D01*
X146596000Y-163010000D02*
X144996000Y-163010000D01*
X146596000Y-163010000D02*
X146596000Y-162110000D01*
X144996000Y-162110000D02*
X144996000Y-163010000D01*
X144996000Y-162110000D02*
X146596000Y-162110000D01*
X151988000Y-161867000D02*
X150388000Y-161867000D01*
X151988000Y-161867000D02*
X151988000Y-160967000D01*
X150388000Y-160967000D02*
X150388000Y-161867000D01*
X150388000Y-160967000D02*
X151988000Y-160967000D01*
X151326000Y-157569000D02*
X151326000Y-159169000D01*
X151326000Y-157569000D02*
X150426000Y-157569000D01*
X150426000Y-159169000D02*
X151326000Y-159169000D01*
X150426000Y-159169000D02*
X150426000Y-157569000D01*
X125888000Y-102928000D02*
X127488000Y-102928000D01*
X125888000Y-102928000D02*
X125888000Y-103828000D01*
X127488000Y-103828000D02*
X127488000Y-102928000D01*
X127488000Y-103828000D02*
X125888000Y-103828000D01*
X127350000Y-100780000D02*
X125750000Y-100780000D01*
X127350000Y-100780000D02*
X127350000Y-99880000D01*
X125750000Y-99880000D02*
X125750000Y-100780000D01*
X125750000Y-99880000D02*
X127350000Y-99880000D01*
X171546000Y-100780000D02*
X169946000Y-100780000D01*
X171546000Y-100780000D02*
X171546000Y-99880000D01*
X169946000Y-99880000D02*
X169946000Y-100780000D01*
X169946000Y-99880000D02*
X171546000Y-99880000D01*
X169946000Y-102928000D02*
X171546000Y-102928000D01*
X169946000Y-102928000D02*
X169946000Y-103828000D01*
X171546000Y-103828000D02*
X171546000Y-102928000D01*
X171546000Y-103828000D02*
X169946000Y-103828000D01*
X148775000Y-104305000D02*
X148775000Y-102705000D01*
X148775000Y-104305000D02*
X149675000Y-104305000D01*
X149675000Y-102705000D02*
X148775000Y-102705000D01*
X149675000Y-102705000D02*
X149675000Y-104305000D01*
X146520000Y-102420000D02*
X148120000Y-102420000D01*
X146520000Y-102420000D02*
X146520000Y-103320000D01*
X148120000Y-103320000D02*
X148120000Y-102420000D01*
X148120000Y-103320000D02*
X146520000Y-103320000D01*
X143553500Y-137356000D02*
X141953500Y-137356000D01*
X143553500Y-137356000D02*
X143553500Y-136456000D01*
X141953500Y-136456000D02*
X141953500Y-137356000D01*
X141953500Y-136456000D02*
X143553500Y-136456000D01*
X143548000Y-138816500D02*
X141948000Y-138816500D01*
X143548000Y-138816500D02*
X143548000Y-137916500D01*
X141948000Y-137916500D02*
X141948000Y-138816500D01*
X141948000Y-137916500D02*
X143548000Y-137916500D01*
X148532000Y-131338000D02*
X148532000Y-132938000D01*
X148532000Y-131338000D02*
X147632000Y-131338000D01*
X147632000Y-132938000D02*
X148532000Y-132938000D01*
X147632000Y-132938000D02*
X147632000Y-131338000D01*
X137833000Y-124910000D02*
X136233000Y-124910000D01*
X137833000Y-124910000D02*
X137833000Y-124010000D01*
X136233000Y-124010000D02*
X136233000Y-124910000D01*
X136233000Y-124010000D02*
X137833000Y-124010000D01*
X137827500Y-126751500D02*
X136227500Y-126751500D01*
X137827500Y-126751500D02*
X137827500Y-125851500D01*
X136227500Y-125851500D02*
X136227500Y-126751500D01*
X136227500Y-125851500D02*
X137827500Y-125851500D01*
X137827500Y-128593000D02*
X136227500Y-128593000D01*
X137827500Y-128593000D02*
X137827500Y-127693000D01*
X136227500Y-127693000D02*
X136227500Y-128593000D01*
X136227500Y-127693000D02*
X137827500Y-127693000D01*
X135730500Y-149029000D02*
X137330500Y-149029000D01*
X135730500Y-149029000D02*
X135730500Y-149929000D01*
X137330500Y-149929000D02*
X137330500Y-149029000D01*
X137330500Y-149929000D02*
X135730500Y-149929000D01*
X138869000Y-147866000D02*
X138869000Y-146266000D01*
X138869000Y-147866000D02*
X139769000Y-147866000D01*
X139769000Y-146266000D02*
X138869000Y-146266000D01*
X139769000Y-146266000D02*
X139769000Y-147866000D01*
X141801000Y-154717000D02*
X141801000Y-156317000D01*
X141801000Y-154717000D02*
X140901000Y-154717000D01*
X140901000Y-156317000D02*
X141801000Y-156317000D01*
X140901000Y-156317000D02*
X140901000Y-154717000D01*
X141890000Y-149029000D02*
X143490000Y-149029000D01*
X141890000Y-149029000D02*
X141890000Y-149929000D01*
X143490000Y-149929000D02*
X143490000Y-149029000D01*
X143490000Y-149929000D02*
X141890000Y-149929000D01*
X146817500Y-151034000D02*
X146817500Y-152634000D01*
X146817500Y-151034000D02*
X145917500Y-151034000D01*
X145917500Y-152634000D02*
X146817500Y-152634000D01*
X145917500Y-152634000D02*
X145917500Y-151034000D01*
X138722000Y-148024000D02*
X137122000Y-148024000D01*
X138722000Y-148024000D02*
X138722000Y-147124000D01*
X137122000Y-147124000D02*
X137122000Y-148024000D01*
X137122000Y-147124000D02*
X138722000Y-147124000D01*
X139948500Y-147871500D02*
X139948500Y-146271500D01*
X139948500Y-147871500D02*
X140848500Y-147871500D01*
X140848500Y-146271500D02*
X139948500Y-146271500D01*
X140848500Y-146271500D02*
X140848500Y-147871500D01*
X168035000Y-155690000D02*
X168035000Y-146890000D01*
X168035000Y-146890000D02*
X172585000Y-146890000D01*
X172585000Y-146890000D02*
X172585000Y-149640000D01*
X172585000Y-149640000D02*
X173885000Y-149640000D01*
X173885000Y-149640000D02*
X173885000Y-152940000D01*
X173885000Y-152940000D02*
X172585000Y-152940000D01*
X172585000Y-152940000D02*
X172585000Y-155690000D01*
X172585000Y-155690000D02*
X168035000Y-155690000D01*
X155780000Y-154185000D02*
X155780000Y-149485000D01*
X150480000Y-154185000D02*
X150480000Y-149485000D01*
X155780000Y-154185000D02*
X150480000Y-154185000D01*
X155780000Y-149485000D02*
X150480000Y-149485000D01*
X146732500Y-122356000D02*
X150432500Y-122356000D01*
X150432500Y-122356000D02*
X150432500Y-125556000D01*
X150432500Y-125556000D02*
X146732500Y-125556000D01*
X146732500Y-125556000D02*
X146732500Y-122356000D01*
X137473000Y-148141000D02*
X137473000Y-152341000D01*
X141673000Y-148141000D02*
X141673000Y-152341000D01*
X137473000Y-148141000D02*
X141673000Y-148141000D01*
X137473000Y-152341000D02*
X141673000Y-152341000D01*
X136100000Y-121900000D02*
X136100000Y-123600000D01*
X136100000Y-123600000D02*
X132200000Y-123600000D01*
X132200000Y-123600000D02*
X132200000Y-121900000D01*
X132200000Y-121900000D02*
X136100000Y-121900000D01*
X137800000Y-123200000D02*
X136200000Y-123200000D01*
X137800000Y-123200000D02*
X137800000Y-122300000D01*
X136200000Y-122300000D02*
X136200000Y-123200000D01*
X136200000Y-122300000D02*
X137800000Y-122300000D01*
X145679000Y-111400000D02*
X145679000Y-115600000D01*
X149879000Y-111400000D02*
X149879000Y-115600000D01*
X145679000Y-111400000D02*
X149879000Y-111400000D01*
X145679000Y-115600000D02*
X149879000Y-115600000D01*
X145933000Y-158136000D02*
X145933000Y-162336000D01*
X150133000Y-158136000D02*
X150133000Y-162336000D01*
X145933000Y-158136000D02*
X150133000Y-158136000D01*
X145933000Y-162336000D02*
X150133000Y-162336000D01*
M02*
