M48
;DRILL file {KiCad 4.0.7-e2-6376~58~ubuntu16.04.1} date Mon Apr 30 10:34:39 2018
;FORMAT={2:4/ absolute / inch / suppress leading zeros}
FMAT,2
INCH,TZ
T1C0.012
T2C0.016
T3C0.020
T4C0.022
T5C0.026
T6C0.030
T7C0.039
T8C0.043
T9C0.089
%
G90
G05
M72
T1
X54753Y-58953
X54753Y-59347
X54950Y-59150
X55147Y-58953
X55147Y-59347
X57984Y-44488
X57984Y-44882
X58084Y-62888
X58084Y-63282
X58181Y-44685
X58281Y-63085
X58378Y-44488
X58378Y-44882
X58478Y-62888
X58478Y-63282
T2
X50700Y-55800
X50800Y-38750
X50800Y-39950
X51250Y-54000
X51500Y-61250
X51500Y-62750
X52000Y-55250
X52250Y-52250
X52304Y-55394
X52450Y-62400
X52500Y-59500
X52500Y-60250
X52599Y-55377
X52640Y-60600
X52656Y-56154
X52900Y-55421
X52947Y-56109
X53000Y-62600
X53210Y-55320
X53242Y-56117
X53424Y-54817
X53450Y-53950
X53480Y-59204
X53480Y-59693
X53536Y-56101
X53610Y-56822
X53950Y-53500
X53976Y-57725
X54000Y-51000
X54049Y-56399
X54107Y-53795
X54250Y-60000
X54491Y-60659
X54527Y-50284
X54700Y-55150
X54791Y-51618
X54922Y-46530
X54952Y-51049
X55021Y-51813
X55267Y-45100
X55325Y-55445
X55758Y-57604
X55861Y-55485
X55975Y-52060
X56000Y-53150
X56027Y-64779
X56112Y-51466
X56157Y-64244
X56169Y-62160
X56250Y-49500
X56299Y-50245
X56346Y-44293
X56374Y-51722
X56377Y-62898
X56524Y-44056
X56579Y-45534
X56582Y-64595
X56589Y-62692
X56614Y-44628
X56700Y-55800
X56706Y-51458
X56793Y-43935
X56796Y-58862
X56847Y-56653
X56850Y-53050
X56864Y-64509
X56872Y-51871
X56886Y-45339
X56900Y-58200
X57074Y-57621
X57082Y-63628
X57082Y-50429
X57119Y-51388
X57126Y-44256
X57247Y-50156
X57250Y-67750
X57286Y-62631
X57291Y-63183
X57300Y-41200
X57408Y-54293
X57414Y-54876
X57460Y-58400
X57460Y-64713
X57494Y-47727
X57550Y-59150
X57605Y-45901
X57606Y-54518
X57607Y-51842
X57617Y-50549
X57650Y-46222
X57683Y-53476
X57833Y-57436
X57904Y-58760
X57904Y-49466
X57955Y-58169
X58000Y-65250
X58013Y-46837
X58065Y-47127
X58100Y-64100
X58121Y-57891
X58153Y-54017
X58200Y-48052
X58316Y-51858
X58321Y-50189
X58352Y-55099
X58353Y-53373
X58391Y-47061
X58463Y-54355
X58473Y-48767
X58514Y-60706
X58545Y-54875
X58570Y-58489
X58614Y-62115
X58618Y-53618
X58648Y-60026
X58654Y-41774
X58703Y-43433
X58765Y-54391
X58775Y-41238
X58786Y-57583
X58799Y-54725
X58806Y-60600
X58887Y-64252
X58900Y-48100
X58921Y-49976
X58956Y-56953
X58976Y-45910
X58980Y-49395
X59045Y-49709
X59045Y-55559
X59049Y-43782
X59100Y-59950
X59140Y-67750
X59154Y-44360
X59235Y-54530
X59250Y-39250
X59280Y-50440
X59286Y-48902
X59340Y-49520
X59412Y-46813
X59442Y-55555
X59476Y-54253
X59477Y-53759
X59500Y-61000
X59566Y-58432
X59620Y-63980
X59668Y-61854
X59691Y-51530
X59700Y-60750
X59711Y-47169
X59716Y-43527
X59727Y-62788
X59807Y-43196
X59849Y-41852
X59868Y-64143
X59875Y-63059
X59890Y-44712
X59925Y-61364
X60000Y-39250
X60005Y-47872
X60072Y-63278
X60125Y-50462
X60146Y-64658
X60219Y-46898
X60242Y-63673
X60276Y-62796
X60336Y-49012
X60455Y-44352
X60517Y-49249
X60541Y-48006
X60541Y-50493
X60595Y-49546
X60616Y-43866
X60650Y-49960
X60664Y-48517
X60748Y-47265
X60750Y-52250
X60830Y-53874
X60854Y-49404
X60863Y-57811
X61000Y-44550
X61009Y-45851
X61038Y-63723
X61127Y-56150
X61155Y-44073
X61168Y-44796
X61169Y-66696
X61206Y-47276
X61235Y-53316
X61265Y-53691
X61357Y-63289
X61410Y-49481
X61419Y-41670
X61436Y-48272
X61500Y-47250
X61534Y-57568
X61621Y-66022
X61750Y-46750
X61750Y-60500
X61784Y-55067
X61797Y-47768
X61964Y-49401
X61973Y-58911
X62031Y-49688
X62077Y-57272
X62210Y-49923
X62252Y-48932
X62335Y-52415
X62379Y-46612
X62489Y-47252
X62500Y-61000
X62532Y-52725
X62947Y-58259
X63045Y-52195
X63150Y-54600
X63343Y-51630
X63350Y-57000
X63351Y-55145
X63398Y-56065
X63492Y-46831
X63906Y-49500
X64050Y-57450
X64123Y-57935
X64285Y-57267
X64480Y-56400
X64858Y-57812
X65950Y-58400
X66250Y-39000
X66250Y-40000
T5
X50000Y-53500
X50000Y-54000
X50000Y-54500
X54000Y-38750
X54500Y-38750
X55000Y-38750
X58000Y-38500
X58500Y-38500
X59000Y-38500
X62000Y-38750
X62500Y-38750
X63000Y-38750
X67000Y-53500
X67000Y-54000
X67000Y-54500
T6
X52000Y-39200
X52779Y-38421
X54115Y-42265
X54115Y-45415
X54115Y-64765
X54115Y-67915
X54617Y-41037
X56287Y-42708
X60665Y-42708
X62335Y-41037
X62815Y-42265
X62815Y-45415
X62815Y-64765
X62815Y-67915
X64173Y-38421
X64952Y-39200
T7
X56500Y-65750
X56500Y-66750
X57500Y-65750
X57500Y-66750
X58500Y-65750
X58500Y-66750
X59500Y-65750
X59500Y-66750
X60500Y-65750
X60500Y-66750
T8
X50000Y-58500
X50000Y-59500
T9
X49784Y-41478
X49784Y-46202
X49784Y-63978
X49784Y-68702
X52146Y-41478
X52146Y-46202
X52146Y-63978
X52146Y-68702
X64784Y-41478
X64784Y-46202
X64784Y-63978
X64784Y-68702
X67146Y-41478
X67146Y-46202
X67146Y-63978
X67146Y-68702
T3
X57122Y-69659G85X57122Y-69404
G05
X59878Y-69659G85X59878Y-69404
G05
T4
X57457Y-68469G85X57575Y-68469
G05
X59425Y-68469G85X59543Y-68469
G05
T0
M30
