G04 #@! TF.FileFunction,Other,Fab,Top*
%FSLAX46Y46*%
G04 Gerber Fmt 4.6, Leading zero omitted, Abs format (unit mm)*
G04 Created by KiCad (PCBNEW 4.0.7-e2-6376~58~ubuntu16.04.1) date Mon Apr 16 03:05:43 2018*
%MOMM*%
%LPD*%
G01*
G04 APERTURE LIST*
%ADD10C,0.100000*%
%ADD11C,0.150000*%
%ADD12C,0.075000*%
G04 APERTURE END LIST*
D10*
X150636100Y-103733600D02*
X152541100Y-103733600D01*
X152541100Y-103733600D02*
X152541100Y-111353600D01*
X152541100Y-111353600D02*
X150001100Y-111353600D01*
X150001100Y-111353600D02*
X150001100Y-104368600D01*
X150001100Y-104368600D02*
X150636100Y-103733600D01*
X148181100Y-104683600D02*
X150001100Y-104683600D01*
X148181100Y-104683600D02*
X148181100Y-105323600D01*
X148181100Y-105323600D02*
X150001100Y-105323600D01*
X152541100Y-104683600D02*
X158541100Y-104683600D01*
X158541100Y-104683600D02*
X158541100Y-105323600D01*
X152541100Y-105323600D02*
X158541100Y-105323600D01*
X148181100Y-107223600D02*
X150001100Y-107223600D01*
X148181100Y-107223600D02*
X148181100Y-107863600D01*
X148181100Y-107863600D02*
X150001100Y-107863600D01*
X152541100Y-107223600D02*
X158541100Y-107223600D01*
X158541100Y-107223600D02*
X158541100Y-107863600D01*
X152541100Y-107863600D02*
X158541100Y-107863600D01*
X148181100Y-109763600D02*
X150001100Y-109763600D01*
X148181100Y-109763600D02*
X148181100Y-110403600D01*
X148181100Y-110403600D02*
X150001100Y-110403600D01*
X152541100Y-109763600D02*
X158541100Y-109763600D01*
X158541100Y-109763600D02*
X158541100Y-110403600D01*
X152541100Y-110403600D02*
X158541100Y-110403600D01*
X143460000Y-108536000D02*
X143010000Y-108086000D01*
X143010000Y-106776000D02*
X143010000Y-108086000D01*
X143460000Y-108536000D02*
X145910000Y-108536000D01*
X145910000Y-106776000D02*
X145910000Y-108536000D01*
X143010000Y-106776000D02*
X145910000Y-106776000D01*
X144280000Y-104898000D02*
X144280000Y-104398000D01*
X145280000Y-104898000D02*
X144280000Y-104898000D01*
X145280000Y-104398000D02*
X145280000Y-104898000D01*
X144280000Y-104398000D02*
X145280000Y-104398000D01*
D11*
X149148005Y-112710743D02*
X149100386Y-112758362D01*
X148957529Y-112805981D01*
X148862291Y-112805981D01*
X148719433Y-112758362D01*
X148624195Y-112663124D01*
X148576576Y-112567886D01*
X148528957Y-112377410D01*
X148528957Y-112234552D01*
X148576576Y-112044076D01*
X148624195Y-111948838D01*
X148719433Y-111853600D01*
X148862291Y-111805981D01*
X148957529Y-111805981D01*
X149100386Y-111853600D01*
X149148005Y-111901219D01*
X149719433Y-112805981D02*
X149624195Y-112758362D01*
X149576576Y-112710743D01*
X149528957Y-112615505D01*
X149528957Y-112329790D01*
X149576576Y-112234552D01*
X149624195Y-112186933D01*
X149719433Y-112139314D01*
X149862291Y-112139314D01*
X149957529Y-112186933D01*
X150005148Y-112234552D01*
X150052767Y-112329790D01*
X150052767Y-112615505D01*
X150005148Y-112710743D01*
X149957529Y-112758362D01*
X149862291Y-112805981D01*
X149719433Y-112805981D01*
X150481338Y-112139314D02*
X150481338Y-112805981D01*
X150481338Y-112234552D02*
X150528957Y-112186933D01*
X150624195Y-112139314D01*
X150767053Y-112139314D01*
X150862291Y-112186933D01*
X150909910Y-112282171D01*
X150909910Y-112805981D01*
X151386100Y-112139314D02*
X151386100Y-112805981D01*
X151386100Y-112234552D02*
X151433719Y-112186933D01*
X151528957Y-112139314D01*
X151671815Y-112139314D01*
X151767053Y-112186933D01*
X151814672Y-112282171D01*
X151814672Y-112805981D01*
X152052767Y-112901219D02*
X152814672Y-112901219D01*
X153243243Y-111805981D02*
X153338482Y-111805981D01*
X153433720Y-111853600D01*
X153481339Y-111901219D01*
X153528958Y-111996457D01*
X153576577Y-112186933D01*
X153576577Y-112425029D01*
X153528958Y-112615505D01*
X153481339Y-112710743D01*
X153433720Y-112758362D01*
X153338482Y-112805981D01*
X153243243Y-112805981D01*
X153148005Y-112758362D01*
X153100386Y-112710743D01*
X153052767Y-112615505D01*
X153005148Y-112425029D01*
X153005148Y-112186933D01*
X153052767Y-111996457D01*
X153100386Y-111901219D01*
X153148005Y-111853600D01*
X153243243Y-111805981D01*
X154528958Y-112805981D02*
X153957529Y-112805981D01*
X154243243Y-112805981D02*
X154243243Y-111805981D01*
X154148005Y-111948838D01*
X154052767Y-112044076D01*
X153957529Y-112091695D01*
X154862291Y-112805981D02*
X155386101Y-112139314D01*
X154862291Y-112139314D02*
X155386101Y-112805981D01*
X155957529Y-111805981D02*
X156052768Y-111805981D01*
X156148006Y-111853600D01*
X156195625Y-111901219D01*
X156243244Y-111996457D01*
X156290863Y-112186933D01*
X156290863Y-112425029D01*
X156243244Y-112615505D01*
X156195625Y-112710743D01*
X156148006Y-112758362D01*
X156052768Y-112805981D01*
X155957529Y-112805981D01*
X155862291Y-112758362D01*
X155814672Y-112710743D01*
X155767053Y-112615505D01*
X155719434Y-112425029D01*
X155719434Y-112186933D01*
X155767053Y-111996457D01*
X155814672Y-111901219D01*
X155862291Y-111853600D01*
X155957529Y-111805981D01*
X156624196Y-111805981D02*
X157243244Y-111805981D01*
X156909910Y-112186933D01*
X157052768Y-112186933D01*
X157148006Y-112234552D01*
X157195625Y-112282171D01*
X157243244Y-112377410D01*
X157243244Y-112615505D01*
X157195625Y-112710743D01*
X157148006Y-112758362D01*
X157052768Y-112805981D01*
X156767053Y-112805981D01*
X156671815Y-112758362D01*
X156624196Y-112710743D01*
X150723481Y-107876933D02*
X151437767Y-107876933D01*
X151580624Y-107924553D01*
X151675862Y-108019791D01*
X151723481Y-108162648D01*
X151723481Y-108257886D01*
X151723481Y-106876933D02*
X151723481Y-107448362D01*
X151723481Y-107162648D02*
X150723481Y-107162648D01*
X150866338Y-107257886D01*
X150961576Y-107353124D01*
X151009195Y-107448362D01*
X147507619Y-111036952D02*
X147460000Y-111132190D01*
X147364762Y-111227428D01*
X147221905Y-111370285D01*
X147174286Y-111465524D01*
X147174286Y-111560762D01*
X147412381Y-111513143D02*
X147364762Y-111608381D01*
X147269524Y-111703619D01*
X147079048Y-111751238D01*
X146745714Y-111751238D01*
X146555238Y-111703619D01*
X146460000Y-111608381D01*
X146412381Y-111513143D01*
X146412381Y-111322666D01*
X146460000Y-111227428D01*
X146555238Y-111132190D01*
X146745714Y-111084571D01*
X147079048Y-111084571D01*
X147269524Y-111132190D01*
X147364762Y-111227428D01*
X147412381Y-111322666D01*
X147412381Y-111513143D01*
X147507619Y-110894095D02*
X147507619Y-110132190D01*
X147412381Y-109894095D02*
X146412381Y-109894095D01*
X147412381Y-109322666D01*
X146412381Y-109322666D01*
X147412381Y-108846476D02*
X146412381Y-108846476D01*
X146412381Y-108465523D01*
X146460000Y-108370285D01*
X146507619Y-108322666D01*
X146602857Y-108275047D01*
X146745714Y-108275047D01*
X146840952Y-108322666D01*
X146888571Y-108370285D01*
X146936190Y-108465523D01*
X146936190Y-108846476D01*
X147412381Y-107846476D02*
X146412381Y-107846476D01*
X147412381Y-107275047D01*
X146412381Y-107275047D01*
X147507619Y-107036952D02*
X147507619Y-106275047D01*
X146888571Y-105703618D02*
X146936190Y-105560761D01*
X146983810Y-105513142D01*
X147079048Y-105465523D01*
X147221905Y-105465523D01*
X147317143Y-105513142D01*
X147364762Y-105560761D01*
X147412381Y-105655999D01*
X147412381Y-106036952D01*
X146412381Y-106036952D01*
X146412381Y-105703618D01*
X146460000Y-105608380D01*
X146507619Y-105560761D01*
X146602857Y-105513142D01*
X146698095Y-105513142D01*
X146793333Y-105560761D01*
X146840952Y-105608380D01*
X146888571Y-105703618D01*
X146888571Y-106036952D01*
X146888571Y-105036952D02*
X146888571Y-104703618D01*
X147412381Y-104560761D02*
X147412381Y-105036952D01*
X146412381Y-105036952D01*
X146412381Y-104560761D01*
X147317143Y-103560761D02*
X147364762Y-103608380D01*
X147412381Y-103751237D01*
X147412381Y-103846475D01*
X147364762Y-103989333D01*
X147269524Y-104084571D01*
X147174286Y-104132190D01*
X146983810Y-104179809D01*
X146840952Y-104179809D01*
X146650476Y-104132190D01*
X146555238Y-104084571D01*
X146460000Y-103989333D01*
X146412381Y-103846475D01*
X146412381Y-103751237D01*
X146460000Y-103608380D01*
X146507619Y-103560761D01*
D12*
X144412381Y-107929810D02*
X144364762Y-107906000D01*
X144317143Y-107858381D01*
X144245714Y-107786952D01*
X144198095Y-107763143D01*
X144150476Y-107763143D01*
X144174286Y-107882190D02*
X144126667Y-107858381D01*
X144079048Y-107810762D01*
X144055238Y-107715524D01*
X144055238Y-107548857D01*
X144079048Y-107453619D01*
X144126667Y-107406000D01*
X144174286Y-107382190D01*
X144269524Y-107382190D01*
X144317143Y-107406000D01*
X144364762Y-107453619D01*
X144388571Y-107548857D01*
X144388571Y-107715524D01*
X144364762Y-107810762D01*
X144317143Y-107858381D01*
X144269524Y-107882190D01*
X144174286Y-107882190D01*
X144864762Y-107882190D02*
X144579048Y-107882190D01*
X144721905Y-107882190D02*
X144721905Y-107382190D01*
X144674286Y-107453619D01*
X144626667Y-107501238D01*
X144579048Y-107525048D01*
D11*
X144494286Y-105645619D02*
X144541905Y-105598000D01*
X144637143Y-105550381D01*
X144875239Y-105550381D01*
X144970477Y-105598000D01*
X145018096Y-105645619D01*
X145065715Y-105740857D01*
X145065715Y-105836095D01*
X145018096Y-105978952D01*
X144446667Y-106550381D01*
X145065715Y-106550381D01*
X144613334Y-103750381D02*
X144280000Y-103274190D01*
X144041905Y-103750381D02*
X144041905Y-102750381D01*
X144422858Y-102750381D01*
X144518096Y-102798000D01*
X144565715Y-102845619D01*
X144613334Y-102940857D01*
X144613334Y-103083714D01*
X144565715Y-103178952D01*
X144518096Y-103226571D01*
X144422858Y-103274190D01*
X144041905Y-103274190D01*
X145565715Y-103750381D02*
X144994286Y-103750381D01*
X145280000Y-103750381D02*
X145280000Y-102750381D01*
X145184762Y-102893238D01*
X145089524Y-102988476D01*
X144994286Y-103036095D01*
M02*
